<?xml version="1.0" encoding="utf-8" standalone="no"?>
<!DOCTYPE svg PUBLIC "-//W3C//DTD SVG 1.1//EN"
  "http://www.w3.org/Graphics/SVG/1.1/DTD/svg11.dtd">
<!-- Created with matplotlib (https://matplotlib.org/) -->
<svg height="288pt" version="1.1" viewBox="0 0 432 288" width="432pt" xmlns="http://www.w3.org/2000/svg" xmlns:xlink="http://www.w3.org/1999/xlink">
 <metadata>
  <rdf:RDF xmlns:cc="http://creativecommons.org/ns#" xmlns:dc="http://purl.org/dc/elements/1.1/" xmlns:rdf="http://www.w3.org/1999/02/22-rdf-syntax-ns#">
   <cc:Work>
    <dc:type rdf:resource="http://purl.org/dc/dcmitype/StillImage"/>
    <dc:date>2020-10-06T13:15:36.341555</dc:date>
    <dc:format>image/svg+xml</dc:format>
    <dc:creator>
     <cc:Agent>
      <dc:title>Matplotlib v3.3.1, https://matplotlib.org/</dc:title>
     </cc:Agent>
    </dc:creator>
   </cc:Work>
  </rdf:RDF>
 </metadata>
 <defs>
  <style type="text/css">*{stroke-linecap:butt;stroke-linejoin:round;}</style>
 </defs>
 <g id="figure_1">
  <g id="patch_1">
   <path d="M 0 288 
L 432 288 
L 432 0 
L 0 0 
z
" style="fill:none;"/>
  </g>
  <g id="axes_1">
   <g id="patch_2">
    <path d="M 54 252 
L 388.8 252 
L 388.8 34.56 
L 54 34.56 
z
" style="fill:#ffffff;"/>
   </g>
   <g id="PathCollection_1">
    <defs>
     <path d="M 0 3 
C 0.795609 3 1.55874 2.683901 2.12132 2.12132 
C 2.683901 1.55874 3 0.795609 3 0 
C 3 -0.795609 2.683901 -1.55874 2.12132 -2.12132 
C 1.55874 -2.683901 0.795609 -3 0 -3 
C -0.795609 -3 -1.55874 -2.683901 -2.12132 -2.12132 
C -2.683901 -1.55874 -3 -0.795609 -3 0 
C -3 0.795609 -2.683901 1.55874 -2.12132 2.12132 
C -1.55874 2.683901 -0.795609 3 0 3 
z
" id="m59a714c128" style="stroke:#1f77b4;"/>
    </defs>
    <g clip-path="url(#pb0ef37c782)">
     <use style="fill:#1f77b4;stroke:#1f77b4;" x="69.218182" xlink:href="#m59a714c128" y="202.235024"/>
     <use style="fill:#1f77b4;stroke:#1f77b4;" x="72.261818" xlink:href="#m59a714c128" y="198.767081"/>
     <use style="fill:#1f77b4;stroke:#1f77b4;" x="75.305455" xlink:href="#m59a714c128" y="221.308708"/>
     <use style="fill:#1f77b4;stroke:#1f77b4;" x="78.349091" xlink:href="#m59a714c128" y="167.555598"/>
     <use style="fill:#1f77b4;stroke:#1f77b4;" x="81.392727" xlink:href="#m59a714c128" y="171.023541"/>
     <use style="fill:#1f77b4;stroke:#1f77b4;" x="84.436364" xlink:href="#m59a714c128" y="145.013971"/>
     <use style="fill:#1f77b4;stroke:#1f77b4;" x="87.48" xlink:href="#m59a714c128" y="210.90488"/>
     <use style="fill:#1f77b4;stroke:#1f77b4;" x="90.523636" xlink:href="#m59a714c128" y="197.03311"/>
     <use style="fill:#1f77b4;stroke:#1f77b4;" x="93.567273" xlink:href="#m59a714c128" y="198.767081"/>
     <use style="fill:#1f77b4;stroke:#1f77b4;" x="96.610909" xlink:href="#m59a714c128" y="205.702967"/>
     <use style="fill:#1f77b4;stroke:#1f77b4;" x="99.654545" xlink:href="#m59a714c128" y="176.225455"/>
     <use style="fill:#1f77b4;stroke:#1f77b4;" x="102.698182" xlink:href="#m59a714c128" y="176.225455"/>
     <use style="fill:#1f77b4;stroke:#1f77b4;" x="105.741818" xlink:href="#m59a714c128" y="223.042679"/>
     <use style="fill:#1f77b4;stroke:#1f77b4;" x="108.785455" xlink:href="#m59a714c128" y="205.702967"/>
     <use style="fill:#1f77b4;stroke:#1f77b4;" x="111.829091" xlink:href="#m59a714c128" y="195.299139"/>
     <use style="fill:#1f77b4;stroke:#1f77b4;" x="114.872727" xlink:href="#m59a714c128" y="160.619713"/>
     <use style="fill:#1f77b4;stroke:#1f77b4;" x="117.916364" xlink:href="#m59a714c128" y="203.968995"/>
     <use style="fill:#1f77b4;stroke:#1f77b4;" x="120.96" xlink:href="#m59a714c128" y="197.03311"/>
     <use style="fill:#1f77b4;stroke:#1f77b4;" x="124.003636" xlink:href="#m59a714c128" y="174.491483"/>
     <use style="fill:#1f77b4;stroke:#1f77b4;" x="127.047273" xlink:href="#m59a714c128" y="200.501053"/>
     <use style="fill:#1f77b4;stroke:#1f77b4;" x="130.090909" xlink:href="#m59a714c128" y="210.90488"/>
     <use style="fill:#1f77b4;stroke:#1f77b4;" x="133.134545" xlink:href="#m59a714c128" y="209.170909"/>
     <use style="fill:#1f77b4;stroke:#1f77b4;" x="136.178182" xlink:href="#m59a714c128" y="164.087656"/>
     <use style="fill:#1f77b4;stroke:#1f77b4;" x="139.221818" xlink:href="#m59a714c128" y="150.215885"/>
     <use style="fill:#1f77b4;stroke:#1f77b4;" x="142.265455" xlink:href="#m59a714c128" y="235.180478"/>
     <use style="fill:#1f77b4;stroke:#1f77b4;" x="145.309091" xlink:href="#m59a714c128" y="219.574737"/>
     <use style="fill:#1f77b4;stroke:#1f77b4;" x="148.352727" xlink:href="#m59a714c128" y="202.235024"/>
     <use style="fill:#1f77b4;stroke:#1f77b4;" x="151.396364" xlink:href="#m59a714c128" y="169.289569"/>
     <use style="fill:#1f77b4;stroke:#1f77b4;" x="154.44" xlink:href="#m59a714c128" y="202.235024"/>
     <use style="fill:#1f77b4;stroke:#1f77b4;" x="157.483636" xlink:href="#m59a714c128" y="165.821627"/>
     <use style="fill:#1f77b4;stroke:#1f77b4;" x="160.527273" xlink:href="#m59a714c128" y="184.895311"/>
     <use style="fill:#1f77b4;stroke:#1f77b4;" x="163.570909" xlink:href="#m59a714c128" y="207.436938"/>
     <use style="fill:#1f77b4;stroke:#1f77b4;" x="166.614545" xlink:href="#m59a714c128" y="179.693397"/>
     <use style="fill:#1f77b4;stroke:#1f77b4;" x="169.658182" xlink:href="#m59a714c128" y="186.629282"/>
     <use style="fill:#1f77b4;stroke:#1f77b4;" x="172.701818" xlink:href="#m59a714c128" y="212.638852"/>
     <use style="fill:#1f77b4;stroke:#1f77b4;" x="175.745455" xlink:href="#m59a714c128" y="169.289569"/>
     <use style="fill:#1f77b4;stroke:#1f77b4;" x="178.789091" xlink:href="#m59a714c128" y="221.308708"/>
     <use style="fill:#1f77b4;stroke:#1f77b4;" x="181.832727" xlink:href="#m59a714c128" y="193.565167"/>
     <use style="fill:#1f77b4;stroke:#1f77b4;" x="184.876364" xlink:href="#m59a714c128" y="209.170909"/>
     <use style="fill:#1f77b4;stroke:#1f77b4;" x="187.92" xlink:href="#m59a714c128" y="179.693397"/>
     <use style="fill:#1f77b4;stroke:#1f77b4;" x="190.963636" xlink:href="#m59a714c128" y="198.767081"/>
     <use style="fill:#1f77b4;stroke:#1f77b4;" x="194.007273" xlink:href="#m59a714c128" y="197.03311"/>
     <use style="fill:#1f77b4;stroke:#1f77b4;" x="197.050909" xlink:href="#m59a714c128" y="191.831196"/>
     <use style="fill:#1f77b4;stroke:#1f77b4;" x="200.094545" xlink:href="#m59a714c128" y="169.289569"/>
     <use style="fill:#1f77b4;stroke:#1f77b4;" x="203.138182" xlink:href="#m59a714c128" y="181.427368"/>
     <use style="fill:#1f77b4;stroke:#1f77b4;" x="206.181818" xlink:href="#m59a714c128" y="164.087656"/>
     <use style="fill:#1f77b4;stroke:#1f77b4;" x="209.225455" xlink:href="#m59a714c128" y="195.299139"/>
     <use style="fill:#1f77b4;stroke:#1f77b4;" x="212.269091" xlink:href="#m59a714c128" y="162.353684"/>
     <use style="fill:#1f77b4;stroke:#1f77b4;" x="215.312727" xlink:href="#m59a714c128" y="183.16134"/>
     <use style="fill:#1f77b4;stroke:#1f77b4;" x="218.356364" xlink:href="#m59a714c128" y="221.308708"/>
     <use style="fill:#1f77b4;stroke:#1f77b4;" x="221.4" xlink:href="#m59a714c128" y="145.013971"/>
     <use style="fill:#1f77b4;stroke:#1f77b4;" x="224.443636" xlink:href="#m59a714c128" y="127.674258"/>
     <use style="fill:#1f77b4;stroke:#1f77b4;" x="227.487273" xlink:href="#m59a714c128" y="200.501053"/>
     <use style="fill:#1f77b4;stroke:#1f77b4;" x="230.530909" xlink:href="#m59a714c128" y="200.501053"/>
     <use style="fill:#1f77b4;stroke:#1f77b4;" x="233.574545" xlink:href="#m59a714c128" y="197.03311"/>
     <use style="fill:#1f77b4;stroke:#1f77b4;" x="236.618182" xlink:href="#m59a714c128" y="174.491483"/>
     <use style="fill:#1f77b4;stroke:#1f77b4;" x="239.661818" xlink:href="#m59a714c128" y="198.767081"/>
     <use style="fill:#1f77b4;stroke:#1f77b4;" x="242.705455" xlink:href="#m59a714c128" y="212.638852"/>
     <use style="fill:#1f77b4;stroke:#1f77b4;" x="245.749091" xlink:href="#m59a714c128" y="183.16134"/>
     <use style="fill:#1f77b4;stroke:#1f77b4;" x="248.792727" xlink:href="#m59a714c128" y="176.225455"/>
     <use style="fill:#1f77b4;stroke:#1f77b4;" x="251.836364" xlink:href="#m59a714c128" y="207.436938"/>
     <use style="fill:#1f77b4;stroke:#1f77b4;" x="254.88" xlink:href="#m59a714c128" y="198.767081"/>
     <use style="fill:#1f77b4;stroke:#1f77b4;" x="257.923636" xlink:href="#m59a714c128" y="221.308708"/>
     <use style="fill:#1f77b4;stroke:#1f77b4;" x="260.967273" xlink:href="#m59a714c128" y="219.574737"/>
     <use style="fill:#1f77b4;stroke:#1f77b4;" x="264.010909" xlink:href="#m59a714c128" y="115.536459"/>
     <use style="fill:#1f77b4;stroke:#1f77b4;" x="267.054545" xlink:href="#m59a714c128" y="200.501053"/>
     <use style="fill:#1f77b4;stroke:#1f77b4;" x="270.098182" xlink:href="#m59a714c128" y="193.565167"/>
     <use style="fill:#1f77b4;stroke:#1f77b4;" x="273.141818" xlink:href="#m59a714c128" y="198.767081"/>
     <use style="fill:#1f77b4;stroke:#1f77b4;" x="276.185455" xlink:href="#m59a714c128" y="205.702967"/>
     <use style="fill:#1f77b4;stroke:#1f77b4;" x="279.229091" xlink:href="#m59a714c128" y="217.840766"/>
     <use style="fill:#1f77b4;stroke:#1f77b4;" x="282.272727" xlink:href="#m59a714c128" y="177.959426"/>
     <use style="fill:#1f77b4;stroke:#1f77b4;" x="285.316364" xlink:href="#m59a714c128" y="209.170909"/>
     <use style="fill:#1f77b4;stroke:#1f77b4;" x="288.36" xlink:href="#m59a714c128" y="200.501053"/>
     <use style="fill:#1f77b4;stroke:#1f77b4;" x="291.403636" xlink:href="#m59a714c128" y="198.767081"/>
     <use style="fill:#1f77b4;stroke:#1f77b4;" x="294.447273" xlink:href="#m59a714c128" y="202.235024"/>
     <use style="fill:#1f77b4;stroke:#1f77b4;" x="297.490909" xlink:href="#m59a714c128" y="207.436938"/>
     <use style="fill:#1f77b4;stroke:#1f77b4;" x="300.534545" xlink:href="#m59a714c128" y="207.436938"/>
     <use style="fill:#1f77b4;stroke:#1f77b4;" x="303.578182" xlink:href="#m59a714c128" y="174.491483"/>
     <use style="fill:#1f77b4;stroke:#1f77b4;" x="306.621818" xlink:href="#m59a714c128" y="190.097225"/>
     <use style="fill:#1f77b4;stroke:#1f77b4;" x="309.665455" xlink:href="#m59a714c128" y="177.959426"/>
     <use style="fill:#1f77b4;stroke:#1f77b4;" x="312.709091" xlink:href="#m59a714c128" y="190.097225"/>
     <use style="fill:#1f77b4;stroke:#1f77b4;" x="315.752727" xlink:href="#m59a714c128" y="188.363254"/>
     <use style="fill:#1f77b4;stroke:#1f77b4;" x="318.796364" xlink:href="#m59a714c128" y="219.574737"/>
     <use style="fill:#1f77b4;stroke:#1f77b4;" x="321.84" xlink:href="#m59a714c128" y="190.097225"/>
     <use style="fill:#1f77b4;stroke:#1f77b4;" x="324.883636" xlink:href="#m59a714c128" y="190.097225"/>
     <use style="fill:#1f77b4;stroke:#1f77b4;" x="327.927273" xlink:href="#m59a714c128" y="160.619713"/>
     <use style="fill:#1f77b4;stroke:#1f77b4;" x="330.970909" xlink:href="#m59a714c128" y="195.299139"/>
     <use style="fill:#1f77b4;stroke:#1f77b4;" x="334.014545" xlink:href="#m59a714c128" y="205.702967"/>
     <use style="fill:#1f77b4;stroke:#1f77b4;" x="337.058182" xlink:href="#m59a714c128" y="197.03311"/>
     <use style="fill:#1f77b4;stroke:#1f77b4;" x="340.101818" xlink:href="#m59a714c128" y="188.363254"/>
     <use style="fill:#1f77b4;stroke:#1f77b4;" x="343.145455" xlink:href="#m59a714c128" y="193.565167"/>
     <use style="fill:#1f77b4;stroke:#1f77b4;" x="346.189091" xlink:href="#m59a714c128" y="169.289569"/>
     <use style="fill:#1f77b4;stroke:#1f77b4;" x="349.232727" xlink:href="#m59a714c128" y="183.16134"/>
     <use style="fill:#1f77b4;stroke:#1f77b4;" x="352.276364" xlink:href="#m59a714c128" y="200.501053"/>
     <use style="fill:#1f77b4;stroke:#1f77b4;" x="355.32" xlink:href="#m59a714c128" y="150.215885"/>
     <use style="fill:#1f77b4;stroke:#1f77b4;" x="358.363636" xlink:href="#m59a714c128" y="197.03311"/>
     <use style="fill:#1f77b4;stroke:#1f77b4;" x="361.407273" xlink:href="#m59a714c128" y="216.106794"/>
     <use style="fill:#1f77b4;stroke:#1f77b4;" x="364.450909" xlink:href="#m59a714c128" y="191.831196"/>
     <use style="fill:#1f77b4;stroke:#1f77b4;" x="367.494545" xlink:href="#m59a714c128" y="207.436938"/>
     <use style="fill:#1f77b4;stroke:#1f77b4;" x="370.538182" xlink:href="#m59a714c128" y="179.693397"/>
    </g>
   </g>
   <g id="PathCollection_2">
    <defs>
     <path d="M 0 3 
C 0.795609 3 1.55874 2.683901 2.12132 2.12132 
C 2.683901 1.55874 3 0.795609 3 0 
C 3 -0.795609 2.683901 -1.55874 2.12132 -2.12132 
C 1.55874 -2.683901 0.795609 -3 0 -3 
C -0.795609 -3 -1.55874 -2.683901 -2.12132 -2.12132 
C -2.683901 -1.55874 -3 -0.795609 -3 0 
C -3 0.795609 -2.683901 1.55874 -2.12132 2.12132 
C -1.55874 2.683901 -0.795609 3 0 3 
z
" id="m81e3a203d8" style="stroke:#ff7f0e;"/>
    </defs>
    <g clip-path="url(#pb0ef37c782)">
     <use style="fill:#ff7f0e;stroke:#ff7f0e;" x="69.218182" xlink:href="#m81e3a203d8" y="240.382392"/>
     <use style="fill:#ff7f0e;stroke:#ff7f0e;" x="72.261818" xlink:href="#m81e3a203d8" y="242.116364"/>
     <use style="fill:#ff7f0e;stroke:#ff7f0e;" x="75.305455" xlink:href="#m81e3a203d8" y="242.116364"/>
     <use style="fill:#ff7f0e;stroke:#ff7f0e;" x="78.349091" xlink:href="#m81e3a203d8" y="240.382392"/>
     <use style="fill:#ff7f0e;stroke:#ff7f0e;" x="81.392727" xlink:href="#m81e3a203d8" y="242.116364"/>
     <use style="fill:#ff7f0e;stroke:#ff7f0e;" x="84.436364" xlink:href="#m81e3a203d8" y="242.116364"/>
     <use style="fill:#ff7f0e;stroke:#ff7f0e;" x="87.48" xlink:href="#m81e3a203d8" y="242.116364"/>
     <use style="fill:#ff7f0e;stroke:#ff7f0e;" x="90.523636" xlink:href="#m81e3a203d8" y="242.116364"/>
     <use style="fill:#ff7f0e;stroke:#ff7f0e;" x="93.567273" xlink:href="#m81e3a203d8" y="238.648421"/>
     <use style="fill:#ff7f0e;stroke:#ff7f0e;" x="96.610909" xlink:href="#m81e3a203d8" y="242.116364"/>
     <use style="fill:#ff7f0e;stroke:#ff7f0e;" x="99.654545" xlink:href="#m81e3a203d8" y="242.116364"/>
     <use style="fill:#ff7f0e;stroke:#ff7f0e;" x="102.698182" xlink:href="#m81e3a203d8" y="231.712536"/>
     <use style="fill:#ff7f0e;stroke:#ff7f0e;" x="105.741818" xlink:href="#m81e3a203d8" y="242.116364"/>
     <use style="fill:#ff7f0e;stroke:#ff7f0e;" x="108.785455" xlink:href="#m81e3a203d8" y="242.116364"/>
     <use style="fill:#ff7f0e;stroke:#ff7f0e;" x="111.829091" xlink:href="#m81e3a203d8" y="240.382392"/>
     <use style="fill:#ff7f0e;stroke:#ff7f0e;" x="114.872727" xlink:href="#m81e3a203d8" y="240.382392"/>
     <use style="fill:#ff7f0e;stroke:#ff7f0e;" x="117.916364" xlink:href="#m81e3a203d8" y="242.116364"/>
     <use style="fill:#ff7f0e;stroke:#ff7f0e;" x="120.96" xlink:href="#m81e3a203d8" y="229.978565"/>
     <use style="fill:#ff7f0e;stroke:#ff7f0e;" x="124.003636" xlink:href="#m81e3a203d8" y="242.116364"/>
     <use style="fill:#ff7f0e;stroke:#ff7f0e;" x="127.047273" xlink:href="#m81e3a203d8" y="236.91445"/>
     <use style="fill:#ff7f0e;stroke:#ff7f0e;" x="130.090909" xlink:href="#m81e3a203d8" y="242.116364"/>
     <use style="fill:#ff7f0e;stroke:#ff7f0e;" x="133.134545" xlink:href="#m81e3a203d8" y="242.116364"/>
     <use style="fill:#ff7f0e;stroke:#ff7f0e;" x="136.178182" xlink:href="#m81e3a203d8" y="242.116364"/>
     <use style="fill:#ff7f0e;stroke:#ff7f0e;" x="139.221818" xlink:href="#m81e3a203d8" y="242.116364"/>
     <use style="fill:#ff7f0e;stroke:#ff7f0e;" x="142.265455" xlink:href="#m81e3a203d8" y="238.648421"/>
     <use style="fill:#ff7f0e;stroke:#ff7f0e;" x="145.309091" xlink:href="#m81e3a203d8" y="242.116364"/>
     <use style="fill:#ff7f0e;stroke:#ff7f0e;" x="148.352727" xlink:href="#m81e3a203d8" y="235.180478"/>
     <use style="fill:#ff7f0e;stroke:#ff7f0e;" x="151.396364" xlink:href="#m81e3a203d8" y="242.116364"/>
     <use style="fill:#ff7f0e;stroke:#ff7f0e;" x="154.44" xlink:href="#m81e3a203d8" y="242.116364"/>
     <use style="fill:#ff7f0e;stroke:#ff7f0e;" x="157.483636" xlink:href="#m81e3a203d8" y="242.116364"/>
     <use style="fill:#ff7f0e;stroke:#ff7f0e;" x="160.527273" xlink:href="#m81e3a203d8" y="242.116364"/>
     <use style="fill:#ff7f0e;stroke:#ff7f0e;" x="163.570909" xlink:href="#m81e3a203d8" y="236.91445"/>
     <use style="fill:#ff7f0e;stroke:#ff7f0e;" x="166.614545" xlink:href="#m81e3a203d8" y="242.116364"/>
     <use style="fill:#ff7f0e;stroke:#ff7f0e;" x="169.658182" xlink:href="#m81e3a203d8" y="242.116364"/>
     <use style="fill:#ff7f0e;stroke:#ff7f0e;" x="172.701818" xlink:href="#m81e3a203d8" y="242.116364"/>
     <use style="fill:#ff7f0e;stroke:#ff7f0e;" x="175.745455" xlink:href="#m81e3a203d8" y="242.116364"/>
     <use style="fill:#ff7f0e;stroke:#ff7f0e;" x="178.789091" xlink:href="#m81e3a203d8" y="238.648421"/>
     <use style="fill:#ff7f0e;stroke:#ff7f0e;" x="181.832727" xlink:href="#m81e3a203d8" y="242.116364"/>
     <use style="fill:#ff7f0e;stroke:#ff7f0e;" x="184.876364" xlink:href="#m81e3a203d8" y="242.116364"/>
     <use style="fill:#ff7f0e;stroke:#ff7f0e;" x="187.92" xlink:href="#m81e3a203d8" y="242.116364"/>
     <use style="fill:#ff7f0e;stroke:#ff7f0e;" x="190.963636" xlink:href="#m81e3a203d8" y="242.116364"/>
     <use style="fill:#ff7f0e;stroke:#ff7f0e;" x="194.007273" xlink:href="#m81e3a203d8" y="233.446507"/>
     <use style="fill:#ff7f0e;stroke:#ff7f0e;" x="197.050909" xlink:href="#m81e3a203d8" y="242.116364"/>
     <use style="fill:#ff7f0e;stroke:#ff7f0e;" x="200.094545" xlink:href="#m81e3a203d8" y="242.116364"/>
     <use style="fill:#ff7f0e;stroke:#ff7f0e;" x="203.138182" xlink:href="#m81e3a203d8" y="242.116364"/>
     <use style="fill:#ff7f0e;stroke:#ff7f0e;" x="206.181818" xlink:href="#m81e3a203d8" y="242.116364"/>
     <use style="fill:#ff7f0e;stroke:#ff7f0e;" x="209.225455" xlink:href="#m81e3a203d8" y="229.978565"/>
     <use style="fill:#ff7f0e;stroke:#ff7f0e;" x="212.269091" xlink:href="#m81e3a203d8" y="242.116364"/>
     <use style="fill:#ff7f0e;stroke:#ff7f0e;" x="215.312727" xlink:href="#m81e3a203d8" y="233.446507"/>
     <use style="fill:#ff7f0e;stroke:#ff7f0e;" x="218.356364" xlink:href="#m81e3a203d8" y="242.116364"/>
     <use style="fill:#ff7f0e;stroke:#ff7f0e;" x="221.4" xlink:href="#m81e3a203d8" y="242.116364"/>
     <use style="fill:#ff7f0e;stroke:#ff7f0e;" x="224.443636" xlink:href="#m81e3a203d8" y="242.116364"/>
     <use style="fill:#ff7f0e;stroke:#ff7f0e;" x="227.487273" xlink:href="#m81e3a203d8" y="240.382392"/>
     <use style="fill:#ff7f0e;stroke:#ff7f0e;" x="230.530909" xlink:href="#m81e3a203d8" y="242.116364"/>
     <use style="fill:#ff7f0e;stroke:#ff7f0e;" x="233.574545" xlink:href="#m81e3a203d8" y="240.382392"/>
     <use style="fill:#ff7f0e;stroke:#ff7f0e;" x="236.618182" xlink:href="#m81e3a203d8" y="242.116364"/>
     <use style="fill:#ff7f0e;stroke:#ff7f0e;" x="239.661818" xlink:href="#m81e3a203d8" y="242.116364"/>
     <use style="fill:#ff7f0e;stroke:#ff7f0e;" x="242.705455" xlink:href="#m81e3a203d8" y="236.91445"/>
     <use style="fill:#ff7f0e;stroke:#ff7f0e;" x="245.749091" xlink:href="#m81e3a203d8" y="242.116364"/>
     <use style="fill:#ff7f0e;stroke:#ff7f0e;" x="248.792727" xlink:href="#m81e3a203d8" y="240.382392"/>
     <use style="fill:#ff7f0e;stroke:#ff7f0e;" x="251.836364" xlink:href="#m81e3a203d8" y="240.382392"/>
     <use style="fill:#ff7f0e;stroke:#ff7f0e;" x="254.88" xlink:href="#m81e3a203d8" y="231.712536"/>
     <use style="fill:#ff7f0e;stroke:#ff7f0e;" x="257.923636" xlink:href="#m81e3a203d8" y="242.116364"/>
     <use style="fill:#ff7f0e;stroke:#ff7f0e;" x="260.967273" xlink:href="#m81e3a203d8" y="240.382392"/>
     <use style="fill:#ff7f0e;stroke:#ff7f0e;" x="264.010909" xlink:href="#m81e3a203d8" y="242.116364"/>
     <use style="fill:#ff7f0e;stroke:#ff7f0e;" x="267.054545" xlink:href="#m81e3a203d8" y="242.116364"/>
     <use style="fill:#ff7f0e;stroke:#ff7f0e;" x="270.098182" xlink:href="#m81e3a203d8" y="240.382392"/>
     <use style="fill:#ff7f0e;stroke:#ff7f0e;" x="273.141818" xlink:href="#m81e3a203d8" y="224.776651"/>
     <use style="fill:#ff7f0e;stroke:#ff7f0e;" x="276.185455" xlink:href="#m81e3a203d8" y="242.116364"/>
     <use style="fill:#ff7f0e;stroke:#ff7f0e;" x="279.229091" xlink:href="#m81e3a203d8" y="242.116364"/>
     <use style="fill:#ff7f0e;stroke:#ff7f0e;" x="282.272727" xlink:href="#m81e3a203d8" y="242.116364"/>
     <use style="fill:#ff7f0e;stroke:#ff7f0e;" x="285.316364" xlink:href="#m81e3a203d8" y="242.116364"/>
     <use style="fill:#ff7f0e;stroke:#ff7f0e;" x="288.36" xlink:href="#m81e3a203d8" y="240.382392"/>
     <use style="fill:#ff7f0e;stroke:#ff7f0e;" x="291.403636" xlink:href="#m81e3a203d8" y="240.382392"/>
     <use style="fill:#ff7f0e;stroke:#ff7f0e;" x="294.447273" xlink:href="#m81e3a203d8" y="242.116364"/>
     <use style="fill:#ff7f0e;stroke:#ff7f0e;" x="297.490909" xlink:href="#m81e3a203d8" y="235.180478"/>
     <use style="fill:#ff7f0e;stroke:#ff7f0e;" x="300.534545" xlink:href="#m81e3a203d8" y="242.116364"/>
     <use style="fill:#ff7f0e;stroke:#ff7f0e;" x="303.578182" xlink:href="#m81e3a203d8" y="242.116364"/>
     <use style="fill:#ff7f0e;stroke:#ff7f0e;" x="306.621818" xlink:href="#m81e3a203d8" y="235.180478"/>
     <use style="fill:#ff7f0e;stroke:#ff7f0e;" x="309.665455" xlink:href="#m81e3a203d8" y="229.978565"/>
     <use style="fill:#ff7f0e;stroke:#ff7f0e;" x="312.709091" xlink:href="#m81e3a203d8" y="242.116364"/>
     <use style="fill:#ff7f0e;stroke:#ff7f0e;" x="315.752727" xlink:href="#m81e3a203d8" y="240.382392"/>
     <use style="fill:#ff7f0e;stroke:#ff7f0e;" x="318.796364" xlink:href="#m81e3a203d8" y="238.648421"/>
     <use style="fill:#ff7f0e;stroke:#ff7f0e;" x="321.84" xlink:href="#m81e3a203d8" y="242.116364"/>
     <use style="fill:#ff7f0e;stroke:#ff7f0e;" x="324.883636" xlink:href="#m81e3a203d8" y="242.116364"/>
     <use style="fill:#ff7f0e;stroke:#ff7f0e;" x="327.927273" xlink:href="#m81e3a203d8" y="242.116364"/>
     <use style="fill:#ff7f0e;stroke:#ff7f0e;" x="330.970909" xlink:href="#m81e3a203d8" y="242.116364"/>
     <use style="fill:#ff7f0e;stroke:#ff7f0e;" x="334.014545" xlink:href="#m81e3a203d8" y="242.116364"/>
     <use style="fill:#ff7f0e;stroke:#ff7f0e;" x="337.058182" xlink:href="#m81e3a203d8" y="240.382392"/>
     <use style="fill:#ff7f0e;stroke:#ff7f0e;" x="340.101818" xlink:href="#m81e3a203d8" y="242.116364"/>
     <use style="fill:#ff7f0e;stroke:#ff7f0e;" x="343.145455" xlink:href="#m81e3a203d8" y="242.116364"/>
     <use style="fill:#ff7f0e;stroke:#ff7f0e;" x="346.189091" xlink:href="#m81e3a203d8" y="242.116364"/>
     <use style="fill:#ff7f0e;stroke:#ff7f0e;" x="349.232727" xlink:href="#m81e3a203d8" y="242.116364"/>
     <use style="fill:#ff7f0e;stroke:#ff7f0e;" x="352.276364" xlink:href="#m81e3a203d8" y="238.648421"/>
     <use style="fill:#ff7f0e;stroke:#ff7f0e;" x="355.32" xlink:href="#m81e3a203d8" y="238.648421"/>
     <use style="fill:#ff7f0e;stroke:#ff7f0e;" x="358.363636" xlink:href="#m81e3a203d8" y="242.116364"/>
     <use style="fill:#ff7f0e;stroke:#ff7f0e;" x="361.407273" xlink:href="#m81e3a203d8" y="236.91445"/>
     <use style="fill:#ff7f0e;stroke:#ff7f0e;" x="364.450909" xlink:href="#m81e3a203d8" y="242.116364"/>
     <use style="fill:#ff7f0e;stroke:#ff7f0e;" x="367.494545" xlink:href="#m81e3a203d8" y="242.116364"/>
     <use style="fill:#ff7f0e;stroke:#ff7f0e;" x="370.538182" xlink:href="#m81e3a203d8" y="242.116364"/>
    </g>
   </g>
   <g id="PathCollection_3">
    <defs>
     <path d="M 0 3 
C 0.795609 3 1.55874 2.683901 2.12132 2.12132 
C 2.683901 1.55874 3 0.795609 3 0 
C 3 -0.795609 2.683901 -1.55874 2.12132 -2.12132 
C 1.55874 -2.683901 0.795609 -3 0 -3 
C -0.795609 -3 -1.55874 -2.683901 -2.12132 -2.12132 
C -2.683901 -1.55874 -3 -0.795609 -3 0 
C -3 0.795609 -2.683901 1.55874 -2.12132 2.12132 
C -1.55874 2.683901 -0.795609 3 0 3 
z
" id="m67ef90472e" style="stroke:#2ca02c;"/>
    </defs>
    <g clip-path="url(#pb0ef37c782)">
     <use style="fill:#2ca02c;stroke:#2ca02c;" x="69.218182" xlink:href="#m67ef90472e" y="92.994833"/>
     <use style="fill:#2ca02c;stroke:#2ca02c;" x="72.261818" xlink:href="#m67ef90472e" y="136.344115"/>
     <use style="fill:#2ca02c;stroke:#2ca02c;" x="75.305455" xlink:href="#m67ef90472e" y="92.994833"/>
     <use style="fill:#2ca02c;stroke:#2ca02c;" x="78.349091" xlink:href="#m67ef90472e" y="176.225455"/>
     <use style="fill:#2ca02c;stroke:#2ca02c;" x="81.392727" xlink:href="#m67ef90472e" y="125.940287"/>
     <use style="fill:#2ca02c;stroke:#2ca02c;" x="84.436364" xlink:href="#m67ef90472e" y="96.462775"/>
     <use style="fill:#2ca02c;stroke:#2ca02c;" x="87.48" xlink:href="#m67ef90472e" y="127.674258"/>
     <use style="fill:#2ca02c;stroke:#2ca02c;" x="90.523636" xlink:href="#m67ef90472e" y="120.738373"/>
     <use style="fill:#2ca02c;stroke:#2ca02c;" x="93.567273" xlink:href="#m67ef90472e" y="106.866603"/>
     <use style="fill:#2ca02c;stroke:#2ca02c;" x="96.610909" xlink:href="#m67ef90472e" y="75.65512"/>
     <use style="fill:#2ca02c;stroke:#2ca02c;" x="99.654545" xlink:href="#m67ef90472e" y="148.481914"/>
     <use style="fill:#2ca02c;stroke:#2ca02c;" x="102.698182" xlink:href="#m67ef90472e" y="153.683828"/>
     <use style="fill:#2ca02c;stroke:#2ca02c;" x="105.741818" xlink:href="#m67ef90472e" y="160.619713"/>
     <use style="fill:#2ca02c;stroke:#2ca02c;" x="108.785455" xlink:href="#m67ef90472e" y="160.619713"/>
     <use style="fill:#2ca02c;stroke:#2ca02c;" x="111.829091" xlink:href="#m67ef90472e" y="75.65512"/>
     <use style="fill:#2ca02c;stroke:#2ca02c;" x="114.872727" xlink:href="#m67ef90472e" y="153.683828"/>
     <use style="fill:#2ca02c;stroke:#2ca02c;" x="117.916364" xlink:href="#m67ef90472e" y="119.004402"/>
     <use style="fill:#2ca02c;stroke:#2ca02c;" x="120.96" xlink:href="#m67ef90472e" y="151.949856"/>
     <use style="fill:#2ca02c;stroke:#2ca02c;" x="124.003636" xlink:href="#m67ef90472e" y="158.885742"/>
     <use style="fill:#2ca02c;stroke:#2ca02c;" x="127.047273" xlink:href="#m67ef90472e" y="108.600574"/>
     <use style="fill:#2ca02c;stroke:#2ca02c;" x="130.090909" xlink:href="#m67ef90472e" y="125.940287"/>
     <use style="fill:#2ca02c;stroke:#2ca02c;" x="133.134545" xlink:href="#m67ef90472e" y="124.206316"/>
     <use style="fill:#2ca02c;stroke:#2ca02c;" x="136.178182" xlink:href="#m67ef90472e" y="157.15177"/>
     <use style="fill:#2ca02c;stroke:#2ca02c;" x="139.221818" xlink:href="#m67ef90472e" y="115.536459"/>
     <use style="fill:#2ca02c;stroke:#2ca02c;" x="142.265455" xlink:href="#m67ef90472e" y="124.206316"/>
     <use style="fill:#2ca02c;stroke:#2ca02c;" x="145.309091" xlink:href="#m67ef90472e" y="70.453206"/>
     <use style="fill:#2ca02c;stroke:#2ca02c;" x="148.352727" xlink:href="#m67ef90472e" y="112.068517"/>
     <use style="fill:#2ca02c;stroke:#2ca02c;" x="151.396364" xlink:href="#m67ef90472e" y="127.674258"/>
     <use style="fill:#2ca02c;stroke:#2ca02c;" x="154.44" xlink:href="#m67ef90472e" y="66.985263"/>
     <use style="fill:#2ca02c;stroke:#2ca02c;" x="157.483636" xlink:href="#m67ef90472e" y="112.068517"/>
     <use style="fill:#2ca02c;stroke:#2ca02c;" x="160.527273" xlink:href="#m67ef90472e" y="148.481914"/>
     <use style="fill:#2ca02c;stroke:#2ca02c;" x="163.570909" xlink:href="#m67ef90472e" y="106.866603"/>
     <use style="fill:#2ca02c;stroke:#2ca02c;" x="166.614545" xlink:href="#m67ef90472e" y="92.994833"/>
     <use style="fill:#2ca02c;stroke:#2ca02c;" x="169.658182" xlink:href="#m67ef90472e" y="106.866603"/>
     <use style="fill:#2ca02c;stroke:#2ca02c;" x="172.701818" xlink:href="#m67ef90472e" y="127.674258"/>
     <use style="fill:#2ca02c;stroke:#2ca02c;" x="175.745455" xlink:href="#m67ef90472e" y="96.462775"/>
     <use style="fill:#2ca02c;stroke:#2ca02c;" x="178.789091" xlink:href="#m67ef90472e" y="132.876172"/>
     <use style="fill:#2ca02c;stroke:#2ca02c;" x="181.832727" xlink:href="#m67ef90472e" y="96.462775"/>
     <use style="fill:#2ca02c;stroke:#2ca02c;" x="184.876364" xlink:href="#m67ef90472e" y="82.591005"/>
     <use style="fill:#2ca02c;stroke:#2ca02c;" x="187.92" xlink:href="#m67ef90472e" y="139.812057"/>
     <use style="fill:#2ca02c;stroke:#2ca02c;" x="190.963636" xlink:href="#m67ef90472e" y="167.555598"/>
     <use style="fill:#2ca02c;stroke:#2ca02c;" x="194.007273" xlink:href="#m67ef90472e" y="136.344115"/>
     <use style="fill:#2ca02c;stroke:#2ca02c;" x="197.050909" xlink:href="#m67ef90472e" y="82.591005"/>
     <use style="fill:#2ca02c;stroke:#2ca02c;" x="200.094545" xlink:href="#m67ef90472e" y="141.546029"/>
     <use style="fill:#2ca02c;stroke:#2ca02c;" x="203.138182" xlink:href="#m67ef90472e" y="129.40823"/>
     <use style="fill:#2ca02c;stroke:#2ca02c;" x="206.181818" xlink:href="#m67ef90472e" y="99.930718"/>
     <use style="fill:#2ca02c;stroke:#2ca02c;" x="209.225455" xlink:href="#m67ef90472e" y="115.536459"/>
     <use style="fill:#2ca02c;stroke:#2ca02c;" x="212.269091" xlink:href="#m67ef90472e" y="46.177608"/>
     <use style="fill:#2ca02c;stroke:#2ca02c;" x="215.312727" xlink:href="#m67ef90472e" y="98.196746"/>
     <use style="fill:#2ca02c;stroke:#2ca02c;" x="218.356364" xlink:href="#m67ef90472e" y="125.940287"/>
     <use style="fill:#2ca02c;stroke:#2ca02c;" x="221.4" xlink:href="#m67ef90472e" y="129.40823"/>
     <use style="fill:#2ca02c;stroke:#2ca02c;" x="224.443636" xlink:href="#m67ef90472e" y="131.142201"/>
     <use style="fill:#2ca02c;stroke:#2ca02c;" x="227.487273" xlink:href="#m67ef90472e" y="87.792919"/>
     <use style="fill:#2ca02c;stroke:#2ca02c;" x="230.530909" xlink:href="#m67ef90472e" y="136.344115"/>
     <use style="fill:#2ca02c;stroke:#2ca02c;" x="233.574545" xlink:href="#m67ef90472e" y="134.610144"/>
     <use style="fill:#2ca02c;stroke:#2ca02c;" x="236.618182" xlink:href="#m67ef90472e" y="164.087656"/>
     <use style="fill:#2ca02c;stroke:#2ca02c;" x="239.661818" xlink:href="#m67ef90472e" y="169.289569"/>
     <use style="fill:#2ca02c;stroke:#2ca02c;" x="242.705455" xlink:href="#m67ef90472e" y="150.215885"/>
     <use style="fill:#2ca02c;stroke:#2ca02c;" x="245.749091" xlink:href="#m67ef90472e" y="119.004402"/>
     <use style="fill:#2ca02c;stroke:#2ca02c;" x="248.792727" xlink:href="#m67ef90472e" y="44.443636"/>
     <use style="fill:#2ca02c;stroke:#2ca02c;" x="251.836364" xlink:href="#m67ef90472e" y="113.802488"/>
     <use style="fill:#2ca02c;stroke:#2ca02c;" x="254.88" xlink:href="#m67ef90472e" y="99.930718"/>
     <use style="fill:#2ca02c;stroke:#2ca02c;" x="257.923636" xlink:href="#m67ef90472e" y="134.610144"/>
     <use style="fill:#2ca02c;stroke:#2ca02c;" x="260.967273" xlink:href="#m67ef90472e" y="92.994833"/>
     <use style="fill:#2ca02c;stroke:#2ca02c;" x="264.010909" xlink:href="#m67ef90472e" y="177.959426"/>
     <use style="fill:#2ca02c;stroke:#2ca02c;" x="267.054545" xlink:href="#m67ef90472e" y="117.270431"/>
     <use style="fill:#2ca02c;stroke:#2ca02c;" x="270.098182" xlink:href="#m67ef90472e" y="155.417799"/>
     <use style="fill:#2ca02c;stroke:#2ca02c;" x="273.141818" xlink:href="#m67ef90472e" y="110.334545"/>
     <use style="fill:#2ca02c;stroke:#2ca02c;" x="276.185455" xlink:href="#m67ef90472e" y="112.068517"/>
     <use style="fill:#2ca02c;stroke:#2ca02c;" x="279.229091" xlink:href="#m67ef90472e" y="150.215885"/>
     <use style="fill:#2ca02c;stroke:#2ca02c;" x="282.272727" xlink:href="#m67ef90472e" y="124.206316"/>
     <use style="fill:#2ca02c;stroke:#2ca02c;" x="285.316364" xlink:href="#m67ef90472e" y="150.215885"/>
     <use style="fill:#2ca02c;stroke:#2ca02c;" x="288.36" xlink:href="#m67ef90472e" y="119.004402"/>
     <use style="fill:#2ca02c;stroke:#2ca02c;" x="291.403636" xlink:href="#m67ef90472e" y="141.546029"/>
     <use style="fill:#2ca02c;stroke:#2ca02c;" x="294.447273" xlink:href="#m67ef90472e" y="112.068517"/>
     <use style="fill:#2ca02c;stroke:#2ca02c;" x="297.490909" xlink:href="#m67ef90472e" y="151.949856"/>
     <use style="fill:#2ca02c;stroke:#2ca02c;" x="300.534545" xlink:href="#m67ef90472e" y="66.985263"/>
     <use style="fill:#2ca02c;stroke:#2ca02c;" x="303.578182" xlink:href="#m67ef90472e" y="190.097225"/>
     <use style="fill:#2ca02c;stroke:#2ca02c;" x="306.621818" xlink:href="#m67ef90472e" y="125.940287"/>
     <use style="fill:#2ca02c;stroke:#2ca02c;" x="309.665455" xlink:href="#m67ef90472e" y="134.610144"/>
     <use style="fill:#2ca02c;stroke:#2ca02c;" x="312.709091" xlink:href="#m67ef90472e" y="125.940287"/>
     <use style="fill:#2ca02c;stroke:#2ca02c;" x="315.752727" xlink:href="#m67ef90472e" y="131.142201"/>
     <use style="fill:#2ca02c;stroke:#2ca02c;" x="318.796364" xlink:href="#m67ef90472e" y="108.600574"/>
     <use style="fill:#2ca02c;stroke:#2ca02c;" x="321.84" xlink:href="#m67ef90472e" y="138.078086"/>
     <use style="fill:#2ca02c;stroke:#2ca02c;" x="324.883636" xlink:href="#m67ef90472e" y="105.132632"/>
     <use style="fill:#2ca02c;stroke:#2ca02c;" x="327.927273" xlink:href="#m67ef90472e" y="174.491483"/>
     <use style="fill:#2ca02c;stroke:#2ca02c;" x="330.970909" xlink:href="#m67ef90472e" y="127.674258"/>
     <use style="fill:#2ca02c;stroke:#2ca02c;" x="334.014545" xlink:href="#m67ef90472e" y="132.876172"/>
     <use style="fill:#2ca02c;stroke:#2ca02c;" x="337.058182" xlink:href="#m67ef90472e" y="139.812057"/>
     <use style="fill:#2ca02c;stroke:#2ca02c;" x="340.101818" xlink:href="#m67ef90472e" y="120.738373"/>
     <use style="fill:#2ca02c;stroke:#2ca02c;" x="343.145455" xlink:href="#m67ef90472e" y="141.546029"/>
     <use style="fill:#2ca02c;stroke:#2ca02c;" x="346.189091" xlink:href="#m67ef90472e" y="157.15177"/>
     <use style="fill:#2ca02c;stroke:#2ca02c;" x="349.232727" xlink:href="#m67ef90472e" y="143.28"/>
     <use style="fill:#2ca02c;stroke:#2ca02c;" x="352.276364" xlink:href="#m67ef90472e" y="106.866603"/>
     <use style="fill:#2ca02c;stroke:#2ca02c;" x="355.32" xlink:href="#m67ef90472e" y="145.013971"/>
     <use style="fill:#2ca02c;stroke:#2ca02c;" x="358.363636" xlink:href="#m67ef90472e" y="79.123062"/>
     <use style="fill:#2ca02c;stroke:#2ca02c;" x="361.407273" xlink:href="#m67ef90472e" y="124.206316"/>
     <use style="fill:#2ca02c;stroke:#2ca02c;" x="364.450909" xlink:href="#m67ef90472e" y="120.738373"/>
     <use style="fill:#2ca02c;stroke:#2ca02c;" x="367.494545" xlink:href="#m67ef90472e" y="129.40823"/>
     <use style="fill:#2ca02c;stroke:#2ca02c;" x="370.538182" xlink:href="#m67ef90472e" y="103.39866"/>
    </g>
   </g>
   <g id="matplotlib.axis_1">
    <g id="xtick_1">
     <g id="line2d_1">
      <defs>
       <path d="M 0 0 
L 0 3.5 
" id="m15aab802e9" style="stroke:#000000;stroke-width:0.8;"/>
      </defs>
      <g>
       <use style="stroke:#000000;stroke-width:0.8;" x="69.218182" xlink:href="#m15aab802e9" y="252"/>
      </g>
     </g>
     <g id="text_1">
      <!-- 0 -->
      <g transform="translate(66.036932 266.598437)scale(0.1 -0.1)">
       <defs>
        <path d="M 31.78125 66.40625 
Q 24.171875 66.40625 20.328125 58.90625 
Q 16.5 51.421875 16.5 36.375 
Q 16.5 21.390625 20.328125 13.890625 
Q 24.171875 6.390625 31.78125 6.390625 
Q 39.453125 6.390625 43.28125 13.890625 
Q 47.125 21.390625 47.125 36.375 
Q 47.125 51.421875 43.28125 58.90625 
Q 39.453125 66.40625 31.78125 66.40625 
z
M 31.78125 74.21875 
Q 44.046875 74.21875 50.515625 64.515625 
Q 56.984375 54.828125 56.984375 36.375 
Q 56.984375 17.96875 50.515625 8.265625 
Q 44.046875 -1.421875 31.78125 -1.421875 
Q 19.53125 -1.421875 13.0625 8.265625 
Q 6.59375 17.96875 6.59375 36.375 
Q 6.59375 54.828125 13.0625 64.515625 
Q 19.53125 74.21875 31.78125 74.21875 
z
" id="DejaVuSans-48"/>
       </defs>
       <use xlink:href="#DejaVuSans-48"/>
      </g>
     </g>
    </g>
    <g id="xtick_2">
     <g id="line2d_2">
      <g>
       <use style="stroke:#000000;stroke-width:0.8;" x="130.090909" xlink:href="#m15aab802e9" y="252"/>
      </g>
     </g>
     <g id="text_2">
      <!-- 20 -->
      <g transform="translate(123.728409 266.598437)scale(0.1 -0.1)">
       <defs>
        <path d="M 19.1875 8.296875 
L 53.609375 8.296875 
L 53.609375 0 
L 7.328125 0 
L 7.328125 8.296875 
Q 12.9375 14.109375 22.625 23.890625 
Q 32.328125 33.6875 34.8125 36.53125 
Q 39.546875 41.84375 41.421875 45.53125 
Q 43.3125 49.21875 43.3125 52.78125 
Q 43.3125 58.59375 39.234375 62.25 
Q 35.15625 65.921875 28.609375 65.921875 
Q 23.96875 65.921875 18.8125 64.3125 
Q 13.671875 62.703125 7.8125 59.421875 
L 7.8125 69.390625 
Q 13.765625 71.78125 18.9375 73 
Q 24.125 74.21875 28.421875 74.21875 
Q 39.75 74.21875 46.484375 68.546875 
Q 53.21875 62.890625 53.21875 53.421875 
Q 53.21875 48.921875 51.53125 44.890625 
Q 49.859375 40.875 45.40625 35.40625 
Q 44.1875 33.984375 37.640625 27.21875 
Q 31.109375 20.453125 19.1875 8.296875 
z
" id="DejaVuSans-50"/>
       </defs>
       <use xlink:href="#DejaVuSans-50"/>
       <use x="63.623047" xlink:href="#DejaVuSans-48"/>
      </g>
     </g>
    </g>
    <g id="xtick_3">
     <g id="line2d_3">
      <g>
       <use style="stroke:#000000;stroke-width:0.8;" x="190.963636" xlink:href="#m15aab802e9" y="252"/>
      </g>
     </g>
     <g id="text_3">
      <!-- 40 -->
      <g transform="translate(184.601136 266.598437)scale(0.1 -0.1)">
       <defs>
        <path d="M 37.796875 64.3125 
L 12.890625 25.390625 
L 37.796875 25.390625 
z
M 35.203125 72.90625 
L 47.609375 72.90625 
L 47.609375 25.390625 
L 58.015625 25.390625 
L 58.015625 17.1875 
L 47.609375 17.1875 
L 47.609375 0 
L 37.796875 0 
L 37.796875 17.1875 
L 4.890625 17.1875 
L 4.890625 26.703125 
z
" id="DejaVuSans-52"/>
       </defs>
       <use xlink:href="#DejaVuSans-52"/>
       <use x="63.623047" xlink:href="#DejaVuSans-48"/>
      </g>
     </g>
    </g>
    <g id="xtick_4">
     <g id="line2d_4">
      <g>
       <use style="stroke:#000000;stroke-width:0.8;" x="251.836364" xlink:href="#m15aab802e9" y="252"/>
      </g>
     </g>
     <g id="text_4">
      <!-- 60 -->
      <g transform="translate(245.473864 266.598437)scale(0.1 -0.1)">
       <defs>
        <path d="M 33.015625 40.375 
Q 26.375 40.375 22.484375 35.828125 
Q 18.609375 31.296875 18.609375 23.390625 
Q 18.609375 15.53125 22.484375 10.953125 
Q 26.375 6.390625 33.015625 6.390625 
Q 39.65625 6.390625 43.53125 10.953125 
Q 47.40625 15.53125 47.40625 23.390625 
Q 47.40625 31.296875 43.53125 35.828125 
Q 39.65625 40.375 33.015625 40.375 
z
M 52.59375 71.296875 
L 52.59375 62.3125 
Q 48.875 64.0625 45.09375 64.984375 
Q 41.3125 65.921875 37.59375 65.921875 
Q 27.828125 65.921875 22.671875 59.328125 
Q 17.53125 52.734375 16.796875 39.40625 
Q 19.671875 43.65625 24.015625 45.921875 
Q 28.375 48.1875 33.59375 48.1875 
Q 44.578125 48.1875 50.953125 41.515625 
Q 57.328125 34.859375 57.328125 23.390625 
Q 57.328125 12.15625 50.6875 5.359375 
Q 44.046875 -1.421875 33.015625 -1.421875 
Q 20.359375 -1.421875 13.671875 8.265625 
Q 6.984375 17.96875 6.984375 36.375 
Q 6.984375 53.65625 15.1875 63.9375 
Q 23.390625 74.21875 37.203125 74.21875 
Q 40.921875 74.21875 44.703125 73.484375 
Q 48.484375 72.75 52.59375 71.296875 
z
" id="DejaVuSans-54"/>
       </defs>
       <use xlink:href="#DejaVuSans-54"/>
       <use x="63.623047" xlink:href="#DejaVuSans-48"/>
      </g>
     </g>
    </g>
    <g id="xtick_5">
     <g id="line2d_5">
      <g>
       <use style="stroke:#000000;stroke-width:0.8;" x="312.709091" xlink:href="#m15aab802e9" y="252"/>
      </g>
     </g>
     <g id="text_5">
      <!-- 80 -->
      <g transform="translate(306.346591 266.598437)scale(0.1 -0.1)">
       <defs>
        <path d="M 31.78125 34.625 
Q 24.75 34.625 20.71875 30.859375 
Q 16.703125 27.09375 16.703125 20.515625 
Q 16.703125 13.921875 20.71875 10.15625 
Q 24.75 6.390625 31.78125 6.390625 
Q 38.8125 6.390625 42.859375 10.171875 
Q 46.921875 13.96875 46.921875 20.515625 
Q 46.921875 27.09375 42.890625 30.859375 
Q 38.875 34.625 31.78125 34.625 
z
M 21.921875 38.8125 
Q 15.578125 40.375 12.03125 44.71875 
Q 8.5 49.078125 8.5 55.328125 
Q 8.5 64.0625 14.71875 69.140625 
Q 20.953125 74.21875 31.78125 74.21875 
Q 42.671875 74.21875 48.875 69.140625 
Q 55.078125 64.0625 55.078125 55.328125 
Q 55.078125 49.078125 51.53125 44.71875 
Q 48 40.375 41.703125 38.8125 
Q 48.828125 37.15625 52.796875 32.3125 
Q 56.78125 27.484375 56.78125 20.515625 
Q 56.78125 9.90625 50.3125 4.234375 
Q 43.84375 -1.421875 31.78125 -1.421875 
Q 19.734375 -1.421875 13.25 4.234375 
Q 6.78125 9.90625 6.78125 20.515625 
Q 6.78125 27.484375 10.78125 32.3125 
Q 14.796875 37.15625 21.921875 38.8125 
z
M 18.3125 54.390625 
Q 18.3125 48.734375 21.84375 45.5625 
Q 25.390625 42.390625 31.78125 42.390625 
Q 38.140625 42.390625 41.71875 45.5625 
Q 45.3125 48.734375 45.3125 54.390625 
Q 45.3125 60.0625 41.71875 63.234375 
Q 38.140625 66.40625 31.78125 66.40625 
Q 25.390625 66.40625 21.84375 63.234375 
Q 18.3125 60.0625 18.3125 54.390625 
z
" id="DejaVuSans-56"/>
       </defs>
       <use xlink:href="#DejaVuSans-56"/>
       <use x="63.623047" xlink:href="#DejaVuSans-48"/>
      </g>
     </g>
    </g>
    <g id="xtick_6">
     <g id="line2d_6">
      <g>
       <use style="stroke:#000000;stroke-width:0.8;" x="373.581818" xlink:href="#m15aab802e9" y="252"/>
      </g>
     </g>
     <g id="text_6">
      <!-- 100 -->
      <g transform="translate(364.038068 266.598437)scale(0.1 -0.1)">
       <defs>
        <path d="M 12.40625 8.296875 
L 28.515625 8.296875 
L 28.515625 63.921875 
L 10.984375 60.40625 
L 10.984375 69.390625 
L 28.421875 72.90625 
L 38.28125 72.90625 
L 38.28125 8.296875 
L 54.390625 8.296875 
L 54.390625 0 
L 12.40625 0 
z
" id="DejaVuSans-49"/>
       </defs>
       <use xlink:href="#DejaVuSans-49"/>
       <use x="63.623047" xlink:href="#DejaVuSans-48"/>
       <use x="127.246094" xlink:href="#DejaVuSans-48"/>
      </g>
     </g>
    </g>
    <g id="text_7">
     <!-- Iteration number -->
     <g transform="translate(179.088281 280.276563)scale(0.1 -0.1)">
      <defs>
       <path d="M 9.8125 72.90625 
L 19.671875 72.90625 
L 19.671875 0 
L 9.8125 0 
z
" id="DejaVuSans-73"/>
       <path d="M 18.3125 70.21875 
L 18.3125 54.6875 
L 36.8125 54.6875 
L 36.8125 47.703125 
L 18.3125 47.703125 
L 18.3125 18.015625 
Q 18.3125 11.328125 20.140625 9.421875 
Q 21.96875 7.515625 27.59375 7.515625 
L 36.8125 7.515625 
L 36.8125 0 
L 27.59375 0 
Q 17.1875 0 13.234375 3.875 
Q 9.28125 7.765625 9.28125 18.015625 
L 9.28125 47.703125 
L 2.6875 47.703125 
L 2.6875 54.6875 
L 9.28125 54.6875 
L 9.28125 70.21875 
z
" id="DejaVuSans-116"/>
       <path d="M 56.203125 29.59375 
L 56.203125 25.203125 
L 14.890625 25.203125 
Q 15.484375 15.921875 20.484375 11.0625 
Q 25.484375 6.203125 34.421875 6.203125 
Q 39.59375 6.203125 44.453125 7.46875 
Q 49.3125 8.734375 54.109375 11.28125 
L 54.109375 2.78125 
Q 49.265625 0.734375 44.1875 -0.34375 
Q 39.109375 -1.421875 33.890625 -1.421875 
Q 20.796875 -1.421875 13.15625 6.1875 
Q 5.515625 13.8125 5.515625 26.8125 
Q 5.515625 40.234375 12.765625 48.109375 
Q 20.015625 56 32.328125 56 
Q 43.359375 56 49.78125 48.890625 
Q 56.203125 41.796875 56.203125 29.59375 
z
M 47.21875 32.234375 
Q 47.125 39.59375 43.09375 43.984375 
Q 39.0625 48.390625 32.421875 48.390625 
Q 24.90625 48.390625 20.390625 44.140625 
Q 15.875 39.890625 15.1875 32.171875 
z
" id="DejaVuSans-101"/>
       <path d="M 41.109375 46.296875 
Q 39.59375 47.171875 37.8125 47.578125 
Q 36.03125 48 33.890625 48 
Q 26.265625 48 22.1875 43.046875 
Q 18.109375 38.09375 18.109375 28.8125 
L 18.109375 0 
L 9.078125 0 
L 9.078125 54.6875 
L 18.109375 54.6875 
L 18.109375 46.1875 
Q 20.953125 51.171875 25.484375 53.578125 
Q 30.03125 56 36.53125 56 
Q 37.453125 56 38.578125 55.875 
Q 39.703125 55.765625 41.0625 55.515625 
z
" id="DejaVuSans-114"/>
       <path d="M 34.28125 27.484375 
Q 23.390625 27.484375 19.1875 25 
Q 14.984375 22.515625 14.984375 16.5 
Q 14.984375 11.71875 18.140625 8.90625 
Q 21.296875 6.109375 26.703125 6.109375 
Q 34.1875 6.109375 38.703125 11.40625 
Q 43.21875 16.703125 43.21875 25.484375 
L 43.21875 27.484375 
z
M 52.203125 31.203125 
L 52.203125 0 
L 43.21875 0 
L 43.21875 8.296875 
Q 40.140625 3.328125 35.546875 0.953125 
Q 30.953125 -1.421875 24.3125 -1.421875 
Q 15.921875 -1.421875 10.953125 3.296875 
Q 6 8.015625 6 15.921875 
Q 6 25.140625 12.171875 29.828125 
Q 18.359375 34.515625 30.609375 34.515625 
L 43.21875 34.515625 
L 43.21875 35.40625 
Q 43.21875 41.609375 39.140625 45 
Q 35.0625 48.390625 27.6875 48.390625 
Q 23 48.390625 18.546875 47.265625 
Q 14.109375 46.140625 10.015625 43.890625 
L 10.015625 52.203125 
Q 14.9375 54.109375 19.578125 55.046875 
Q 24.21875 56 28.609375 56 
Q 40.484375 56 46.34375 49.84375 
Q 52.203125 43.703125 52.203125 31.203125 
z
" id="DejaVuSans-97"/>
       <path d="M 9.421875 54.6875 
L 18.40625 54.6875 
L 18.40625 0 
L 9.421875 0 
z
M 9.421875 75.984375 
L 18.40625 75.984375 
L 18.40625 64.59375 
L 9.421875 64.59375 
z
" id="DejaVuSans-105"/>
       <path d="M 30.609375 48.390625 
Q 23.390625 48.390625 19.1875 42.75 
Q 14.984375 37.109375 14.984375 27.296875 
Q 14.984375 17.484375 19.15625 11.84375 
Q 23.34375 6.203125 30.609375 6.203125 
Q 37.796875 6.203125 41.984375 11.859375 
Q 46.1875 17.53125 46.1875 27.296875 
Q 46.1875 37.015625 41.984375 42.703125 
Q 37.796875 48.390625 30.609375 48.390625 
z
M 30.609375 56 
Q 42.328125 56 49.015625 48.375 
Q 55.71875 40.765625 55.71875 27.296875 
Q 55.71875 13.875 49.015625 6.21875 
Q 42.328125 -1.421875 30.609375 -1.421875 
Q 18.84375 -1.421875 12.171875 6.21875 
Q 5.515625 13.875 5.515625 27.296875 
Q 5.515625 40.765625 12.171875 48.375 
Q 18.84375 56 30.609375 56 
z
" id="DejaVuSans-111"/>
       <path d="M 54.890625 33.015625 
L 54.890625 0 
L 45.90625 0 
L 45.90625 32.71875 
Q 45.90625 40.484375 42.875 44.328125 
Q 39.84375 48.1875 33.796875 48.1875 
Q 26.515625 48.1875 22.3125 43.546875 
Q 18.109375 38.921875 18.109375 30.90625 
L 18.109375 0 
L 9.078125 0 
L 9.078125 54.6875 
L 18.109375 54.6875 
L 18.109375 46.1875 
Q 21.34375 51.125 25.703125 53.5625 
Q 30.078125 56 35.796875 56 
Q 45.21875 56 50.046875 50.171875 
Q 54.890625 44.34375 54.890625 33.015625 
z
" id="DejaVuSans-110"/>
       <path id="DejaVuSans-32"/>
       <path d="M 8.5 21.578125 
L 8.5 54.6875 
L 17.484375 54.6875 
L 17.484375 21.921875 
Q 17.484375 14.15625 20.5 10.265625 
Q 23.53125 6.390625 29.59375 6.390625 
Q 36.859375 6.390625 41.078125 11.03125 
Q 45.3125 15.671875 45.3125 23.6875 
L 45.3125 54.6875 
L 54.296875 54.6875 
L 54.296875 0 
L 45.3125 0 
L 45.3125 8.40625 
Q 42.046875 3.421875 37.71875 1 
Q 33.40625 -1.421875 27.6875 -1.421875 
Q 18.265625 -1.421875 13.375 4.4375 
Q 8.5 10.296875 8.5 21.578125 
z
M 31.109375 56 
z
" id="DejaVuSans-117"/>
       <path d="M 52 44.1875 
Q 55.375 50.25 60.0625 53.125 
Q 64.75 56 71.09375 56 
Q 79.640625 56 84.28125 50.015625 
Q 88.921875 44.046875 88.921875 33.015625 
L 88.921875 0 
L 79.890625 0 
L 79.890625 32.71875 
Q 79.890625 40.578125 77.09375 44.375 
Q 74.3125 48.1875 68.609375 48.1875 
Q 61.625 48.1875 57.5625 43.546875 
Q 53.515625 38.921875 53.515625 30.90625 
L 53.515625 0 
L 44.484375 0 
L 44.484375 32.71875 
Q 44.484375 40.625 41.703125 44.40625 
Q 38.921875 48.1875 33.109375 48.1875 
Q 26.21875 48.1875 22.15625 43.53125 
Q 18.109375 38.875 18.109375 30.90625 
L 18.109375 0 
L 9.078125 0 
L 9.078125 54.6875 
L 18.109375 54.6875 
L 18.109375 46.1875 
Q 21.1875 51.21875 25.484375 53.609375 
Q 29.78125 56 35.6875 56 
Q 41.65625 56 45.828125 52.96875 
Q 50 49.953125 52 44.1875 
z
" id="DejaVuSans-109"/>
       <path d="M 48.6875 27.296875 
Q 48.6875 37.203125 44.609375 42.84375 
Q 40.53125 48.484375 33.40625 48.484375 
Q 26.265625 48.484375 22.1875 42.84375 
Q 18.109375 37.203125 18.109375 27.296875 
Q 18.109375 17.390625 22.1875 11.75 
Q 26.265625 6.109375 33.40625 6.109375 
Q 40.53125 6.109375 44.609375 11.75 
Q 48.6875 17.390625 48.6875 27.296875 
z
M 18.109375 46.390625 
Q 20.953125 51.265625 25.265625 53.625 
Q 29.59375 56 35.59375 56 
Q 45.5625 56 51.78125 48.09375 
Q 58.015625 40.1875 58.015625 27.296875 
Q 58.015625 14.40625 51.78125 6.484375 
Q 45.5625 -1.421875 35.59375 -1.421875 
Q 29.59375 -1.421875 25.265625 0.953125 
Q 20.953125 3.328125 18.109375 8.203125 
L 18.109375 0 
L 9.078125 0 
L 9.078125 75.984375 
L 18.109375 75.984375 
z
" id="DejaVuSans-98"/>
      </defs>
      <use xlink:href="#DejaVuSans-73"/>
      <use x="29.492188" xlink:href="#DejaVuSans-116"/>
      <use x="68.701172" xlink:href="#DejaVuSans-101"/>
      <use x="130.224609" xlink:href="#DejaVuSans-114"/>
      <use x="171.337891" xlink:href="#DejaVuSans-97"/>
      <use x="232.617188" xlink:href="#DejaVuSans-116"/>
      <use x="271.826172" xlink:href="#DejaVuSans-105"/>
      <use x="299.609375" xlink:href="#DejaVuSans-111"/>
      <use x="360.791016" xlink:href="#DejaVuSans-110"/>
      <use x="424.169922" xlink:href="#DejaVuSans-32"/>
      <use x="455.957031" xlink:href="#DejaVuSans-110"/>
      <use x="519.335938" xlink:href="#DejaVuSans-117"/>
      <use x="582.714844" xlink:href="#DejaVuSans-109"/>
      <use x="680.126953" xlink:href="#DejaVuSans-98"/>
      <use x="743.603516" xlink:href="#DejaVuSans-101"/>
      <use x="805.126953" xlink:href="#DejaVuSans-114"/>
     </g>
    </g>
   </g>
   <g id="matplotlib.axis_2">
    <g id="ytick_1">
     <g id="line2d_7">
      <defs>
       <path d="M 0 0 
L -3.5 0 
" id="m58d63ff399" style="stroke:#000000;stroke-width:0.8;"/>
      </defs>
      <g>
       <use style="stroke:#000000;stroke-width:0.8;" x="54" xlink:href="#m58d63ff399" y="242.116364"/>
      </g>
     </g>
     <g id="text_8">
      <!-- 0 -->
      <g transform="translate(40.6375 245.915582)scale(0.1 -0.1)">
       <use xlink:href="#DejaVuSans-48"/>
      </g>
     </g>
    </g>
    <g id="ytick_2">
     <g id="line2d_8">
      <g>
       <use style="stroke:#000000;stroke-width:0.8;" x="54" xlink:href="#m58d63ff399" y="207.436938"/>
      </g>
     </g>
     <g id="text_9">
      <!-- 20 -->
      <g transform="translate(34.275 211.236157)scale(0.1 -0.1)">
       <use xlink:href="#DejaVuSans-50"/>
       <use x="63.623047" xlink:href="#DejaVuSans-48"/>
      </g>
     </g>
    </g>
    <g id="ytick_3">
     <g id="line2d_9">
      <g>
       <use style="stroke:#000000;stroke-width:0.8;" x="54" xlink:href="#m58d63ff399" y="172.757512"/>
      </g>
     </g>
     <g id="text_10">
      <!-- 40 -->
      <g transform="translate(34.275 176.556731)scale(0.1 -0.1)">
       <use xlink:href="#DejaVuSans-52"/>
       <use x="63.623047" xlink:href="#DejaVuSans-48"/>
      </g>
     </g>
    </g>
    <g id="ytick_4">
     <g id="line2d_10">
      <g>
       <use style="stroke:#000000;stroke-width:0.8;" x="54" xlink:href="#m58d63ff399" y="138.078086"/>
      </g>
     </g>
     <g id="text_11">
      <!-- 60 -->
      <g transform="translate(34.275 141.877305)scale(0.1 -0.1)">
       <use xlink:href="#DejaVuSans-54"/>
       <use x="63.623047" xlink:href="#DejaVuSans-48"/>
      </g>
     </g>
    </g>
    <g id="ytick_5">
     <g id="line2d_11">
      <g>
       <use style="stroke:#000000;stroke-width:0.8;" x="54" xlink:href="#m58d63ff399" y="103.39866"/>
      </g>
     </g>
     <g id="text_12">
      <!-- 80 -->
      <g transform="translate(34.275 107.197879)scale(0.1 -0.1)">
       <use xlink:href="#DejaVuSans-56"/>
       <use x="63.623047" xlink:href="#DejaVuSans-48"/>
      </g>
     </g>
    </g>
    <g id="ytick_6">
     <g id="line2d_12">
      <g>
       <use style="stroke:#000000;stroke-width:0.8;" x="54" xlink:href="#m58d63ff399" y="68.719234"/>
      </g>
     </g>
     <g id="text_13">
      <!-- 100 -->
      <g transform="translate(27.9125 72.518453)scale(0.1 -0.1)">
       <use xlink:href="#DejaVuSans-49"/>
       <use x="63.623047" xlink:href="#DejaVuSans-48"/>
       <use x="127.246094" xlink:href="#DejaVuSans-48"/>
      </g>
     </g>
    </g>
    <g id="text_14">
     <!-- Population Count -->
     <g transform="translate(21.832812 185.983906)rotate(-90)scale(0.1 -0.1)">
      <defs>
       <path d="M 19.671875 64.796875 
L 19.671875 37.40625 
L 32.078125 37.40625 
Q 38.96875 37.40625 42.71875 40.96875 
Q 46.484375 44.53125 46.484375 51.125 
Q 46.484375 57.671875 42.71875 61.234375 
Q 38.96875 64.796875 32.078125 64.796875 
z
M 9.8125 72.90625 
L 32.078125 72.90625 
Q 44.34375 72.90625 50.609375 67.359375 
Q 56.890625 61.8125 56.890625 51.125 
Q 56.890625 40.328125 50.609375 34.8125 
Q 44.34375 29.296875 32.078125 29.296875 
L 19.671875 29.296875 
L 19.671875 0 
L 9.8125 0 
z
" id="DejaVuSans-80"/>
       <path d="M 18.109375 8.203125 
L 18.109375 -20.796875 
L 9.078125 -20.796875 
L 9.078125 54.6875 
L 18.109375 54.6875 
L 18.109375 46.390625 
Q 20.953125 51.265625 25.265625 53.625 
Q 29.59375 56 35.59375 56 
Q 45.5625 56 51.78125 48.09375 
Q 58.015625 40.1875 58.015625 27.296875 
Q 58.015625 14.40625 51.78125 6.484375 
Q 45.5625 -1.421875 35.59375 -1.421875 
Q 29.59375 -1.421875 25.265625 0.953125 
Q 20.953125 3.328125 18.109375 8.203125 
z
M 48.6875 27.296875 
Q 48.6875 37.203125 44.609375 42.84375 
Q 40.53125 48.484375 33.40625 48.484375 
Q 26.265625 48.484375 22.1875 42.84375 
Q 18.109375 37.203125 18.109375 27.296875 
Q 18.109375 17.390625 22.1875 11.75 
Q 26.265625 6.109375 33.40625 6.109375 
Q 40.53125 6.109375 44.609375 11.75 
Q 48.6875 17.390625 48.6875 27.296875 
z
" id="DejaVuSans-112"/>
       <path d="M 9.421875 75.984375 
L 18.40625 75.984375 
L 18.40625 0 
L 9.421875 0 
z
" id="DejaVuSans-108"/>
       <path d="M 64.40625 67.28125 
L 64.40625 56.890625 
Q 59.421875 61.53125 53.78125 63.8125 
Q 48.140625 66.109375 41.796875 66.109375 
Q 29.296875 66.109375 22.65625 58.46875 
Q 16.015625 50.828125 16.015625 36.375 
Q 16.015625 21.96875 22.65625 14.328125 
Q 29.296875 6.6875 41.796875 6.6875 
Q 48.140625 6.6875 53.78125 8.984375 
Q 59.421875 11.28125 64.40625 15.921875 
L 64.40625 5.609375 
Q 59.234375 2.09375 53.4375 0.328125 
Q 47.65625 -1.421875 41.21875 -1.421875 
Q 24.65625 -1.421875 15.125 8.703125 
Q 5.609375 18.84375 5.609375 36.375 
Q 5.609375 53.953125 15.125 64.078125 
Q 24.65625 74.21875 41.21875 74.21875 
Q 47.75 74.21875 53.53125 72.484375 
Q 59.328125 70.75 64.40625 67.28125 
z
" id="DejaVuSans-67"/>
      </defs>
      <use xlink:href="#DejaVuSans-80"/>
      <use x="56.677734" xlink:href="#DejaVuSans-111"/>
      <use x="117.859375" xlink:href="#DejaVuSans-112"/>
      <use x="181.335938" xlink:href="#DejaVuSans-117"/>
      <use x="244.714844" xlink:href="#DejaVuSans-108"/>
      <use x="272.498047" xlink:href="#DejaVuSans-97"/>
      <use x="333.777344" xlink:href="#DejaVuSans-116"/>
      <use x="372.986328" xlink:href="#DejaVuSans-105"/>
      <use x="400.769531" xlink:href="#DejaVuSans-111"/>
      <use x="461.951172" xlink:href="#DejaVuSans-110"/>
      <use x="525.330078" xlink:href="#DejaVuSans-32"/>
      <use x="557.117188" xlink:href="#DejaVuSans-67"/>
      <use x="626.941406" xlink:href="#DejaVuSans-111"/>
      <use x="688.123047" xlink:href="#DejaVuSans-117"/>
      <use x="751.501953" xlink:href="#DejaVuSans-110"/>
      <use x="814.880859" xlink:href="#DejaVuSans-116"/>
     </g>
    </g>
   </g>
   <g id="LineCollection_1">
    <path clip-path="url(#pb0ef37c782)" d="M 69.218182 191.241646 
L 373.581818 191.241646 
" style="fill:none;stroke:#000000;stroke-dasharray:5.55,2.4;stroke-dashoffset:0;stroke-opacity:0.8;stroke-width:1.5;"/>
    <path clip-path="url(#pb0ef37c782)" d="M 69.218182 240.330373 
L 373.581818 240.330373 
" style="fill:none;stroke:#000000;stroke-dasharray:5.55,2.4;stroke-dashoffset:0;stroke-opacity:0.8;stroke-width:1.5;"/>
    <path clip-path="url(#pb0ef37c782)" d="M 69.218182 123.564746 
L 373.581818 123.564746 
" style="fill:none;stroke:#000000;stroke-dasharray:5.55,2.4;stroke-dashoffset:0;stroke-opacity:0.8;stroke-width:1.5;"/>
   </g>
   <g id="patch_3">
    <path d="M 54 252 
L 54 34.56 
" style="fill:none;stroke:#000000;stroke-linecap:square;stroke-linejoin:miter;stroke-width:0.8;"/>
   </g>
   <g id="patch_4">
    <path d="M 388.8 252 
L 388.8 34.56 
" style="fill:none;stroke:#000000;stroke-linecap:square;stroke-linejoin:miter;stroke-width:0.8;"/>
   </g>
   <g id="patch_5">
    <path d="M 54 252 
L 388.8 252 
" style="fill:none;stroke:#000000;stroke-linecap:square;stroke-linejoin:miter;stroke-width:0.8;"/>
   </g>
   <g id="patch_6">
    <path d="M 54 34.56 
L 388.8 34.56 
" style="fill:none;stroke:#000000;stroke-linecap:square;stroke-linejoin:miter;stroke-width:0.8;"/>
   </g>
   <g id="text_15">
    <!-- End values -->
    <g transform="translate(188.575312 28.56)scale(0.12 -0.12)">
     <defs>
      <path d="M 9.8125 72.90625 
L 55.90625 72.90625 
L 55.90625 64.59375 
L 19.671875 64.59375 
L 19.671875 43.015625 
L 54.390625 43.015625 
L 54.390625 34.71875 
L 19.671875 34.71875 
L 19.671875 8.296875 
L 56.78125 8.296875 
L 56.78125 0 
L 9.8125 0 
z
" id="DejaVuSans-69"/>
      <path d="M 45.40625 46.390625 
L 45.40625 75.984375 
L 54.390625 75.984375 
L 54.390625 0 
L 45.40625 0 
L 45.40625 8.203125 
Q 42.578125 3.328125 38.25 0.953125 
Q 33.9375 -1.421875 27.875 -1.421875 
Q 17.96875 -1.421875 11.734375 6.484375 
Q 5.515625 14.40625 5.515625 27.296875 
Q 5.515625 40.1875 11.734375 48.09375 
Q 17.96875 56 27.875 56 
Q 33.9375 56 38.25 53.625 
Q 42.578125 51.265625 45.40625 46.390625 
z
M 14.796875 27.296875 
Q 14.796875 17.390625 18.875 11.75 
Q 22.953125 6.109375 30.078125 6.109375 
Q 37.203125 6.109375 41.296875 11.75 
Q 45.40625 17.390625 45.40625 27.296875 
Q 45.40625 37.203125 41.296875 42.84375 
Q 37.203125 48.484375 30.078125 48.484375 
Q 22.953125 48.484375 18.875 42.84375 
Q 14.796875 37.203125 14.796875 27.296875 
z
" id="DejaVuSans-100"/>
      <path d="M 2.984375 54.6875 
L 12.5 54.6875 
L 29.59375 8.796875 
L 46.6875 54.6875 
L 56.203125 54.6875 
L 35.6875 0 
L 23.484375 0 
z
" id="DejaVuSans-118"/>
      <path d="M 44.28125 53.078125 
L 44.28125 44.578125 
Q 40.484375 46.53125 36.375 47.5 
Q 32.28125 48.484375 27.875 48.484375 
Q 21.1875 48.484375 17.84375 46.4375 
Q 14.5 44.390625 14.5 40.28125 
Q 14.5 37.15625 16.890625 35.375 
Q 19.28125 33.59375 26.515625 31.984375 
L 29.59375 31.296875 
Q 39.15625 29.25 43.1875 25.515625 
Q 47.21875 21.78125 47.21875 15.09375 
Q 47.21875 7.46875 41.1875 3.015625 
Q 35.15625 -1.421875 24.609375 -1.421875 
Q 20.21875 -1.421875 15.453125 -0.5625 
Q 10.6875 0.296875 5.421875 2 
L 5.421875 11.28125 
Q 10.40625 8.6875 15.234375 7.390625 
Q 20.0625 6.109375 24.8125 6.109375 
Q 31.15625 6.109375 34.5625 8.28125 
Q 37.984375 10.453125 37.984375 14.40625 
Q 37.984375 18.0625 35.515625 20.015625 
Q 33.0625 21.96875 24.703125 23.78125 
L 21.578125 24.515625 
Q 13.234375 26.265625 9.515625 29.90625 
Q 5.8125 33.546875 5.8125 39.890625 
Q 5.8125 47.609375 11.28125 51.796875 
Q 16.75 56 26.8125 56 
Q 31.78125 56 36.171875 55.265625 
Q 40.578125 54.546875 44.28125 53.078125 
z
" id="DejaVuSans-115"/>
     </defs>
     <use xlink:href="#DejaVuSans-69"/>
     <use x="63.183594" xlink:href="#DejaVuSans-110"/>
     <use x="126.5625" xlink:href="#DejaVuSans-100"/>
     <use x="190.039062" xlink:href="#DejaVuSans-32"/>
     <use x="221.826172" xlink:href="#DejaVuSans-118"/>
     <use x="281.005859" xlink:href="#DejaVuSans-97"/>
     <use x="342.285156" xlink:href="#DejaVuSans-108"/>
     <use x="370.068359" xlink:href="#DejaVuSans-117"/>
     <use x="433.447266" xlink:href="#DejaVuSans-101"/>
     <use x="494.970703" xlink:href="#DejaVuSans-115"/>
    </g>
   </g>
   <g id="legend_1">
    <g id="patch_7">
     <path d="M 342.95 86.594375 
L 381.8 86.594375 
Q 383.8 86.594375 383.8 84.594375 
L 383.8 41.56 
Q 383.8 39.56 381.8 39.56 
L 342.95 39.56 
Q 340.95 39.56 340.95 41.56 
L 340.95 84.594375 
Q 340.95 86.594375 342.95 86.594375 
z
" style="fill:#ffffff;opacity:0.8;stroke:#cccccc;stroke-linejoin:miter;"/>
    </g>
    <g id="PathCollection_4">
     <g>
      <use style="fill:#1f77b4;stroke:#1f77b4;" x="354.95" xlink:href="#m59a714c128" y="48.533438"/>
     </g>
    </g>
    <g id="text_16">
     <!-- X -->
     <g transform="translate(372.95 51.158438)scale(0.1 -0.1)">
      <defs>
       <path d="M 6.296875 72.90625 
L 16.890625 72.90625 
L 35.015625 45.796875 
L 53.21875 72.90625 
L 63.8125 72.90625 
L 40.375 37.890625 
L 65.375 0 
L 54.78125 0 
L 34.28125 31 
L 13.625 0 
L 2.984375 0 
L 29 38.921875 
z
" id="DejaVuSans-88"/>
      </defs>
      <use xlink:href="#DejaVuSans-88"/>
     </g>
    </g>
    <g id="PathCollection_5">
     <g>
      <use style="fill:#ff7f0e;stroke:#ff7f0e;" x="354.95" xlink:href="#m81e3a203d8" y="63.211563"/>
     </g>
    </g>
    <g id="text_17">
     <!-- Y -->
     <g transform="translate(372.95 65.836563)scale(0.1 -0.1)">
      <defs>
       <path d="M -0.203125 72.90625 
L 10.40625 72.90625 
L 30.609375 42.921875 
L 50.6875 72.90625 
L 61.28125 72.90625 
L 35.5 34.71875 
L 35.5 0 
L 25.59375 0 
L 25.59375 34.71875 
z
" id="DejaVuSans-89"/>
      </defs>
      <use xlink:href="#DejaVuSans-89"/>
     </g>
    </g>
    <g id="PathCollection_6">
     <g>
      <use style="fill:#2ca02c;stroke:#2ca02c;" x="354.95" xlink:href="#m67ef90472e" y="77.889688"/>
     </g>
    </g>
    <g id="text_18">
     <!-- Z -->
     <g transform="translate(372.95 80.514688)scale(0.1 -0.1)">
      <defs>
       <path d="M 5.609375 72.90625 
L 62.890625 72.90625 
L 62.890625 65.375 
L 16.796875 8.296875 
L 64.015625 8.296875 
L 64.015625 0 
L 4.5 0 
L 4.5 7.515625 
L 50.59375 64.59375 
L 5.609375 64.59375 
z
" id="DejaVuSans-90"/>
      </defs>
      <use xlink:href="#DejaVuSans-90"/>
     </g>
    </g>
   </g>
  </g>
 </g>
 <defs>
  <clipPath id="pb0ef37c782">
   <rect height="217.44" width="334.8" x="54" y="34.56"/>
  </clipPath>
 </defs>
</svg>
