<?xml version="1.0" encoding="utf-8" standalone="no"?>
<!DOCTYPE svg PUBLIC "-//W3C//DTD SVG 1.1//EN"
  "http://www.w3.org/Graphics/SVG/1.1/DTD/svg11.dtd">
<!-- Created with matplotlib (https://matplotlib.org/) -->
<svg height="288pt" version="1.1" viewBox="0 0 432 288" width="432pt" xmlns="http://www.w3.org/2000/svg" xmlns:xlink="http://www.w3.org/1999/xlink">
 <metadata>
  <rdf:RDF xmlns:cc="http://creativecommons.org/ns#" xmlns:dc="http://purl.org/dc/elements/1.1/" xmlns:rdf="http://www.w3.org/1999/02/22-rdf-syntax-ns#">
   <cc:Work>
    <dc:type rdf:resource="http://purl.org/dc/dcmitype/StillImage"/>
    <dc:date>2020-10-14T11:18:42.500163</dc:date>
    <dc:format>image/svg+xml</dc:format>
    <dc:creator>
     <cc:Agent>
      <dc:title>Matplotlib v3.3.1, https://matplotlib.org/</dc:title>
     </cc:Agent>
    </dc:creator>
   </cc:Work>
  </rdf:RDF>
 </metadata>
 <defs>
  <style type="text/css">*{stroke-linecap:butt;stroke-linejoin:round;}</style>
 </defs>
 <g id="figure_1">
  <g id="patch_1">
   <path d="M 0 288 
L 432 288 
L 432 0 
L 0 0 
z
" style="fill:none;"/>
  </g>
  <g id="axes_1">
   <g id="patch_2">
    <path d="M 44.55 114.6 
L 217.6 114.6 
L 217.6 27.9 
L 44.55 27.9 
z
" style="fill:#ffffff;"/>
   </g>
   <g id="matplotlib.axis_1">
    <g id="xtick_1">
     <g id="line2d_1">
      <defs>
       <path d="M 0 0 
L 0 3.5 
" id="m58c6d1a543" style="stroke:#000000;stroke-width:0.8;"/>
      </defs>
      <g>
       <use style="stroke:#000000;stroke-width:0.8;" x="52.415909" xlink:href="#m58c6d1a543" y="114.6"/>
      </g>
     </g>
     <g id="text_1">
      <!-- 0 -->
      <g transform="translate(49.234659 129.198438)scale(0.1 -0.1)">
       <defs>
        <path d="M 31.78125 66.40625 
Q 24.171875 66.40625 20.328125 58.90625 
Q 16.5 51.421875 16.5 36.375 
Q 16.5 21.390625 20.328125 13.890625 
Q 24.171875 6.390625 31.78125 6.390625 
Q 39.453125 6.390625 43.28125 13.890625 
Q 47.125 21.390625 47.125 36.375 
Q 47.125 51.421875 43.28125 58.90625 
Q 39.453125 66.40625 31.78125 66.40625 
z
M 31.78125 74.21875 
Q 44.046875 74.21875 50.515625 64.515625 
Q 56.984375 54.828125 56.984375 36.375 
Q 56.984375 17.96875 50.515625 8.265625 
Q 44.046875 -1.421875 31.78125 -1.421875 
Q 19.53125 -1.421875 13.0625 8.265625 
Q 6.59375 17.96875 6.59375 36.375 
Q 6.59375 54.828125 13.0625 64.515625 
Q 19.53125 74.21875 31.78125 74.21875 
z
" id="DejaVuSans-48"/>
       </defs>
       <use xlink:href="#DejaVuSans-48"/>
      </g>
     </g>
    </g>
    <g id="xtick_2">
     <g id="line2d_2">
      <g>
       <use style="stroke:#000000;stroke-width:0.8;" x="104.094599" xlink:href="#m58c6d1a543" y="114.6"/>
      </g>
     </g>
     <g id="text_2">
      <!-- 10 -->
      <g transform="translate(97.732099 129.198438)scale(0.1 -0.1)">
       <defs>
        <path d="M 12.40625 8.296875 
L 28.515625 8.296875 
L 28.515625 63.921875 
L 10.984375 60.40625 
L 10.984375 69.390625 
L 28.421875 72.90625 
L 38.28125 72.90625 
L 38.28125 8.296875 
L 54.390625 8.296875 
L 54.390625 0 
L 12.40625 0 
z
" id="DejaVuSans-49"/>
       </defs>
       <use xlink:href="#DejaVuSans-49"/>
       <use x="63.623047" xlink:href="#DejaVuSans-48"/>
      </g>
     </g>
    </g>
    <g id="xtick_3">
     <g id="line2d_3">
      <g>
       <use style="stroke:#000000;stroke-width:0.8;" x="155.773289" xlink:href="#m58c6d1a543" y="114.6"/>
      </g>
     </g>
     <g id="text_3">
      <!-- 20 -->
      <g transform="translate(149.410789 129.198438)scale(0.1 -0.1)">
       <defs>
        <path d="M 19.1875 8.296875 
L 53.609375 8.296875 
L 53.609375 0 
L 7.328125 0 
L 7.328125 8.296875 
Q 12.9375 14.109375 22.625 23.890625 
Q 32.328125 33.6875 34.8125 36.53125 
Q 39.546875 41.84375 41.421875 45.53125 
Q 43.3125 49.21875 43.3125 52.78125 
Q 43.3125 58.59375 39.234375 62.25 
Q 35.15625 65.921875 28.609375 65.921875 
Q 23.96875 65.921875 18.8125 64.3125 
Q 13.671875 62.703125 7.8125 59.421875 
L 7.8125 69.390625 
Q 13.765625 71.78125 18.9375 73 
Q 24.125 74.21875 28.421875 74.21875 
Q 39.75 74.21875 46.484375 68.546875 
Q 53.21875 62.890625 53.21875 53.421875 
Q 53.21875 48.921875 51.53125 44.890625 
Q 49.859375 40.875 45.40625 35.40625 
Q 44.1875 33.984375 37.640625 27.21875 
Q 31.109375 20.453125 19.1875 8.296875 
z
" id="DejaVuSans-50"/>
       </defs>
       <use xlink:href="#DejaVuSans-50"/>
       <use x="63.623047" xlink:href="#DejaVuSans-48"/>
      </g>
     </g>
    </g>
    <g id="xtick_4">
     <g id="line2d_4">
      <g>
       <use style="stroke:#000000;stroke-width:0.8;" x="207.451979" xlink:href="#m58c6d1a543" y="114.6"/>
      </g>
     </g>
     <g id="text_4">
      <!-- 30 -->
      <g transform="translate(201.089479 129.198438)scale(0.1 -0.1)">
       <defs>
        <path d="M 40.578125 39.3125 
Q 47.65625 37.796875 51.625 33 
Q 55.609375 28.21875 55.609375 21.1875 
Q 55.609375 10.40625 48.1875 4.484375 
Q 40.765625 -1.421875 27.09375 -1.421875 
Q 22.515625 -1.421875 17.65625 -0.515625 
Q 12.796875 0.390625 7.625 2.203125 
L 7.625 11.71875 
Q 11.71875 9.328125 16.59375 8.109375 
Q 21.484375 6.890625 26.8125 6.890625 
Q 36.078125 6.890625 40.9375 10.546875 
Q 45.796875 14.203125 45.796875 21.1875 
Q 45.796875 27.640625 41.28125 31.265625 
Q 36.765625 34.90625 28.71875 34.90625 
L 20.21875 34.90625 
L 20.21875 43.015625 
L 29.109375 43.015625 
Q 36.375 43.015625 40.234375 45.921875 
Q 44.09375 48.828125 44.09375 54.296875 
Q 44.09375 59.90625 40.109375 62.90625 
Q 36.140625 65.921875 28.71875 65.921875 
Q 24.65625 65.921875 20.015625 65.03125 
Q 15.375 64.15625 9.8125 62.3125 
L 9.8125 71.09375 
Q 15.4375 72.65625 20.34375 73.4375 
Q 25.25 74.21875 29.59375 74.21875 
Q 40.828125 74.21875 47.359375 69.109375 
Q 53.90625 64.015625 53.90625 55.328125 
Q 53.90625 49.265625 50.4375 45.09375 
Q 46.96875 40.921875 40.578125 39.3125 
z
" id="DejaVuSans-51"/>
       </defs>
       <use xlink:href="#DejaVuSans-51"/>
       <use x="63.623047" xlink:href="#DejaVuSans-48"/>
      </g>
     </g>
    </g>
   </g>
   <g id="matplotlib.axis_2">
    <g id="ytick_1">
     <g id="line2d_5">
      <defs>
       <path d="M 0 0 
L -3.5 0 
" id="m7e3cef0b63" style="stroke:#000000;stroke-width:0.8;"/>
      </defs>
      <g>
       <use style="stroke:#000000;stroke-width:0.8;" x="44.55" xlink:href="#m7e3cef0b63" y="110.659091"/>
      </g>
     </g>
     <g id="text_5">
      <!-- 0 -->
      <g transform="translate(31.1875 114.45831)scale(0.1 -0.1)">
       <use xlink:href="#DejaVuSans-48"/>
      </g>
     </g>
    </g>
    <g id="ytick_2">
     <g id="line2d_6">
      <g>
       <use style="stroke:#000000;stroke-width:0.8;" x="44.55" xlink:href="#m7e3cef0b63" y="83.666563"/>
      </g>
     </g>
     <g id="text_6">
      <!-- 25 -->
      <g transform="translate(24.825 87.465782)scale(0.1 -0.1)">
       <defs>
        <path d="M 10.796875 72.90625 
L 49.515625 72.90625 
L 49.515625 64.59375 
L 19.828125 64.59375 
L 19.828125 46.734375 
Q 21.96875 47.46875 24.109375 47.828125 
Q 26.265625 48.1875 28.421875 48.1875 
Q 40.625 48.1875 47.75 41.5 
Q 54.890625 34.8125 54.890625 23.390625 
Q 54.890625 11.625 47.5625 5.09375 
Q 40.234375 -1.421875 26.90625 -1.421875 
Q 22.3125 -1.421875 17.546875 -0.640625 
Q 12.796875 0.140625 7.71875 1.703125 
L 7.71875 11.625 
Q 12.109375 9.234375 16.796875 8.0625 
Q 21.484375 6.890625 26.703125 6.890625 
Q 35.15625 6.890625 40.078125 11.328125 
Q 45.015625 15.765625 45.015625 23.390625 
Q 45.015625 31 40.078125 35.4375 
Q 35.15625 39.890625 26.703125 39.890625 
Q 22.75 39.890625 18.8125 39.015625 
Q 14.890625 38.140625 10.796875 36.28125 
z
" id="DejaVuSans-53"/>
       </defs>
       <use xlink:href="#DejaVuSans-50"/>
       <use x="63.623047" xlink:href="#DejaVuSans-53"/>
      </g>
     </g>
    </g>
    <g id="ytick_3">
     <g id="line2d_7">
      <g>
       <use style="stroke:#000000;stroke-width:0.8;" x="44.55" xlink:href="#m7e3cef0b63" y="56.674035"/>
      </g>
     </g>
     <g id="text_7">
      <!-- 50 -->
      <g transform="translate(24.825 60.473254)scale(0.1 -0.1)">
       <use xlink:href="#DejaVuSans-53"/>
       <use x="63.623047" xlink:href="#DejaVuSans-48"/>
      </g>
     </g>
    </g>
    <g id="ytick_4">
     <g id="line2d_8">
      <g>
       <use style="stroke:#000000;stroke-width:0.8;" x="44.55" xlink:href="#m7e3cef0b63" y="29.681507"/>
      </g>
     </g>
     <g id="text_8">
      <!-- 75 -->
      <g transform="translate(24.825 33.480726)scale(0.1 -0.1)">
       <defs>
        <path d="M 8.203125 72.90625 
L 55.078125 72.90625 
L 55.078125 68.703125 
L 28.609375 0 
L 18.3125 0 
L 43.21875 64.59375 
L 8.203125 64.59375 
z
" id="DejaVuSans-55"/>
       </defs>
       <use xlink:href="#DejaVuSans-55"/>
       <use x="63.623047" xlink:href="#DejaVuSans-53"/>
      </g>
     </g>
    </g>
    <g id="text_9">
     <!-- No. of infected -->
     <g transform="translate(18.745313 107.903906)rotate(-90)scale(0.1 -0.1)">
      <defs>
       <path d="M 9.8125 72.90625 
L 23.09375 72.90625 
L 55.421875 11.921875 
L 55.421875 72.90625 
L 64.984375 72.90625 
L 64.984375 0 
L 51.703125 0 
L 19.390625 60.984375 
L 19.390625 0 
L 9.8125 0 
z
" id="DejaVuSans-78"/>
       <path d="M 30.609375 48.390625 
Q 23.390625 48.390625 19.1875 42.75 
Q 14.984375 37.109375 14.984375 27.296875 
Q 14.984375 17.484375 19.15625 11.84375 
Q 23.34375 6.203125 30.609375 6.203125 
Q 37.796875 6.203125 41.984375 11.859375 
Q 46.1875 17.53125 46.1875 27.296875 
Q 46.1875 37.015625 41.984375 42.703125 
Q 37.796875 48.390625 30.609375 48.390625 
z
M 30.609375 56 
Q 42.328125 56 49.015625 48.375 
Q 55.71875 40.765625 55.71875 27.296875 
Q 55.71875 13.875 49.015625 6.21875 
Q 42.328125 -1.421875 30.609375 -1.421875 
Q 18.84375 -1.421875 12.171875 6.21875 
Q 5.515625 13.875 5.515625 27.296875 
Q 5.515625 40.765625 12.171875 48.375 
Q 18.84375 56 30.609375 56 
z
" id="DejaVuSans-111"/>
       <path d="M 10.6875 12.40625 
L 21 12.40625 
L 21 0 
L 10.6875 0 
z
" id="DejaVuSans-46"/>
       <path id="DejaVuSans-32"/>
       <path d="M 37.109375 75.984375 
L 37.109375 68.5 
L 28.515625 68.5 
Q 23.6875 68.5 21.796875 66.546875 
Q 19.921875 64.59375 19.921875 59.515625 
L 19.921875 54.6875 
L 34.71875 54.6875 
L 34.71875 47.703125 
L 19.921875 47.703125 
L 19.921875 0 
L 10.890625 0 
L 10.890625 47.703125 
L 2.296875 47.703125 
L 2.296875 54.6875 
L 10.890625 54.6875 
L 10.890625 58.5 
Q 10.890625 67.625 15.140625 71.796875 
Q 19.390625 75.984375 28.609375 75.984375 
z
" id="DejaVuSans-102"/>
       <path d="M 9.421875 54.6875 
L 18.40625 54.6875 
L 18.40625 0 
L 9.421875 0 
z
M 9.421875 75.984375 
L 18.40625 75.984375 
L 18.40625 64.59375 
L 9.421875 64.59375 
z
" id="DejaVuSans-105"/>
       <path d="M 54.890625 33.015625 
L 54.890625 0 
L 45.90625 0 
L 45.90625 32.71875 
Q 45.90625 40.484375 42.875 44.328125 
Q 39.84375 48.1875 33.796875 48.1875 
Q 26.515625 48.1875 22.3125 43.546875 
Q 18.109375 38.921875 18.109375 30.90625 
L 18.109375 0 
L 9.078125 0 
L 9.078125 54.6875 
L 18.109375 54.6875 
L 18.109375 46.1875 
Q 21.34375 51.125 25.703125 53.5625 
Q 30.078125 56 35.796875 56 
Q 45.21875 56 50.046875 50.171875 
Q 54.890625 44.34375 54.890625 33.015625 
z
" id="DejaVuSans-110"/>
       <path d="M 56.203125 29.59375 
L 56.203125 25.203125 
L 14.890625 25.203125 
Q 15.484375 15.921875 20.484375 11.0625 
Q 25.484375 6.203125 34.421875 6.203125 
Q 39.59375 6.203125 44.453125 7.46875 
Q 49.3125 8.734375 54.109375 11.28125 
L 54.109375 2.78125 
Q 49.265625 0.734375 44.1875 -0.34375 
Q 39.109375 -1.421875 33.890625 -1.421875 
Q 20.796875 -1.421875 13.15625 6.1875 
Q 5.515625 13.8125 5.515625 26.8125 
Q 5.515625 40.234375 12.765625 48.109375 
Q 20.015625 56 32.328125 56 
Q 43.359375 56 49.78125 48.890625 
Q 56.203125 41.796875 56.203125 29.59375 
z
M 47.21875 32.234375 
Q 47.125 39.59375 43.09375 43.984375 
Q 39.0625 48.390625 32.421875 48.390625 
Q 24.90625 48.390625 20.390625 44.140625 
Q 15.875 39.890625 15.1875 32.171875 
z
" id="DejaVuSans-101"/>
       <path d="M 48.78125 52.59375 
L 48.78125 44.1875 
Q 44.96875 46.296875 41.140625 47.34375 
Q 37.3125 48.390625 33.40625 48.390625 
Q 24.65625 48.390625 19.8125 42.84375 
Q 14.984375 37.3125 14.984375 27.296875 
Q 14.984375 17.28125 19.8125 11.734375 
Q 24.65625 6.203125 33.40625 6.203125 
Q 37.3125 6.203125 41.140625 7.25 
Q 44.96875 8.296875 48.78125 10.40625 
L 48.78125 2.09375 
Q 45.015625 0.34375 40.984375 -0.53125 
Q 36.96875 -1.421875 32.421875 -1.421875 
Q 20.0625 -1.421875 12.78125 6.34375 
Q 5.515625 14.109375 5.515625 27.296875 
Q 5.515625 40.671875 12.859375 48.328125 
Q 20.21875 56 33.015625 56 
Q 37.15625 56 41.109375 55.140625 
Q 45.0625 54.296875 48.78125 52.59375 
z
" id="DejaVuSans-99"/>
       <path d="M 18.3125 70.21875 
L 18.3125 54.6875 
L 36.8125 54.6875 
L 36.8125 47.703125 
L 18.3125 47.703125 
L 18.3125 18.015625 
Q 18.3125 11.328125 20.140625 9.421875 
Q 21.96875 7.515625 27.59375 7.515625 
L 36.8125 7.515625 
L 36.8125 0 
L 27.59375 0 
Q 17.1875 0 13.234375 3.875 
Q 9.28125 7.765625 9.28125 18.015625 
L 9.28125 47.703125 
L 2.6875 47.703125 
L 2.6875 54.6875 
L 9.28125 54.6875 
L 9.28125 70.21875 
z
" id="DejaVuSans-116"/>
       <path d="M 45.40625 46.390625 
L 45.40625 75.984375 
L 54.390625 75.984375 
L 54.390625 0 
L 45.40625 0 
L 45.40625 8.203125 
Q 42.578125 3.328125 38.25 0.953125 
Q 33.9375 -1.421875 27.875 -1.421875 
Q 17.96875 -1.421875 11.734375 6.484375 
Q 5.515625 14.40625 5.515625 27.296875 
Q 5.515625 40.1875 11.734375 48.09375 
Q 17.96875 56 27.875 56 
Q 33.9375 56 38.25 53.625 
Q 42.578125 51.265625 45.40625 46.390625 
z
M 14.796875 27.296875 
Q 14.796875 17.390625 18.875 11.75 
Q 22.953125 6.109375 30.078125 6.109375 
Q 37.203125 6.109375 41.296875 11.75 
Q 45.40625 17.390625 45.40625 27.296875 
Q 45.40625 37.203125 41.296875 42.84375 
Q 37.203125 48.484375 30.078125 48.484375 
Q 22.953125 48.484375 18.875 42.84375 
Q 14.796875 37.203125 14.796875 27.296875 
z
" id="DejaVuSans-100"/>
      </defs>
      <use xlink:href="#DejaVuSans-78"/>
      <use x="74.804688" xlink:href="#DejaVuSans-111"/>
      <use x="134.236328" xlink:href="#DejaVuSans-46"/>
      <use x="166.023438" xlink:href="#DejaVuSans-32"/>
      <use x="197.810547" xlink:href="#DejaVuSans-111"/>
      <use x="258.992188" xlink:href="#DejaVuSans-102"/>
      <use x="294.197266" xlink:href="#DejaVuSans-32"/>
      <use x="325.984375" xlink:href="#DejaVuSans-105"/>
      <use x="353.767578" xlink:href="#DejaVuSans-110"/>
      <use x="417.146484" xlink:href="#DejaVuSans-102"/>
      <use x="452.351562" xlink:href="#DejaVuSans-101"/>
      <use x="513.875" xlink:href="#DejaVuSans-99"/>
      <use x="568.855469" xlink:href="#DejaVuSans-116"/>
      <use x="608.064453" xlink:href="#DejaVuSans-101"/>
      <use x="669.587891" xlink:href="#DejaVuSans-100"/>
     </g>
    </g>
   </g>
   <g id="line2d_9">
    <path clip-path="url(#p4f65f1464e)" d="M 52.415909 109.57939 
L 55.659096 109.57939 
L 55.904922 108.499689 
L 58.087555 108.499689 
L 58.102259 107.419988 
L 58.708798 107.419988 
L 58.765672 106.340286 
L 59.431793 106.340286 
L 59.510233 105.260585 
L 59.832098 105.260585 
L 59.863495 104.180884 
L 60.220996 104.180884 
L 60.407762 102.021482 
L 60.425999 102.021482 
L 60.540431 99.86208 
L 60.770531 99.86208 
L 60.933796 98.782379 
L 61.206942 97.702677 
L 61.400586 95.543275 
L 61.898501 90.14477 
L 62.069123 90.14477 
L 62.289959 89.065068 
L 62.313944 90.14477 
L 62.375735 89.065068 
L 62.445394 86.905666 
L 62.581854 86.905666 
L 62.797719 87.985367 
L 62.832498 85.825965 
L 63.032025 85.825965 
L 63.139098 82.586862 
L 63.252737 82.586862 
L 63.32981 78.268057 
L 63.507644 76.108655 
L 63.527476 77.188356 
L 63.587751 75.028954 
L 63.692538 72.869552 
L 64.153833 69.630448 
L 64.186424 69.630448 
L 64.456934 66.391345 
L 64.524496 66.391345 
L 64.722213 65.311644 
L 64.821845 64.231943 
L 64.856904 65.311644 
L 64.912925 64.231943 
L 64.939823 64.231943 
L 65.121846 60.992839 
L 65.273994 60.992839 
L 65.328765 62.07254 
L 65.333444 60.992839 
L 65.335593 59.913138 
L 65.459446 59.913138 
L 65.756379 55.594334 
L 66.130685 55.594334 
L 66.197633 56.674035 
L 66.926035 45.877024 
L 67.104492 44.797323 
L 67.199346 45.877024 
L 67.248439 44.797323 
L 67.494621 43.717621 
L 67.520589 42.63792 
L 67.749075 41.558219 
L 67.901667 39.398817 
L 68.607611 32.92061 
L 68.788515 32.92061 
L 68.858898 35.080012 
L 68.883256 34.000311 
L 69.072565 32.92061 
L 69.405337 35.080012 
L 69.423206 35.080012 
L 69.441652 36.159714 
L 69.502601 35.080012 
L 69.54501 35.080012 
L 69.581492 36.159714 
L 69.590238 35.080012 
L 69.890282 35.080012 
L 70.06364 32.92061 
L 70.155054 31.840909 
L 70.261048 32.92061 
L 70.279061 31.840909 
L 70.33072 32.92061 
L 70.633281 32.92061 
L 70.695556 31.840909 
L 70.719291 32.92061 
L 71.486823 31.840909 
L 71.683206 34.000311 
L 71.912084 32.92061 
L 72.108078 32.92061 
L 72.297098 31.840909 
L 72.471414 32.92061 
L 72.794208 32.92061 
L 72.825141 34.000311 
L 73.279273 32.92061 
L 73.344107 34.000311 
L 73.360126 32.92061 
L 73.566819 32.92061 
L 73.822553 36.159714 
L 73.92973 35.080012 
L 74.58837 35.080012 
L 74.786819 37.239415 
L 75.060771 38.319116 
L 75.092048 39.398817 
L 75.8456 39.398817 
L 76.022288 40.478518 
L 76.040302 41.558219 
L 76.213238 42.63792 
L 76.223251 41.558219 
L 76.710951 42.63792 
L 77.258346 42.63792 
L 77.508737 43.717621 
L 78.712437 45.877024 
L 78.768689 46.956725 
L 79.251495 49.116127 
L 80.22414 50.195828 
L 80.543175 52.35523 
L 80.895122 53.434932 
L 81.49206 53.434932 
L 81.778796 54.514633 
L 81.95856 53.434932 
L 82.131486 54.514633 
L 82.527598 53.434932 
L 82.56777 54.514633 
L 82.580511 53.434932 
L 82.847761 54.514633 
L 83.478504 55.594334 
L 84.161741 55.594334 
L 84.704055 56.674035 
L 84.808137 57.753736 
L 88.640041 58.833437 
L 88.954908 60.992839 
L 89.573793 60.992839 
L 89.656495 62.07254 
L 90.27021 63.152242 
L 90.453919 64.231943 
L 90.837096 65.311644 
L 90.98703 66.391345 
L 90.99762 67.471046 
L 91.120409 68.550747 
L 91.942239 69.630448 
L 92.063463 70.710149 
L 92.301479 71.789851 
L 96.447341 72.869552 
L 97.845313 75.028954 
L 97.930304 76.108655 
L 98.673874 77.188356 
L 99.367651 79.347758 
L 101.259767 80.42746 
L 102.724145 81.507161 
L 106.467763 81.507161 
L 107.911977 82.586862 
L 109.08853 83.666563 
L 109.292202 84.746264 
L 112.603044 86.905666 
L 116.009387 87.985367 
L 119.947139 89.065068 
L 120.026926 90.14477 
L 121.45821 91.224471 
L 122.13713 92.304172 
L 123.025816 93.383873 
L 125.276849 94.463574 
L 125.314712 95.543275 
L 125.879693 96.622976 
L 127.013669 97.702677 
L 129.569409 98.782379 
L 132.819119 99.86208 
L 134.640531 100.941781 
L 134.939789 102.021482 
L 140.238125 103.101183 
L 143.454487 104.180884 
L 145.181447 105.260585 
L 149.344865 106.340286 
L 158.030866 107.419988 
L 185.205691 109.57939 
L 209.734091 110.659091 
L 209.734091 110.659091 
" style="fill:none;stroke:#1f77b4;stroke-linecap:square;stroke-width:1.5;"/>
   </g>
   <g id="line2d_10">
    <path clip-path="url(#p4f65f1464e)" d="M 52.415909 109.57939 
L 52.747746 108.499689 
L 53.676795 107.419988 
L 53.755675 106.340286 
L 54.072108 107.419988 
L 54.14563 106.340286 
L 54.375221 105.260585 
L 54.485719 103.101183 
L 54.675895 100.941781 
L 54.798403 102.021482 
L 55.379565 100.941781 
L 55.659096 97.702677 
L 55.807712 97.702677 
L 56.002537 94.463574 
L 56.241027 95.543275 
L 56.360216 93.383873 
L 56.527172 87.985367 
L 56.840835 82.586862 
L 57.084188 84.746264 
L 57.348895 71.789851 
L 57.453275 68.550747 
L 57.5589 67.471046 
L 57.683749 66.391345 
L 57.684326 67.471046 
L 57.815794 65.311644 
L 58.102259 55.594334 
L 58.232869 54.514633 
L 58.381951 50.195828 
L 58.458089 51.275529 
L 58.47677 50.195828 
L 58.658917 48.036426 
L 58.765672 46.956725 
L 58.975878 44.797323 
L 59.294982 37.239415 
L 59.406001 40.478518 
L 59.43614 39.398817 
L 59.510233 40.478518 
L 59.717856 36.159714 
L 59.761284 37.239415 
L 59.842637 38.319116 
L 59.863495 37.239415 
L 60.012764 38.319116 
L 60.264155 35.080012 
L 60.343553 36.159714 
L 60.394187 36.159714 
L 60.407762 37.239415 
L 60.44238 34.000311 
L 60.501131 36.159714 
L 60.662194 38.319116 
L 60.741761 36.159714 
L 60.770531 37.239415 
L 60.833905 37.239415 
L 60.933796 34.000311 
L 61.249558 34.000311 
L 61.400586 37.239415 
L 61.685879 37.239415 
L 61.701495 38.319116 
L 61.885796 38.319116 
L 61.898501 39.398817 
L 61.996355 38.319116 
L 62.069123 39.398817 
L 62.232215 39.398817 
L 62.380574 40.478518 
L 62.445394 40.478518 
L 62.797719 44.797323 
L 62.817014 44.797323 
L 62.832498 45.877024 
L 63.32981 48.036426 
L 63.399023 48.036426 
L 63.527476 49.116127 
L 63.60375 49.116127 
L 63.692538 51.275529 
L 63.811081 51.275529 
L 63.963919 52.35523 
L 64.334309 55.594334 
L 64.456934 55.594334 
L 64.524496 56.674035 
L 64.746521 56.674035 
L 64.969302 58.833437 
L 65.121846 58.833437 
L 65.265943 59.913138 
L 65.335593 60.992839 
L 65.545685 62.07254 
L 65.756379 62.07254 
L 65.981026 65.311644 
L 66.260918 69.630448 
L 66.618495 69.630448 
L 66.799386 71.789851 
L 67.828251 71.789851 
L 67.901667 72.869552 
L 68.153821 72.869552 
L 68.499582 78.268057 
L 68.607611 78.268057 
L 68.883256 79.347758 
L 69.405337 79.347758 
L 69.54501 81.507161 
L 69.569338 81.507161 
L 69.590238 82.586862 
L 69.927945 83.666563 
L 70.33072 83.666563 
L 70.670037 84.746264 
L 70.719291 85.825965 
L 71.912084 85.825965 
L 72.108078 86.905666 
L 72.471414 86.905666 
L 72.825141 87.985367 
L 73.360126 87.985367 
L 73.822553 93.383873 
L 73.92973 93.383873 
L 74.444705 95.543275 
L 74.652354 96.622976 
L 75.092048 96.622976 
L 75.69405 97.702677 
L 75.8456 99.86208 
L 76.710951 99.86208 
L 77.168152 100.941781 
L 77.258346 102.021482 
L 80.895122 102.021482 
L 81.49206 103.101183 
L 81.916425 103.101183 
L 81.95856 105.260585 
L 83.478504 105.260585 
L 83.71412 106.340286 
L 84.161741 107.419988 
L 88.954908 107.419988 
L 89.656495 108.499689 
L 97.212818 108.499689 
L 97.263627 109.57939 
L 102.724145 109.57939 
L 106.467763 110.659091 
L 209.734091 110.659091 
L 209.734091 110.659091 
" style="fill:none;stroke:#ff7f0e;stroke-linecap:square;stroke-width:1.5;"/>
   </g>
   <g id="patch_3">
    <path d="M 44.55 114.6 
L 44.55 27.9 
" style="fill:none;stroke:#000000;stroke-linecap:square;stroke-linejoin:miter;stroke-width:0.8;"/>
   </g>
   <g id="patch_4">
    <path d="M 217.6 114.6 
L 217.6 27.9 
" style="fill:none;stroke:#000000;stroke-linecap:square;stroke-linejoin:miter;stroke-width:0.8;"/>
   </g>
   <g id="patch_5">
    <path d="M 44.55 114.6 
L 217.6 114.6 
" style="fill:none;stroke:#000000;stroke-linecap:square;stroke-linejoin:miter;stroke-width:0.8;"/>
   </g>
   <g id="patch_6">
    <path d="M 44.55 27.9 
L 217.6 27.9 
" style="fill:none;stroke:#000000;stroke-linecap:square;stroke-linejoin:miter;stroke-width:0.8;"/>
   </g>
   <g id="text_10">
    <!-- $ρ_{0, 1}$ = 0.0 -->
    <g transform="translate(101.195 21.9)scale(0.12 -0.12)">
     <defs>
      <path d="M 18.796875 44.921875 
Q 22.703125 49.90625 30.953125 54.296875 
Q 34.1875 56 43.0625 56 
Q 53.03125 56 57.71875 48.09375 
Q 62.40625 40.1875 59.90625 27.296875 
Q 57.375 14.40625 49.609375 6.484375 
Q 41.84375 -1.421875 31.890625 -1.421875 
Q 25.875 -1.421875 22.015625 0.984375 
Q 18.171875 3.328125 16.3125 8.203125 
L 10.640625 -20.796875 
L 1.609375 -20.796875 
L 10.890625 26.8125 
Q 13.09375 38.09375 18.796875 44.921875 
z
M 50.59375 27.296875 
Q 52.484375 37.203125 49.515625 42.875 
Q 46.53125 48.484375 39.40625 48.484375 
Q 32.28125 48.484375 27.09375 42.875 
Q 21.921875 37.203125 20.015625 27.296875 
Q 18.0625 17.390625 21.046875 11.71875 
Q 24.03125 6.109375 31.15625 6.109375 
Q 38.28125 6.109375 43.453125 11.71875 
Q 48.640625 17.390625 50.59375 27.296875 
z
" id="DejaVuSans-Oblique-961"/>
      <path d="M 11.71875 12.40625 
L 22.015625 12.40625 
L 22.015625 4 
L 14.015625 -11.625 
L 7.71875 -11.625 
L 11.71875 4 
z
" id="DejaVuSans-44"/>
      <path d="M 10.59375 45.40625 
L 73.1875 45.40625 
L 73.1875 37.203125 
L 10.59375 37.203125 
z
M 10.59375 25.484375 
L 73.1875 25.484375 
L 73.1875 17.1875 
L 10.59375 17.1875 
z
" id="DejaVuSans-61"/>
     </defs>
     <use transform="translate(0 0.78125)" xlink:href="#DejaVuSans-Oblique-961"/>
     <use transform="translate(63.476562 -15.625)scale(0.7)" xlink:href="#DejaVuSans-48"/>
     <use transform="translate(108.012695 -15.625)scale(0.7)" xlink:href="#DejaVuSans-44"/>
     <use transform="translate(143.901367 -15.625)scale(0.7)" xlink:href="#DejaVuSans-49"/>
     <use transform="translate(191.171875 0.78125)" xlink:href="#DejaVuSans-32"/>
     <use transform="translate(222.958984 0.78125)" xlink:href="#DejaVuSans-61"/>
     <use transform="translate(306.748047 0.78125)" xlink:href="#DejaVuSans-32"/>
     <use transform="translate(338.535156 0.78125)" xlink:href="#DejaVuSans-48"/>
     <use transform="translate(402.158203 0.78125)" xlink:href="#DejaVuSans-46"/>
     <use transform="translate(433.945312 0.78125)" xlink:href="#DejaVuSans-48"/>
    </g>
   </g>
   <g id="legend_1">
    <g id="patch_7">
     <path d="M 172.2375 65.25625 
L 210.6 65.25625 
Q 212.6 65.25625 212.6 63.25625 
L 212.6 34.9 
Q 212.6 32.9 210.6 32.9 
L 172.2375 32.9 
Q 170.2375 32.9 170.2375 34.9 
L 170.2375 63.25625 
Q 170.2375 65.25625 172.2375 65.25625 
z
" style="fill:#ffffff;opacity:0.8;stroke:#cccccc;stroke-linejoin:miter;"/>
    </g>
    <g id="line2d_11">
     <path d="M 174.2375 40.998438 
L 194.2375 40.998438 
" style="fill:none;stroke:#1f77b4;stroke-linecap:square;stroke-width:1.5;"/>
    </g>
    <g id="line2d_12"/>
    <g id="text_11">
     <!-- 0 -->
     <g transform="translate(202.2375 44.498438)scale(0.1 -0.1)">
      <use xlink:href="#DejaVuSans-48"/>
     </g>
    </g>
    <g id="line2d_13">
     <path d="M 174.2375 55.676563 
L 194.2375 55.676563 
" style="fill:none;stroke:#ff7f0e;stroke-linecap:square;stroke-width:1.5;"/>
    </g>
    <g id="line2d_14"/>
    <g id="text_12">
     <!-- 1 -->
     <g transform="translate(202.2375 59.176563)scale(0.1 -0.1)">
      <use xlink:href="#DejaVuSans-49"/>
     </g>
    </g>
   </g>
  </g>
  <g id="axes_2">
   <g id="patch_8">
    <path d="M 248.15 114.6 
L 421.2 114.6 
L 421.2 27.9 
L 248.15 27.9 
z
" style="fill:#ffffff;"/>
   </g>
   <g id="matplotlib.axis_3">
    <g id="xtick_5">
     <g id="line2d_15">
      <g>
       <use style="stroke:#000000;stroke-width:0.8;" x="256.015909" xlink:href="#m58c6d1a543" y="114.6"/>
      </g>
     </g>
     <g id="text_13">
      <!-- 0 -->
      <g transform="translate(252.834659 129.198438)scale(0.1 -0.1)">
       <use xlink:href="#DejaVuSans-48"/>
      </g>
     </g>
    </g>
    <g id="xtick_6">
     <g id="line2d_16">
      <g>
       <use style="stroke:#000000;stroke-width:0.8;" x="297.384506" xlink:href="#m58c6d1a543" y="114.6"/>
      </g>
     </g>
     <g id="text_14">
      <!-- 5 -->
      <g transform="translate(294.203256 129.198438)scale(0.1 -0.1)">
       <use xlink:href="#DejaVuSans-53"/>
      </g>
     </g>
    </g>
    <g id="xtick_7">
     <g id="line2d_17">
      <g>
       <use style="stroke:#000000;stroke-width:0.8;" x="338.753102" xlink:href="#m58c6d1a543" y="114.6"/>
      </g>
     </g>
     <g id="text_15">
      <!-- 10 -->
      <g transform="translate(332.390602 129.198438)scale(0.1 -0.1)">
       <use xlink:href="#DejaVuSans-49"/>
       <use x="63.623047" xlink:href="#DejaVuSans-48"/>
      </g>
     </g>
    </g>
    <g id="xtick_8">
     <g id="line2d_18">
      <g>
       <use style="stroke:#000000;stroke-width:0.8;" x="380.121698" xlink:href="#m58c6d1a543" y="114.6"/>
      </g>
     </g>
     <g id="text_16">
      <!-- 15 -->
      <g transform="translate(373.759198 129.198438)scale(0.1 -0.1)">
       <use xlink:href="#DejaVuSans-49"/>
       <use x="63.623047" xlink:href="#DejaVuSans-53"/>
      </g>
     </g>
    </g>
   </g>
   <g id="matplotlib.axis_4">
    <g id="ytick_5">
     <g id="line2d_19">
      <g>
       <use style="stroke:#000000;stroke-width:0.8;" x="248.15" xlink:href="#m7e3cef0b63" y="110.659091"/>
      </g>
     </g>
     <g id="text_17">
      <!-- 0 -->
      <g transform="translate(234.7875 114.45831)scale(0.1 -0.1)">
       <use xlink:href="#DejaVuSans-48"/>
      </g>
     </g>
    </g>
    <g id="ytick_6">
     <g id="line2d_20">
      <g>
       <use style="stroke:#000000;stroke-width:0.8;" x="248.15" xlink:href="#m7e3cef0b63" y="84.732057"/>
      </g>
     </g>
     <g id="text_18">
      <!-- 25 -->
      <g transform="translate(228.425 88.531276)scale(0.1 -0.1)">
       <use xlink:href="#DejaVuSans-50"/>
       <use x="63.623047" xlink:href="#DejaVuSans-53"/>
      </g>
     </g>
    </g>
    <g id="ytick_7">
     <g id="line2d_21">
      <g>
       <use style="stroke:#000000;stroke-width:0.8;" x="248.15" xlink:href="#m7e3cef0b63" y="58.805024"/>
      </g>
     </g>
     <g id="text_19">
      <!-- 50 -->
      <g transform="translate(228.425 62.604243)scale(0.1 -0.1)">
       <use xlink:href="#DejaVuSans-53"/>
       <use x="63.623047" xlink:href="#DejaVuSans-48"/>
      </g>
     </g>
    </g>
    <g id="ytick_8">
     <g id="line2d_22">
      <g>
       <use style="stroke:#000000;stroke-width:0.8;" x="248.15" xlink:href="#m7e3cef0b63" y="32.87799"/>
      </g>
     </g>
     <g id="text_20">
      <!-- 75 -->
      <g transform="translate(228.425 36.677209)scale(0.1 -0.1)">
       <use xlink:href="#DejaVuSans-55"/>
       <use x="63.623047" xlink:href="#DejaVuSans-53"/>
      </g>
     </g>
    </g>
   </g>
   <g id="line2d_23">
    <path clip-path="url(#pea0046344f)" d="M 256.015909 109.62201 
L 260.343617 109.62201 
L 260.434486 108.584928 
L 260.903704 108.584928 
L 260.996473 107.547847 
L 262.500168 107.547847 
L 262.610301 106.510766 
L 263.076557 106.510766 
L 263.183624 107.547847 
L 263.557718 107.547847 
L 263.642211 106.510766 
L 263.838447 106.510766 
L 263.876181 105.473684 
L 263.991536 105.473684 
L 264.12472 104.436603 
L 264.258075 102.36244 
L 264.302247 101.325359 
L 264.908842 101.325359 
L 265.14638 100.288278 
L 265.548083 100.288278 
L 265.586396 99.251196 
L 265.712085 99.251196 
L 265.890459 98.214115 
L 266.082441 98.214115 
L 266.286829 96.139952 
L 266.503957 95.102871 
L 266.603196 95.102871 
L 266.887932 94.065789 
L 266.952886 94.065789 
L 267.305312 90.954545 
L 267.452445 90.954545 
L 267.563876 88.880383 
L 267.670142 86.80622 
L 268.007241 84.732057 
L 268.018409 82.657895 
L 268.317783 80.583732 
L 268.663716 77.472488 
L 268.767715 77.472488 
L 268.969071 74.361244 
L 269.162999 75.398325 
L 269.260639 73.324163 
L 269.35403 72.287081 
L 269.45632 72.287081 
L 269.78188 69.175837 
L 269.835886 67.101675 
L 269.947763 66.064593 
L 270.146295 67.101675 
L 270.160487 68.138756 
L 270.179561 67.101675 
L 270.434354 65.027512 
L 270.614147 63.990431 
L 270.992787 63.990431 
L 271.645931 59.842105 
L 271.793311 60.879187 
L 271.972797 58.805024 
L 272.069013 57.767943 
L 272.243605 57.767943 
L 272.257729 56.730861 
L 272.485256 56.730861 
L 272.581599 55.69378 
L 272.670498 56.730861 
L 272.67519 55.69378 
L 272.753116 54.656699 
L 272.931557 54.656699 
L 273.076524 53.619617 
L 273.105977 52.582536 
L 273.34416 51.545455 
L 273.40456 49.471292 
L 273.628569 49.471292 
L 273.687122 48.434211 
L 273.737974 49.471292 
L 273.789561 49.471292 
L 274.056393 46.360048 
L 274.241151 45.322967 
L 274.304619 43.248804 
L 274.561231 43.248804 
L 274.722083 42.211722 
L 274.837154 43.248804 
L 275.031161 40.13756 
L 275.27901 40.13756 
L 275.279404 41.174641 
L 275.30024 40.13756 
L 275.423256 40.13756 
L 275.715858 39.100478 
L 275.86573 40.13756 
L 276.13315 41.174641 
L 276.350445 39.100478 
L 276.672361 38.063397 
L 276.859122 37.026316 
L 276.89018 35.989234 
L 276.962613 37.026316 
L 276.981161 37.026316 
L 277.179214 35.989234 
L 277.48321 37.026316 
L 277.945991 35.989234 
L 278.298965 32.87799 
L 278.400777 32.87799 
L 278.772862 31.840909 
L 278.880617 32.87799 
L 278.915377 31.840909 
L 278.963702 32.87799 
L 279.022343 32.87799 
L 279.260302 33.915072 
L 279.289299 34.952153 
L 279.401679 33.915072 
L 279.404051 34.952153 
L 279.638487 34.952153 
L 279.788369 33.915072 
L 279.9394 33.915072 
L 280.265762 34.952153 
L 280.319056 33.915072 
L 280.448872 34.952153 
L 280.56662 33.915072 
L 280.603614 34.952153 
L 280.927343 34.952153 
L 280.956137 33.915072 
L 280.961276 34.952153 
L 281.209642 35.989234 
L 281.218524 37.026316 
L 281.422528 35.989234 
L 281.576328 38.063397 
L 281.948952 39.100478 
L 282.109568 40.13756 
L 282.234751 40.13756 
L 282.748199 39.100478 
L 283.722324 39.100478 
L 284.509756 40.13756 
L 286.151788 40.13756 
L 286.730527 41.174641 
L 287.017053 42.211722 
L 287.21703 41.174641 
L 287.54269 41.174641 
L 288.138563 42.211722 
L 288.810793 44.285885 
L 289.251484 45.322967 
L 289.535237 46.360048 
L 290.158146 46.360048 
L 290.437733 47.397129 
L 290.669574 47.397129 
L 292.059022 48.434211 
L 292.648772 48.434211 
L 293.40525 49.471292 
L 293.925 50.508373 
L 294.074733 50.508373 
L 296.192143 51.545455 
L 296.268963 52.582536 
L 297.667302 54.656699 
L 298.470473 55.69378 
L 299.273347 55.69378 
L 299.640353 56.730861 
L 299.799238 57.767943 
L 299.948536 57.767943 
L 300.943917 58.805024 
L 301.568601 59.842105 
L 301.792064 58.805024 
L 302.223536 59.842105 
L 303.225189 60.879187 
L 303.661877 61.916268 
L 305.094299 62.953349 
L 305.850086 66.064593 
L 309.583835 66.064593 
L 310.049724 67.101675 
L 310.319927 68.138756 
L 310.46303 69.175837 
L 310.86383 70.212919 
L 311.50711 70.212919 
L 312.649035 71.25 
L 312.974517 72.287081 
L 316.416693 73.324163 
L 316.643501 74.361244 
L 317.247533 75.398325 
L 320.372067 75.398325 
L 321.765515 76.435407 
L 323.769423 77.472488 
L 324.275795 78.509569 
L 325.841548 79.546651 
L 327.683409 80.583732 
L 327.932358 81.620813 
L 328.431729 82.657895 
L 328.724904 83.694976 
L 328.836675 84.732057 
L 334.231676 85.769139 
L 335.859629 85.769139 
L 337.748756 86.80622 
L 338.795257 87.843301 
L 342.140897 88.880383 
L 344.436066 89.917464 
L 344.971309 90.954545 
L 351.121729 91.991627 
L 353.597723 93.028708 
L 354.682708 94.065789 
L 358.531605 95.102871 
L 363.109556 96.139952 
L 365.643449 97.177033 
L 368.868738 98.214115 
L 370.434441 99.251196 
L 371.04691 100.288278 
L 372.311796 101.325359 
L 373.038384 102.36244 
L 374.699333 103.399522 
L 377.521126 104.436603 
L 382.421117 105.473684 
L 386.595603 105.473684 
L 394.11259 106.510766 
L 399.948314 107.547847 
L 408.281107 108.584928 
L 411.863987 109.62201 
L 413.334091 110.659091 
L 413.334091 110.659091 
" style="fill:none;stroke:#1f77b4;stroke-linecap:square;stroke-width:1.5;"/>
   </g>
   <g id="line2d_24">
    <path clip-path="url(#pea0046344f)" d="M 256.015909 109.62201 
L 256.169237 108.584928 
L 256.17202 107.547847 
L 257.743571 106.510766 
L 258.044828 105.473684 
L 258.334721 103.399522 
L 258.72935 102.36244 
L 258.747772 101.325359 
L 259.686846 99.251196 
L 259.847677 97.177033 
L 260.036883 98.214115 
L 260.132118 94.065789 
L 260.384397 93.028708 
L 260.690297 86.80622 
L 260.96847 85.769139 
L 261.148363 81.620813 
L 261.426244 77.472488 
L 261.854174 70.212919 
L 261.861361 71.25 
L 261.919019 70.212919 
L 262.165883 67.101675 
L 262.187867 68.138756 
L 262.248757 67.101675 
L 262.56723 61.916268 
L 262.610301 62.953349 
L 262.828189 59.842105 
L 262.866798 56.730861 
L 262.933411 58.805024 
L 263.294498 52.582536 
L 263.333078 53.619617 
L 263.453975 54.656699 
L 264.120782 43.248804 
L 264.234252 42.211722 
L 264.294437 41.174641 
L 264.302247 42.211722 
L 264.446512 44.285885 
L 264.459605 43.248804 
L 264.552404 41.174641 
L 264.562119 42.211722 
L 264.574212 43.248804 
L 264.868977 41.174641 
L 265.038483 43.248804 
L 265.14638 40.13756 
L 265.165243 41.174641 
L 265.331126 40.13756 
L 265.360949 39.100478 
L 265.586396 41.174641 
L 265.712085 40.13756 
L 265.853909 40.13756 
L 265.890459 41.174641 
L 266.132758 40.13756 
L 266.260236 40.13756 
L 266.275086 41.174641 
L 266.286829 40.13756 
L 266.471067 40.13756 
L 266.503957 39.100478 
L 266.603196 40.13756 
L 266.809524 40.13756 
L 266.887932 41.174641 
L 266.952886 40.13756 
L 267.0728 40.13756 
L 267.083178 39.100478 
L 267.158739 41.174641 
L 267.183348 40.13756 
L 267.305312 39.100478 
L 267.54583 40.13756 
L 267.670142 39.100478 
L 267.829383 39.100478 
L 267.947823 40.13756 
L 268.018409 39.100478 
L 268.281763 39.100478 
L 268.406378 40.13756 
L 268.479083 40.13756 
L 268.515331 39.100478 
L 268.617373 41.174641 
L 268.767715 43.248804 
L 268.961546 43.248804 
L 269.071509 44.285885 
L 269.260639 45.322967 
L 269.339625 45.322967 
L 269.45632 47.397129 
L 269.572634 47.397129 
L 269.652562 48.434211 
L 269.75184 48.434211 
L 269.835886 47.397129 
L 270.111129 47.397129 
L 270.272968 49.471292 
L 270.338205 49.471292 
L 270.434354 50.508373 
L 270.614147 50.508373 
L 271.139058 52.582536 
L 272.069013 52.582536 
L 272.485256 54.656699 
L 272.549955 54.656699 
L 272.69159 55.69378 
L 272.753116 55.69378 
L 273.105977 58.805024 
L 273.40456 58.805024 
L 273.904342 62.953349 
L 274.056393 63.990431 
L 274.296526 63.990431 
L 274.304619 65.027512 
L 274.561231 66.064593 
L 274.876246 66.064593 
L 275.031161 68.138756 
L 275.423256 70.212919 
L 276.284806 70.212919 
L 276.350445 71.25 
L 276.962613 71.25 
L 277.070768 72.287081 
L 277.179214 73.324163 
L 277.914747 73.324163 
L 278.046769 74.361244 
L 278.146047 75.398325 
L 278.298965 75.398325 
L 278.400777 76.435407 
L 278.963702 76.435407 
L 279.022343 77.472488 
L 279.404051 77.472488 
L 279.638487 78.509569 
L 279.788369 78.509569 
L 279.9394 79.546651 
L 280.603614 79.546651 
L 280.922085 80.583732 
L 280.961276 81.620813 
L 282.037208 81.620813 
L 282.234751 83.694976 
L 282.748199 83.694976 
L 283.070617 84.732057 
L 283.722324 85.769139 
L 284.509756 85.769139 
L 285.642998 86.80622 
L 286.151788 87.843301 
L 286.701397 87.843301 
L 286.730527 88.880383 
L 287.203378 88.880383 
L 287.21703 89.917464 
L 287.54269 90.954545 
L 289.535237 90.954545 
L 290.120932 91.991627 
L 290.158146 93.028708 
L 290.437733 93.028708 
L 290.620717 95.102871 
L 290.669574 96.139952 
L 292.059022 96.139952 
L 292.648772 97.177033 
L 293.925 97.177033 
L 294.074733 98.214115 
L 298.470473 98.214115 
L 298.649347 99.251196 
L 299.273347 100.288278 
L 299.624614 100.288278 
L 299.640353 101.325359 
L 299.799238 101.325359 
L 299.948536 102.36244 
L 305.850086 102.36244 
L 306.347647 103.399522 
L 309.583835 104.436603 
L 310.86383 104.436603 
L 311.50711 105.473684 
L 317.247533 105.473684 
L 318.315972 106.510766 
L 320.372067 107.547847 
L 334.231676 107.547847 
L 335.859629 108.584928 
L 337.629482 108.584928 
L 337.748756 109.62201 
L 382.421117 109.62201 
L 386.595603 110.659091 
L 413.334091 110.659091 
L 413.334091 110.659091 
" style="fill:none;stroke:#ff7f0e;stroke-linecap:square;stroke-width:1.5;"/>
   </g>
   <g id="patch_9">
    <path d="M 248.15 114.6 
L 248.15 27.9 
" style="fill:none;stroke:#000000;stroke-linecap:square;stroke-linejoin:miter;stroke-width:0.8;"/>
   </g>
   <g id="patch_10">
    <path d="M 421.2 114.6 
L 421.2 27.9 
" style="fill:none;stroke:#000000;stroke-linecap:square;stroke-linejoin:miter;stroke-width:0.8;"/>
   </g>
   <g id="patch_11">
    <path d="M 248.15 114.6 
L 421.2 114.6 
" style="fill:none;stroke:#000000;stroke-linecap:square;stroke-linejoin:miter;stroke-width:0.8;"/>
   </g>
   <g id="patch_12">
    <path d="M 248.15 27.9 
L 421.2 27.9 
" style="fill:none;stroke:#000000;stroke-linecap:square;stroke-linejoin:miter;stroke-width:0.8;"/>
   </g>
   <g id="text_21">
    <!-- $ρ_{0, 1}$ = 0.2 -->
    <g transform="translate(305.095 21.9)scale(0.12 -0.12)">
     <use transform="translate(0 0.78125)" xlink:href="#DejaVuSans-Oblique-961"/>
     <use transform="translate(63.476562 -15.625)scale(0.7)" xlink:href="#DejaVuSans-48"/>
     <use transform="translate(108.012695 -15.625)scale(0.7)" xlink:href="#DejaVuSans-44"/>
     <use transform="translate(143.901367 -15.625)scale(0.7)" xlink:href="#DejaVuSans-49"/>
     <use transform="translate(191.171875 0.78125)" xlink:href="#DejaVuSans-32"/>
     <use transform="translate(222.958984 0.78125)" xlink:href="#DejaVuSans-61"/>
     <use transform="translate(306.748047 0.78125)" xlink:href="#DejaVuSans-32"/>
     <use transform="translate(338.535156 0.78125)" xlink:href="#DejaVuSans-48"/>
     <use transform="translate(402.158203 0.78125)" xlink:href="#DejaVuSans-46"/>
     <use transform="translate(428.445312 0.78125)" xlink:href="#DejaVuSans-50"/>
    </g>
   </g>
   <g id="legend_2">
    <g id="patch_13">
     <path d="M 375.8375 65.25625 
L 414.2 65.25625 
Q 416.2 65.25625 416.2 63.25625 
L 416.2 34.9 
Q 416.2 32.9 414.2 32.9 
L 375.8375 32.9 
Q 373.8375 32.9 373.8375 34.9 
L 373.8375 63.25625 
Q 373.8375 65.25625 375.8375 65.25625 
z
" style="fill:#ffffff;opacity:0.8;stroke:#cccccc;stroke-linejoin:miter;"/>
    </g>
    <g id="line2d_25">
     <path d="M 377.8375 40.998438 
L 397.8375 40.998438 
" style="fill:none;stroke:#1f77b4;stroke-linecap:square;stroke-width:1.5;"/>
    </g>
    <g id="line2d_26"/>
    <g id="text_22">
     <!-- 0 -->
     <g transform="translate(405.8375 44.498438)scale(0.1 -0.1)">
      <use xlink:href="#DejaVuSans-48"/>
     </g>
    </g>
    <g id="line2d_27">
     <path d="M 377.8375 55.676563 
L 397.8375 55.676563 
" style="fill:none;stroke:#ff7f0e;stroke-linecap:square;stroke-width:1.5;"/>
    </g>
    <g id="line2d_28"/>
    <g id="text_23">
     <!-- 1 -->
     <g transform="translate(405.8375 59.176563)scale(0.1 -0.1)">
      <use xlink:href="#DejaVuSans-49"/>
     </g>
    </g>
   </g>
  </g>
  <g id="axes_3">
   <g id="patch_14">
    <path d="M 44.55 246.2 
L 217.6 246.2 
L 217.6 159.5 
L 44.55 159.5 
z
" style="fill:#ffffff;"/>
   </g>
   <g id="matplotlib.axis_5">
    <g id="xtick_9">
     <g id="line2d_29">
      <g>
       <use style="stroke:#000000;stroke-width:0.8;" x="52.415909" xlink:href="#m58c6d1a543" y="246.2"/>
      </g>
     </g>
     <g id="text_24">
      <!-- 0 -->
      <g transform="translate(49.234659 260.798437)scale(0.1 -0.1)">
       <use xlink:href="#DejaVuSans-48"/>
      </g>
     </g>
    </g>
    <g id="xtick_10">
     <g id="line2d_30">
      <g>
       <use style="stroke:#000000;stroke-width:0.8;" x="111.829444" xlink:href="#m58c6d1a543" y="246.2"/>
      </g>
     </g>
     <g id="text_25">
      <!-- 10 -->
      <g transform="translate(105.466944 260.798437)scale(0.1 -0.1)">
       <use xlink:href="#DejaVuSans-49"/>
       <use x="63.623047" xlink:href="#DejaVuSans-48"/>
      </g>
     </g>
    </g>
    <g id="xtick_11">
     <g id="line2d_31">
      <g>
       <use style="stroke:#000000;stroke-width:0.8;" x="171.242978" xlink:href="#m58c6d1a543" y="246.2"/>
      </g>
     </g>
     <g id="text_26">
      <!-- 20 -->
      <g transform="translate(164.880478 260.798437)scale(0.1 -0.1)">
       <use xlink:href="#DejaVuSans-50"/>
       <use x="63.623047" xlink:href="#DejaVuSans-48"/>
      </g>
     </g>
    </g>
    <g id="text_27">
     <!-- Time -->
     <g transform="translate(118.841406 274.476562)scale(0.1 -0.1)">
      <defs>
       <path d="M -0.296875 72.90625 
L 61.375 72.90625 
L 61.375 64.59375 
L 35.5 64.59375 
L 35.5 0 
L 25.59375 0 
L 25.59375 64.59375 
L -0.296875 64.59375 
z
" id="DejaVuSans-84"/>
       <path d="M 52 44.1875 
Q 55.375 50.25 60.0625 53.125 
Q 64.75 56 71.09375 56 
Q 79.640625 56 84.28125 50.015625 
Q 88.921875 44.046875 88.921875 33.015625 
L 88.921875 0 
L 79.890625 0 
L 79.890625 32.71875 
Q 79.890625 40.578125 77.09375 44.375 
Q 74.3125 48.1875 68.609375 48.1875 
Q 61.625 48.1875 57.5625 43.546875 
Q 53.515625 38.921875 53.515625 30.90625 
L 53.515625 0 
L 44.484375 0 
L 44.484375 32.71875 
Q 44.484375 40.625 41.703125 44.40625 
Q 38.921875 48.1875 33.109375 48.1875 
Q 26.21875 48.1875 22.15625 43.53125 
Q 18.109375 38.875 18.109375 30.90625 
L 18.109375 0 
L 9.078125 0 
L 9.078125 54.6875 
L 18.109375 54.6875 
L 18.109375 46.1875 
Q 21.1875 51.21875 25.484375 53.609375 
Q 29.78125 56 35.6875 56 
Q 41.65625 56 45.828125 52.96875 
Q 50 49.953125 52 44.1875 
z
" id="DejaVuSans-109"/>
      </defs>
      <use xlink:href="#DejaVuSans-84"/>
      <use x="57.958984" xlink:href="#DejaVuSans-105"/>
      <use x="85.742188" xlink:href="#DejaVuSans-109"/>
      <use x="183.154297" xlink:href="#DejaVuSans-101"/>
     </g>
    </g>
   </g>
   <g id="matplotlib.axis_6">
    <g id="ytick_9">
     <g id="line2d_32">
      <g>
       <use style="stroke:#000000;stroke-width:0.8;" x="44.55" xlink:href="#m7e3cef0b63" y="242.259091"/>
      </g>
     </g>
     <g id="text_28">
      <!-- 0 -->
      <g transform="translate(31.1875 246.05831)scale(0.1 -0.1)">
       <use xlink:href="#DejaVuSans-48"/>
      </g>
     </g>
    </g>
    <g id="ytick_10">
     <g id="line2d_33">
      <g>
       <use style="stroke:#000000;stroke-width:0.8;" x="44.55" xlink:href="#m7e3cef0b63" y="216.668772"/>
      </g>
     </g>
     <g id="text_29">
      <!-- 25 -->
      <g transform="translate(24.825 220.467991)scale(0.1 -0.1)">
       <use xlink:href="#DejaVuSans-50"/>
       <use x="63.623047" xlink:href="#DejaVuSans-53"/>
      </g>
     </g>
    </g>
    <g id="ytick_11">
     <g id="line2d_34">
      <g>
       <use style="stroke:#000000;stroke-width:0.8;" x="44.55" xlink:href="#m7e3cef0b63" y="191.078453"/>
      </g>
     </g>
     <g id="text_30">
      <!-- 50 -->
      <g transform="translate(24.825 194.877672)scale(0.1 -0.1)">
       <use xlink:href="#DejaVuSans-53"/>
       <use x="63.623047" xlink:href="#DejaVuSans-48"/>
      </g>
     </g>
    </g>
    <g id="ytick_12">
     <g id="line2d_35">
      <g>
       <use style="stroke:#000000;stroke-width:0.8;" x="44.55" xlink:href="#m7e3cef0b63" y="165.488135"/>
      </g>
     </g>
     <g id="text_31">
      <!-- 75 -->
      <g transform="translate(24.825 169.287353)scale(0.1 -0.1)">
       <use xlink:href="#DejaVuSans-55"/>
       <use x="63.623047" xlink:href="#DejaVuSans-53"/>
      </g>
     </g>
    </g>
    <g id="text_32">
     <!-- No. of infected -->
     <g transform="translate(18.745313 239.503906)rotate(-90)scale(0.1 -0.1)">
      <use xlink:href="#DejaVuSans-78"/>
      <use x="74.804688" xlink:href="#DejaVuSans-111"/>
      <use x="134.236328" xlink:href="#DejaVuSans-46"/>
      <use x="166.023438" xlink:href="#DejaVuSans-32"/>
      <use x="197.810547" xlink:href="#DejaVuSans-111"/>
      <use x="258.992188" xlink:href="#DejaVuSans-102"/>
      <use x="294.197266" xlink:href="#DejaVuSans-32"/>
      <use x="325.984375" xlink:href="#DejaVuSans-105"/>
      <use x="353.767578" xlink:href="#DejaVuSans-110"/>
      <use x="417.146484" xlink:href="#DejaVuSans-102"/>
      <use x="452.351562" xlink:href="#DejaVuSans-101"/>
      <use x="513.875" xlink:href="#DejaVuSans-99"/>
      <use x="568.855469" xlink:href="#DejaVuSans-116"/>
      <use x="608.064453" xlink:href="#DejaVuSans-101"/>
      <use x="669.587891" xlink:href="#DejaVuSans-100"/>
     </g>
    </g>
   </g>
   <g id="line2d_36">
    <path clip-path="url(#p3f769bce88)" d="M 52.415909 241.235478 
L 53.631293 241.235478 
L 53.849681 240.211865 
L 54.130634 240.211865 
L 54.132878 239.188253 
L 54.349672 238.16464 
L 54.512468 237.141027 
L 54.595197 237.141027 
L 54.754028 235.093802 
L 55.266623 235.093802 
L 55.413877 233.046576 
L 55.671896 230.999351 
L 55.777866 230.999351 
L 55.887674 229.975738 
L 55.960791 228.952125 
L 56.305862 228.952125 
L 56.521532 225.881287 
L 56.724529 225.881287 
L 56.830184 222.810449 
L 56.855373 222.810449 
L 56.968972 219.73961 
L 57.238331 219.73961 
L 57.353611 216.668772 
L 57.438213 216.668772 
L 57.558798 215.645159 
L 57.603732 215.645159 
L 57.747891 214.621547 
L 57.980638 211.550708 
L 58.155514 211.550708 
L 58.294155 207.456257 
L 58.398993 205.409032 
L 58.599907 205.409032 
L 58.665141 204.385419 
L 58.765673 204.385419 
L 58.907489 203.361806 
L 59.245655 197.22013 
L 59.348534 195.172904 
L 59.554207 195.172904 
L 59.811925 192.102066 
L 59.895435 194.149292 
L 59.899426 193.125679 
L 60.368277 188.007615 
L 60.374725 189.031228 
L 60.442444 189.031228 
L 60.866928 182.889551 
L 61.017896 183.913164 
L 61.040542 181.865939 
L 61.05153 182.889551 
L 61.159735 181.865939 
L 61.253616 182.889551 
L 61.480564 179.818713 
L 61.485287 180.842326 
L 61.611794 178.7951 
L 61.879928 178.7951 
L 61.969036 177.771488 
L 62.145228 176.747875 
L 62.165084 176.747875 
L 62.219271 177.771488 
L 62.244009 176.747875 
L 62.538248 175.724262 
L 62.700363 174.700649 
L 62.778105 174.700649 
L 62.778397 173.677037 
L 62.819508 174.700649 
L 62.971571 173.677037 
L 63.113198 173.677037 
L 63.137703 172.653424 
L 63.174431 173.677037 
L 63.292889 171.629811 
L 63.296261 170.606198 
L 63.443837 171.629811 
L 63.62102 168.558973 
L 63.851191 169.582586 
L 63.948882 169.582586 
L 64.178414 170.606198 
L 64.327048 172.653424 
L 64.451315 170.606198 
L 64.585876 171.629811 
L 64.742087 170.606198 
L 64.861281 169.582586 
L 65.074815 171.629811 
L 65.186125 170.606198 
L 65.882737 169.582586 
L 65.949304 170.606198 
L 66.145274 170.606198 
L 66.2282 171.629811 
L 67.026073 171.629811 
L 67.078019 172.653424 
L 67.530634 172.653424 
L 67.877454 174.700649 
L 67.926967 173.677037 
L 68.20427 172.653424 
L 68.38064 172.653424 
L 68.519228 171.629811 
L 68.703376 172.653424 
L 69.098266 172.653424 
L 69.454071 170.606198 
L 69.632601 170.606198 
L 70.138944 168.558973 
L 70.469805 169.582586 
L 70.804817 168.558973 
L 70.98397 170.606198 
L 71.202536 171.629811 
L 72.064941 171.629811 
L 72.298717 174.700649 
L 73.202105 174.700649 
L 73.301105 175.724262 
L 73.904494 175.724262 
L 73.958463 176.747875 
L 74.529441 179.818713 
L 74.705357 178.7951 
L 75.051983 178.7951 
L 75.133173 180.842326 
L 76.498067 180.842326 
L 76.527793 181.865939 
L 77.031372 182.889551 
L 77.477824 182.889551 
L 77.584034 183.913164 
L 78.281583 184.936777 
L 78.284705 185.96039 
L 78.432706 185.96039 
L 78.803291 188.007615 
L 79.094557 188.007615 
L 79.26148 189.031228 
L 80.081538 190.054841 
L 80.361591 192.102066 
L 81.116436 192.102066 
L 81.265198 193.125679 
L 81.625476 193.125679 
L 81.729293 194.149292 
L 82.487181 194.149292 
L 83.192843 195.172904 
L 83.384102 197.22013 
L 83.644893 197.22013 
L 84.001405 198.243743 
L 84.503937 199.267355 
L 85.155683 199.267355 
L 85.506594 200.290968 
L 85.604642 201.314581 
L 86.139673 202.338194 
L 86.328831 204.385419 
L 86.503579 204.385419 
L 87.475029 205.409032 
L 88.067936 206.432645 
L 89.952673 208.47987 
L 89.969293 209.503483 
L 90.639041 210.527096 
L 91.52766 212.574321 
L 91.729068 214.621547 
L 93.998951 214.621547 
L 94.767584 217.692385 
L 96.715914 217.692385 
L 97.883522 218.715998 
L 99.452914 220.763223 
L 100.859684 220.763223 
L 102.550634 221.786836 
L 109.200535 222.810449 
L 110.403254 223.834061 
L 111.97168 223.834061 
L 113.562821 224.857674 
L 115.974017 226.9049 
L 116.451304 227.928512 
L 119.819059 228.952125 
L 119.866247 229.975738 
L 120.697674 230.999351 
L 123.435041 232.022963 
L 131.075246 234.070189 
L 132.211044 235.093802 
L 134.03138 236.117414 
L 144.807278 237.141027 
L 145.140061 238.16464 
L 175.487254 239.188253 
L 175.819232 240.211865 
L 185.226243 241.235478 
L 209.734091 242.259091 
L 209.734091 242.259091 
" style="fill:none;stroke:#1f77b4;stroke-linecap:square;stroke-width:1.5;"/>
   </g>
   <g id="line2d_37">
    <path clip-path="url(#p3f769bce88)" d="M 52.415909 241.235478 
L 52.436242 240.211865 
L 53.405363 238.16464 
L 53.567867 237.141027 
L 53.631293 235.093802 
L 53.766119 235.093802 
L 53.849681 236.117414 
L 54.045013 234.070189 
L 54.132878 232.022963 
L 54.412595 232.022963 
L 54.768441 222.810449 
L 54.871026 221.786836 
L 54.968039 219.73961 
L 54.987642 220.763223 
L 55.10175 218.715998 
L 55.163163 211.550708 
L 55.179494 212.574321 
L 55.290338 211.550708 
L 55.401623 211.550708 
L 55.510996 210.527096 
L 55.538783 210.527096 
L 55.663871 208.47987 
L 55.736851 205.409032 
L 55.777866 206.432645 
L 55.808128 206.432645 
L 55.960791 205.409032 
L 56.073285 206.432645 
L 56.342585 199.267355 
L 56.39743 200.290968 
L 56.521532 200.290968 
L 56.776192 197.22013 
L 56.782086 198.243743 
L 56.855373 196.196517 
L 56.872721 196.196517 
L 56.968972 194.149292 
L 57.331706 186.984002 
L 57.344548 188.007615 
L 57.353611 186.984002 
L 57.555792 183.913164 
L 57.63959 182.889551 
L 57.695805 179.818713 
L 57.797031 174.700649 
L 57.815229 175.724262 
L 57.842161 173.677037 
L 58.20723 169.582586 
L 58.294155 170.606198 
L 58.398993 170.606198 
L 58.609497 168.558973 
L 58.749546 166.511747 
L 58.765673 167.53536 
L 58.803453 167.53536 
L 58.975091 168.558973 
L 59.030053 168.558973 
L 59.200351 165.488135 
L 59.252736 165.488135 
L 59.348534 164.464522 
L 59.491207 163.440909 
L 59.659772 164.464522 
L 59.682824 164.464522 
L 59.811925 166.511747 
L 59.994555 166.511747 
L 60.097712 165.488135 
L 60.242185 166.511747 
L 60.345606 166.511747 
L 60.531586 170.606198 
L 60.682492 170.606198 
L 60.804223 171.629811 
L 61.32231 171.629811 
L 61.442201 172.653424 
L 61.607784 172.653424 
L 61.611794 173.677037 
L 61.832628 174.700649 
L 61.969036 176.747875 
L 62.040891 176.747875 
L 62.145228 175.724262 
L 62.244009 176.747875 
L 62.605561 176.747875 
L 62.721483 178.7951 
L 62.819508 180.842326 
L 62.971571 180.842326 
L 63.174431 181.865939 
L 63.425653 181.865939 
L 63.565403 183.913164 
L 63.745665 183.913164 
L 63.948882 185.96039 
L 64.527676 185.96039 
L 64.742087 189.031228 
L 65.012129 189.031228 
L 65.074815 190.054841 
L 65.795086 190.054841 
L 65.882737 192.102066 
L 65.949304 192.102066 
L 66.2282 193.125679 
L 66.750872 194.149292 
L 67.078019 195.172904 
L 67.648323 196.196517 
L 67.67144 196.196517 
L 67.825059 197.22013 
L 67.926967 199.267355 
L 68.20427 199.267355 
L 68.360359 200.290968 
L 68.38064 201.314581 
L 68.703376 201.314581 
L 69.098266 202.338194 
L 69.389808 202.338194 
L 69.454071 204.385419 
L 69.632601 205.409032 
L 71.202536 205.409032 
L 72.150972 206.432645 
L 72.298717 207.456257 
L 72.989359 208.47987 
L 73.301105 209.503483 
L 73.958463 211.550708 
L 74.705357 211.550708 
L 74.961204 212.574321 
L 75.224949 215.645159 
L 75.506253 216.668772 
L 76.515045 218.715998 
L 76.527793 220.763223 
L 77.031372 220.763223 
L 77.536593 221.786836 
L 77.584034 222.810449 
L 78.178575 222.810449 
L 78.432706 224.857674 
L 78.803291 224.857674 
L 79.094557 225.881287 
L 80.361591 225.881287 
L 81.116436 226.9049 
L 81.265198 226.9049 
L 81.572817 227.928512 
L 81.729293 228.952125 
L 82.487181 230.999351 
L 83.384102 230.999351 
L 83.644893 232.022963 
L 84.503937 232.022963 
L 85.155683 233.046576 
L 85.598337 233.046576 
L 85.604642 234.070189 
L 86.328831 234.070189 
L 86.503579 235.093802 
L 91.729068 235.093802 
L 94.258775 236.117414 
L 94.767584 236.117414 
L 96.42596 237.141027 
L 96.715914 238.16464 
L 99.452914 238.16464 
L 99.846831 239.188253 
L 100.612651 240.211865 
L 100.859684 241.235478 
L 110.403254 241.235478 
L 111.97168 242.259091 
L 209.734091 242.259091 
L 209.734091 242.259091 
" style="fill:none;stroke:#ff7f0e;stroke-linecap:square;stroke-width:1.5;"/>
   </g>
   <g id="patch_15">
    <path d="M 44.55 246.2 
L 44.55 159.5 
" style="fill:none;stroke:#000000;stroke-linecap:square;stroke-linejoin:miter;stroke-width:0.8;"/>
   </g>
   <g id="patch_16">
    <path d="M 217.6 246.2 
L 217.6 159.5 
" style="fill:none;stroke:#000000;stroke-linecap:square;stroke-linejoin:miter;stroke-width:0.8;"/>
   </g>
   <g id="patch_17">
    <path d="M 44.55 246.2 
L 217.6 246.2 
" style="fill:none;stroke:#000000;stroke-linecap:square;stroke-linejoin:miter;stroke-width:0.8;"/>
   </g>
   <g id="patch_18">
    <path d="M 44.55 159.5 
L 217.6 159.5 
" style="fill:none;stroke:#000000;stroke-linecap:square;stroke-linejoin:miter;stroke-width:0.8;"/>
   </g>
   <g id="text_33">
    <!-- $ρ_{0, 1}$ = 0.6 -->
    <g transform="translate(101.195 153.5)scale(0.12 -0.12)">
     <defs>
      <path d="M 33.015625 40.375 
Q 26.375 40.375 22.484375 35.828125 
Q 18.609375 31.296875 18.609375 23.390625 
Q 18.609375 15.53125 22.484375 10.953125 
Q 26.375 6.390625 33.015625 6.390625 
Q 39.65625 6.390625 43.53125 10.953125 
Q 47.40625 15.53125 47.40625 23.390625 
Q 47.40625 31.296875 43.53125 35.828125 
Q 39.65625 40.375 33.015625 40.375 
z
M 52.59375 71.296875 
L 52.59375 62.3125 
Q 48.875 64.0625 45.09375 64.984375 
Q 41.3125 65.921875 37.59375 65.921875 
Q 27.828125 65.921875 22.671875 59.328125 
Q 17.53125 52.734375 16.796875 39.40625 
Q 19.671875 43.65625 24.015625 45.921875 
Q 28.375 48.1875 33.59375 48.1875 
Q 44.578125 48.1875 50.953125 41.515625 
Q 57.328125 34.859375 57.328125 23.390625 
Q 57.328125 12.15625 50.6875 5.359375 
Q 44.046875 -1.421875 33.015625 -1.421875 
Q 20.359375 -1.421875 13.671875 8.265625 
Q 6.984375 17.96875 6.984375 36.375 
Q 6.984375 53.65625 15.1875 63.9375 
Q 23.390625 74.21875 37.203125 74.21875 
Q 40.921875 74.21875 44.703125 73.484375 
Q 48.484375 72.75 52.59375 71.296875 
z
" id="DejaVuSans-54"/>
     </defs>
     <use transform="translate(0 0.78125)" xlink:href="#DejaVuSans-Oblique-961"/>
     <use transform="translate(63.476562 -15.625)scale(0.7)" xlink:href="#DejaVuSans-48"/>
     <use transform="translate(108.012695 -15.625)scale(0.7)" xlink:href="#DejaVuSans-44"/>
     <use transform="translate(143.901367 -15.625)scale(0.7)" xlink:href="#DejaVuSans-49"/>
     <use transform="translate(191.171875 0.78125)" xlink:href="#DejaVuSans-32"/>
     <use transform="translate(222.958984 0.78125)" xlink:href="#DejaVuSans-61"/>
     <use transform="translate(306.748047 0.78125)" xlink:href="#DejaVuSans-32"/>
     <use transform="translate(338.535156 0.78125)" xlink:href="#DejaVuSans-48"/>
     <use transform="translate(402.158203 0.78125)" xlink:href="#DejaVuSans-46"/>
     <use transform="translate(433.945312 0.78125)" xlink:href="#DejaVuSans-54"/>
    </g>
   </g>
   <g id="legend_3">
    <g id="patch_19">
     <path d="M 172.2375 196.85625 
L 210.6 196.85625 
Q 212.6 196.85625 212.6 194.85625 
L 212.6 166.5 
Q 212.6 164.5 210.6 164.5 
L 172.2375 164.5 
Q 170.2375 164.5 170.2375 166.5 
L 170.2375 194.85625 
Q 170.2375 196.85625 172.2375 196.85625 
z
" style="fill:#ffffff;opacity:0.8;stroke:#cccccc;stroke-linejoin:miter;"/>
    </g>
    <g id="line2d_38">
     <path d="M 174.2375 172.598437 
L 194.2375 172.598437 
" style="fill:none;stroke:#1f77b4;stroke-linecap:square;stroke-width:1.5;"/>
    </g>
    <g id="line2d_39"/>
    <g id="text_34">
     <!-- 0 -->
     <g transform="translate(202.2375 176.098437)scale(0.1 -0.1)">
      <use xlink:href="#DejaVuSans-48"/>
     </g>
    </g>
    <g id="line2d_40">
     <path d="M 174.2375 187.276563 
L 194.2375 187.276563 
" style="fill:none;stroke:#ff7f0e;stroke-linecap:square;stroke-width:1.5;"/>
    </g>
    <g id="line2d_41"/>
    <g id="text_35">
     <!-- 1 -->
     <g transform="translate(202.2375 190.776563)scale(0.1 -0.1)">
      <use xlink:href="#DejaVuSans-49"/>
     </g>
    </g>
   </g>
  </g>
  <g id="axes_4">
   <g id="patch_20">
    <path d="M 248.15 246.2 
L 421.2 246.2 
L 421.2 159.5 
L 248.15 159.5 
z
" style="fill:#ffffff;"/>
   </g>
   <g id="matplotlib.axis_7">
    <g id="xtick_12">
     <g id="line2d_42">
      <g>
       <use style="stroke:#000000;stroke-width:0.8;" x="256.015909" xlink:href="#m58c6d1a543" y="246.2"/>
      </g>
     </g>
     <g id="text_36">
      <!-- 0 -->
      <g transform="translate(252.834659 260.798437)scale(0.1 -0.1)">
       <use xlink:href="#DejaVuSans-48"/>
      </g>
     </g>
    </g>
    <g id="xtick_13">
     <g id="line2d_43">
      <g>
       <use style="stroke:#000000;stroke-width:0.8;" x="321.954816" xlink:href="#m58c6d1a543" y="246.2"/>
      </g>
     </g>
     <g id="text_37">
      <!-- 20 -->
      <g transform="translate(315.592316 260.798437)scale(0.1 -0.1)">
       <use xlink:href="#DejaVuSans-50"/>
       <use x="63.623047" xlink:href="#DejaVuSans-48"/>
      </g>
     </g>
    </g>
    <g id="xtick_14">
     <g id="line2d_44">
      <g>
       <use style="stroke:#000000;stroke-width:0.8;" x="387.893722" xlink:href="#m58c6d1a543" y="246.2"/>
      </g>
     </g>
     <g id="text_38">
      <!-- 40 -->
      <g transform="translate(381.531222 260.798437)scale(0.1 -0.1)">
       <defs>
        <path d="M 37.796875 64.3125 
L 12.890625 25.390625 
L 37.796875 25.390625 
z
M 35.203125 72.90625 
L 47.609375 72.90625 
L 47.609375 25.390625 
L 58.015625 25.390625 
L 58.015625 17.1875 
L 47.609375 17.1875 
L 47.609375 0 
L 37.796875 0 
L 37.796875 17.1875 
L 4.890625 17.1875 
L 4.890625 26.703125 
z
" id="DejaVuSans-52"/>
       </defs>
       <use xlink:href="#DejaVuSans-52"/>
       <use x="63.623047" xlink:href="#DejaVuSans-48"/>
      </g>
     </g>
    </g>
    <g id="text_39">
     <!-- Time -->
     <g transform="translate(322.441406 274.476562)scale(0.1 -0.1)">
      <use xlink:href="#DejaVuSans-84"/>
      <use x="57.958984" xlink:href="#DejaVuSans-105"/>
      <use x="85.742188" xlink:href="#DejaVuSans-109"/>
      <use x="183.154297" xlink:href="#DejaVuSans-101"/>
     </g>
    </g>
   </g>
   <g id="matplotlib.axis_8">
    <g id="ytick_13">
     <g id="line2d_45">
      <g>
       <use style="stroke:#000000;stroke-width:0.8;" x="248.15" xlink:href="#m7e3cef0b63" y="242.259091"/>
      </g>
     </g>
     <g id="text_40">
      <!-- 0 -->
      <g transform="translate(234.7875 246.05831)scale(0.1 -0.1)">
       <use xlink:href="#DejaVuSans-48"/>
      </g>
     </g>
    </g>
    <g id="ytick_14">
     <g id="line2d_46">
      <g>
       <use style="stroke:#000000;stroke-width:0.8;" x="248.15" xlink:href="#m7e3cef0b63" y="216.332057"/>
      </g>
     </g>
     <g id="text_41">
      <!-- 25 -->
      <g transform="translate(228.425 220.131276)scale(0.1 -0.1)">
       <use xlink:href="#DejaVuSans-50"/>
       <use x="63.623047" xlink:href="#DejaVuSans-53"/>
      </g>
     </g>
    </g>
    <g id="ytick_15">
     <g id="line2d_47">
      <g>
       <use style="stroke:#000000;stroke-width:0.8;" x="248.15" xlink:href="#m7e3cef0b63" y="190.405024"/>
      </g>
     </g>
     <g id="text_42">
      <!-- 50 -->
      <g transform="translate(228.425 194.204243)scale(0.1 -0.1)">
       <use xlink:href="#DejaVuSans-53"/>
       <use x="63.623047" xlink:href="#DejaVuSans-48"/>
      </g>
     </g>
    </g>
    <g id="ytick_16">
     <g id="line2d_48">
      <g>
       <use style="stroke:#000000;stroke-width:0.8;" x="248.15" xlink:href="#m7e3cef0b63" y="164.47799"/>
      </g>
     </g>
     <g id="text_43">
      <!-- 75 -->
      <g transform="translate(228.425 168.277209)scale(0.1 -0.1)">
       <use xlink:href="#DejaVuSans-55"/>
       <use x="63.623047" xlink:href="#DejaVuSans-53"/>
      </g>
     </g>
    </g>
   </g>
   <g id="line2d_49">
    <path clip-path="url(#p4a212fdd98)" d="M 256.015909 241.22201 
L 256.848022 240.184928 
L 257.142781 240.184928 
L 257.143566 239.147847 
L 257.339655 239.147847 
L 257.353384 238.110766 
L 257.575893 238.110766 
L 257.715652 237.073684 
L 257.925868 237.073684 
L 258.09173 233.96244 
L 258.189938 233.96244 
L 258.302172 231.888278 
L 258.400435 232.925359 
L 258.482423 231.888278 
L 258.546628 231.888278 
L 258.664573 227.739952 
L 258.929174 227.739952 
L 259.030756 222.554545 
L 259.271785 215.294976 
L 259.305178 216.332057 
L 259.374951 215.294976 
L 259.475822 214.257895 
L 259.517419 214.257895 
L 259.527293 215.294976 
L 259.560803 209.072488 
L 259.787424 195.590431 
L 259.91443 195.590431 
L 259.982222 196.627512 
L 260.010209 195.590431 
L 260.109397 192.479187 
L 260.133376 192.479187 
L 260.207073 190.405024 
L 260.369455 187.29378 
L 260.516791 187.29378 
L 260.549931 188.330861 
L 260.611015 185.219617 
L 260.875233 182.108373 
L 260.95288 181.071292 
L 261.012383 181.071292 
L 261.027824 182.108373 
L 261.107509 180.034211 
L 261.166416 180.034211 
L 261.16778 178.997129 
L 261.409536 176.922967 
L 261.510488 177.960048 
L 261.513591 176.922967 
L 261.602482 171.73756 
L 261.630863 173.811722 
L 261.828466 172.774641 
L 261.983746 169.663397 
L 261.999541 169.663397 
L 262.188748 167.589234 
L 262.249958 168.626316 
L 262.402979 166.552153 
L 262.435286 165.515072 
L 262.466872 166.552153 
L 262.528504 166.552153 
L 262.658147 165.515072 
L 262.766686 164.47799 
L 263.177007 164.47799 
L 263.286481 163.440909 
L 263.352665 165.515072 
L 263.483356 165.515072 
L 263.491683 164.47799 
L 263.801466 167.589234 
L 264.179215 164.47799 
L 264.473815 165.515072 
L 264.575043 165.515072 
L 264.638392 166.552153 
L 264.733268 165.515072 
L 264.878943 165.515072 
L 264.996307 166.552153 
L 265.102256 167.589234 
L 265.126343 168.626316 
L 265.287044 168.626316 
L 265.801754 170.700478 
L 265.816328 171.73756 
L 266.193669 172.774641 
L 266.484814 172.774641 
L 266.870681 174.848804 
L 266.933712 175.885885 
L 267.477655 175.885885 
L 267.627661 176.922967 
L 267.934759 176.922967 
L 267.947475 177.960048 
L 268.372324 177.960048 
L 268.534335 178.997129 
L 268.91169 178.997129 
L 268.929913 180.034211 
L 269.433913 181.071292 
L 269.469426 180.034211 
L 269.523084 181.071292 
L 269.865024 183.145455 
L 270.011262 184.182536 
L 270.035918 185.219617 
L 270.309037 185.219617 
L 270.531877 187.29378 
L 271.08384 187.29378 
L 271.219546 188.330861 
L 271.84827 188.330861 
L 271.949437 190.405024 
L 271.959574 191.442105 
L 272.599154 191.442105 
L 273.283177 193.516268 
L 273.451899 193.516268 
L 273.952275 194.553349 
L 274.055345 195.590431 
L 274.489548 196.627512 
L 274.595981 198.701675 
L 274.9684 198.701675 
L 275.168263 199.738756 
L 275.489943 199.738756 
L 275.897649 200.775837 
L 275.996179 201.812919 
L 276.844146 202.85 
L 278.116135 203.887081 
L 278.503099 204.924163 
L 279.041668 204.924163 
L 279.14265 206.998325 
L 280.305465 206.998325 
L 280.553723 208.035407 
L 281.330998 209.072488 
L 281.528138 210.109569 
L 282.011526 210.109569 
L 282.088614 211.146651 
L 283.183583 213.220813 
L 283.321912 214.257895 
L 285.216682 215.294976 
L 285.492066 216.332057 
L 285.839208 217.369139 
L 286.328238 218.40622 
L 288.374847 219.443301 
L 288.504794 220.480383 
L 289.326684 221.517464 
L 289.343538 222.554545 
L 289.656881 223.591627 
L 290.854259 224.628708 
L 291.081857 225.665789 
L 293.22115 226.702871 
L 294.42954 227.739952 
L 294.855702 228.777033 
L 297.443153 229.814115 
L 297.787119 230.851196 
L 297.816731 231.888278 
L 298.671791 233.96244 
L 304.175458 234.999522 
L 316.695757 237.073684 
L 324.997168 238.110766 
L 326.394245 239.147847 
L 327.255104 240.184928 
L 340.311225 241.22201 
L 413.334091 242.259091 
L 413.334091 242.259091 
" style="fill:none;stroke:#1f77b4;stroke-linecap:square;stroke-width:1.5;"/>
   </g>
   <g id="line2d_50">
    <path clip-path="url(#p4a212fdd98)" d="M 256.015909 241.22201 
L 256.776988 241.22201 
L 257.126924 234.999522 
L 257.143566 233.96244 
L 257.291222 234.999522 
L 257.575893 228.777033 
L 257.64453 228.777033 
L 257.760439 229.814115 
L 257.868869 228.777033 
L 257.959822 229.814115 
L 258.054441 229.814115 
L 258.29706 220.480383 
L 258.428171 214.257895 
L 258.546628 213.220813 
L 258.556865 213.220813 
L 258.664573 205.961244 
L 258.866518 199.738756 
L 258.906329 201.812919 
L 258.909088 202.85 
L 258.99237 197.664593 
L 259.016131 197.664593 
L 259.173713 192.479187 
L 259.431431 184.182536 
L 259.536491 177.960048 
L 259.560803 178.997129 
L 259.570932 178.997129 
L 259.724313 175.885885 
L 259.779224 175.885885 
L 259.787424 176.922967 
L 259.909775 174.848804 
L 260.018733 173.811722 
L 260.035086 173.811722 
L 260.084162 174.848804 
L 260.109397 172.774641 
L 260.133376 173.811722 
L 260.205467 173.811722 
L 260.294634 172.774641 
L 260.321822 172.774641 
L 260.435317 166.552153 
L 260.711927 169.663397 
L 260.843529 169.663397 
L 260.95288 168.626316 
L 261.16778 171.73756 
L 261.291333 171.73756 
L 261.527 176.922967 
L 261.630863 177.960048 
L 261.857971 177.960048 
L 261.999541 181.071292 
L 262.097859 181.071292 
L 262.132881 182.108373 
L 262.203972 181.071292 
L 262.249958 182.108373 
L 262.466872 182.108373 
L 262.565481 181.071292 
L 262.575823 182.108373 
L 262.631485 182.108373 
L 262.766686 185.219617 
L 263.294699 184.182536 
L 263.307904 184.182536 
L 263.325863 183.145455 
L 263.352665 184.182536 
L 263.656618 187.29378 
L 263.93369 187.29378 
L 264.062931 189.367943 
L 264.374744 189.367943 
L 264.473815 191.442105 
L 264.638392 194.553349 
L 264.733268 194.553349 
L 264.878943 195.590431 
L 264.997023 195.590431 
L 265.287044 197.664593 
L 265.808553 197.664593 
L 265.816328 198.701675 
L 266.102307 198.701675 
L 266.484814 202.85 
L 266.677143 202.85 
L 266.870681 203.887081 
L 266.933712 203.887081 
L 267.360456 204.924163 
L 267.922169 210.109569 
L 267.947475 211.146651 
L 268.534335 215.294976 
L 268.86381 216.332057 
L 268.929913 217.369139 
L 269.641913 217.369139 
L 269.73248 218.40622 
L 270.035918 218.40622 
L 270.245346 219.443301 
L 270.389632 220.480383 
L 270.531877 220.480383 
L 270.998532 221.517464 
L 271.219546 223.591627 
L 271.84827 226.702871 
L 271.959574 226.702871 
L 272.131986 227.739952 
L 272.599154 228.777033 
L 273.283177 228.777033 
L 273.451899 229.814115 
L 274.567297 229.814115 
L 274.595981 230.851196 
L 274.9684 231.888278 
L 275.155912 231.888278 
L 275.168263 232.925359 
L 275.489943 233.96244 
L 275.948884 233.96244 
L 275.996179 236.036603 
L 278.503099 236.036603 
L 278.978017 237.073684 
L 279.14265 238.110766 
L 279.355147 239.147847 
L 280.305465 240.184928 
L 281.528138 240.184928 
L 282.088614 241.22201 
L 285.386629 241.22201 
L 285.492066 242.259091 
L 413.334091 242.259091 
L 413.334091 242.259091 
" style="fill:none;stroke:#ff7f0e;stroke-linecap:square;stroke-width:1.5;"/>
   </g>
   <g id="patch_21">
    <path d="M 248.15 246.2 
L 248.15 159.5 
" style="fill:none;stroke:#000000;stroke-linecap:square;stroke-linejoin:miter;stroke-width:0.8;"/>
   </g>
   <g id="patch_22">
    <path d="M 421.2 246.2 
L 421.2 159.5 
" style="fill:none;stroke:#000000;stroke-linecap:square;stroke-linejoin:miter;stroke-width:0.8;"/>
   </g>
   <g id="patch_23">
    <path d="M 248.15 246.2 
L 421.2 246.2 
" style="fill:none;stroke:#000000;stroke-linecap:square;stroke-linejoin:miter;stroke-width:0.8;"/>
   </g>
   <g id="patch_24">
    <path d="M 248.15 159.5 
L 421.2 159.5 
" style="fill:none;stroke:#000000;stroke-linecap:square;stroke-linejoin:miter;stroke-width:0.8;"/>
   </g>
   <g id="text_44">
    <!-- $ρ_{0, 1}$ = 1.0 -->
    <g transform="translate(304.795 153.5)scale(0.12 -0.12)">
     <use transform="translate(0 0.78125)" xlink:href="#DejaVuSans-Oblique-961"/>
     <use transform="translate(63.476562 -15.625)scale(0.7)" xlink:href="#DejaVuSans-48"/>
     <use transform="translate(108.012695 -15.625)scale(0.7)" xlink:href="#DejaVuSans-44"/>
     <use transform="translate(143.901367 -15.625)scale(0.7)" xlink:href="#DejaVuSans-49"/>
     <use transform="translate(191.171875 0.78125)" xlink:href="#DejaVuSans-32"/>
     <use transform="translate(222.958984 0.78125)" xlink:href="#DejaVuSans-61"/>
     <use transform="translate(306.748047 0.78125)" xlink:href="#DejaVuSans-32"/>
     <use transform="translate(338.535156 0.78125)" xlink:href="#DejaVuSans-49"/>
     <use transform="translate(402.158203 0.78125)" xlink:href="#DejaVuSans-46"/>
     <use transform="translate(433.945312 0.78125)" xlink:href="#DejaVuSans-48"/>
    </g>
   </g>
   <g id="legend_4">
    <g id="patch_25">
     <path d="M 375.8375 196.85625 
L 414.2 196.85625 
Q 416.2 196.85625 416.2 194.85625 
L 416.2 166.5 
Q 416.2 164.5 414.2 164.5 
L 375.8375 164.5 
Q 373.8375 164.5 373.8375 166.5 
L 373.8375 194.85625 
Q 373.8375 196.85625 375.8375 196.85625 
z
" style="fill:#ffffff;opacity:0.8;stroke:#cccccc;stroke-linejoin:miter;"/>
    </g>
    <g id="line2d_51">
     <path d="M 377.8375 172.598437 
L 397.8375 172.598437 
" style="fill:none;stroke:#1f77b4;stroke-linecap:square;stroke-width:1.5;"/>
    </g>
    <g id="line2d_52"/>
    <g id="text_45">
     <!-- 0 -->
     <g transform="translate(405.8375 176.098437)scale(0.1 -0.1)">
      <use xlink:href="#DejaVuSans-48"/>
     </g>
    </g>
    <g id="line2d_53">
     <path d="M 377.8375 187.276563 
L 397.8375 187.276563 
" style="fill:none;stroke:#ff7f0e;stroke-linecap:square;stroke-width:1.5;"/>
    </g>
    <g id="line2d_54"/>
    <g id="text_46">
     <!-- 1 -->
     <g transform="translate(405.8375 190.776563)scale(0.1 -0.1)">
      <use xlink:href="#DejaVuSans-49"/>
     </g>
    </g>
   </g>
  </g>
 </g>
 <defs>
  <clipPath id="p4f65f1464e">
   <rect height="86.7" width="173.05" x="44.55" y="27.9"/>
  </clipPath>
  <clipPath id="pea0046344f">
   <rect height="86.7" width="173.05" x="248.15" y="27.9"/>
  </clipPath>
  <clipPath id="p3f769bce88">
   <rect height="86.7" width="173.05" x="44.55" y="159.5"/>
  </clipPath>
  <clipPath id="p4a212fdd98">
   <rect height="86.7" width="173.05" x="248.15" y="159.5"/>
  </clipPath>
 </defs>
</svg>
