<?xml version="1.0" encoding="utf-8" standalone="no"?>
<!DOCTYPE svg PUBLIC "-//W3C//DTD SVG 1.1//EN"
  "http://www.w3.org/Graphics/SVG/1.1/DTD/svg11.dtd">
<!-- Created with matplotlib (https://matplotlib.org/) -->
<svg height="288pt" version="1.1" viewBox="0 0 432 288" width="432pt" xmlns="http://www.w3.org/2000/svg" xmlns:xlink="http://www.w3.org/1999/xlink">
 <metadata>
  <rdf:RDF xmlns:cc="http://creativecommons.org/ns#" xmlns:dc="http://purl.org/dc/elements/1.1/" xmlns:rdf="http://www.w3.org/1999/02/22-rdf-syntax-ns#">
   <cc:Work>
    <dc:type rdf:resource="http://purl.org/dc/dcmitype/StillImage"/>
    <dc:date>2020-10-16T11:22:33.754588</dc:date>
    <dc:format>image/svg+xml</dc:format>
    <dc:creator>
     <cc:Agent>
      <dc:title>Matplotlib v3.3.1, https://matplotlib.org/</dc:title>
     </cc:Agent>
    </dc:creator>
   </cc:Work>
  </rdf:RDF>
 </metadata>
 <defs>
  <style type="text/css">*{stroke-linecap:butt;stroke-linejoin:round;}</style>
 </defs>
 <g id="figure_1">
  <g id="patch_1">
   <path d="M 0 288 
L 432 288 
L 432 0 
L 0 0 
z
" style="fill:none;"/>
  </g>
  <g id="axes_1">
   <g id="patch_2">
    <path d="M 30.55 128.35 
L 210.6 128.35 
L 210.6 27.9 
L 30.55 27.9 
z
" style="fill:#ffffff;"/>
   </g>
   <g id="matplotlib.axis_1">
    <g id="xtick_1">
     <g id="line2d_1">
      <defs>
       <path d="M 0 0 
L 0 3.5 
" id="mcf5eaf8996" style="stroke:#000000;stroke-width:0.8;"/>
      </defs>
      <g>
       <use style="stroke:#000000;stroke-width:0.8;" x="38.734091" xlink:href="#mcf5eaf8996" y="128.35"/>
      </g>
     </g>
    </g>
    <g id="xtick_2">
     <g id="line2d_2">
      <g>
       <use style="stroke:#000000;stroke-width:0.8;" x="93.294697" xlink:href="#mcf5eaf8996" y="128.35"/>
      </g>
     </g>
    </g>
    <g id="xtick_3">
     <g id="line2d_3">
      <g>
       <use style="stroke:#000000;stroke-width:0.8;" x="147.855303" xlink:href="#mcf5eaf8996" y="128.35"/>
      </g>
     </g>
    </g>
    <g id="xtick_4">
     <g id="line2d_4">
      <g>
       <use style="stroke:#000000;stroke-width:0.8;" x="202.415909" xlink:href="#mcf5eaf8996" y="128.35"/>
      </g>
     </g>
    </g>
   </g>
   <g id="matplotlib.axis_2">
    <g id="ytick_1">
     <g id="line2d_5">
      <defs>
       <path d="M 0 0 
L -3.5 0 
" id="mfb4a0ebca5" style="stroke:#000000;stroke-width:0.8;"/>
      </defs>
      <g>
       <use style="stroke:#000000;stroke-width:0.8;" x="30.55" xlink:href="#mfb4a0ebca5" y="123.784091"/>
      </g>
     </g>
     <g id="text_1">
      <!-- 0 -->
      <g transform="translate(17.1875 127.58331)scale(0.1 -0.1)">
       <defs>
        <path d="M 31.78125 66.40625 
Q 24.171875 66.40625 20.328125 58.90625 
Q 16.5 51.421875 16.5 36.375 
Q 16.5 21.390625 20.328125 13.890625 
Q 24.171875 6.390625 31.78125 6.390625 
Q 39.453125 6.390625 43.28125 13.890625 
Q 47.125 21.390625 47.125 36.375 
Q 47.125 51.421875 43.28125 58.90625 
Q 39.453125 66.40625 31.78125 66.40625 
z
M 31.78125 74.21875 
Q 44.046875 74.21875 50.515625 64.515625 
Q 56.984375 54.828125 56.984375 36.375 
Q 56.984375 17.96875 50.515625 8.265625 
Q 44.046875 -1.421875 31.78125 -1.421875 
Q 19.53125 -1.421875 13.0625 8.265625 
Q 6.59375 17.96875 6.59375 36.375 
Q 6.59375 54.828125 13.0625 64.515625 
Q 19.53125 74.21875 31.78125 74.21875 
z
" id="DejaVuSans-48"/>
       </defs>
       <use xlink:href="#DejaVuSans-48"/>
      </g>
     </g>
    </g>
    <g id="ytick_2">
     <g id="line2d_6">
      <g>
       <use style="stroke:#000000;stroke-width:0.8;" x="30.55" xlink:href="#mfb4a0ebca5" y="87.915018"/>
      </g>
     </g>
     <g id="text_2">
      <!-- 20 -->
      <g transform="translate(10.825 91.714236)scale(0.1 -0.1)">
       <defs>
        <path d="M 19.1875 8.296875 
L 53.609375 8.296875 
L 53.609375 0 
L 7.328125 0 
L 7.328125 8.296875 
Q 12.9375 14.109375 22.625 23.890625 
Q 32.328125 33.6875 34.8125 36.53125 
Q 39.546875 41.84375 41.421875 45.53125 
Q 43.3125 49.21875 43.3125 52.78125 
Q 43.3125 58.59375 39.234375 62.25 
Q 35.15625 65.921875 28.609375 65.921875 
Q 23.96875 65.921875 18.8125 64.3125 
Q 13.671875 62.703125 7.8125 59.421875 
L 7.8125 69.390625 
Q 13.765625 71.78125 18.9375 73 
Q 24.125 74.21875 28.421875 74.21875 
Q 39.75 74.21875 46.484375 68.546875 
Q 53.21875 62.890625 53.21875 53.421875 
Q 53.21875 48.921875 51.53125 44.890625 
Q 49.859375 40.875 45.40625 35.40625 
Q 44.1875 33.984375 37.640625 27.21875 
Q 31.109375 20.453125 19.1875 8.296875 
z
" id="DejaVuSans-50"/>
       </defs>
       <use xlink:href="#DejaVuSans-50"/>
       <use x="63.623047" xlink:href="#DejaVuSans-48"/>
      </g>
     </g>
    </g>
    <g id="ytick_3">
     <g id="line2d_7">
      <g>
       <use style="stroke:#000000;stroke-width:0.8;" x="30.55" xlink:href="#mfb4a0ebca5" y="52.045944"/>
      </g>
     </g>
     <g id="text_3">
      <!-- 40 -->
      <g transform="translate(10.825 55.845163)scale(0.1 -0.1)">
       <defs>
        <path d="M 37.796875 64.3125 
L 12.890625 25.390625 
L 37.796875 25.390625 
z
M 35.203125 72.90625 
L 47.609375 72.90625 
L 47.609375 25.390625 
L 58.015625 25.390625 
L 58.015625 17.1875 
L 47.609375 17.1875 
L 47.609375 0 
L 37.796875 0 
L 37.796875 17.1875 
L 4.890625 17.1875 
L 4.890625 26.703125 
z
" id="DejaVuSans-52"/>
       </defs>
       <use xlink:href="#DejaVuSans-52"/>
       <use x="63.623047" xlink:href="#DejaVuSans-48"/>
      </g>
     </g>
    </g>
    <g id="text_4">
     <!-- No. of infected -->
     <g transform="translate(4.745313 114.778906)rotate(-90)scale(0.1 -0.1)">
      <defs>
       <path d="M 9.8125 72.90625 
L 23.09375 72.90625 
L 55.421875 11.921875 
L 55.421875 72.90625 
L 64.984375 72.90625 
L 64.984375 0 
L 51.703125 0 
L 19.390625 60.984375 
L 19.390625 0 
L 9.8125 0 
z
" id="DejaVuSans-78"/>
       <path d="M 30.609375 48.390625 
Q 23.390625 48.390625 19.1875 42.75 
Q 14.984375 37.109375 14.984375 27.296875 
Q 14.984375 17.484375 19.15625 11.84375 
Q 23.34375 6.203125 30.609375 6.203125 
Q 37.796875 6.203125 41.984375 11.859375 
Q 46.1875 17.53125 46.1875 27.296875 
Q 46.1875 37.015625 41.984375 42.703125 
Q 37.796875 48.390625 30.609375 48.390625 
z
M 30.609375 56 
Q 42.328125 56 49.015625 48.375 
Q 55.71875 40.765625 55.71875 27.296875 
Q 55.71875 13.875 49.015625 6.21875 
Q 42.328125 -1.421875 30.609375 -1.421875 
Q 18.84375 -1.421875 12.171875 6.21875 
Q 5.515625 13.875 5.515625 27.296875 
Q 5.515625 40.765625 12.171875 48.375 
Q 18.84375 56 30.609375 56 
z
" id="DejaVuSans-111"/>
       <path d="M 10.6875 12.40625 
L 21 12.40625 
L 21 0 
L 10.6875 0 
z
" id="DejaVuSans-46"/>
       <path id="DejaVuSans-32"/>
       <path d="M 37.109375 75.984375 
L 37.109375 68.5 
L 28.515625 68.5 
Q 23.6875 68.5 21.796875 66.546875 
Q 19.921875 64.59375 19.921875 59.515625 
L 19.921875 54.6875 
L 34.71875 54.6875 
L 34.71875 47.703125 
L 19.921875 47.703125 
L 19.921875 0 
L 10.890625 0 
L 10.890625 47.703125 
L 2.296875 47.703125 
L 2.296875 54.6875 
L 10.890625 54.6875 
L 10.890625 58.5 
Q 10.890625 67.625 15.140625 71.796875 
Q 19.390625 75.984375 28.609375 75.984375 
z
" id="DejaVuSans-102"/>
       <path d="M 9.421875 54.6875 
L 18.40625 54.6875 
L 18.40625 0 
L 9.421875 0 
z
M 9.421875 75.984375 
L 18.40625 75.984375 
L 18.40625 64.59375 
L 9.421875 64.59375 
z
" id="DejaVuSans-105"/>
       <path d="M 54.890625 33.015625 
L 54.890625 0 
L 45.90625 0 
L 45.90625 32.71875 
Q 45.90625 40.484375 42.875 44.328125 
Q 39.84375 48.1875 33.796875 48.1875 
Q 26.515625 48.1875 22.3125 43.546875 
Q 18.109375 38.921875 18.109375 30.90625 
L 18.109375 0 
L 9.078125 0 
L 9.078125 54.6875 
L 18.109375 54.6875 
L 18.109375 46.1875 
Q 21.34375 51.125 25.703125 53.5625 
Q 30.078125 56 35.796875 56 
Q 45.21875 56 50.046875 50.171875 
Q 54.890625 44.34375 54.890625 33.015625 
z
" id="DejaVuSans-110"/>
       <path d="M 56.203125 29.59375 
L 56.203125 25.203125 
L 14.890625 25.203125 
Q 15.484375 15.921875 20.484375 11.0625 
Q 25.484375 6.203125 34.421875 6.203125 
Q 39.59375 6.203125 44.453125 7.46875 
Q 49.3125 8.734375 54.109375 11.28125 
L 54.109375 2.78125 
Q 49.265625 0.734375 44.1875 -0.34375 
Q 39.109375 -1.421875 33.890625 -1.421875 
Q 20.796875 -1.421875 13.15625 6.1875 
Q 5.515625 13.8125 5.515625 26.8125 
Q 5.515625 40.234375 12.765625 48.109375 
Q 20.015625 56 32.328125 56 
Q 43.359375 56 49.78125 48.890625 
Q 56.203125 41.796875 56.203125 29.59375 
z
M 47.21875 32.234375 
Q 47.125 39.59375 43.09375 43.984375 
Q 39.0625 48.390625 32.421875 48.390625 
Q 24.90625 48.390625 20.390625 44.140625 
Q 15.875 39.890625 15.1875 32.171875 
z
" id="DejaVuSans-101"/>
       <path d="M 48.78125 52.59375 
L 48.78125 44.1875 
Q 44.96875 46.296875 41.140625 47.34375 
Q 37.3125 48.390625 33.40625 48.390625 
Q 24.65625 48.390625 19.8125 42.84375 
Q 14.984375 37.3125 14.984375 27.296875 
Q 14.984375 17.28125 19.8125 11.734375 
Q 24.65625 6.203125 33.40625 6.203125 
Q 37.3125 6.203125 41.140625 7.25 
Q 44.96875 8.296875 48.78125 10.40625 
L 48.78125 2.09375 
Q 45.015625 0.34375 40.984375 -0.53125 
Q 36.96875 -1.421875 32.421875 -1.421875 
Q 20.0625 -1.421875 12.78125 6.34375 
Q 5.515625 14.109375 5.515625 27.296875 
Q 5.515625 40.671875 12.859375 48.328125 
Q 20.21875 56 33.015625 56 
Q 37.15625 56 41.109375 55.140625 
Q 45.0625 54.296875 48.78125 52.59375 
z
" id="DejaVuSans-99"/>
       <path d="M 18.3125 70.21875 
L 18.3125 54.6875 
L 36.8125 54.6875 
L 36.8125 47.703125 
L 18.3125 47.703125 
L 18.3125 18.015625 
Q 18.3125 11.328125 20.140625 9.421875 
Q 21.96875 7.515625 27.59375 7.515625 
L 36.8125 7.515625 
L 36.8125 0 
L 27.59375 0 
Q 17.1875 0 13.234375 3.875 
Q 9.28125 7.765625 9.28125 18.015625 
L 9.28125 47.703125 
L 2.6875 47.703125 
L 2.6875 54.6875 
L 9.28125 54.6875 
L 9.28125 70.21875 
z
" id="DejaVuSans-116"/>
       <path d="M 45.40625 46.390625 
L 45.40625 75.984375 
L 54.390625 75.984375 
L 54.390625 0 
L 45.40625 0 
L 45.40625 8.203125 
Q 42.578125 3.328125 38.25 0.953125 
Q 33.9375 -1.421875 27.875 -1.421875 
Q 17.96875 -1.421875 11.734375 6.484375 
Q 5.515625 14.40625 5.515625 27.296875 
Q 5.515625 40.1875 11.734375 48.09375 
Q 17.96875 56 27.875 56 
Q 33.9375 56 38.25 53.625 
Q 42.578125 51.265625 45.40625 46.390625 
z
M 14.796875 27.296875 
Q 14.796875 17.390625 18.875 11.75 
Q 22.953125 6.109375 30.078125 6.109375 
Q 37.203125 6.109375 41.296875 11.75 
Q 45.40625 17.390625 45.40625 27.296875 
Q 45.40625 37.203125 41.296875 42.84375 
Q 37.203125 48.484375 30.078125 48.484375 
Q 22.953125 48.484375 18.875 42.84375 
Q 14.796875 37.203125 14.796875 27.296875 
z
" id="DejaVuSans-100"/>
      </defs>
      <use xlink:href="#DejaVuSans-78"/>
      <use x="74.804688" xlink:href="#DejaVuSans-111"/>
      <use x="134.236328" xlink:href="#DejaVuSans-46"/>
      <use x="166.023438" xlink:href="#DejaVuSans-32"/>
      <use x="197.810547" xlink:href="#DejaVuSans-111"/>
      <use x="258.992188" xlink:href="#DejaVuSans-102"/>
      <use x="294.197266" xlink:href="#DejaVuSans-32"/>
      <use x="325.984375" xlink:href="#DejaVuSans-105"/>
      <use x="353.767578" xlink:href="#DejaVuSans-110"/>
      <use x="417.146484" xlink:href="#DejaVuSans-102"/>
      <use x="452.351562" xlink:href="#DejaVuSans-101"/>
      <use x="513.875" xlink:href="#DejaVuSans-99"/>
      <use x="568.855469" xlink:href="#DejaVuSans-116"/>
      <use x="608.064453" xlink:href="#DejaVuSans-101"/>
      <use x="669.587891" xlink:href="#DejaVuSans-100"/>
     </g>
    </g>
   </g>
   <g id="line2d_8">
    <path clip-path="url(#pbaafea32c2)" d="M 38.734091 123.784091 
L 39.553319 123.665677 
L 42.666387 123.267912 
L 43.813306 122.979923 
L 44.140998 122.832223 
L 45.124072 122.561404 
L 45.9433 122.267221 
L 46.434837 121.955213 
L 46.762528 121.763508 
L 47.581757 121.437602 
L 47.909448 121.212301 
L 48.728676 120.958043 
L 49.547905 120.296904 
L 51.514053 118.424658 
L 52.660972 116.683933 
L 52.988664 115.980075 
L 53.316355 115.612196 
L 54.135583 114.191423 
L 54.790966 112.436779 
L 55.937886 109.809378 
L 56.265577 109.045817 
L 57.248651 106.22097 
L 57.740188 104.073109 
L 58.067879 102.799236 
L 58.559416 100.788871 
L 59.214799 98.543658 
L 59.706336 97.159814 
L 61.180947 90.346338 
L 63.147095 81.803218 
L 64.130169 77.41319 
L 65.113243 72.979516 
L 65.440934 71.44518 
L 66.260162 67.397747 
L 66.587854 66.35683 
L 68.554002 57.626748 
L 68.881693 56.206099 
L 69.209384 55.023391 
L 70.028613 51.834763 
L 70.847841 49.224907 
L 71.175532 48.61345 
L 71.503224 47.310981 
L 71.830915 46.09936 
L 72.158606 45.065272 
L 72.322452 44.753589 
L 72.486298 44.760685 
L 73.469372 41.428402 
L 73.633217 41.172175 
L 74.2886 39.248868 
L 75.43552 37.100229 
L 75.763211 36.377231 
L 75.927057 36.236604 
L 76.090902 35.903404 
L 76.254748 35.851445 
L 76.582439 35.428826 
L 76.746285 35.310212 
L 77.401668 34.081066 
L 77.729359 33.765035 
L 78.220896 33.214199 
L 78.384742 33.255581 
L 78.548587 32.95039 
L 78.876279 32.918142 
L 79.20397 32.775412 
L 79.695507 32.959799 
L 80.023198 32.745714 
L 80.678581 32.663027 
L 81.170118 32.49083 
L 81.333964 32.660097 
L 81.825501 32.739251 
L 82.153192 32.833883 
L 82.317037 33.108327 
L 82.480883 33.03789 
L 84.283185 34.553364 
L 84.774722 35.384218 
L 84.938568 35.403012 
L 85.921642 36.461453 
L 86.249333 37.078131 
L 89.690092 42.559626 
L 90.345475 43.722229 
L 90.837012 44.730171 
L 92.311623 47.795124 
L 94.113925 50.870091 
L 94.605462 51.987805 
L 95.916228 54.349623 
L 96.243919 54.943472 
L 100.503906 63.901074 
L 101.814671 65.98778 
L 102.6339 67.699569 
L 104.927739 71.932646 
L 105.583122 73.065025 
L 107.54927 76.532611 
L 108.040807 77.26297 
L 109.187726 79.253581 
L 109.843109 80.148065 
L 110.1708 80.553705 
L 111.153874 81.814639 
L 111.645411 82.444211 
L 112.46464 83.72707 
L 114.103096 85.881349 
L 114.594633 86.290831 
L 116.23309 88.576412 
L 117.052318 89.579951 
L 117.707701 90.248984 
L 118.363084 90.960719 
L 119.510003 92.146818 
L 120.820768 93.811575 
L 121.803842 94.91618 
L 123.278453 96.31781 
L 124.261527 97.521629 
L 128.029978 100.839635 
L 128.68536 101.413561 
L 130.9792 103.246706 
L 132.126119 104.176699 
L 134.256113 105.867387 
L 134.911496 106.403015 
L 137.205335 107.990421 
L 142.776087 110.662818 
L 143.759161 111.21135 
L 144.742235 111.716528 
L 145.725309 112.258724 
L 148.34684 113.416547 
L 149.329914 113.875173 
L 155.228358 116.094067 
L 160.962956 117.808794 
L 168.499857 119.375794 
L 175.381375 120.363406 
L 178.985979 120.845179 
L 182.262892 121.260955 
L 182.918275 121.382447 
L 187.669799 121.871669 
L 195.862083 122.518002 
L 198.811304 122.698653 
L 202.415909 122.885537 
L 202.415909 122.885537 
" style="fill:none;stroke:#1f77b4;stroke-linecap:square;stroke-width:1.5;"/>
   </g>
   <g id="line2d_9">
    <path clip-path="url(#pbaafea32c2)" d="M 38.734091 122.012779 
L 39.225628 121.312397 
L 40.044856 120.705981 
L 41.02793 119.966108 
L 42.666387 118.70304 
L 43.485615 117.97089 
L 44.304843 117.164001 
L 44.79638 116.742252 
L 45.779454 115.719045 
L 46.762528 114.525429 
L 47.581757 113.072238 
L 48.073294 112.239429 
L 48.892522 110.911763 
L 49.220213 110.268877 
L 49.875596 108.781882 
L 50.694824 106.556812 
L 52.824818 101.047684 
L 53.316355 99.234456 
L 54.135583 96.648044 
L 54.62712 94.920295 
L 55.282503 92.75109 
L 58.395571 79.278269 
L 59.050953 75.708915 
L 60.034027 71.32761 
L 61.344793 65.551428 
L 61.83633 63.062383 
L 62.819403 58.889223 
L 62.983249 58.490621 
L 63.638632 55.744226 
L 64.949397 51.165972 
L 65.60478 48.666516 
L 65.768625 48.311759 
L 67.079391 43.64467 
L 68.062465 40.927478 
L 69.045539 38.040991 
L 69.537076 37.547711 
L 69.864767 36.765504 
L 70.356304 35.380438 
L 70.847841 34.676531 
L 71.011687 34.951558 
L 71.175532 34.919099 
L 71.994761 33.804627 
L 72.158606 33.898876 
L 72.486298 33.606891 
L 72.650143 33.558421 
L 72.813989 33.830694 
L 73.14168 33.337784 
L 73.469372 33.302688 
L 73.797063 33.238165 
L 74.124754 33.110584 
L 74.2886 33.100922 
L 74.616291 33.371455 
L 74.780137 33.255547 
L 74.943983 33.354265 
L 75.107828 33.610335 
L 75.927057 33.750731 
L 76.254748 33.582511 
L 76.910131 33.658652 
L 77.073976 33.943086 
L 77.237822 33.904392 
L 78.05705 34.352833 
L 78.220896 34.374926 
L 78.712433 34.896529 
L 78.876279 35.236339 
L 79.040124 35.108076 
L 79.367816 35.507219 
L 79.695507 36.169935 
L 80.35089 37.210848 
L 80.678581 37.546131 
L 81.989346 38.480904 
L 82.317037 39.106935 
L 82.644729 39.671076 
L 83.627803 41.503944 
L 83.955494 42.313236 
L 84.283185 42.750089 
L 84.774722 43.701515 
L 85.921642 46.451846 
L 86.249333 46.8598 
L 86.577025 47.312287 
L 89.690092 53.565271 
L 91.000858 55.769938 
L 92.147777 58.153524 
L 92.475469 58.568207 
L 93.130851 59.771411 
L 94.441617 61.75785 
L 96.407765 65.952465 
L 97.390839 67.744045 
L 101.48698 74.634656 
L 102.142363 75.600359 
L 103.125437 76.920781 
L 103.453128 77.356227 
L 104.763893 79.396147 
L 107.057733 82.761893 
L 107.876961 84.022022 
L 111.809257 89.003982 
L 112.136948 89.321395 
L 112.792331 90.14279 
L 113.283868 90.747922 
L 114.594633 92.394677 
L 115.413862 93.099797 
L 115.741553 93.382018 
L 116.560781 94.080351 
L 116.888473 94.430951 
L 118.690775 96.269689 
L 119.837695 97.274084 
L 120.820768 98.305829 
L 128.029978 103.89526 
L 128.849206 104.366578 
L 132.126119 106.327329 
L 132.781502 106.768477 
L 133.273039 107.216418 
L 137.041489 109.145974 
L 138.352255 109.835897 
L 139.007637 110.163353 
L 139.990711 110.836961 
L 140.973785 111.333962 
L 142.28455 111.889189 
L 143.595316 112.381631 
L 145.069927 112.990951 
L 146.708383 113.629968 
L 151.787599 115.327454 
L 161.618339 117.841203 
L 163.420641 118.287905 
L 166.206017 118.932928 
L 175.217529 120.377169 
L 189.14441 121.778776 
L 200.777452 122.55256 
L 202.415909 122.631063 
L 202.415909 122.631063 
" style="fill:none;stroke:#ff7f0e;stroke-linecap:square;stroke-width:1.5;"/>
   </g>
   <g id="patch_3">
    <path d="M 30.55 128.35 
L 30.55 27.9 
" style="fill:none;stroke:#000000;stroke-linecap:square;stroke-linejoin:miter;stroke-width:0.8;"/>
   </g>
   <g id="patch_4">
    <path d="M 210.6 128.35 
L 210.6 27.9 
" style="fill:none;stroke:#000000;stroke-linecap:square;stroke-linejoin:miter;stroke-width:0.8;"/>
   </g>
   <g id="patch_5">
    <path d="M 30.55 128.35 
L 210.6 128.35 
" style="fill:none;stroke:#000000;stroke-linecap:square;stroke-linejoin:miter;stroke-width:0.8;"/>
   </g>
   <g id="patch_6">
    <path d="M 30.55 27.9 
L 210.6 27.9 
" style="fill:none;stroke:#000000;stroke-linecap:square;stroke-linejoin:miter;stroke-width:0.8;"/>
   </g>
   <g id="text_5">
    <!-- $ρ_{0, 1}$ = 0.2    $ρ_{1, 0}$ = 0.2 -->
    <g transform="translate(53.855 21.9)scale(0.12 -0.12)">
     <defs>
      <path d="M 18.796875 44.921875 
Q 22.703125 49.90625 30.953125 54.296875 
Q 34.1875 56 43.0625 56 
Q 53.03125 56 57.71875 48.09375 
Q 62.40625 40.1875 59.90625 27.296875 
Q 57.375 14.40625 49.609375 6.484375 
Q 41.84375 -1.421875 31.890625 -1.421875 
Q 25.875 -1.421875 22.015625 0.984375 
Q 18.171875 3.328125 16.3125 8.203125 
L 10.640625 -20.796875 
L 1.609375 -20.796875 
L 10.890625 26.8125 
Q 13.09375 38.09375 18.796875 44.921875 
z
M 50.59375 27.296875 
Q 52.484375 37.203125 49.515625 42.875 
Q 46.53125 48.484375 39.40625 48.484375 
Q 32.28125 48.484375 27.09375 42.875 
Q 21.921875 37.203125 20.015625 27.296875 
Q 18.0625 17.390625 21.046875 11.71875 
Q 24.03125 6.109375 31.15625 6.109375 
Q 38.28125 6.109375 43.453125 11.71875 
Q 48.640625 17.390625 50.59375 27.296875 
z
" id="DejaVuSans-Oblique-961"/>
      <path d="M 11.71875 12.40625 
L 22.015625 12.40625 
L 22.015625 4 
L 14.015625 -11.625 
L 7.71875 -11.625 
L 11.71875 4 
z
" id="DejaVuSans-44"/>
      <path d="M 12.40625 8.296875 
L 28.515625 8.296875 
L 28.515625 63.921875 
L 10.984375 60.40625 
L 10.984375 69.390625 
L 28.421875 72.90625 
L 38.28125 72.90625 
L 38.28125 8.296875 
L 54.390625 8.296875 
L 54.390625 0 
L 12.40625 0 
z
" id="DejaVuSans-49"/>
      <path d="M 10.59375 45.40625 
L 73.1875 45.40625 
L 73.1875 37.203125 
L 10.59375 37.203125 
z
M 10.59375 25.484375 
L 73.1875 25.484375 
L 73.1875 17.1875 
L 10.59375 17.1875 
z
" id="DejaVuSans-61"/>
     </defs>
     <use transform="translate(0 0.78125)" xlink:href="#DejaVuSans-Oblique-961"/>
     <use transform="translate(63.476562 -15.625)scale(0.7)" xlink:href="#DejaVuSans-48"/>
     <use transform="translate(108.012695 -15.625)scale(0.7)" xlink:href="#DejaVuSans-44"/>
     <use transform="translate(143.901367 -15.625)scale(0.7)" xlink:href="#DejaVuSans-49"/>
     <use transform="translate(191.171875 0.78125)" xlink:href="#DejaVuSans-32"/>
     <use transform="translate(222.958984 0.78125)" xlink:href="#DejaVuSans-61"/>
     <use transform="translate(306.748047 0.78125)" xlink:href="#DejaVuSans-32"/>
     <use transform="translate(338.535156 0.78125)" xlink:href="#DejaVuSans-48"/>
     <use transform="translate(402.158203 0.78125)" xlink:href="#DejaVuSans-46"/>
     <use transform="translate(428.445312 0.78125)" xlink:href="#DejaVuSans-50"/>
     <use transform="translate(492.068359 0.78125)" xlink:href="#DejaVuSans-32"/>
     <use transform="translate(523.855469 0.78125)" xlink:href="#DejaVuSans-32"/>
     <use transform="translate(555.642578 0.78125)" xlink:href="#DejaVuSans-32"/>
     <use transform="translate(587.429688 0.78125)" xlink:href="#DejaVuSans-32"/>
     <use transform="translate(619.216797 0.78125)" xlink:href="#DejaVuSans-Oblique-961"/>
     <use transform="translate(682.693359 -15.625)scale(0.7)" xlink:href="#DejaVuSans-49"/>
     <use transform="translate(727.229492 -15.625)scale(0.7)" xlink:href="#DejaVuSans-44"/>
     <use transform="translate(763.118164 -15.625)scale(0.7)" xlink:href="#DejaVuSans-48"/>
     <use transform="translate(810.388672 0.78125)" xlink:href="#DejaVuSans-32"/>
     <use transform="translate(842.175781 0.78125)" xlink:href="#DejaVuSans-61"/>
     <use transform="translate(925.964844 0.78125)" xlink:href="#DejaVuSans-32"/>
     <use transform="translate(957.751953 0.78125)" xlink:href="#DejaVuSans-48"/>
     <use transform="translate(1021.375 0.78125)" xlink:href="#DejaVuSans-46"/>
     <use transform="translate(1047.662109 0.78125)" xlink:href="#DejaVuSans-50"/>
    </g>
   </g>
  </g>
  <g id="axes_2">
   <g id="patch_7">
    <path d="M 241.15 128.35 
L 421.2 128.35 
L 421.2 27.9 
L 241.15 27.9 
z
" style="fill:#ffffff;"/>
   </g>
   <g id="matplotlib.axis_3">
    <g id="xtick_5">
     <g id="line2d_10">
      <g>
       <use style="stroke:#000000;stroke-width:0.8;" x="249.334091" xlink:href="#mcf5eaf8996" y="128.35"/>
      </g>
     </g>
    </g>
    <g id="xtick_6">
     <g id="line2d_11">
      <g>
       <use style="stroke:#000000;stroke-width:0.8;" x="303.894697" xlink:href="#mcf5eaf8996" y="128.35"/>
      </g>
     </g>
    </g>
    <g id="xtick_7">
     <g id="line2d_12">
      <g>
       <use style="stroke:#000000;stroke-width:0.8;" x="358.455303" xlink:href="#mcf5eaf8996" y="128.35"/>
      </g>
     </g>
    </g>
    <g id="xtick_8">
     <g id="line2d_13">
      <g>
       <use style="stroke:#000000;stroke-width:0.8;" x="413.015909" xlink:href="#mcf5eaf8996" y="128.35"/>
      </g>
     </g>
    </g>
   </g>
   <g id="matplotlib.axis_4">
    <g id="ytick_4">
     <g id="line2d_14">
      <g>
       <use style="stroke:#000000;stroke-width:0.8;" x="241.15" xlink:href="#mfb4a0ebca5" y="123.784091"/>
      </g>
     </g>
     <g id="text_6">
      <!-- 0 -->
      <g transform="translate(227.7875 127.58331)scale(0.1 -0.1)">
       <use xlink:href="#DejaVuSans-48"/>
      </g>
     </g>
    </g>
    <g id="ytick_5">
     <g id="line2d_15">
      <g>
       <use style="stroke:#000000;stroke-width:0.8;" x="241.15" xlink:href="#mfb4a0ebca5" y="92.018213"/>
      </g>
     </g>
     <g id="text_7">
      <!-- 20 -->
      <g transform="translate(221.425 95.817432)scale(0.1 -0.1)">
       <use xlink:href="#DejaVuSans-50"/>
       <use x="63.623047" xlink:href="#DejaVuSans-48"/>
      </g>
     </g>
    </g>
    <g id="ytick_6">
     <g id="line2d_16">
      <g>
       <use style="stroke:#000000;stroke-width:0.8;" x="241.15" xlink:href="#mfb4a0ebca5" y="60.252335"/>
      </g>
     </g>
     <g id="text_8">
      <!-- 40 -->
      <g transform="translate(221.425 64.051554)scale(0.1 -0.1)">
       <use xlink:href="#DejaVuSans-52"/>
       <use x="63.623047" xlink:href="#DejaVuSans-48"/>
      </g>
     </g>
    </g>
    <g id="ytick_7">
     <g id="line2d_17">
      <g>
       <use style="stroke:#000000;stroke-width:0.8;" x="241.15" xlink:href="#mfb4a0ebca5" y="28.486457"/>
      </g>
     </g>
     <g id="text_9">
      <!-- 60 -->
      <g transform="translate(221.425 32.285676)scale(0.1 -0.1)">
       <defs>
        <path d="M 33.015625 40.375 
Q 26.375 40.375 22.484375 35.828125 
Q 18.609375 31.296875 18.609375 23.390625 
Q 18.609375 15.53125 22.484375 10.953125 
Q 26.375 6.390625 33.015625 6.390625 
Q 39.65625 6.390625 43.53125 10.953125 
Q 47.40625 15.53125 47.40625 23.390625 
Q 47.40625 31.296875 43.53125 35.828125 
Q 39.65625 40.375 33.015625 40.375 
z
M 52.59375 71.296875 
L 52.59375 62.3125 
Q 48.875 64.0625 45.09375 64.984375 
Q 41.3125 65.921875 37.59375 65.921875 
Q 27.828125 65.921875 22.671875 59.328125 
Q 17.53125 52.734375 16.796875 39.40625 
Q 19.671875 43.65625 24.015625 45.921875 
Q 28.375 48.1875 33.59375 48.1875 
Q 44.578125 48.1875 50.953125 41.515625 
Q 57.328125 34.859375 57.328125 23.390625 
Q 57.328125 12.15625 50.6875 5.359375 
Q 44.046875 -1.421875 33.015625 -1.421875 
Q 20.359375 -1.421875 13.671875 8.265625 
Q 6.984375 17.96875 6.984375 36.375 
Q 6.984375 53.65625 15.1875 63.9375 
Q 23.390625 74.21875 37.203125 74.21875 
Q 40.921875 74.21875 44.703125 73.484375 
Q 48.484375 72.75 52.59375 71.296875 
z
" id="DejaVuSans-54"/>
       </defs>
       <use xlink:href="#DejaVuSans-54"/>
       <use x="63.623047" xlink:href="#DejaVuSans-48"/>
      </g>
     </g>
    </g>
   </g>
   <g id="line2d_18">
    <path clip-path="url(#p2b478ae0a6)" d="M 249.334091 123.784091 
L 252.77485 122.468176 
L 253.921769 121.785275 
L 255.560226 120.078412 
L 257.362528 117.57569 
L 258.673294 115.145658 
L 259.492522 113.431153 
L 261.130979 108.241677 
L 263.424818 98.980774 
L 264.571738 93.181867 
L 265.063275 90.788445 
L 268.012497 73.60334 
L 268.995571 66.977991 
L 269.487108 64.496563 
L 270.306336 60.024073 
L 273.419403 45.436252 
L 274.074786 42.832655 
L 274.566323 41.648696 
L 275.549397 38.280986 
L 275.877088 37.474483 
L 276.040934 37.253521 
L 276.368625 36.233547 
L 276.532471 35.874322 
L 276.860162 34.888973 
L 277.024008 34.802145 
L 277.351699 34.367921 
L 277.679391 33.435091 
L 278.170928 33.409451 
L 278.498619 33.133961 
L 278.82631 32.915648 
L 278.990156 33.011916 
L 279.317847 32.544093 
L 279.481693 32.465909 
L 279.97323 32.699529 
L 280.137076 32.561949 
L 281.447841 32.866448 
L 281.775532 33.295784 
L 282.103224 33.292503 
L 282.758606 34.004839 
L 283.250143 34.310429 
L 283.413989 34.630579 
L 283.74168 34.755628 
L 284.233217 35.465339 
L 284.8886 36.887225 
L 285.871674 38.575785 
L 286.690902 39.956911 
L 287.182439 40.815755 
L 287.673976 41.903326 
L 288.165513 43.060271 
L 289.640124 45.746239 
L 289.967816 46.054592 
L 290.623198 47.447249 
L 290.787044 47.634403 
L 291.770118 49.864235 
L 292.917037 52.054238 
L 296.357796 59.513129 
L 297.34087 61.624695 
L 298.323944 63.750791 
L 298.815481 64.686903 
L 299.307018 65.737741 
L 299.470864 65.943559 
L 299.962401 66.9911 
L 300.290092 67.542012 
L 301.109321 69.384239 
L 302.092395 70.919932 
L 302.911623 72.40816 
L 303.40316 73.370497 
L 306.188536 78.703798 
L 310.120832 84.390969 
L 310.776215 85.284368 
L 314.872356 91.494754 
L 317.00235 93.686146 
L 317.821578 94.636939 
L 318.804652 95.500049 
L 319.460035 96.052607 
L 320.115418 96.838505 
L 321.098492 97.803261 
L 322.900794 99.305365 
L 323.556177 99.772198 
L 328.307701 103.165103 
L 329.782312 104.458403 
L 331.74846 105.793718 
L 338.138441 109.683194 
L 340.268434 110.639048 
L 341.415354 111.182963 
L 343.053811 112.007986 
L 344.856113 112.698585 
L 345.839187 113.065211 
L 350.918402 115.106635 
L 353.048396 115.732276 
L 355.014544 116.261992 
L 356.489155 116.674034 
L 359.274531 117.424714 
L 367.958352 119.228324 
L 374.020641 120.007792 
L 378.772165 120.69126 
L 398.105954 122.213889 
L 413.015909 122.793043 
L 413.015909 122.793043 
" style="fill:none;stroke:#1f77b4;stroke-linecap:square;stroke-width:1.5;"/>
   </g>
   <g id="line2d_19">
    <path clip-path="url(#p2b478ae0a6)" d="M 249.334091 122.213643 
L 249.825628 121.813703 
L 252.119467 120.553761 
L 253.430233 119.794787 
L 253.921769 119.296401 
L 255.068689 118.327343 
L 255.560226 117.714229 
L 256.707146 116.417861 
L 257.69022 115.186584 
L 258.181757 114.46775 
L 259.000985 113.053178 
L 260.147905 110.51164 
L 260.967133 108.509624 
L 262.441744 105.373069 
L 263.260972 102.789342 
L 264.571738 98.026331 
L 264.899429 97.104053 
L 265.554812 94.710585 
L 266.865577 89.700926 
L 268.667879 81.981374 
L 269.159416 79.511045 
L 269.650953 76.951128 
L 270.634027 72.843968 
L 271.780947 67.463603 
L 272.108638 66.216103 
L 273.419403 60.997489 
L 273.747095 59.42019 
L 276.368625 51.33489 
L 277.024008 49.682553 
L 277.351699 48.956027 
L 278.007082 47.837484 
L 278.990156 45.927173 
L 279.645539 44.889887 
L 280.956304 43.226107 
L 282.267069 42.419037 
L 282.430915 42.47866 
L 283.086298 42.012192 
L 283.74168 42.435746 
L 285.543983 42.809108 
L 285.707828 42.827553 
L 286.03552 42.691595 
L 286.527057 42.961874 
L 286.690902 42.991709 
L 287.018594 43.235839 
L 287.182439 43.199724 
L 287.510131 43.491247 
L 288.165513 43.604053 
L 288.493205 43.900416 
L 288.984742 44.804648 
L 289.476279 45.146649 
L 290.623198 46.624425 
L 290.787044 46.73924 
L 293.900111 52.060406 
L 297.504716 59.312223 
L 297.832407 59.776625 
L 298.323944 60.538996 
L 299.307018 62.179595 
L 300.290092 64.119338 
L 301.764703 66.87107 
L 302.092395 67.426336 
L 302.911623 68.700536 
L 304.713925 71.518033 
L 305.860845 73.220812 
L 307.499302 75.867533 
L 307.990839 76.707668 
L 310.448524 80.581974 
L 310.776215 80.8732 
L 312.906208 84.360573 
L 313.2339 84.910627 
L 315.85543 88.199245 
L 316.510813 88.978464 
L 317.330041 90.117528 
L 322.900794 95.969987 
L 323.883868 96.742527 
L 324.375405 97.120871 
L 325.850016 98.501925 
L 326.505399 99.127565 
L 327.324627 100.019174 
L 328.307701 100.904999 
L 332.239997 104.054279 
L 335.51691 106.282316 
L 337.319212 107.439524 
L 338.793823 108.071493 
L 339.28536 108.413196 
L 343.217656 110.268788 
L 343.873039 110.558699 
L 346.003033 111.630259 
L 347.313798 112.192837 
L 349.279946 113.094717 
L 351.409939 113.876146 
L 353.212242 114.643699 
L 354.523007 115.154222 
L 362.551445 117.499914 
L 367.794506 118.535095 
L 373.69295 119.511102 
L 376.642172 119.8737 
L 383.032153 120.813932 
L 398.597491 122.366602 
L 413.015909 123.081653 
L 413.015909 123.081653 
" style="fill:none;stroke:#ff7f0e;stroke-linecap:square;stroke-width:1.5;"/>
   </g>
   <g id="patch_8">
    <path d="M 241.15 128.35 
L 241.15 27.9 
" style="fill:none;stroke:#000000;stroke-linecap:square;stroke-linejoin:miter;stroke-width:0.8;"/>
   </g>
   <g id="patch_9">
    <path d="M 421.2 128.35 
L 421.2 27.9 
" style="fill:none;stroke:#000000;stroke-linecap:square;stroke-linejoin:miter;stroke-width:0.8;"/>
   </g>
   <g id="patch_10">
    <path d="M 241.15 128.35 
L 421.2 128.35 
" style="fill:none;stroke:#000000;stroke-linecap:square;stroke-linejoin:miter;stroke-width:0.8;"/>
   </g>
   <g id="patch_11">
    <path d="M 241.15 27.9 
L 421.2 27.9 
" style="fill:none;stroke:#000000;stroke-linecap:square;stroke-linejoin:miter;stroke-width:0.8;"/>
   </g>
   <g id="text_10">
    <!-- $ρ_{0, 1}$ = 0.9    $ρ_{1, 0}$ = 0.2 -->
    <g transform="translate(264.155 21.9)scale(0.12 -0.12)">
     <defs>
      <path d="M 10.984375 1.515625 
L 10.984375 10.5 
Q 14.703125 8.734375 18.5 7.8125 
Q 22.3125 6.890625 25.984375 6.890625 
Q 35.75 6.890625 40.890625 13.453125 
Q 46.046875 20.015625 46.78125 33.40625 
Q 43.953125 29.203125 39.59375 26.953125 
Q 35.25 24.703125 29.984375 24.703125 
Q 19.046875 24.703125 12.671875 31.3125 
Q 6.296875 37.9375 6.296875 49.421875 
Q 6.296875 60.640625 12.9375 67.421875 
Q 19.578125 74.21875 30.609375 74.21875 
Q 43.265625 74.21875 49.921875 64.515625 
Q 56.59375 54.828125 56.59375 36.375 
Q 56.59375 19.140625 48.40625 8.859375 
Q 40.234375 -1.421875 26.421875 -1.421875 
Q 22.703125 -1.421875 18.890625 -0.6875 
Q 15.09375 0.046875 10.984375 1.515625 
z
M 30.609375 32.421875 
Q 37.25 32.421875 41.125 36.953125 
Q 45.015625 41.5 45.015625 49.421875 
Q 45.015625 57.28125 41.125 61.84375 
Q 37.25 66.40625 30.609375 66.40625 
Q 23.96875 66.40625 20.09375 61.84375 
Q 16.21875 57.28125 16.21875 49.421875 
Q 16.21875 41.5 20.09375 36.953125 
Q 23.96875 32.421875 30.609375 32.421875 
z
" id="DejaVuSans-57"/>
     </defs>
     <use transform="translate(0 0.78125)" xlink:href="#DejaVuSans-Oblique-961"/>
     <use transform="translate(63.476562 -15.625)scale(0.7)" xlink:href="#DejaVuSans-48"/>
     <use transform="translate(108.012695 -15.625)scale(0.7)" xlink:href="#DejaVuSans-44"/>
     <use transform="translate(143.901367 -15.625)scale(0.7)" xlink:href="#DejaVuSans-49"/>
     <use transform="translate(191.171875 0.78125)" xlink:href="#DejaVuSans-32"/>
     <use transform="translate(222.958984 0.78125)" xlink:href="#DejaVuSans-61"/>
     <use transform="translate(306.748047 0.78125)" xlink:href="#DejaVuSans-32"/>
     <use transform="translate(338.535156 0.78125)" xlink:href="#DejaVuSans-48"/>
     <use transform="translate(402.158203 0.78125)" xlink:href="#DejaVuSans-46"/>
     <use transform="translate(433.945312 0.78125)" xlink:href="#DejaVuSans-57"/>
     <use transform="translate(497.568359 0.78125)" xlink:href="#DejaVuSans-32"/>
     <use transform="translate(529.355469 0.78125)" xlink:href="#DejaVuSans-32"/>
     <use transform="translate(561.142578 0.78125)" xlink:href="#DejaVuSans-32"/>
     <use transform="translate(592.929688 0.78125)" xlink:href="#DejaVuSans-32"/>
     <use transform="translate(624.716797 0.78125)" xlink:href="#DejaVuSans-Oblique-961"/>
     <use transform="translate(688.193359 -15.625)scale(0.7)" xlink:href="#DejaVuSans-49"/>
     <use transform="translate(732.729492 -15.625)scale(0.7)" xlink:href="#DejaVuSans-44"/>
     <use transform="translate(768.618164 -15.625)scale(0.7)" xlink:href="#DejaVuSans-48"/>
     <use transform="translate(815.888672 0.78125)" xlink:href="#DejaVuSans-32"/>
     <use transform="translate(847.675781 0.78125)" xlink:href="#DejaVuSans-61"/>
     <use transform="translate(931.464844 0.78125)" xlink:href="#DejaVuSans-32"/>
     <use transform="translate(963.251953 0.78125)" xlink:href="#DejaVuSans-48"/>
     <use transform="translate(1026.875 0.78125)" xlink:href="#DejaVuSans-46"/>
     <use transform="translate(1053.162109 0.78125)" xlink:href="#DejaVuSans-50"/>
    </g>
   </g>
   <g id="legend_1">
    <g id="patch_12">
     <path d="M 351.346875 65.25625 
L 414.2 65.25625 
Q 416.2 65.25625 416.2 63.25625 
L 416.2 34.9 
Q 416.2 32.9 414.2 32.9 
L 351.346875 32.9 
Q 349.346875 32.9 349.346875 34.9 
L 349.346875 63.25625 
Q 349.346875 65.25625 351.346875 65.25625 
z
" style="fill:#ffffff;opacity:0.8;stroke:#cccccc;stroke-linejoin:miter;"/>
    </g>
    <g id="line2d_20">
     <path d="M 353.346875 40.998438 
L 373.346875 40.998438 
" style="fill:none;stroke:#1f77b4;stroke-linecap:square;stroke-width:1.5;"/>
    </g>
    <g id="line2d_21"/>
    <g id="text_11">
     <!-- Pop. 0 -->
     <g transform="translate(381.346875 44.498438)scale(0.1 -0.1)">
      <defs>
       <path d="M 19.671875 64.796875 
L 19.671875 37.40625 
L 32.078125 37.40625 
Q 38.96875 37.40625 42.71875 40.96875 
Q 46.484375 44.53125 46.484375 51.125 
Q 46.484375 57.671875 42.71875 61.234375 
Q 38.96875 64.796875 32.078125 64.796875 
z
M 9.8125 72.90625 
L 32.078125 72.90625 
Q 44.34375 72.90625 50.609375 67.359375 
Q 56.890625 61.8125 56.890625 51.125 
Q 56.890625 40.328125 50.609375 34.8125 
Q 44.34375 29.296875 32.078125 29.296875 
L 19.671875 29.296875 
L 19.671875 0 
L 9.8125 0 
z
" id="DejaVuSans-80"/>
       <path d="M 18.109375 8.203125 
L 18.109375 -20.796875 
L 9.078125 -20.796875 
L 9.078125 54.6875 
L 18.109375 54.6875 
L 18.109375 46.390625 
Q 20.953125 51.265625 25.265625 53.625 
Q 29.59375 56 35.59375 56 
Q 45.5625 56 51.78125 48.09375 
Q 58.015625 40.1875 58.015625 27.296875 
Q 58.015625 14.40625 51.78125 6.484375 
Q 45.5625 -1.421875 35.59375 -1.421875 
Q 29.59375 -1.421875 25.265625 0.953125 
Q 20.953125 3.328125 18.109375 8.203125 
z
M 48.6875 27.296875 
Q 48.6875 37.203125 44.609375 42.84375 
Q 40.53125 48.484375 33.40625 48.484375 
Q 26.265625 48.484375 22.1875 42.84375 
Q 18.109375 37.203125 18.109375 27.296875 
Q 18.109375 17.390625 22.1875 11.75 
Q 26.265625 6.109375 33.40625 6.109375 
Q 40.53125 6.109375 44.609375 11.75 
Q 48.6875 17.390625 48.6875 27.296875 
z
" id="DejaVuSans-112"/>
      </defs>
      <use xlink:href="#DejaVuSans-80"/>
      <use x="56.677734" xlink:href="#DejaVuSans-111"/>
      <use x="117.859375" xlink:href="#DejaVuSans-112"/>
      <use x="181.335938" xlink:href="#DejaVuSans-46"/>
      <use x="213.123047" xlink:href="#DejaVuSans-32"/>
      <use x="244.910156" xlink:href="#DejaVuSans-48"/>
     </g>
    </g>
    <g id="line2d_22">
     <path d="M 353.346875 55.676563 
L 373.346875 55.676563 
" style="fill:none;stroke:#ff7f0e;stroke-linecap:square;stroke-width:1.5;"/>
    </g>
    <g id="line2d_23"/>
    <g id="text_12">
     <!-- Pop. 1 -->
     <g transform="translate(381.346875 59.176563)scale(0.1 -0.1)">
      <use xlink:href="#DejaVuSans-80"/>
      <use x="56.677734" xlink:href="#DejaVuSans-111"/>
      <use x="117.859375" xlink:href="#DejaVuSans-112"/>
      <use x="181.335938" xlink:href="#DejaVuSans-46"/>
      <use x="213.123047" xlink:href="#DejaVuSans-32"/>
      <use x="244.910156" xlink:href="#DejaVuSans-49"/>
     </g>
    </g>
   </g>
  </g>
  <g id="axes_3">
   <g id="patch_13">
    <path d="M 30.55 260.2 
L 210.6 260.2 
L 210.6 159.75 
L 30.55 159.75 
z
" style="fill:#ffffff;"/>
   </g>
   <g id="matplotlib.axis_5">
    <g id="xtick_9">
     <g id="line2d_24">
      <g>
       <use style="stroke:#000000;stroke-width:0.8;" x="38.734091" xlink:href="#mcf5eaf8996" y="260.2"/>
      </g>
     </g>
     <g id="text_13">
      <!-- 0 -->
      <g transform="translate(35.552841 274.798437)scale(0.1 -0.1)">
       <use xlink:href="#DejaVuSans-48"/>
      </g>
     </g>
    </g>
    <g id="xtick_10">
     <g id="line2d_25">
      <g>
       <use style="stroke:#000000;stroke-width:0.8;" x="93.294697" xlink:href="#mcf5eaf8996" y="260.2"/>
      </g>
     </g>
     <g id="text_14">
      <!-- 2 -->
      <g transform="translate(90.113447 274.798437)scale(0.1 -0.1)">
       <use xlink:href="#DejaVuSans-50"/>
      </g>
     </g>
    </g>
    <g id="xtick_11">
     <g id="line2d_26">
      <g>
       <use style="stroke:#000000;stroke-width:0.8;" x="147.855303" xlink:href="#mcf5eaf8996" y="260.2"/>
      </g>
     </g>
     <g id="text_15">
      <!-- 4 -->
      <g transform="translate(144.674053 274.798437)scale(0.1 -0.1)">
       <use xlink:href="#DejaVuSans-52"/>
      </g>
     </g>
    </g>
    <g id="xtick_12">
     <g id="line2d_27">
      <g>
       <use style="stroke:#000000;stroke-width:0.8;" x="202.415909" xlink:href="#mcf5eaf8996" y="260.2"/>
      </g>
     </g>
     <g id="text_16">
      <!-- 6 -->
      <g transform="translate(199.234659 274.798437)scale(0.1 -0.1)">
       <use xlink:href="#DejaVuSans-54"/>
      </g>
     </g>
    </g>
    <g id="text_17">
     <!-- Time -->
     <g transform="translate(108.341406 288.476562)scale(0.1 -0.1)">
      <defs>
       <path d="M -0.296875 72.90625 
L 61.375 72.90625 
L 61.375 64.59375 
L 35.5 64.59375 
L 35.5 0 
L 25.59375 0 
L 25.59375 64.59375 
L -0.296875 64.59375 
z
" id="DejaVuSans-84"/>
       <path d="M 52 44.1875 
Q 55.375 50.25 60.0625 53.125 
Q 64.75 56 71.09375 56 
Q 79.640625 56 84.28125 50.015625 
Q 88.921875 44.046875 88.921875 33.015625 
L 88.921875 0 
L 79.890625 0 
L 79.890625 32.71875 
Q 79.890625 40.578125 77.09375 44.375 
Q 74.3125 48.1875 68.609375 48.1875 
Q 61.625 48.1875 57.5625 43.546875 
Q 53.515625 38.921875 53.515625 30.90625 
L 53.515625 0 
L 44.484375 0 
L 44.484375 32.71875 
Q 44.484375 40.625 41.703125 44.40625 
Q 38.921875 48.1875 33.109375 48.1875 
Q 26.21875 48.1875 22.15625 43.53125 
Q 18.109375 38.875 18.109375 30.90625 
L 18.109375 0 
L 9.078125 0 
L 9.078125 54.6875 
L 18.109375 54.6875 
L 18.109375 46.1875 
Q 21.1875 51.21875 25.484375 53.609375 
Q 29.78125 56 35.6875 56 
Q 41.65625 56 45.828125 52.96875 
Q 50 49.953125 52 44.1875 
z
" id="DejaVuSans-109"/>
      </defs>
      <use xlink:href="#DejaVuSans-84"/>
      <use x="57.958984" xlink:href="#DejaVuSans-105"/>
      <use x="85.742188" xlink:href="#DejaVuSans-109"/>
      <use x="183.154297" xlink:href="#DejaVuSans-101"/>
     </g>
    </g>
   </g>
   <g id="matplotlib.axis_6">
    <g id="ytick_8">
     <g id="line2d_28">
      <g>
       <use style="stroke:#000000;stroke-width:0.8;" x="30.55" xlink:href="#mfb4a0ebca5" y="255.634091"/>
      </g>
     </g>
     <g id="text_18">
      <!-- 0 -->
      <g transform="translate(17.1875 259.43331)scale(0.1 -0.1)">
       <use xlink:href="#DejaVuSans-48"/>
      </g>
     </g>
    </g>
    <g id="ytick_9">
     <g id="line2d_29">
      <g>
       <use style="stroke:#000000;stroke-width:0.8;" x="30.55" xlink:href="#mfb4a0ebca5" y="220.185887"/>
      </g>
     </g>
     <g id="text_19">
      <!-- 20 -->
      <g transform="translate(10.825 223.985106)scale(0.1 -0.1)">
       <use xlink:href="#DejaVuSans-50"/>
       <use x="63.623047" xlink:href="#DejaVuSans-48"/>
      </g>
     </g>
    </g>
    <g id="ytick_10">
     <g id="line2d_30">
      <g>
       <use style="stroke:#000000;stroke-width:0.8;" x="30.55" xlink:href="#mfb4a0ebca5" y="184.737684"/>
      </g>
     </g>
     <g id="text_20">
      <!-- 40 -->
      <g transform="translate(10.825 188.536903)scale(0.1 -0.1)">
       <use xlink:href="#DejaVuSans-52"/>
       <use x="63.623047" xlink:href="#DejaVuSans-48"/>
      </g>
     </g>
    </g>
    <g id="text_21">
     <!-- No. of infected -->
     <g transform="translate(4.745313 246.628906)rotate(-90)scale(0.1 -0.1)">
      <use xlink:href="#DejaVuSans-78"/>
      <use x="74.804688" xlink:href="#DejaVuSans-111"/>
      <use x="134.236328" xlink:href="#DejaVuSans-46"/>
      <use x="166.023438" xlink:href="#DejaVuSans-32"/>
      <use x="197.810547" xlink:href="#DejaVuSans-111"/>
      <use x="258.992188" xlink:href="#DejaVuSans-102"/>
      <use x="294.197266" xlink:href="#DejaVuSans-32"/>
      <use x="325.984375" xlink:href="#DejaVuSans-105"/>
      <use x="353.767578" xlink:href="#DejaVuSans-110"/>
      <use x="417.146484" xlink:href="#DejaVuSans-102"/>
      <use x="452.351562" xlink:href="#DejaVuSans-101"/>
      <use x="513.875" xlink:href="#DejaVuSans-99"/>
      <use x="568.855469" xlink:href="#DejaVuSans-116"/>
      <use x="608.064453" xlink:href="#DejaVuSans-101"/>
      <use x="669.587891" xlink:href="#DejaVuSans-100"/>
     </g>
    </g>
   </g>
   <g id="line2d_31">
    <path clip-path="url(#p49bc1c74a7)" d="M 38.734091 255.634091 
L 40.208702 255.521509 
L 42.011004 255.372712 
L 44.960226 254.713252 
L 45.9433 254.303109 
L 46.598683 254.000311 
L 47.581757 253.546988 
L 48.892522 252.821144 
L 50.85867 250.831618 
L 52.660972 248.629861 
L 53.152509 247.60503 
L 53.807892 246.599987 
L 54.62712 245.1083 
L 56.101731 241.552707 
L 56.92096 239.270476 
L 57.412497 237.566075 
L 57.904034 236.415189 
L 58.395571 234.613456 
L 60.034027 228.669152 
L 60.525564 226.91851 
L 61.180947 224.355745 
L 62.000175 221.367354 
L 62.164021 220.842957 
L 62.655558 218.371239 
L 63.147095 216.342571 
L 63.31094 215.905244 
L 65.113243 207.760712 
L 65.768625 204.967134 
L 66.096317 203.563913 
L 66.424008 202.459115 
L 67.898619 195.688377 
L 68.390156 193.918157 
L 69.37323 190.175081 
L 70.356304 187.357039 
L 70.52015 186.622609 
L 70.683995 186.41893 
L 71.011687 185.187822 
L 71.339378 184.338223 
L 71.994761 182.735933 
L 72.650143 180.872322 
L 72.813989 180.654905 
L 73.469372 178.856923 
L 73.960909 177.926894 
L 74.452446 176.694966 
L 76.910131 172.487731 
L 77.565513 171.491872 
L 77.893205 171.076624 
L 78.05705 171.022753 
L 78.220896 171.103866 
L 78.876279 170.693175 
L 79.367816 170.050646 
L 79.531661 170.187889 
L 80.678581 169.973648 
L 80.842427 170.110455 
L 81.006272 170.047602 
L 81.333964 170.309632 
L 81.497809 170.284747 
L 82.153192 170.778091 
L 82.317037 170.769527 
L 82.644729 171.053001 
L 82.808574 170.966072 
L 83.136266 171.60589 
L 83.300111 171.606798 
L 83.627803 171.403765 
L 83.791648 171.582464 
L 84.11934 171.593512 
L 84.283185 171.366954 
L 85.102414 171.843604 
L 85.757796 172.677706 
L 85.921642 172.735977 
L 86.413179 173.426177 
L 86.904716 173.836368 
L 87.396253 174.119576 
L 88.051636 175.06825 
L 88.379327 175.528538 
L 88.707018 175.961647 
L 89.198555 176.669837 
L 90.181629 178.553405 
L 90.345475 178.688989 
L 90.837012 179.490533 
L 91.000858 179.615919 
L 93.622388 183.987036 
L 93.95008 184.422524 
L 94.605462 185.451875 
L 95.096999 186.446112 
L 96.080073 188.278095 
L 96.407765 188.993865 
L 97.063147 190.00913 
L 97.71853 190.903871 
L 99.520832 193.84941 
L 100.503906 196.027819 
L 100.667752 196.406613 
L 100.831598 196.503173 
L 101.323134 197.292542 
L 101.650826 198.05345 
L 102.470054 199.156277 
L 102.961591 200.066424 
L 104.272356 202.524957 
L 105.419276 204.436314 
L 106.730041 206.885476 
L 107.221578 207.46946 
L 107.713115 208.322899 
L 108.860035 210.293366 
L 109.843109 212.045966 
L 110.662337 213.525218 
L 111.153874 214.159754 
L 111.645411 214.89672 
L 112.792331 216.551992 
L 113.283868 217.087675 
L 115.413862 220.213941 
L 116.069244 221.15953 
L 116.396936 221.582864 
L 117.38001 222.850788 
L 117.707701 223.194403 
L 118.199238 223.863287 
L 121.476151 226.918267 
L 122.295379 227.496487 
L 123.442299 228.533718 
L 124.097682 229.016407 
L 128.357669 232.739738 
L 130.651508 234.459736 
L 134.419959 237.063969 
L 134.911496 237.393457 
L 137.205335 238.790787 
L 137.696872 239.176609 
L 140.809939 241.047601 
L 142.448396 241.750121 
L 143.759161 242.422721 
L 149.985297 245.10544 
L 152.279136 245.858537 
L 155.064512 246.947297 
L 156.866815 247.747758 
L 157.358352 247.975524 
L 159.652191 248.690457 
L 160.307573 248.928151 
L 162.437567 249.451146 
L 170.793696 251.226356 
L 172.432153 251.575547 
L 173.579072 251.807584 
L 177.83906 252.492584 
L 184.720577 253.361444 
L 187.669799 253.765475 
L 200.613607 254.684177 
L 202.415909 254.741822 
L 202.415909 254.741822 
" style="fill:none;stroke:#1f77b4;stroke-linecap:square;stroke-width:1.5;"/>
   </g>
   <g id="line2d_32">
    <path clip-path="url(#p49bc1c74a7)" d="M 38.734091 253.88596 
L 39.061782 253.357364 
L 39.881011 252.703041 
L 42.338696 250.922103 
L 43.321769 250.086726 
L 44.468689 248.945835 
L 45.124072 248.205597 
L 46.598683 246.226124 
L 48.073294 243.473178 
L 49.220213 240.68407 
L 51.186361 235.300605 
L 52.169435 231.669769 
L 52.497127 230.621781 
L 54.463275 222.963162 
L 55.282503 219.397927 
L 57.248651 210.923891 
L 58.395571 205.324638 
L 61.017101 192.517713 
L 61.508638 190.218838 
L 63.147095 183.14473 
L 64.45786 178.073129 
L 64.949397 176.755685 
L 65.440934 174.474568 
L 65.932471 173.176968 
L 66.424008 171.785488 
L 66.587854 171.636422 
L 67.079391 170.300561 
L 67.570928 169.413724 
L 67.734773 169.322713 
L 68.062465 168.691789 
L 68.390156 168.567737 
L 68.554002 168.366017 
L 68.881693 167.442785 
L 69.045539 167.255218 
L 69.209384 166.75804 
L 69.864767 166.448708 
L 70.028613 166.649384 
L 70.52015 166.112414 
L 70.683995 166.031074 
L 71.011687 165.734305 
L 71.175532 165.767199 
L 71.339378 165.661703 
L 71.503224 165.753035 
L 71.830915 165.316174 
L 72.158606 165.174456 
L 72.322452 164.822291 
L 72.486298 164.934163 
L 72.813989 164.790912 
L 72.977835 164.315909 
L 73.305526 164.728653 
L 73.633217 164.822005 
L 73.960909 164.579085 
L 74.124754 164.641137 
L 74.452446 165.221817 
L 75.107828 164.908914 
L 75.763211 165.722194 
L 75.927057 165.805234 
L 76.254748 166.246296 
L 76.418594 166.308861 
L 76.582439 166.164121 
L 76.746285 166.283029 
L 77.237822 167.209164 
L 77.893205 167.701088 
L 78.220896 168.223906 
L 81.006272 172.072244 
L 81.333964 172.737339 
L 81.661655 173.136151 
L 81.989346 173.769547 
L 82.317037 174.060107 
L 82.480883 174.183399 
L 83.136266 175.83956 
L 83.300111 176.032473 
L 83.791648 176.929566 
L 85.102414 179.176975 
L 86.085488 181.051161 
L 86.577025 182.079678 
L 88.215481 185.341144 
L 91.820086 192.402667 
L 93.294697 195.563721 
L 93.622388 196.033955 
L 94.113925 197.188171 
L 94.769308 198.133561 
L 95.096999 198.92591 
L 95.588536 200.003741 
L 96.899302 202.717004 
L 98.046221 204.309959 
L 101.323134 210.372184 
L 103.944665 214.118636 
L 104.927739 215.656646 
L 106.566196 218.080324 
L 110.006955 222.243394 
L 110.662337 222.821907 
L 111.645411 224.041553 
L 112.46464 225.035202 
L 113.120022 225.629212 
L 113.775405 226.351742 
L 114.594633 227.356648 
L 118.363084 230.975152 
L 119.673849 232.033673 
L 123.114608 234.908454 
L 124.097682 235.467354 
L 124.589219 235.798357 
L 126.227675 236.898274 
L 127.210749 237.679691 
L 128.357669 238.317602 
L 129.668434 239.142319 
L 133.109193 241.431687 
L 134.419959 242.196732 
L 134.911496 242.504882 
L 135.89457 242.896114 
L 136.549952 243.177153 
L 137.369181 243.551776 
L 150.476834 248.495131 
L 152.279136 248.896762 
L 162.273721 250.782334 
L 165.386789 251.231206 
L 166.8614 251.519269 
L 179.805207 253.124783 
L 197.500539 254.385966 
L 202.415909 254.647308 
L 202.415909 254.647308 
" style="fill:none;stroke:#ff7f0e;stroke-linecap:square;stroke-width:1.5;"/>
   </g>
   <g id="patch_14">
    <path d="M 30.55 260.2 
L 30.55 159.75 
" style="fill:none;stroke:#000000;stroke-linecap:square;stroke-linejoin:miter;stroke-width:0.8;"/>
   </g>
   <g id="patch_15">
    <path d="M 210.6 260.2 
L 210.6 159.75 
" style="fill:none;stroke:#000000;stroke-linecap:square;stroke-linejoin:miter;stroke-width:0.8;"/>
   </g>
   <g id="patch_16">
    <path d="M 30.55 260.2 
L 210.6 260.2 
" style="fill:none;stroke:#000000;stroke-linecap:square;stroke-linejoin:miter;stroke-width:0.8;"/>
   </g>
   <g id="patch_17">
    <path d="M 30.55 159.75 
L 210.6 159.75 
" style="fill:none;stroke:#000000;stroke-linecap:square;stroke-linejoin:miter;stroke-width:0.8;"/>
   </g>
   <g id="text_22">
    <!-- $ρ_{0, 1}$ = 0.2    $ρ_{1, 0}$ = 0.9 -->
    <g transform="translate(53.555 153.75)scale(0.12 -0.12)">
     <use transform="translate(0 0.78125)" xlink:href="#DejaVuSans-Oblique-961"/>
     <use transform="translate(63.476562 -15.625)scale(0.7)" xlink:href="#DejaVuSans-48"/>
     <use transform="translate(108.012695 -15.625)scale(0.7)" xlink:href="#DejaVuSans-44"/>
     <use transform="translate(143.901367 -15.625)scale(0.7)" xlink:href="#DejaVuSans-49"/>
     <use transform="translate(191.171875 0.78125)" xlink:href="#DejaVuSans-32"/>
     <use transform="translate(222.958984 0.78125)" xlink:href="#DejaVuSans-61"/>
     <use transform="translate(306.748047 0.78125)" xlink:href="#DejaVuSans-32"/>
     <use transform="translate(338.535156 0.78125)" xlink:href="#DejaVuSans-48"/>
     <use transform="translate(402.158203 0.78125)" xlink:href="#DejaVuSans-46"/>
     <use transform="translate(428.445312 0.78125)" xlink:href="#DejaVuSans-50"/>
     <use transform="translate(492.068359 0.78125)" xlink:href="#DejaVuSans-32"/>
     <use transform="translate(523.855469 0.78125)" xlink:href="#DejaVuSans-32"/>
     <use transform="translate(555.642578 0.78125)" xlink:href="#DejaVuSans-32"/>
     <use transform="translate(587.429688 0.78125)" xlink:href="#DejaVuSans-32"/>
     <use transform="translate(619.216797 0.78125)" xlink:href="#DejaVuSans-Oblique-961"/>
     <use transform="translate(682.693359 -15.625)scale(0.7)" xlink:href="#DejaVuSans-49"/>
     <use transform="translate(727.229492 -15.625)scale(0.7)" xlink:href="#DejaVuSans-44"/>
     <use transform="translate(763.118164 -15.625)scale(0.7)" xlink:href="#DejaVuSans-48"/>
     <use transform="translate(810.388672 0.78125)" xlink:href="#DejaVuSans-32"/>
     <use transform="translate(842.175781 0.78125)" xlink:href="#DejaVuSans-61"/>
     <use transform="translate(925.964844 0.78125)" xlink:href="#DejaVuSans-32"/>
     <use transform="translate(957.751953 0.78125)" xlink:href="#DejaVuSans-48"/>
     <use transform="translate(1021.375 0.78125)" xlink:href="#DejaVuSans-46"/>
     <use transform="translate(1053.162109 0.78125)" xlink:href="#DejaVuSans-57"/>
    </g>
   </g>
  </g>
  <g id="axes_4">
   <g id="patch_18">
    <path d="M 241.15 260.2 
L 421.2 260.2 
L 421.2 159.75 
L 241.15 159.75 
z
" style="fill:#ffffff;"/>
   </g>
   <g id="matplotlib.axis_7">
    <g id="xtick_13">
     <g id="line2d_33">
      <g>
       <use style="stroke:#000000;stroke-width:0.8;" x="249.334091" xlink:href="#mcf5eaf8996" y="260.2"/>
      </g>
     </g>
     <g id="text_23">
      <!-- 0 -->
      <g transform="translate(246.152841 274.798437)scale(0.1 -0.1)">
       <use xlink:href="#DejaVuSans-48"/>
      </g>
     </g>
    </g>
    <g id="xtick_14">
     <g id="line2d_34">
      <g>
       <use style="stroke:#000000;stroke-width:0.8;" x="303.894697" xlink:href="#mcf5eaf8996" y="260.2"/>
      </g>
     </g>
     <g id="text_24">
      <!-- 2 -->
      <g transform="translate(300.713447 274.798437)scale(0.1 -0.1)">
       <use xlink:href="#DejaVuSans-50"/>
      </g>
     </g>
    </g>
    <g id="xtick_15">
     <g id="line2d_35">
      <g>
       <use style="stroke:#000000;stroke-width:0.8;" x="358.455303" xlink:href="#mcf5eaf8996" y="260.2"/>
      </g>
     </g>
     <g id="text_25">
      <!-- 4 -->
      <g transform="translate(355.274053 274.798437)scale(0.1 -0.1)">
       <use xlink:href="#DejaVuSans-52"/>
      </g>
     </g>
    </g>
    <g id="xtick_16">
     <g id="line2d_36">
      <g>
       <use style="stroke:#000000;stroke-width:0.8;" x="413.015909" xlink:href="#mcf5eaf8996" y="260.2"/>
      </g>
     </g>
     <g id="text_26">
      <!-- 6 -->
      <g transform="translate(409.834659 274.798437)scale(0.1 -0.1)">
       <use xlink:href="#DejaVuSans-54"/>
      </g>
     </g>
    </g>
    <g id="text_27">
     <!-- Time -->
     <g transform="translate(318.941406 288.476562)scale(0.1 -0.1)">
      <use xlink:href="#DejaVuSans-84"/>
      <use x="57.958984" xlink:href="#DejaVuSans-105"/>
      <use x="85.742188" xlink:href="#DejaVuSans-109"/>
      <use x="183.154297" xlink:href="#DejaVuSans-101"/>
     </g>
    </g>
   </g>
   <g id="matplotlib.axis_8">
    <g id="ytick_11">
     <g id="line2d_37">
      <g>
       <use style="stroke:#000000;stroke-width:0.8;" x="241.15" xlink:href="#mfb4a0ebca5" y="255.634091"/>
      </g>
     </g>
     <g id="text_28">
      <!-- 0 -->
      <g transform="translate(227.7875 259.43331)scale(0.1 -0.1)">
       <use xlink:href="#DejaVuSans-48"/>
      </g>
     </g>
    </g>
    <g id="ytick_12">
     <g id="line2d_38">
      <g>
       <use style="stroke:#000000;stroke-width:0.8;" x="241.15" xlink:href="#mfb4a0ebca5" y="224.367611"/>
      </g>
     </g>
     <g id="text_29">
      <!-- 20 -->
      <g transform="translate(221.425 228.166829)scale(0.1 -0.1)">
       <use xlink:href="#DejaVuSans-50"/>
       <use x="63.623047" xlink:href="#DejaVuSans-48"/>
      </g>
     </g>
    </g>
    <g id="ytick_13">
     <g id="line2d_39">
      <g>
       <use style="stroke:#000000;stroke-width:0.8;" x="241.15" xlink:href="#mfb4a0ebca5" y="193.101131"/>
      </g>
     </g>
     <g id="text_30">
      <!-- 40 -->
      <g transform="translate(221.425 196.900349)scale(0.1 -0.1)">
       <use xlink:href="#DejaVuSans-52"/>
       <use x="63.623047" xlink:href="#DejaVuSans-48"/>
      </g>
     </g>
    </g>
    <g id="ytick_14">
     <g id="line2d_40">
      <g>
       <use style="stroke:#000000;stroke-width:0.8;" x="241.15" xlink:href="#mfb4a0ebca5" y="161.83465"/>
      </g>
     </g>
     <g id="text_31">
      <!-- 60 -->
      <g transform="translate(221.425 165.633869)scale(0.1 -0.1)">
       <use xlink:href="#DejaVuSans-54"/>
       <use x="63.623047" xlink:href="#DejaVuSans-48"/>
      </g>
     </g>
    </g>
   </g>
   <g id="line2d_41">
    <path clip-path="url(#p819a37f49e)" d="M 249.334091 255.634091 
L 250.481011 255.28034 
L 251.955622 254.685552 
L 252.447159 254.489931 
L 252.938696 254.253305 
L 254.413306 253.086057 
L 255.887917 251.360863 
L 258.017911 247.605112 
L 259.492522 243.525613 
L 260.967133 238.424245 
L 261.950207 234.503284 
L 262.769435 230.659925 
L 263.260972 228.475001 
L 266.210194 211.434673 
L 267.029423 206.073257 
L 267.684805 202.457962 
L 268.176342 199.822528 
L 268.667879 197.515467 
L 271.453256 182.873722 
L 273.91094 172.532446 
L 275.05786 169.408357 
L 275.385551 169.114961 
L 275.713243 168.236869 
L 276.20478 167.116365 
L 276.368625 166.882006 
L 276.532471 166.981376 
L 277.187854 166.248109 
L 277.515545 166.06475 
L 277.843236 165.634904 
L 278.007082 165.312688 
L 278.170928 165.286092 
L 278.82631 164.638873 
L 279.154002 164.696058 
L 279.481693 164.493418 
L 279.809384 164.934514 
L 280.137076 164.568123 
L 280.300921 164.811023 
L 280.628613 164.933319 
L 280.956304 165.235927 
L 281.12015 165.199528 
L 281.447841 165.531609 
L 282.758606 167.04337 
L 282.922452 167.069191 
L 283.250143 167.403309 
L 284.8886 170.879511 
L 285.707828 172.33255 
L 286.199365 173.061381 
L 286.527057 173.583375 
L 287.346285 175.255074 
L 287.837822 176.173242 
L 288.329359 177.104412 
L 290.295507 181.239184 
L 290.95089 182.900618 
L 291.442427 183.779737 
L 292.917037 186.922269 
L 293.408574 187.87992 
L 294.227803 189.590571 
L 295.210877 192.008547 
L 295.866259 193.513195 
L 296.357796 194.702838 
L 297.013179 196.264954 
L 297.34087 196.911475 
L 298.160099 198.586205 
L 304.058543 209.636958 
L 304.55008 210.481347 
L 305.696999 212.443954 
L 306.352382 213.548183 
L 309.46545 217.709646 
L 310.284678 219.003702 
L 311.595443 220.830729 
L 316.838504 226.659356 
L 317.493887 227.279581 
L 318.968498 228.847074 
L 320.115418 229.959623 
L 321.098492 231.014881 
L 321.590029 231.572411 
L 322.081566 231.958156 
L 323.392331 233.043314 
L 325.68617 234.96021 
L 327.488473 236.565315 
L 327.98001 236.834549 
L 328.307701 237.099625 
L 330.273849 238.067581 
L 330.765386 238.405505 
L 333.386916 239.932951 
L 336.336138 241.494384 
L 340.104589 243.3209 
L 341.087663 243.818586 
L 345.34765 245.568851 
L 346.822261 246.163034 
L 349.1161 246.999046 
L 355.669927 249.049425 
L 358.127612 249.548756 
L 361.076834 250.166757 
L 362.387599 250.440397 
L 368.941426 251.447652 
L 372.218339 251.992452 
L 376.478326 252.602566 
L 381.393696 253.189741 
L 387.783677 253.672724 
L 406.625928 254.659049 
L 413.015909 254.818461 
L 413.015909 254.818461 
" style="fill:none;stroke:#1f77b4;stroke-linecap:square;stroke-width:1.5;"/>
   </g>
   <g id="line2d_42">
    <path clip-path="url(#p819a37f49e)" d="M 249.334091 254.088532 
L 249.661782 253.652491 
L 250.972548 252.700235 
L 251.62793 252.274684 
L 252.611004 251.452482 
L 253.102541 251.067208 
L 255.560226 247.930683 
L 256.215609 246.813586 
L 258.509448 241.373569 
L 261.45867 231.584448 
L 262.769435 226.292596 
L 265.390966 212.294901 
L 265.882503 209.338739 
L 267.029423 203.318335 
L 268.012497 197.294758 
L 269.159416 190.974359 
L 270.470182 183.539404 
L 270.797873 182.087089 
L 271.453256 179.311005 
L 271.944793 176.969345 
L 272.272484 175.465942 
L 273.091712 173.323508 
L 273.583249 171.504813 
L 274.238632 169.574542 
L 275.385551 167.012363 
L 275.549397 166.993323 
L 275.713243 166.808954 
L 276.20478 165.644418 
L 276.368625 165.659519 
L 276.696317 165.266057 
L 276.860162 165.328662 
L 277.679391 164.54847 
L 277.843236 164.58344 
L 278.007082 164.327066 
L 278.498619 164.368823 
L 278.662465 164.444375 
L 278.82631 164.745981 
L 278.990156 164.710514 
L 279.317847 164.769901 
L 279.809384 165.013511 
L 279.97323 165.188376 
L 280.137076 165.163707 
L 280.628613 165.588045 
L 281.775532 166.193202 
L 282.103224 166.758087 
L 282.430915 167.376104 
L 283.250143 168.795177 
L 284.560909 170.663251 
L 285.871674 173.50694 
L 286.199365 174.248168 
L 286.363211 174.511518 
L 286.690902 175.410261 
L 286.854748 175.513804 
L 287.018594 175.759958 
L 287.510131 176.923129 
L 288.65705 179.20991 
L 289.148587 180.579424 
L 289.476279 181.258616 
L 289.967816 182.400058 
L 290.459353 183.438643 
L 291.278581 185.541314 
L 292.753192 188.690379 
L 293.408574 190.010618 
L 294.063957 191.580251 
L 295.538568 194.251705 
L 296.849333 196.885639 
L 297.34087 197.949156 
L 298.160099 199.425431 
L 299.470864 202.178939 
L 299.962401 203.230611 
L 301.109321 205.128674 
L 301.437012 205.469371 
L 302.747777 207.742948 
L 303.40316 208.519621 
L 304.222388 209.820275 
L 305.860845 211.954415 
L 308.154684 215.501194 
L 309.137758 216.66005 
L 309.629295 217.321089 
L 311.267752 219.360066 
L 312.250826 220.577469 
L 312.906208 221.139935 
L 313.397745 221.741199 
L 318.313115 227.479743 
L 318.968498 228.035419 
L 320.606955 229.6662 
L 321.91772 230.889512 
L 322.573103 231.57598 
L 323.392331 232.285104 
L 327.816164 235.909219 
L 330.110003 237.58832 
L 334.042299 240.157973 
L 334.861527 240.685441 
L 336.008447 241.277796 
L 336.827675 241.810835 
L 337.810749 242.400654 
L 340.596126 243.836229 
L 341.087663 244.15091 
L 350.918402 247.776289 
L 351.901476 248.058255 
L 356.161464 249.251877 
L 357.79992 249.636383 
L 359.438377 249.972048 
L 361.076834 250.305457 
L 363.86221 251.075931 
L 367.302969 251.688282 
L 369.596808 251.990641 
L 373.529104 252.481133 
L 375.986789 252.752505 
L 393.026738 254.008652 
L 398.269799 254.365747 
L 413.015909 255.076027 
L 413.015909 255.076027 
" style="fill:none;stroke:#ff7f0e;stroke-linecap:square;stroke-width:1.5;"/>
   </g>
   <g id="patch_19">
    <path d="M 241.15 260.2 
L 241.15 159.75 
" style="fill:none;stroke:#000000;stroke-linecap:square;stroke-linejoin:miter;stroke-width:0.8;"/>
   </g>
   <g id="patch_20">
    <path d="M 421.2 260.2 
L 421.2 159.75 
" style="fill:none;stroke:#000000;stroke-linecap:square;stroke-linejoin:miter;stroke-width:0.8;"/>
   </g>
   <g id="patch_21">
    <path d="M 241.15 260.2 
L 421.2 260.2 
" style="fill:none;stroke:#000000;stroke-linecap:square;stroke-linejoin:miter;stroke-width:0.8;"/>
   </g>
   <g id="patch_22">
    <path d="M 241.15 159.75 
L 421.2 159.75 
" style="fill:none;stroke:#000000;stroke-linecap:square;stroke-linejoin:miter;stroke-width:0.8;"/>
   </g>
   <g id="text_32">
    <!-- $ρ_{0, 1}$ = 0.9    $ρ_{1, 0}$ = 0.9 -->
    <g transform="translate(263.795 153.75)scale(0.12 -0.12)">
     <use transform="translate(0 0.78125)" xlink:href="#DejaVuSans-Oblique-961"/>
     <use transform="translate(63.476562 -15.625)scale(0.7)" xlink:href="#DejaVuSans-48"/>
     <use transform="translate(108.012695 -15.625)scale(0.7)" xlink:href="#DejaVuSans-44"/>
     <use transform="translate(143.901367 -15.625)scale(0.7)" xlink:href="#DejaVuSans-49"/>
     <use transform="translate(191.171875 0.78125)" xlink:href="#DejaVuSans-32"/>
     <use transform="translate(222.958984 0.78125)" xlink:href="#DejaVuSans-61"/>
     <use transform="translate(306.748047 0.78125)" xlink:href="#DejaVuSans-32"/>
     <use transform="translate(338.535156 0.78125)" xlink:href="#DejaVuSans-48"/>
     <use transform="translate(402.158203 0.78125)" xlink:href="#DejaVuSans-46"/>
     <use transform="translate(433.945312 0.78125)" xlink:href="#DejaVuSans-57"/>
     <use transform="translate(497.568359 0.78125)" xlink:href="#DejaVuSans-32"/>
     <use transform="translate(529.355469 0.78125)" xlink:href="#DejaVuSans-32"/>
     <use transform="translate(561.142578 0.78125)" xlink:href="#DejaVuSans-32"/>
     <use transform="translate(592.929688 0.78125)" xlink:href="#DejaVuSans-32"/>
     <use transform="translate(624.716797 0.78125)" xlink:href="#DejaVuSans-Oblique-961"/>
     <use transform="translate(688.193359 -15.625)scale(0.7)" xlink:href="#DejaVuSans-49"/>
     <use transform="translate(732.729492 -15.625)scale(0.7)" xlink:href="#DejaVuSans-44"/>
     <use transform="translate(768.618164 -15.625)scale(0.7)" xlink:href="#DejaVuSans-48"/>
     <use transform="translate(815.888672 0.78125)" xlink:href="#DejaVuSans-32"/>
     <use transform="translate(847.675781 0.78125)" xlink:href="#DejaVuSans-61"/>
     <use transform="translate(931.464844 0.78125)" xlink:href="#DejaVuSans-32"/>
     <use transform="translate(963.251953 0.78125)" xlink:href="#DejaVuSans-48"/>
     <use transform="translate(1026.875 0.78125)" xlink:href="#DejaVuSans-46"/>
     <use transform="translate(1058.662109 0.78125)" xlink:href="#DejaVuSans-57"/>
    </g>
   </g>
  </g>
 </g>
 <defs>
  <clipPath id="pbaafea32c2">
   <rect height="100.45" width="180.05" x="30.55" y="27.9"/>
  </clipPath>
  <clipPath id="p2b478ae0a6">
   <rect height="100.45" width="180.05" x="241.15" y="27.9"/>
  </clipPath>
  <clipPath id="p49bc1c74a7">
   <rect height="100.45" width="180.05" x="30.55" y="159.75"/>
  </clipPath>
  <clipPath id="p819a37f49e">
   <rect height="100.45" width="180.05" x="241.15" y="159.75"/>
  </clipPath>
 </defs>
</svg>
