<?xml version="1.0" encoding="utf-8"?>
<svg xmlns="http://www.w3.org/2000/svg" xmlns:xlink="http://www.w3.org/1999/xlink" width="600" height="400" viewBox="0 0 2400 1600">
<defs>
  <clipPath id="clip670">
    <rect x="0" y="0" width="2400" height="1600"/>
  </clipPath>
</defs>
<path clip-path="url(#clip670)" d="
M0 1600 L2400 1600 L2400 0 L0 0  Z
  " fill="#282c34" fill-rule="evenodd" fill-opacity="1"/>
<defs>
  <clipPath id="clip671">
    <rect x="480" y="0" width="1681" height="1600"/>
  </clipPath>
</defs>
<path clip-path="url(#clip670)" d="
M211.116 1423.18 L2352.76 1423.18 L2352.76 123.472 L211.116 123.472  Z
  " fill="#21252b" fill-rule="evenodd" fill-opacity="1"/>
<defs>
  <clipPath id="clip672">
    <rect x="211" y="123" width="2143" height="1301"/>
  </clipPath>
</defs>
<polyline clip-path="url(#clip672)" style="stroke:#adb2b7; stroke-width:2; stroke-opacity:0.1; fill:none" points="
  504.854,1423.18 504.854,123.472 
  "/>
<polyline clip-path="url(#clip672)" style="stroke:#adb2b7; stroke-width:2; stroke-opacity:0.1; fill:none" points="
  893.395,1423.18 893.395,123.472 
  "/>
<polyline clip-path="url(#clip672)" style="stroke:#adb2b7; stroke-width:2; stroke-opacity:0.1; fill:none" points="
  1281.94,1423.18 1281.94,123.472 
  "/>
<polyline clip-path="url(#clip672)" style="stroke:#adb2b7; stroke-width:2; stroke-opacity:0.1; fill:none" points="
  1670.48,1423.18 1670.48,123.472 
  "/>
<polyline clip-path="url(#clip672)" style="stroke:#adb2b7; stroke-width:2; stroke-opacity:0.1; fill:none" points="
  2059.02,1423.18 2059.02,123.472 
  "/>
<polyline clip-path="url(#clip672)" style="stroke:#adb2b7; stroke-width:2; stroke-opacity:0.1; fill:none" points="
  211.116,1399.17 2352.76,1399.17 
  "/>
<polyline clip-path="url(#clip672)" style="stroke:#adb2b7; stroke-width:2; stroke-opacity:0.1; fill:none" points="
  211.116,1074.33 2352.76,1074.33 
  "/>
<polyline clip-path="url(#clip672)" style="stroke:#adb2b7; stroke-width:2; stroke-opacity:0.1; fill:none" points="
  211.116,749.484 2352.76,749.484 
  "/>
<polyline clip-path="url(#clip672)" style="stroke:#adb2b7; stroke-width:2; stroke-opacity:0.1; fill:none" points="
  211.116,424.643 2352.76,424.643 
  "/>
<polyline clip-path="url(#clip670)" style="stroke:#adb2b7; stroke-width:4; stroke-opacity:1; fill:none" points="
  211.116,1423.18 2352.76,1423.18 
  "/>
<polyline clip-path="url(#clip670)" style="stroke:#adb2b7; stroke-width:4; stroke-opacity:1; fill:none" points="
  211.116,1423.18 211.116,123.472 
  "/>
<polyline clip-path="url(#clip670)" style="stroke:#adb2b7; stroke-width:4; stroke-opacity:1; fill:none" points="
  504.854,1423.18 504.854,1407.58 
  "/>
<polyline clip-path="url(#clip670)" style="stroke:#adb2b7; stroke-width:4; stroke-opacity:1; fill:none" points="
  893.395,1423.18 893.395,1407.58 
  "/>
<polyline clip-path="url(#clip670)" style="stroke:#adb2b7; stroke-width:4; stroke-opacity:1; fill:none" points="
  1281.94,1423.18 1281.94,1407.58 
  "/>
<polyline clip-path="url(#clip670)" style="stroke:#adb2b7; stroke-width:4; stroke-opacity:1; fill:none" points="
  1670.48,1423.18 1670.48,1407.58 
  "/>
<polyline clip-path="url(#clip670)" style="stroke:#adb2b7; stroke-width:4; stroke-opacity:1; fill:none" points="
  2059.02,1423.18 2059.02,1407.58 
  "/>
<polyline clip-path="url(#clip670)" style="stroke:#adb2b7; stroke-width:4; stroke-opacity:1; fill:none" points="
  211.116,1399.17 236.816,1399.17 
  "/>
<polyline clip-path="url(#clip670)" style="stroke:#adb2b7; stroke-width:4; stroke-opacity:1; fill:none" points="
  211.116,1074.33 236.816,1074.33 
  "/>
<polyline clip-path="url(#clip670)" style="stroke:#adb2b7; stroke-width:4; stroke-opacity:1; fill:none" points="
  211.116,749.484 236.816,749.484 
  "/>
<polyline clip-path="url(#clip670)" style="stroke:#adb2b7; stroke-width:4; stroke-opacity:1; fill:none" points="
  211.116,424.643 236.816,424.643 
  "/>
<path clip-path="url(#clip670)" d="M 0 0 M481.52 1479.92 L497.84 1479.92 L497.84 1483.85 L475.895 1483.85 L475.895 1479.92 Q478.557 1477.16 483.141 1472.53 Q487.747 1467.88 488.928 1466.54 Q491.173 1464.01 492.053 1462.28 Q492.955 1460.52 492.955 1458.83 Q492.955 1456.07 491.011 1454.34 Q489.09 1452.6 485.988 1452.6 Q483.789 1452.6 481.335 1453.37 Q478.905 1454.13 476.127 1455.68 L476.127 1450.96 Q478.951 1449.82 481.405 1449.25 Q483.858 1448.67 485.895 1448.67 Q491.266 1448.67 494.46 1451.35 Q497.654 1454.04 497.654 1458.53 Q497.654 1460.66 496.844 1462.58 Q496.057 1464.48 493.951 1467.07 Q493.372 1467.74 490.27 1470.96 Q487.168 1474.15 481.52 1479.92 Z" fill="#9eb1be" fill-rule="evenodd" fill-opacity="1" /><path clip-path="url(#clip670)" d="M 0 0 M502.909 1477.97 L507.793 1477.97 L507.793 1483.85 L502.909 1483.85 L502.909 1477.97 Z" fill="#9eb1be" fill-rule="evenodd" fill-opacity="1" /><path clip-path="url(#clip670)" d="M 0 0 M512.909 1449.29 L531.265 1449.29 L531.265 1453.23 L517.191 1453.23 L517.191 1461.7 Q518.21 1461.35 519.228 1461.19 Q520.247 1461 521.265 1461 Q527.052 1461 530.432 1464.18 Q533.812 1467.35 533.812 1472.76 Q533.812 1478.34 530.34 1481.44 Q526.867 1484.52 520.548 1484.52 Q518.372 1484.52 516.103 1484.15 Q513.858 1483.78 511.451 1483.04 L511.451 1478.34 Q513.534 1479.48 515.756 1480.03 Q517.978 1480.59 520.455 1480.59 Q524.46 1480.59 526.798 1478.48 Q529.136 1476.38 529.136 1472.76 Q529.136 1469.15 526.798 1467.05 Q524.46 1464.94 520.455 1464.94 Q518.58 1464.94 516.705 1465.36 Q514.853 1465.77 512.909 1466.65 L512.909 1449.29 Z" fill="#9eb1be" fill-rule="evenodd" fill-opacity="1" /><path clip-path="url(#clip670)" d="M 0 0 M865.189 1449.29 L883.545 1449.29 L883.545 1453.23 L869.471 1453.23 L869.471 1461.7 Q870.49 1461.35 871.508 1461.19 Q872.527 1461 873.545 1461 Q879.332 1461 882.712 1464.18 Q886.092 1467.35 886.092 1472.76 Q886.092 1478.34 882.619 1481.44 Q879.147 1484.52 872.828 1484.52 Q870.652 1484.52 868.383 1484.15 Q866.138 1483.78 863.731 1483.04 L863.731 1478.34 Q865.814 1479.48 868.036 1480.03 Q870.258 1480.59 872.735 1480.59 Q876.74 1480.59 879.078 1478.48 Q881.416 1476.38 881.416 1472.76 Q881.416 1469.15 879.078 1467.05 Q876.74 1464.94 872.735 1464.94 Q870.86 1464.94 868.985 1465.36 Q867.133 1465.77 865.189 1466.65 L865.189 1449.29 Z" fill="#9eb1be" fill-rule="evenodd" fill-opacity="1" /><path clip-path="url(#clip670)" d="M 0 0 M891.161 1477.97 L896.045 1477.97 L896.045 1483.85 L891.161 1483.85 L891.161 1477.97 Z" fill="#9eb1be" fill-rule="evenodd" fill-opacity="1" /><path clip-path="url(#clip670)" d="M 0 0 M911.115 1452.37 Q907.504 1452.37 905.675 1455.94 Q903.869 1459.48 903.869 1466.61 Q903.869 1473.71 905.675 1477.28 Q907.504 1480.82 911.115 1480.82 Q914.749 1480.82 916.554 1477.28 Q918.383 1473.71 918.383 1466.61 Q918.383 1459.48 916.554 1455.94 Q914.749 1452.37 911.115 1452.37 M911.115 1448.67 Q916.925 1448.67 919.98 1453.27 Q923.059 1457.86 923.059 1466.61 Q923.059 1475.33 919.98 1479.94 Q916.925 1484.52 911.115 1484.52 Q905.304 1484.52 902.226 1479.94 Q899.17 1475.33 899.17 1466.61 Q899.17 1457.86 902.226 1453.27 Q905.304 1448.67 911.115 1448.67 Z" fill="#9eb1be" fill-rule="evenodd" fill-opacity="1" /><path clip-path="url(#clip670)" d="M 0 0 M1252.84 1449.29 L1275.06 1449.29 L1275.06 1451.28 L1262.51 1483.85 L1257.63 1483.85 L1269.44 1453.23 L1252.84 1453.23 L1252.84 1449.29 Z" fill="#9eb1be" fill-rule="evenodd" fill-opacity="1" /><path clip-path="url(#clip670)" d="M 0 0 M1280.13 1477.97 L1285.01 1477.97 L1285.01 1483.85 L1280.13 1483.85 L1280.13 1477.97 Z" fill="#9eb1be" fill-rule="evenodd" fill-opacity="1" /><path clip-path="url(#clip670)" d="M 0 0 M1290.13 1449.29 L1308.49 1449.29 L1308.49 1453.23 L1294.41 1453.23 L1294.41 1461.7 Q1295.43 1461.35 1296.45 1461.19 Q1297.47 1461 1298.49 1461 Q1304.27 1461 1307.65 1464.18 Q1311.03 1467.35 1311.03 1472.76 Q1311.03 1478.34 1307.56 1481.44 Q1304.09 1484.52 1297.77 1484.52 Q1295.59 1484.52 1293.32 1484.15 Q1291.08 1483.78 1288.67 1483.04 L1288.67 1478.34 Q1290.76 1479.48 1292.98 1480.03 Q1295.2 1480.59 1297.68 1480.59 Q1301.68 1480.59 1304.02 1478.48 Q1306.36 1476.38 1306.36 1472.76 Q1306.36 1469.15 1304.02 1467.05 Q1301.68 1464.94 1297.68 1464.94 Q1295.8 1464.94 1293.93 1465.36 Q1292.07 1465.77 1290.13 1466.65 L1290.13 1449.29 Z" fill="#9eb1be" fill-rule="evenodd" fill-opacity="1" /><path clip-path="url(#clip670)" d="M 0 0 M1628.87 1479.92 L1636.51 1479.92 L1636.51 1453.55 L1628.2 1455.22 L1628.2 1450.96 L1636.46 1449.29 L1641.14 1449.29 L1641.14 1479.92 L1648.78 1479.92 L1648.78 1483.85 L1628.87 1483.85 L1628.87 1479.92 Z" fill="#9eb1be" fill-rule="evenodd" fill-opacity="1" /><path clip-path="url(#clip670)" d="M 0 0 M1663.85 1452.37 Q1660.23 1452.37 1658.41 1455.94 Q1656.6 1459.48 1656.6 1466.61 Q1656.6 1473.71 1658.41 1477.28 Q1660.23 1480.82 1663.85 1480.82 Q1667.48 1480.82 1669.29 1477.28 Q1671.11 1473.71 1671.11 1466.61 Q1671.11 1459.48 1669.29 1455.94 Q1667.48 1452.37 1663.85 1452.37 M1663.85 1448.67 Q1669.66 1448.67 1672.71 1453.27 Q1675.79 1457.86 1675.79 1466.61 Q1675.79 1475.33 1672.71 1479.94 Q1669.66 1484.52 1663.85 1484.52 Q1658.04 1484.52 1654.96 1479.94 Q1651.9 1475.33 1651.9 1466.61 Q1651.9 1457.86 1654.96 1453.27 Q1658.04 1448.67 1663.85 1448.67 Z" fill="#9eb1be" fill-rule="evenodd" fill-opacity="1" /><path clip-path="url(#clip670)" d="M 0 0 M1680.86 1477.97 L1685.74 1477.97 L1685.74 1483.85 L1680.86 1483.85 L1680.86 1477.97 Z" fill="#9eb1be" fill-rule="evenodd" fill-opacity="1" /><path clip-path="url(#clip670)" d="M 0 0 M1700.81 1452.37 Q1697.2 1452.37 1695.37 1455.94 Q1693.57 1459.48 1693.57 1466.61 Q1693.57 1473.71 1695.37 1477.28 Q1697.2 1480.82 1700.81 1480.82 Q1704.45 1480.82 1706.25 1477.28 Q1708.08 1473.71 1708.08 1466.61 Q1708.08 1459.48 1706.25 1455.94 Q1704.45 1452.37 1700.81 1452.37 M1700.81 1448.67 Q1706.62 1448.67 1709.68 1453.27 Q1712.76 1457.86 1712.76 1466.61 Q1712.76 1475.33 1709.68 1479.94 Q1706.62 1484.52 1700.81 1484.52 Q1695 1484.52 1691.92 1479.94 Q1688.87 1475.33 1688.87 1466.61 Q1688.87 1457.86 1691.92 1453.27 Q1695 1448.67 1700.81 1448.67 Z" fill="#9eb1be" fill-rule="evenodd" fill-opacity="1" /><path clip-path="url(#clip670)" d="M 0 0 M2018.71 1479.92 L2026.35 1479.92 L2026.35 1453.55 L2018.04 1455.22 L2018.04 1450.96 L2026.3 1449.29 L2030.97 1449.29 L2030.97 1479.92 L2038.61 1479.92 L2038.61 1483.85 L2018.71 1483.85 L2018.71 1479.92 Z" fill="#9eb1be" fill-rule="evenodd" fill-opacity="1" /><path clip-path="url(#clip670)" d="M 0 0 M2047.71 1479.92 L2064.03 1479.92 L2064.03 1483.85 L2042.09 1483.85 L2042.09 1479.92 Q2044.75 1477.16 2049.33 1472.53 Q2053.94 1467.88 2055.12 1466.54 Q2057.36 1464.01 2058.24 1462.28 Q2059.15 1460.52 2059.15 1458.83 Q2059.15 1456.07 2057.2 1454.34 Q2055.28 1452.6 2052.18 1452.6 Q2049.98 1452.6 2047.53 1453.37 Q2045.1 1454.13 2042.32 1455.68 L2042.32 1450.96 Q2045.14 1449.82 2047.6 1449.25 Q2050.05 1448.67 2052.09 1448.67 Q2057.46 1448.67 2060.65 1451.35 Q2063.85 1454.04 2063.85 1458.53 Q2063.85 1460.66 2063.03 1462.58 Q2062.25 1464.48 2060.14 1467.07 Q2059.56 1467.74 2056.46 1470.96 Q2053.36 1474.15 2047.71 1479.92 Z" fill="#9eb1be" fill-rule="evenodd" fill-opacity="1" /><path clip-path="url(#clip670)" d="M 0 0 M2069.1 1477.97 L2073.98 1477.97 L2073.98 1483.85 L2069.1 1483.85 L2069.1 1477.97 Z" fill="#9eb1be" fill-rule="evenodd" fill-opacity="1" /><path clip-path="url(#clip670)" d="M 0 0 M2079.1 1449.29 L2097.46 1449.29 L2097.46 1453.23 L2083.38 1453.23 L2083.38 1461.7 Q2084.4 1461.35 2085.42 1461.19 Q2086.44 1461 2087.46 1461 Q2093.24 1461 2096.62 1464.18 Q2100 1467.35 2100 1472.76 Q2100 1478.34 2096.53 1481.44 Q2093.06 1484.52 2086.74 1484.52 Q2084.56 1484.52 2082.29 1484.15 Q2080.05 1483.78 2077.64 1483.04 L2077.64 1478.34 Q2079.72 1479.48 2081.95 1480.03 Q2084.17 1480.59 2086.65 1480.59 Q2090.65 1480.59 2092.99 1478.48 Q2095.33 1476.38 2095.33 1472.76 Q2095.33 1469.15 2092.99 1467.05 Q2090.65 1464.94 2086.65 1464.94 Q2084.77 1464.94 2082.9 1465.36 Q2081.04 1465.77 2079.1 1466.65 L2079.1 1449.29 Z" fill="#9eb1be" fill-rule="evenodd" fill-opacity="1" /><path clip-path="url(#clip670)" d="M 0 0 M126.205 1384.97 Q122.593 1384.97 120.765 1388.53 Q118.959 1392.07 118.959 1399.2 Q118.959 1406.31 120.765 1409.87 Q122.593 1413.42 126.205 1413.42 Q129.839 1413.42 131.644 1409.87 Q133.473 1406.31 133.473 1399.2 Q133.473 1392.07 131.644 1388.53 Q129.839 1384.97 126.205 1384.97 M126.205 1381.26 Q132.015 1381.26 135.07 1385.87 Q138.149 1390.45 138.149 1399.2 Q138.149 1407.93 135.07 1412.54 Q132.015 1417.12 126.205 1417.12 Q120.394 1417.12 117.316 1412.54 Q114.26 1407.93 114.26 1399.2 Q114.26 1390.45 117.316 1385.87 Q120.394 1381.26 126.205 1381.26 Z" fill="#9eb1be" fill-rule="evenodd" fill-opacity="1" /><path clip-path="url(#clip670)" d="M 0 0 M143.218 1410.57 L148.103 1410.57 L148.103 1416.45 L143.218 1416.45 L143.218 1410.57 Z" fill="#9eb1be" fill-rule="evenodd" fill-opacity="1" /><path clip-path="url(#clip670)" d="M 0 0 M163.172 1384.97 Q159.561 1384.97 157.732 1388.53 Q155.927 1392.07 155.927 1399.2 Q155.927 1406.31 157.732 1409.87 Q159.561 1413.42 163.172 1413.42 Q166.806 1413.42 168.612 1409.87 Q170.44 1406.31 170.44 1399.2 Q170.44 1392.07 168.612 1388.53 Q166.806 1384.97 163.172 1384.97 M163.172 1381.26 Q168.982 1381.26 172.038 1385.87 Q175.116 1390.45 175.116 1399.2 Q175.116 1407.93 172.038 1412.54 Q168.982 1417.12 163.172 1417.12 Q157.362 1417.12 154.283 1412.54 Q151.228 1407.93 151.228 1399.2 Q151.228 1390.45 154.283 1385.87 Q157.362 1381.26 163.172 1381.26 Z" fill="#9eb1be" fill-rule="evenodd" fill-opacity="1" /><path clip-path="url(#clip670)" d="M 0 0 M127.431 1060.12 Q123.82 1060.12 121.992 1063.69 Q120.186 1067.23 120.186 1074.36 Q120.186 1081.47 121.992 1085.03 Q123.82 1088.57 127.431 1088.57 Q131.066 1088.57 132.871 1085.03 Q134.7 1081.47 134.7 1074.36 Q134.7 1067.23 132.871 1063.69 Q131.066 1060.12 127.431 1060.12 M127.431 1056.42 Q133.242 1056.42 136.297 1061.03 Q139.376 1065.61 139.376 1074.36 Q139.376 1083.09 136.297 1087.69 Q133.242 1092.28 127.431 1092.28 Q121.621 1092.28 118.543 1087.69 Q115.487 1083.09 115.487 1074.36 Q115.487 1065.61 118.543 1061.03 Q121.621 1056.42 127.431 1056.42 Z" fill="#9eb1be" fill-rule="evenodd" fill-opacity="1" /><path clip-path="url(#clip670)" d="M 0 0 M144.445 1085.73 L149.329 1085.73 L149.329 1091.61 L144.445 1091.61 L144.445 1085.73 Z" fill="#9eb1be" fill-rule="evenodd" fill-opacity="1" /><path clip-path="url(#clip670)" d="M 0 0 M155.209 1087.67 L162.848 1087.67 L162.848 1061.31 L154.538 1062.97 L154.538 1058.71 L162.802 1057.05 L167.477 1057.05 L167.477 1087.67 L175.116 1087.67 L175.116 1091.61 L155.209 1091.61 L155.209 1087.67 Z" fill="#9eb1be" fill-rule="evenodd" fill-opacity="1" /><path clip-path="url(#clip670)" d="M 0 0 M127.802 735.283 Q124.191 735.283 122.362 738.848 Q120.556 742.39 120.556 749.519 Q120.556 756.626 122.362 760.19 Q124.191 763.732 127.802 763.732 Q131.436 763.732 133.242 760.19 Q135.07 756.626 135.07 749.519 Q135.07 742.39 133.242 738.848 Q131.436 735.283 127.802 735.283 M127.802 731.579 Q133.612 731.579 136.667 736.186 Q139.746 740.769 139.746 749.519 Q139.746 758.246 136.667 762.852 Q133.612 767.436 127.802 767.436 Q121.992 767.436 118.913 762.852 Q115.857 758.246 115.857 749.519 Q115.857 740.769 118.913 736.186 Q121.992 731.579 127.802 731.579 Z" fill="#9eb1be" fill-rule="evenodd" fill-opacity="1" /><path clip-path="url(#clip670)" d="M 0 0 M144.816 760.885 L149.7 760.885 L149.7 766.764 L144.816 766.764 L144.816 760.885 Z" fill="#9eb1be" fill-rule="evenodd" fill-opacity="1" /><path clip-path="url(#clip670)" d="M 0 0 M158.797 762.829 L175.116 762.829 L175.116 766.764 L153.172 766.764 L153.172 762.829 Q155.834 760.075 160.417 755.445 Q165.024 750.792 166.204 749.45 Q168.45 746.927 169.329 745.19 Q170.232 743.431 170.232 741.741 Q170.232 738.987 168.288 737.251 Q166.366 735.515 163.265 735.515 Q161.065 735.515 158.612 736.278 Q156.181 737.042 153.403 738.593 L153.403 733.871 Q156.228 732.737 158.681 732.158 Q161.135 731.579 163.172 731.579 Q168.542 731.579 171.737 734.265 Q174.931 736.95 174.931 741.44 Q174.931 743.57 174.121 745.491 Q173.334 747.389 171.227 749.982 Q170.649 750.653 167.547 753.871 Q164.445 757.065 158.797 762.829 Z" fill="#9eb1be" fill-rule="evenodd" fill-opacity="1" /><path clip-path="url(#clip670)" d="M 0 0 M126.853 410.441 Q123.242 410.441 121.413 414.006 Q119.607 417.548 119.607 424.677 Q119.607 431.784 121.413 435.349 Q123.242 438.89 126.853 438.89 Q130.487 438.89 132.292 435.349 Q134.121 431.784 134.121 424.677 Q134.121 417.548 132.292 414.006 Q130.487 410.441 126.853 410.441 M126.853 406.738 Q132.663 406.738 135.718 411.344 Q138.797 415.927 138.797 424.677 Q138.797 433.404 135.718 438.011 Q132.663 442.594 126.853 442.594 Q121.043 442.594 117.964 438.011 Q114.908 433.404 114.908 424.677 Q114.908 415.927 117.964 411.344 Q121.043 406.738 126.853 406.738 Z" fill="#9eb1be" fill-rule="evenodd" fill-opacity="1" /><path clip-path="url(#clip670)" d="M 0 0 M143.866 436.043 L148.751 436.043 L148.751 441.923 L143.866 441.923 L143.866 436.043 Z" fill="#9eb1be" fill-rule="evenodd" fill-opacity="1" /><path clip-path="url(#clip670)" d="M 0 0 M167.987 423.288 Q171.343 424.006 173.218 426.275 Q175.116 428.543 175.116 431.876 Q175.116 436.992 171.598 439.793 Q168.079 442.594 161.598 442.594 Q159.422 442.594 157.107 442.154 Q154.815 441.737 152.362 440.881 L152.362 436.367 Q154.306 437.501 156.621 438.08 Q158.936 438.659 161.459 438.659 Q165.857 438.659 168.149 436.923 Q170.464 435.187 170.464 431.876 Q170.464 428.821 168.311 427.108 Q166.181 425.372 162.362 425.372 L158.334 425.372 L158.334 421.529 L162.547 421.529 Q165.996 421.529 167.825 420.163 Q169.653 418.775 169.653 416.182 Q169.653 413.52 167.755 412.108 Q165.88 410.673 162.362 410.673 Q160.44 410.673 158.241 411.089 Q156.042 411.506 153.403 412.386 L153.403 408.219 Q156.065 407.478 158.38 407.108 Q160.718 406.738 162.778 406.738 Q168.102 406.738 171.204 409.168 Q174.306 411.576 174.306 415.696 Q174.306 418.566 172.663 420.557 Q171.019 422.525 167.987 423.288 Z" fill="#9eb1be" fill-rule="evenodd" fill-opacity="1" /><path clip-path="url(#clip670)" d="M 0 0 M830.179 12.096 L838.362 12.096 L838.362 72.576 L830.179 72.576 L830.179 12.096 Z" fill="#adb2b7" fill-rule="evenodd" fill-opacity="1" /><path clip-path="url(#clip670)" d="M 0 0 M883.894 45.1919 L883.894 72.576 L876.441 72.576 L876.441 45.4349 Q876.441 38.994 873.929 35.7938 Q871.417 32.5936 866.394 32.5936 Q860.359 32.5936 856.875 36.4419 Q853.391 40.2903 853.391 46.9338 L853.391 72.576 L845.897 72.576 L845.897 27.2059 L853.391 27.2059 L853.391 34.2544 Q856.065 30.163 859.67 28.1376 Q863.316 26.1121 868.055 26.1121 Q875.873 26.1121 879.884 30.9732 Q883.894 35.7938 883.894 45.1919 Z" fill="#adb2b7" fill-rule="evenodd" fill-opacity="1" /><path clip-path="url(#clip670)" d="M 0 0 M914.681 9.54393 L914.681 15.7418 L907.552 15.7418 Q903.541 15.7418 901.961 17.3622 Q900.422 18.9825 900.422 23.1955 L900.422 27.2059 L912.696 27.2059 L912.696 32.9987 L900.422 32.9987 L900.422 72.576 L892.928 72.576 L892.928 32.9987 L885.798 32.9987 L885.798 27.2059 L892.928 27.2059 L892.928 24.0462 Q892.928 16.471 896.452 13.0277 Q899.976 9.54393 907.633 9.54393 L914.681 9.54393 Z" fill="#adb2b7" fill-rule="evenodd" fill-opacity="1" /><path clip-path="url(#clip670)" d="M 0 0 M922.499 9.54393 L929.953 9.54393 L929.953 72.576 L922.499 72.576 L922.499 9.54393 Z" fill="#adb2b7" fill-rule="evenodd" fill-opacity="1" /><path clip-path="url(#clip670)" d="M 0 0 M937.002 54.671 L937.002 27.2059 L944.455 27.2059 L944.455 54.3874 Q944.455 60.8284 946.967 64.0691 Q949.478 67.2693 954.502 67.2693 Q960.537 67.2693 964.021 63.421 Q967.545 59.5726 967.545 52.9291 L967.545 27.2059 L974.999 27.2059 L974.999 72.576 L967.545 72.576 L967.545 65.6084 Q964.831 69.7404 961.226 71.7658 Q957.661 73.7508 952.922 73.7508 Q945.103 73.7508 941.053 68.8897 Q937.002 64.0286 937.002 54.671 M955.757 26.1121 L955.757 26.1121 Z" fill="#adb2b7" fill-rule="evenodd" fill-opacity="1" /><path clip-path="url(#clip670)" d="M 0 0 M1021.63 48.0275 L1021.63 51.6733 L987.354 51.6733 Q987.84 59.3701 991.972 63.421 Q996.145 67.4314 1003.56 67.4314 Q1007.85 67.4314 1011.86 66.3781 Q1015.91 65.3249 1019.88 63.2184 L1019.88 70.267 Q1015.87 71.9684 1011.66 72.8596 Q1007.45 73.7508 1003.11 73.7508 Q992.256 73.7508 985.896 67.4314 Q979.577 61.1119 979.577 50.3365 Q979.577 39.1965 985.572 32.6746 Q991.608 26.1121 1001.82 26.1121 Q1010.97 26.1121 1016.28 32.0264 Q1021.63 37.9003 1021.63 48.0275 M1014.17 45.84 Q1014.09 39.7232 1010.73 36.0774 Q1007.41 32.4315 1001.9 32.4315 Q995.659 32.4315 991.891 35.9558 Q988.165 39.4801 987.597 45.8805 L1014.17 45.84 Z" fill="#adb2b7" fill-rule="evenodd" fill-opacity="1" /><path clip-path="url(#clip670)" d="M 0 0 M1067.16 45.1919 L1067.16 72.576 L1059.7 72.576 L1059.7 45.4349 Q1059.7 38.994 1057.19 35.7938 Q1054.68 32.5936 1049.66 32.5936 Q1043.62 32.5936 1040.14 36.4419 Q1036.65 40.2903 1036.65 46.9338 L1036.65 72.576 L1029.16 72.576 L1029.16 27.2059 L1036.65 27.2059 L1036.65 34.2544 Q1039.33 30.163 1042.93 28.1376 Q1046.58 26.1121 1051.32 26.1121 Q1059.14 26.1121 1063.15 30.9732 Q1067.16 35.7938 1067.16 45.1919 Z" fill="#adb2b7" fill-rule="evenodd" fill-opacity="1" /><path clip-path="url(#clip670)" d="M 0 0 M1071.73 27.2059 L1107.14 27.2059 L1107.14 34.0114 L1079.11 66.6212 L1107.14 66.6212 L1107.14 72.576 L1070.72 72.576 L1070.72 65.7705 L1098.75 33.1607 L1071.73 33.1607 L1071.73 27.2059 Z" fill="#adb2b7" fill-rule="evenodd" fill-opacity="1" /><path clip-path="url(#clip670)" d="M 0 0 M1135.58 49.7694 Q1126.54 49.7694 1123.06 51.8354 Q1119.58 53.9013 1119.58 58.8839 Q1119.58 62.8538 1122.17 65.2034 Q1124.8 67.5124 1129.3 67.5124 Q1135.5 67.5124 1139.22 63.1374 Q1142.99 58.7219 1142.99 51.4303 L1142.99 49.7694 L1135.58 49.7694 M1150.44 46.6907 L1150.44 72.576 L1142.99 72.576 L1142.99 65.6895 Q1140.44 69.8214 1136.63 71.8063 Q1132.82 73.7508 1127.31 73.7508 Q1120.35 73.7508 1116.21 69.8619 Q1112.12 65.9325 1112.12 59.3701 Q1112.12 51.7138 1117.23 47.825 Q1122.37 43.9361 1132.54 43.9361 L1142.99 43.9361 L1142.99 43.2069 Q1142.99 38.0623 1139.59 35.2672 Q1136.23 32.4315 1130.11 32.4315 Q1126.22 32.4315 1122.53 33.3632 Q1118.85 34.295 1115.44 36.1584 L1115.44 29.2718 Q1119.54 27.692 1123.38 26.9223 Q1127.23 26.1121 1130.88 26.1121 Q1140.72 26.1121 1145.58 31.2163 Q1150.44 36.3204 1150.44 46.6907 Z" fill="#adb2b7" fill-rule="evenodd" fill-opacity="1" /><path clip-path="url(#clip670)" d="M 0 0 M1209.51 17.6457 Q1200.59 17.6457 1195.33 24.2892 Q1190.1 30.9327 1190.1 42.3968 Q1190.1 53.8203 1195.33 60.4638 Q1200.59 67.1073 1209.51 67.1073 Q1218.42 67.1073 1223.6 60.4638 Q1228.83 53.8203 1228.83 42.3968 Q1228.83 30.9327 1223.6 24.2892 Q1218.42 17.6457 1209.51 17.6457 M1209.51 11.0023 Q1222.23 11.0023 1229.84 19.5497 Q1237.46 28.0566 1237.46 42.3968 Q1237.46 56.6965 1229.84 65.2439 Q1222.23 73.7508 1209.51 73.7508 Q1196.75 73.7508 1189.09 65.2439 Q1181.47 56.737 1181.47 42.3968 Q1181.47 28.0566 1189.09 19.5497 Q1196.75 11.0023 1209.51 11.0023 Z" fill="#adb2b7" fill-rule="evenodd" fill-opacity="1" /><path clip-path="url(#clip670)" d="M 0 0 M1244.51 54.671 L1244.51 27.2059 L1251.96 27.2059 L1251.96 54.3874 Q1251.96 60.8284 1254.47 64.0691 Q1256.98 67.2693 1262.01 67.2693 Q1268.04 67.2693 1271.53 63.421 Q1275.05 59.5726 1275.05 52.9291 L1275.05 27.2059 L1282.5 27.2059 L1282.5 72.576 L1275.05 72.576 L1275.05 65.6084 Q1272.34 69.7404 1268.73 71.7658 Q1265.17 73.7508 1260.43 73.7508 Q1252.61 73.7508 1248.56 68.8897 Q1244.51 64.0286 1244.51 54.671 M1263.26 26.1121 L1263.26 26.1121 Z" fill="#adb2b7" fill-rule="evenodd" fill-opacity="1" /><path clip-path="url(#clip670)" d="M 0 0 M1297.69 14.324 L1297.69 27.2059 L1313.05 27.2059 L1313.05 32.9987 L1297.69 32.9987 L1297.69 57.6282 Q1297.69 63.1779 1299.19 64.7578 Q1300.73 66.3376 1305.39 66.3376 L1313.05 66.3376 L1313.05 72.576 L1305.39 72.576 Q1296.76 72.576 1293.48 69.3758 Q1290.2 66.1351 1290.2 57.6282 L1290.2 32.9987 L1284.73 32.9987 L1284.73 27.2059 L1290.2 27.2059 L1290.2 14.324 L1297.69 14.324 Z" fill="#adb2b7" fill-rule="evenodd" fill-opacity="1" /><path clip-path="url(#clip670)" d="M 0 0 M1353.43 49.9314 Q1353.43 41.7081 1350.03 37.0496 Q1346.67 32.3505 1340.76 32.3505 Q1334.84 32.3505 1331.44 37.0496 Q1328.08 41.7081 1328.08 49.9314 Q1328.08 58.1548 1331.44 62.8538 Q1334.84 67.5124 1340.76 67.5124 Q1346.67 67.5124 1350.03 62.8538 Q1353.43 58.1548 1353.43 49.9314 M1328.08 34.0924 Q1330.43 30.0415 1333.99 28.0971 Q1337.6 26.1121 1342.58 26.1121 Q1350.84 26.1121 1355.99 32.6746 Q1361.17 39.2371 1361.17 49.9314 Q1361.17 60.6258 1355.99 67.1883 Q1350.84 73.7508 1342.58 73.7508 Q1337.6 73.7508 1333.99 71.8063 Q1330.43 69.8214 1328.08 65.7705 L1328.08 72.576 L1320.58 72.576 L1320.58 9.54393 L1328.08 9.54393 L1328.08 34.0924 Z" fill="#adb2b7" fill-rule="evenodd" fill-opacity="1" /><path clip-path="url(#clip670)" d="M 0 0 M1395.28 34.1734 Q1394.02 33.4443 1392.53 33.1202 Q1391.07 32.7556 1389.29 32.7556 Q1382.97 32.7556 1379.56 36.8875 Q1376.2 40.9789 1376.2 48.6757 L1376.2 72.576 L1368.71 72.576 L1368.71 27.2059 L1376.2 27.2059 L1376.2 34.2544 Q1378.55 30.1225 1382.32 28.1376 Q1386.08 26.1121 1391.47 26.1121 Q1392.24 26.1121 1393.17 26.2337 Q1394.11 26.3147 1395.24 26.5172 L1395.28 34.1734 Z" fill="#adb2b7" fill-rule="evenodd" fill-opacity="1" /><path clip-path="url(#clip670)" d="M 0 0 M1440.08 48.0275 L1440.08 51.6733 L1405.81 51.6733 Q1406.3 59.3701 1410.43 63.421 Q1414.6 67.4314 1422.02 67.4314 Q1426.31 67.4314 1430.32 66.3781 Q1434.37 65.3249 1438.34 63.2184 L1438.34 70.267 Q1434.33 71.9684 1430.12 72.8596 Q1425.91 73.7508 1421.57 73.7508 Q1410.71 73.7508 1404.35 67.4314 Q1398.04 61.1119 1398.04 50.3365 Q1398.04 39.1965 1404.03 32.6746 Q1410.07 26.1121 1420.27 26.1121 Q1429.43 26.1121 1434.74 32.0264 Q1440.08 37.9003 1440.08 48.0275 M1432.63 45.84 Q1432.55 39.7232 1429.19 36.0774 Q1425.86 32.4315 1420.36 32.4315 Q1414.12 32.4315 1410.35 35.9558 Q1406.62 39.4801 1406.06 45.8805 L1432.63 45.84 Z" fill="#adb2b7" fill-rule="evenodd" fill-opacity="1" /><path clip-path="url(#clip670)" d="M 0 0 M1468.52 49.7694 Q1459.49 49.7694 1456 51.8354 Q1452.52 53.9013 1452.52 58.8839 Q1452.52 62.8538 1455.11 65.2034 Q1457.75 67.5124 1462.24 67.5124 Q1468.44 67.5124 1472.17 63.1374 Q1475.93 58.7219 1475.93 51.4303 L1475.93 49.7694 L1468.52 49.7694 M1483.39 46.6907 L1483.39 72.576 L1475.93 72.576 L1475.93 65.6895 Q1473.38 69.8214 1469.57 71.8063 Q1465.77 73.7508 1460.26 73.7508 Q1453.29 73.7508 1449.16 69.8619 Q1445.07 65.9325 1445.07 59.3701 Q1445.07 51.7138 1450.17 47.825 Q1455.31 43.9361 1465.48 43.9361 L1475.93 43.9361 L1475.93 43.2069 Q1475.93 38.0623 1472.53 35.2672 Q1469.17 32.4315 1463.05 32.4315 Q1459.16 32.4315 1455.48 33.3632 Q1451.79 34.295 1448.39 36.1584 L1448.39 29.2718 Q1452.48 27.692 1456.33 26.9223 Q1460.18 26.1121 1463.82 26.1121 Q1473.67 26.1121 1478.53 31.2163 Q1483.39 36.3204 1483.39 46.6907 Z" fill="#adb2b7" fill-rule="evenodd" fill-opacity="1" /><path clip-path="url(#clip670)" d="M 0 0 M1490.92 9.54393 L1498.42 9.54393 L1498.42 46.7717 L1520.66 27.2059 L1530.18 27.2059 L1506.11 48.4326 L1531.19 72.576 L1521.47 72.576 L1498.42 50.4176 L1498.42 72.576 L1490.92 72.576 L1490.92 9.54393 Z" fill="#adb2b7" fill-rule="evenodd" fill-opacity="1" /><path clip-path="url(#clip670)" d="M 0 0 M1573.88 18.8205 L1573.88 65.8515 L1583.77 65.8515 Q1596.29 65.8515 1602.08 60.1802 Q1607.91 54.509 1607.91 42.2752 Q1607.91 30.1225 1602.08 24.4918 Q1596.29 18.8205 1583.77 18.8205 L1573.88 18.8205 M1565.7 12.096 L1582.51 12.096 Q1600.09 12.096 1608.32 19.4281 Q1616.54 26.7198 1616.54 42.2752 Q1616.54 57.9117 1608.28 65.2439 Q1600.01 72.576 1582.51 72.576 L1565.7 72.576 L1565.7 12.096 Z" fill="#adb2b7" fill-rule="evenodd" fill-opacity="1" /><path clip-path="url(#clip670)" d="M 0 0 M1644.98 49.7694 Q1635.94 49.7694 1632.46 51.8354 Q1628.98 53.9013 1628.98 58.8839 Q1628.98 62.8538 1631.57 65.2034 Q1634.2 67.5124 1638.7 67.5124 Q1644.9 67.5124 1648.62 63.1374 Q1652.39 58.7219 1652.39 51.4303 L1652.39 49.7694 L1644.98 49.7694 M1659.84 46.6907 L1659.84 72.576 L1652.39 72.576 L1652.39 65.6895 Q1649.84 69.8214 1646.03 71.8063 Q1642.22 73.7508 1636.71 73.7508 Q1629.75 73.7508 1625.61 69.8619 Q1621.52 65.9325 1621.52 59.3701 Q1621.52 51.7138 1626.63 47.825 Q1631.77 43.9361 1641.94 43.9361 L1652.39 43.9361 L1652.39 43.2069 Q1652.39 38.0623 1648.99 35.2672 Q1645.63 32.4315 1639.51 32.4315 Q1635.62 32.4315 1631.93 33.3632 Q1628.25 34.295 1624.85 36.1584 L1624.85 29.2718 Q1628.94 27.692 1632.78 26.9223 Q1636.63 26.1121 1640.28 26.1121 Q1650.12 26.1121 1654.98 31.2163 Q1659.84 36.3204 1659.84 46.6907 Z" fill="#adb2b7" fill-rule="evenodd" fill-opacity="1" /><path clip-path="url(#clip670)" d="M 0 0 M1675.04 14.324 L1675.04 27.2059 L1690.39 27.2059 L1690.39 32.9987 L1675.04 32.9987 L1675.04 57.6282 Q1675.04 63.1779 1676.53 64.7578 Q1678.07 66.3376 1682.73 66.3376 L1690.39 66.3376 L1690.39 72.576 L1682.73 72.576 Q1674.1 72.576 1670.82 69.3758 Q1667.54 66.1351 1667.54 57.6282 L1667.54 32.9987 L1662.07 32.9987 L1662.07 27.2059 L1667.54 27.2059 L1667.54 14.324 L1675.04 14.324 Z" fill="#adb2b7" fill-rule="evenodd" fill-opacity="1" /><path clip-path="url(#clip670)" d="M 0 0 M1718.83 49.7694 Q1709.79 49.7694 1706.31 51.8354 Q1702.83 53.9013 1702.83 58.8839 Q1702.83 62.8538 1705.42 65.2034 Q1708.05 67.5124 1712.55 67.5124 Q1718.75 67.5124 1722.47 63.1374 Q1726.24 58.7219 1726.24 51.4303 L1726.24 49.7694 L1718.83 49.7694 M1733.69 46.6907 L1733.69 72.576 L1726.24 72.576 L1726.24 65.6895 Q1723.69 69.8214 1719.88 71.8063 Q1716.07 73.7508 1710.56 73.7508 Q1703.59 73.7508 1699.46 69.8619 Q1695.37 65.9325 1695.37 59.3701 Q1695.37 51.7138 1700.48 47.825 Q1705.62 43.9361 1715.79 43.9361 L1726.24 43.9361 L1726.24 43.2069 Q1726.24 38.0623 1722.84 35.2672 Q1719.47 32.4315 1713.36 32.4315 Q1709.47 32.4315 1705.78 33.3632 Q1702.1 34.295 1698.69 36.1584 L1698.69 29.2718 Q1702.78 27.692 1706.63 26.9223 Q1710.48 26.1121 1714.13 26.1121 Q1723.97 26.1121 1728.83 31.2163 Q1733.69 36.3204 1733.69 46.6907 Z" fill="#adb2b7" fill-rule="evenodd" fill-opacity="1" /><path clip-path="url(#clip670)" d="M 0 0 M1241.29 1525.81 L1241.29 1506.52 L1247.15 1506.52 L1247.15 1556.04 L1241.29 1556.04 L1241.29 1550.7 Q1239.45 1553.88 1236.61 1555.44 Q1233.81 1556.97 1229.86 1556.97 Q1223.4 1556.97 1219.33 1551.81 Q1215.29 1546.65 1215.29 1538.25 Q1215.29 1529.85 1219.33 1524.69 Q1223.4 1519.54 1229.86 1519.54 Q1233.81 1519.54 1236.61 1521.1 Q1239.45 1522.62 1241.29 1525.81 M1221.33 1538.25 Q1221.33 1544.71 1223.98 1548.4 Q1226.65 1552.07 1231.3 1552.07 Q1235.94 1552.07 1238.62 1548.4 Q1241.29 1544.71 1241.29 1538.25 Q1241.29 1531.79 1238.62 1528.13 Q1235.94 1524.44 1231.3 1524.44 Q1226.65 1524.44 1223.98 1528.13 Q1221.33 1531.79 1221.33 1538.25 Z" fill="#9eb1be" fill-rule="evenodd" fill-opacity="1" /><path clip-path="url(#clip670)" d="M 0 0 M1269.49 1538.12 Q1262.39 1538.12 1259.66 1539.75 Q1256.92 1541.37 1256.92 1545.29 Q1256.92 1548.4 1258.96 1550.25 Q1261.02 1552.07 1264.56 1552.07 Q1269.43 1552.07 1272.36 1548.63 Q1275.32 1545.16 1275.32 1539.43 L1275.32 1538.12 L1269.49 1538.12 M1281.17 1535.71 L1281.17 1556.04 L1275.32 1556.04 L1275.32 1550.63 Q1273.31 1553.88 1270.32 1555.44 Q1267.33 1556.97 1263 1556.97 Q1257.52 1556.97 1254.28 1553.91 Q1251.06 1550.82 1251.06 1545.67 Q1251.06 1539.65 1255.07 1536.6 Q1259.12 1533.54 1267.1 1533.54 L1275.32 1533.54 L1275.32 1532.97 Q1275.32 1528.93 1272.64 1526.73 Q1270 1524.5 1265.19 1524.5 Q1262.14 1524.5 1259.24 1525.23 Q1256.35 1525.97 1253.67 1527.43 L1253.67 1522.02 Q1256.89 1520.78 1259.91 1520.17 Q1262.93 1519.54 1265.8 1519.54 Q1273.53 1519.54 1277.35 1523.55 Q1281.17 1527.56 1281.17 1535.71 Z" fill="#9eb1be" fill-rule="evenodd" fill-opacity="1" /><path clip-path="url(#clip670)" d="M 0 0 M1302.15 1559.35 Q1299.66 1565.72 1297.31 1567.66 Q1294.95 1569.6 1291.01 1569.6 L1286.33 1569.6 L1286.33 1564.7 L1289.77 1564.7 Q1292.18 1564.7 1293.52 1563.56 Q1294.86 1562.41 1296.48 1558.14 L1297.53 1555.47 L1283.11 1520.4 L1289.32 1520.4 L1300.46 1548.28 L1311.6 1520.4 L1317.81 1520.4 L1302.15 1559.35 Z" fill="#9eb1be" fill-rule="evenodd" fill-opacity="1" /><path clip-path="url(#clip670)" d="M 0 0 M1346.68 1521.45 L1346.68 1526.98 Q1344.19 1525.71 1341.52 1525.07 Q1338.85 1524.44 1335.98 1524.44 Q1331.62 1524.44 1329.42 1525.77 Q1327.26 1527.11 1327.26 1529.79 Q1327.26 1531.82 1328.82 1533 Q1330.38 1534.15 1335.09 1535.2 L1337.09 1535.64 Q1343.33 1536.98 1345.94 1539.43 Q1348.59 1541.85 1348.59 1546.21 Q1348.59 1551.17 1344.64 1554.07 Q1340.72 1556.97 1333.85 1556.97 Q1330.98 1556.97 1327.86 1556.39 Q1324.78 1555.85 1321.34 1554.74 L1321.34 1548.69 Q1324.59 1550.38 1327.74 1551.24 Q1330.89 1552.07 1333.98 1552.07 Q1338.11 1552.07 1340.34 1550.66 Q1342.57 1549.23 1342.57 1546.65 Q1342.57 1544.27 1340.95 1542.99 Q1339.35 1541.72 1333.91 1540.54 L1331.88 1540.07 Q1326.43 1538.92 1324.01 1536.56 Q1321.59 1534.18 1321.59 1530.04 Q1321.59 1525.01 1325.16 1522.27 Q1328.72 1519.54 1335.28 1519.54 Q1338.53 1519.54 1341.39 1520.01 Q1344.26 1520.49 1346.68 1521.45 Z" fill="#9eb1be" fill-rule="evenodd" fill-opacity="1" /><path clip-path="url(#clip670)" d="M 0 0 M57.8307 991.542 Q57.2578 992.529 57.0032 993.707 Q56.7167 994.853 56.7167 996.253 Q56.7167 1001.22 59.9632 1003.89 Q63.1779 1006.53 69.2253 1006.53 L88.0042 1006.53 L88.0042 1012.42 L52.3562 1012.42 L52.3562 1006.53 L57.8944 1006.53 Q54.6479 1004.69 53.0883 1001.73 Q51.4968 998.767 51.4968 994.534 Q51.4968 993.93 51.5923 993.197 Q51.656 992.465 51.8151 991.574 L57.8307 991.542 Z" fill="#9eb1be" fill-rule="evenodd" fill-opacity="1" /><path clip-path="url(#clip670)" d="M 0 0 M70.0847 969.199 Q70.0847 976.297 71.7079 979.034 Q73.3312 981.771 77.2461 981.771 Q80.3653 981.771 82.2114 979.734 Q84.0256 977.665 84.0256 974.132 Q84.0256 969.262 80.5881 966.334 Q77.1188 963.374 71.3897 963.374 L70.0847 963.374 L70.0847 969.199 M67.6657 957.518 L88.0042 957.518 L88.0042 963.374 L82.5933 963.374 Q85.8398 965.379 87.3994 968.371 Q88.9272 971.363 88.9272 975.692 Q88.9272 981.166 85.8716 984.413 Q82.7843 987.627 77.6281 987.627 Q71.6125 987.627 68.5569 983.617 Q65.5014 979.575 65.5014 971.586 L65.5014 963.374 L64.9285 963.374 Q60.8862 963.374 58.6901 966.048 Q56.4621 968.69 56.4621 973.496 Q56.4621 976.551 57.1941 979.448 Q57.9262 982.344 59.3903 985.018 L53.9795 985.018 Q52.7381 981.803 52.1334 978.779 Q51.4968 975.755 51.4968 972.891 Q51.4968 965.157 55.5072 961.337 Q59.5176 957.518 67.6657 957.518 Z" fill="#9eb1be" fill-rule="evenodd" fill-opacity="1" /><path clip-path="url(#clip670)" d="M 0 0 M42.2347 945.582 L52.3562 945.582 L52.3562 933.519 L56.9077 933.519 L56.9077 945.582 L76.2594 945.582 Q80.6199 945.582 81.8613 944.404 Q83.1026 943.195 83.1026 939.535 L83.1026 933.519 L88.0042 933.519 L88.0042 939.535 Q88.0042 946.314 85.4897 948.892 Q82.9434 951.47 76.2594 951.47 L56.9077 951.47 L56.9077 955.767 L52.3562 955.767 L52.3562 951.47 L42.2347 951.47 L42.2347 945.582 Z" fill="#9eb1be" fill-rule="evenodd" fill-opacity="1" /><path clip-path="url(#clip670)" d="M 0 0 M52.3562 927.376 L52.3562 921.52 L88.0042 921.52 L88.0042 927.376 L52.3562 927.376 M38.479 927.376 L38.479 921.52 L45.895 921.52 L45.895 927.376 L38.479 927.376 Z" fill="#9eb1be" fill-rule="evenodd" fill-opacity="1" /><path clip-path="url(#clip670)" d="M 0 0 M56.4621 901.563 Q56.4621 906.274 60.1542 909.011 Q63.8145 911.748 70.212 911.748 Q76.6095 911.748 80.3017 909.043 Q83.9619 906.306 83.9619 901.563 Q83.9619 896.884 80.2698 894.147 Q76.5777 891.41 70.212 891.41 Q63.8781 891.41 60.186 894.147 Q56.4621 896.884 56.4621 901.563 M51.4968 901.563 Q51.4968 893.924 56.4621 889.564 Q61.4273 885.203 70.212 885.203 Q78.9649 885.203 83.9619 889.564 Q88.9272 893.924 88.9272 901.563 Q88.9272 909.234 83.9619 913.594 Q78.9649 917.923 70.212 917.923 Q61.4273 917.923 56.4621 913.594 Q51.4968 909.234 51.4968 901.563 Z" fill="#9eb1be" fill-rule="evenodd" fill-opacity="1" /><path clip-path="url(#clip670)" d="M 0 0 M79.9197 879.379 L79.9197 872.663 L88.0042 872.663 L88.0042 879.379 L79.9197 879.379 Z" fill="#9eb1be" fill-rule="evenodd" fill-opacity="1" /><path clip-path="url(#clip670)" d="M 0 0 M56.4621 831.986 Q56.4621 836.697 60.1542 839.434 Q63.8145 842.171 70.212 842.171 Q76.6095 842.171 80.3017 839.466 Q83.9619 836.728 83.9619 831.986 Q83.9619 827.307 80.2698 824.57 Q76.5777 821.833 70.212 821.833 Q63.8781 821.833 60.186 824.57 Q56.4621 827.307 56.4621 831.986 M51.4968 831.986 Q51.4968 824.347 56.4621 819.987 Q61.4273 815.626 70.212 815.626 Q78.9649 815.626 83.9619 819.987 Q88.9272 824.347 88.9272 831.986 Q88.9272 839.657 83.9619 844.017 Q78.9649 848.346 70.212 848.346 Q61.4273 848.346 56.4621 844.017 Q51.4968 839.657 51.4968 831.986 Z" fill="#9eb1be" fill-rule="evenodd" fill-opacity="1" /><path clip-path="url(#clip670)" d="M 0 0 M38.479 791.436 L43.3487 791.436 L43.3487 797.038 Q43.3487 800.189 44.6219 801.431 Q45.895 802.64 49.2052 802.64 L52.3562 802.64 L52.3562 792.996 L56.9077 792.996 L56.9077 802.64 L88.0042 802.64 L88.0042 808.528 L56.9077 808.528 L56.9077 814.13 L52.3562 814.13 L52.3562 808.528 L49.8736 808.528 Q43.9216 808.528 41.2162 805.759 Q38.479 802.99 38.479 796.975 L38.479 791.436 Z" fill="#9eb1be" fill-rule="evenodd" fill-opacity="1" /><path clip-path="url(#clip670)" d="M 0 0 M52.3562 764.573 L52.3562 758.717 L88.0042 758.717 L88.0042 764.573 L52.3562 764.573 M38.479 764.573 L38.479 758.717 L45.895 758.717 L45.895 764.573 L38.479 764.573 Z" fill="#9eb1be" fill-rule="evenodd" fill-opacity="1" /><path clip-path="url(#clip670)" d="M 0 0 M66.4881 722.941 L88.0042 722.941 L88.0042 728.798 L66.679 728.798 Q61.6183 728.798 59.1038 730.771 Q56.5894 732.745 56.5894 736.691 Q56.5894 741.434 59.6131 744.171 Q62.6368 746.908 67.8567 746.908 L88.0042 746.908 L88.0042 752.797 L52.3562 752.797 L52.3562 746.908 L57.8944 746.908 Q54.6797 744.808 53.0883 741.975 Q51.4968 739.11 51.4968 735.386 Q51.4968 729.243 55.3163 726.092 Q59.1038 722.941 66.4881 722.941 Z" fill="#9eb1be" fill-rule="evenodd" fill-opacity="1" /><path clip-path="url(#clip670)" d="M 0 0 M38.479 698.752 L43.3487 698.752 L43.3487 704.354 Q43.3487 707.505 44.6219 708.746 Q45.895 709.955 49.2052 709.955 L52.3562 709.955 L52.3562 700.311 L56.9077 700.311 L56.9077 709.955 L88.0042 709.955 L88.0042 715.844 L56.9077 715.844 L56.9077 721.445 L52.3562 721.445 L52.3562 715.844 L49.8736 715.844 Q43.9216 715.844 41.2162 713.075 Q38.479 710.305 38.479 704.29 L38.479 698.752 Z" fill="#9eb1be" fill-rule="evenodd" fill-opacity="1" /><path clip-path="url(#clip670)" d="M 0 0 M68.7161 662.117 L71.5806 662.117 L71.5806 689.044 Q77.6281 688.662 80.8109 685.416 Q83.9619 682.137 83.9619 676.313 Q83.9619 672.939 83.1344 669.788 Q82.3069 666.605 80.6518 663.486 L86.1899 663.486 Q87.5267 666.637 88.227 669.947 Q88.9272 673.257 88.9272 676.663 Q88.9272 685.193 83.9619 690.19 Q78.9967 695.155 70.5303 695.155 Q61.7774 695.155 56.6531 690.444 Q51.4968 685.702 51.4968 677.681 Q51.4968 670.488 56.1438 666.318 Q60.7589 662.117 68.7161 662.117 M66.9973 667.974 Q62.1912 668.037 59.3266 670.679 Q56.4621 673.289 56.4621 677.618 Q56.4621 682.519 59.2312 685.479 Q62.0002 688.407 67.0292 688.853 L66.9973 667.974 Z" fill="#9eb1be" fill-rule="evenodd" fill-opacity="1" /><path clip-path="url(#clip670)" d="M 0 0 M53.7248 630.32 L59.1993 630.32 Q57.8307 632.803 57.1623 635.317 Q56.4621 637.8 56.4621 640.346 Q56.4621 646.044 60.0905 649.195 Q63.6872 652.346 70.212 652.346 Q76.7369 652.346 80.3653 649.195 Q83.9619 646.044 83.9619 640.346 Q83.9619 637.8 83.2935 635.317 Q82.5933 632.803 81.2247 630.32 L86.6355 630.32 Q87.7814 632.771 88.3543 635.413 Q88.9272 638.023 88.9272 640.983 Q88.9272 649.036 83.8664 653.778 Q78.8057 658.52 70.212 658.52 Q61.491 658.52 56.4939 653.746 Q51.4968 648.94 51.4968 640.601 Q51.4968 637.896 52.0697 635.317 Q52.6108 632.739 53.7248 630.32 Z" fill="#9eb1be" fill-rule="evenodd" fill-opacity="1" /><path clip-path="url(#clip670)" d="M 0 0 M42.2347 618.385 L52.3562 618.385 L52.3562 606.322 L56.9077 606.322 L56.9077 618.385 L76.2594 618.385 Q80.6199 618.385 81.8613 617.207 Q83.1026 615.998 83.1026 612.337 L83.1026 606.322 L88.0042 606.322 L88.0042 612.337 Q88.0042 619.117 85.4897 621.695 Q82.9434 624.273 76.2594 624.273 L56.9077 624.273 L56.9077 628.57 L52.3562 628.57 L52.3562 624.273 L42.2347 624.273 L42.2347 618.385 Z" fill="#9eb1be" fill-rule="evenodd" fill-opacity="1" /><path clip-path="url(#clip670)" d="M 0 0 M68.7161 569.687 L71.5806 569.687 L71.5806 596.614 Q77.6281 596.232 80.8109 592.986 Q83.9619 589.707 83.9619 583.883 Q83.9619 580.509 83.1344 577.358 Q82.3069 574.175 80.6518 571.056 L86.1899 571.056 Q87.5267 574.207 88.227 577.517 Q88.9272 580.827 88.9272 584.233 Q88.9272 592.763 83.9619 597.76 Q78.9967 602.725 70.5303 602.725 Q61.7774 602.725 56.6531 598.014 Q51.4968 593.272 51.4968 585.251 Q51.4968 578.058 56.1438 573.888 Q60.7589 569.687 68.7161 569.687 M66.9973 575.543 Q62.1912 575.607 59.3266 578.249 Q56.4621 580.859 56.4621 585.188 Q56.4621 590.089 59.2312 593.049 Q62.0002 595.977 67.0292 596.423 L66.9973 575.543 Z" fill="#9eb1be" fill-rule="evenodd" fill-opacity="1" /><path clip-path="url(#clip670)" d="M 0 0 M57.7671 540.086 L38.479 540.086 L38.479 534.23 L88.0042 534.23 L88.0042 540.086 L82.657 540.086 Q85.8398 541.933 87.3994 544.765 Q88.9272 547.566 88.9272 551.513 Q88.9272 557.974 83.771 562.048 Q78.6147 566.09 70.212 566.09 Q61.8093 566.09 56.6531 562.048 Q51.4968 557.974 51.4968 551.513 Q51.4968 547.566 53.0564 544.765 Q54.5842 541.933 57.7671 540.086 M70.212 560.043 Q76.6732 560.043 80.3653 557.401 Q84.0256 554.728 84.0256 550.081 Q84.0256 545.434 80.3653 542.76 Q76.6732 540.086 70.212 540.086 Q63.7508 540.086 60.0905 542.76 Q56.3984 545.434 56.3984 550.081 Q56.3984 554.728 60.0905 557.401 Q63.7508 560.043 70.212 560.043 Z" fill="#9eb1be" fill-rule="evenodd" fill-opacity="1" /><polyline clip-path="url(#clip672)" style="stroke:#fe4365; stroke-width:4; stroke-opacity:1; fill:none" points="
  271.729,1386.4 427.145,1365.11 582.562,1279.96 737.978,1079.86 893.395,458.276 1048.81,160.256 1204.23,313.524 1359.64,398.672 1515.06,590.257 1670.48,866.989 
  1825.89,1101.15 1981.31,1279.96 2136.73,1348.08 2292.14,1377.88 
  "/>
<circle clip-path="url(#clip672)" cx="271.729" cy="1386.4" r="14" fill="#eca25c" fill-rule="evenodd" fill-opacity="1" stroke="#adb2b7" stroke-opacity="1" stroke-width="3.2"/>
<circle clip-path="url(#clip672)" cx="427.145" cy="1365.11" r="14" fill="#eca25c" fill-rule="evenodd" fill-opacity="1" stroke="#adb2b7" stroke-opacity="1" stroke-width="3.2"/>
<circle clip-path="url(#clip672)" cx="582.562" cy="1279.96" r="14" fill="#eca25c" fill-rule="evenodd" fill-opacity="1" stroke="#adb2b7" stroke-opacity="1" stroke-width="3.2"/>
<circle clip-path="url(#clip672)" cx="737.978" cy="1079.86" r="14" fill="#eca25c" fill-rule="evenodd" fill-opacity="1" stroke="#adb2b7" stroke-opacity="1" stroke-width="3.2"/>
<circle clip-path="url(#clip672)" cx="893.395" cy="458.276" r="14" fill="#eca25c" fill-rule="evenodd" fill-opacity="1" stroke="#adb2b7" stroke-opacity="1" stroke-width="3.2"/>
<circle clip-path="url(#clip672)" cx="1048.81" cy="160.256" r="14" fill="#eca25c" fill-rule="evenodd" fill-opacity="1" stroke="#adb2b7" stroke-opacity="1" stroke-width="3.2"/>
<circle clip-path="url(#clip672)" cx="1204.23" cy="313.524" r="14" fill="#eca25c" fill-rule="evenodd" fill-opacity="1" stroke="#adb2b7" stroke-opacity="1" stroke-width="3.2"/>
<circle clip-path="url(#clip672)" cx="1359.64" cy="398.672" r="14" fill="#eca25c" fill-rule="evenodd" fill-opacity="1" stroke="#adb2b7" stroke-opacity="1" stroke-width="3.2"/>
<circle clip-path="url(#clip672)" cx="1515.06" cy="590.257" r="14" fill="#eca25c" fill-rule="evenodd" fill-opacity="1" stroke="#adb2b7" stroke-opacity="1" stroke-width="3.2"/>
<circle clip-path="url(#clip672)" cx="1670.48" cy="866.989" r="14" fill="#eca25c" fill-rule="evenodd" fill-opacity="1" stroke="#adb2b7" stroke-opacity="1" stroke-width="3.2"/>
<circle clip-path="url(#clip672)" cx="1825.89" cy="1101.15" r="14" fill="#eca25c" fill-rule="evenodd" fill-opacity="1" stroke="#adb2b7" stroke-opacity="1" stroke-width="3.2"/>
<circle clip-path="url(#clip672)" cx="1981.31" cy="1279.96" r="14" fill="#eca25c" fill-rule="evenodd" fill-opacity="1" stroke="#adb2b7" stroke-opacity="1" stroke-width="3.2"/>
<circle clip-path="url(#clip672)" cx="2136.73" cy="1348.08" r="14" fill="#eca25c" fill-rule="evenodd" fill-opacity="1" stroke="#adb2b7" stroke-opacity="1" stroke-width="3.2"/>
<circle clip-path="url(#clip672)" cx="2292.14" cy="1377.88" r="14" fill="#eca25c" fill-rule="evenodd" fill-opacity="1" stroke="#adb2b7" stroke-opacity="1" stroke-width="3.2"/>
</svg>
