<?xml version="1.0" encoding="utf-8"?>
<svg xmlns="http://www.w3.org/2000/svg" xmlns:xlink="http://www.w3.org/1999/xlink" width="600" height="400" viewBox="0 0 2400 1600">
<defs>
  <clipPath id="clip030">
    <rect x="0" y="0" width="2400" height="1600"/>
  </clipPath>
</defs>
<path clip-path="url(#clip030)" d="
M0 1600 L2400 1600 L2400 0 L0 0  Z
  " fill="#282c34" fill-rule="evenodd" fill-opacity="1"/>
<defs>
  <clipPath id="clip031">
    <rect x="480" y="0" width="1681" height="1600"/>
  </clipPath>
</defs>
<path clip-path="url(#clip030)" d="
M292.644 1423.18 L2352.76 1423.18 L2352.76 47.2441 L292.644 47.2441  Z
  " fill="#21252b" fill-rule="evenodd" fill-opacity="1"/>
<defs>
  <clipPath id="clip032">
    <rect x="292" y="47" width="2061" height="1377"/>
  </clipPath>
</defs>
<polyline clip-path="url(#clip032)" style="stroke:#adb2b7; stroke-width:2; stroke-opacity:0.1; fill:none" points="
  335.524,1423.18 335.524,47.2441 
  "/>
<polyline clip-path="url(#clip032)" style="stroke:#adb2b7; stroke-width:2; stroke-opacity:0.1; fill:none" points="
  641.606,1423.18 641.606,47.2441 
  "/>
<polyline clip-path="url(#clip032)" style="stroke:#adb2b7; stroke-width:2; stroke-opacity:0.1; fill:none" points="
  947.689,1423.18 947.689,47.2441 
  "/>
<polyline clip-path="url(#clip032)" style="stroke:#adb2b7; stroke-width:2; stroke-opacity:0.1; fill:none" points="
  1253.77,1423.18 1253.77,47.2441 
  "/>
<polyline clip-path="url(#clip032)" style="stroke:#adb2b7; stroke-width:2; stroke-opacity:0.1; fill:none" points="
  1559.85,1423.18 1559.85,47.2441 
  "/>
<polyline clip-path="url(#clip032)" style="stroke:#adb2b7; stroke-width:2; stroke-opacity:0.1; fill:none" points="
  1865.94,1423.18 1865.94,47.2441 
  "/>
<polyline clip-path="url(#clip032)" style="stroke:#adb2b7; stroke-width:2; stroke-opacity:0.1; fill:none" points="
  2172.02,1423.18 2172.02,47.2441 
  "/>
<polyline clip-path="url(#clip032)" style="stroke:#adb2b7; stroke-width:2; stroke-opacity:0.1; fill:none" points="
  292.644,1392.54 2352.76,1392.54 
  "/>
<polyline clip-path="url(#clip032)" style="stroke:#adb2b7; stroke-width:2; stroke-opacity:0.1; fill:none" points="
  292.644,1193.47 2352.76,1193.47 
  "/>
<polyline clip-path="url(#clip032)" style="stroke:#adb2b7; stroke-width:2; stroke-opacity:0.1; fill:none" points="
  292.644,994.394 2352.76,994.394 
  "/>
<polyline clip-path="url(#clip032)" style="stroke:#adb2b7; stroke-width:2; stroke-opacity:0.1; fill:none" points="
  292.644,795.32 2352.76,795.32 
  "/>
<polyline clip-path="url(#clip032)" style="stroke:#adb2b7; stroke-width:2; stroke-opacity:0.1; fill:none" points="
  292.644,596.247 2352.76,596.247 
  "/>
<polyline clip-path="url(#clip032)" style="stroke:#adb2b7; stroke-width:2; stroke-opacity:0.1; fill:none" points="
  292.644,397.173 2352.76,397.173 
  "/>
<polyline clip-path="url(#clip032)" style="stroke:#adb2b7; stroke-width:2; stroke-opacity:0.1; fill:none" points="
  292.644,198.099 2352.76,198.099 
  "/>
<polyline clip-path="url(#clip030)" style="stroke:#adb2b7; stroke-width:4; stroke-opacity:1; fill:none" points="
  292.644,1423.18 2352.76,1423.18 
  "/>
<polyline clip-path="url(#clip030)" style="stroke:#adb2b7; stroke-width:4; stroke-opacity:1; fill:none" points="
  292.644,1423.18 292.644,47.2441 
  "/>
<polyline clip-path="url(#clip030)" style="stroke:#adb2b7; stroke-width:4; stroke-opacity:1; fill:none" points="
  335.524,1423.18 335.524,1406.67 
  "/>
<polyline clip-path="url(#clip030)" style="stroke:#adb2b7; stroke-width:4; stroke-opacity:1; fill:none" points="
  641.606,1423.18 641.606,1406.67 
  "/>
<polyline clip-path="url(#clip030)" style="stroke:#adb2b7; stroke-width:4; stroke-opacity:1; fill:none" points="
  947.689,1423.18 947.689,1406.67 
  "/>
<polyline clip-path="url(#clip030)" style="stroke:#adb2b7; stroke-width:4; stroke-opacity:1; fill:none" points="
  1253.77,1423.18 1253.77,1406.67 
  "/>
<polyline clip-path="url(#clip030)" style="stroke:#adb2b7; stroke-width:4; stroke-opacity:1; fill:none" points="
  1559.85,1423.18 1559.85,1406.67 
  "/>
<polyline clip-path="url(#clip030)" style="stroke:#adb2b7; stroke-width:4; stroke-opacity:1; fill:none" points="
  1865.94,1423.18 1865.94,1406.67 
  "/>
<polyline clip-path="url(#clip030)" style="stroke:#adb2b7; stroke-width:4; stroke-opacity:1; fill:none" points="
  2172.02,1423.18 2172.02,1406.67 
  "/>
<polyline clip-path="url(#clip030)" style="stroke:#adb2b7; stroke-width:4; stroke-opacity:1; fill:none" points="
  292.644,1392.54 317.365,1392.54 
  "/>
<polyline clip-path="url(#clip030)" style="stroke:#adb2b7; stroke-width:4; stroke-opacity:1; fill:none" points="
  292.644,1193.47 317.365,1193.47 
  "/>
<polyline clip-path="url(#clip030)" style="stroke:#adb2b7; stroke-width:4; stroke-opacity:1; fill:none" points="
  292.644,994.394 317.365,994.394 
  "/>
<polyline clip-path="url(#clip030)" style="stroke:#adb2b7; stroke-width:4; stroke-opacity:1; fill:none" points="
  292.644,795.32 317.365,795.32 
  "/>
<polyline clip-path="url(#clip030)" style="stroke:#adb2b7; stroke-width:4; stroke-opacity:1; fill:none" points="
  292.644,596.247 317.365,596.247 
  "/>
<polyline clip-path="url(#clip030)" style="stroke:#adb2b7; stroke-width:4; stroke-opacity:1; fill:none" points="
  292.644,397.173 317.365,397.173 
  "/>
<polyline clip-path="url(#clip030)" style="stroke:#adb2b7; stroke-width:4; stroke-opacity:1; fill:none" points="
  292.644,198.099 317.365,198.099 
  "/>
<path clip-path="url(#clip030)" d="M 0 0 M317.04 1452.37 Q313.429 1452.37 311.601 1455.94 Q309.795 1459.48 309.795 1466.61 Q309.795 1473.71 311.601 1477.28 Q313.429 1480.82 317.04 1480.82 Q320.675 1480.82 322.48 1477.28 Q324.309 1473.71 324.309 1466.61 Q324.309 1459.48 322.48 1455.94 Q320.675 1452.37 317.04 1452.37 M317.04 1448.67 Q322.851 1448.67 325.906 1453.27 Q328.985 1457.86 328.985 1466.61 Q328.985 1475.33 325.906 1479.94 Q322.851 1484.52 317.04 1484.52 Q311.23 1484.52 308.152 1479.94 Q305.096 1475.33 305.096 1466.61 Q305.096 1457.86 308.152 1453.27 Q311.23 1448.67 317.04 1448.67 Z" fill="#9eb1be" fill-rule="evenodd" fill-opacity="1" /><path clip-path="url(#clip030)" d="M 0 0 M334.054 1477.97 L338.938 1477.97 L338.938 1483.85 L334.054 1483.85 L334.054 1477.97 Z" fill="#9eb1be" fill-rule="evenodd" fill-opacity="1" /><path clip-path="url(#clip030)" d="M 0 0 M354.008 1452.37 Q350.397 1452.37 348.568 1455.94 Q346.762 1459.48 346.762 1466.61 Q346.762 1473.71 348.568 1477.28 Q350.397 1480.82 354.008 1480.82 Q357.642 1480.82 359.448 1477.28 Q361.276 1473.71 361.276 1466.61 Q361.276 1459.48 359.448 1455.94 Q357.642 1452.37 354.008 1452.37 M354.008 1448.67 Q359.818 1448.67 362.873 1453.27 Q365.952 1457.86 365.952 1466.61 Q365.952 1475.33 362.873 1479.94 Q359.818 1484.52 354.008 1484.52 Q348.198 1484.52 345.119 1479.94 Q342.063 1475.33 342.063 1466.61 Q342.063 1457.86 345.119 1453.27 Q348.198 1448.67 354.008 1448.67 Z" fill="#9eb1be" fill-rule="evenodd" fill-opacity="1" /><path clip-path="url(#clip030)" d="M 0 0 M623.736 1452.37 Q620.125 1452.37 618.296 1455.94 Q616.491 1459.48 616.491 1466.61 Q616.491 1473.71 618.296 1477.28 Q620.125 1480.82 623.736 1480.82 Q627.37 1480.82 629.176 1477.28 Q631.005 1473.71 631.005 1466.61 Q631.005 1459.48 629.176 1455.94 Q627.37 1452.37 623.736 1452.37 M623.736 1448.67 Q629.546 1448.67 632.602 1453.27 Q635.681 1457.86 635.681 1466.61 Q635.681 1475.33 632.602 1479.94 Q629.546 1484.52 623.736 1484.52 Q617.926 1484.52 614.847 1479.94 Q611.792 1475.33 611.792 1466.61 Q611.792 1457.86 614.847 1453.27 Q617.926 1448.67 623.736 1448.67 Z" fill="#9eb1be" fill-rule="evenodd" fill-opacity="1" /><path clip-path="url(#clip030)" d="M 0 0 M640.75 1477.97 L645.634 1477.97 L645.634 1483.85 L640.75 1483.85 L640.75 1477.97 Z" fill="#9eb1be" fill-rule="evenodd" fill-opacity="1" /><path clip-path="url(#clip030)" d="M 0 0 M651.514 1479.92 L659.153 1479.92 L659.153 1453.55 L650.842 1455.22 L650.842 1450.96 L659.106 1449.29 L663.782 1449.29 L663.782 1479.92 L671.421 1479.92 L671.421 1483.85 L651.514 1483.85 L651.514 1479.92 Z" fill="#9eb1be" fill-rule="evenodd" fill-opacity="1" /><path clip-path="url(#clip030)" d="M 0 0 M930.004 1452.37 Q926.393 1452.37 924.564 1455.94 Q922.758 1459.48 922.758 1466.61 Q922.758 1473.71 924.564 1477.28 Q926.393 1480.82 930.004 1480.82 Q933.638 1480.82 935.443 1477.28 Q937.272 1473.71 937.272 1466.61 Q937.272 1459.48 935.443 1455.94 Q933.638 1452.37 930.004 1452.37 M930.004 1448.67 Q935.814 1448.67 938.869 1453.27 Q941.948 1457.86 941.948 1466.61 Q941.948 1475.33 938.869 1479.94 Q935.814 1484.52 930.004 1484.52 Q924.193 1484.52 921.115 1479.94 Q918.059 1475.33 918.059 1466.61 Q918.059 1457.86 921.115 1453.27 Q924.193 1448.67 930.004 1448.67 Z" fill="#9eb1be" fill-rule="evenodd" fill-opacity="1" /><path clip-path="url(#clip030)" d="M 0 0 M947.017 1477.97 L951.902 1477.97 L951.902 1483.85 L947.017 1483.85 L947.017 1477.97 Z" fill="#9eb1be" fill-rule="evenodd" fill-opacity="1" /><path clip-path="url(#clip030)" d="M 0 0 M960.999 1479.92 L977.318 1479.92 L977.318 1483.85 L955.374 1483.85 L955.374 1479.92 Q958.036 1477.16 962.619 1472.53 Q967.226 1467.88 968.406 1466.54 Q970.652 1464.01 971.531 1462.28 Q972.434 1460.52 972.434 1458.83 Q972.434 1456.07 970.49 1454.34 Q968.568 1452.6 965.466 1452.6 Q963.267 1452.6 960.814 1453.37 Q958.383 1454.13 955.605 1455.68 L955.605 1450.96 Q958.429 1449.82 960.883 1449.25 Q963.337 1448.67 965.374 1448.67 Q970.744 1448.67 973.939 1451.35 Q977.133 1454.04 977.133 1458.53 Q977.133 1460.66 976.323 1462.58 Q975.536 1464.48 973.429 1467.07 Q972.851 1467.74 969.749 1470.96 Q966.647 1474.15 960.999 1479.92 Z" fill="#9eb1be" fill-rule="evenodd" fill-opacity="1" /><path clip-path="url(#clip030)" d="M 0 0 M1235.61 1452.37 Q1232 1452.37 1230.17 1455.94 Q1228.37 1459.48 1228.37 1466.61 Q1228.37 1473.71 1230.17 1477.28 Q1232 1480.82 1235.61 1480.82 Q1239.25 1480.82 1241.05 1477.28 Q1242.88 1473.71 1242.88 1466.61 Q1242.88 1459.48 1241.05 1455.94 Q1239.25 1452.37 1235.61 1452.37 M1235.61 1448.67 Q1241.42 1448.67 1244.48 1453.27 Q1247.56 1457.86 1247.56 1466.61 Q1247.56 1475.33 1244.48 1479.94 Q1241.42 1484.52 1235.61 1484.52 Q1229.8 1484.52 1226.72 1479.94 Q1223.67 1475.33 1223.67 1466.61 Q1223.67 1457.86 1226.72 1453.27 Q1229.8 1448.67 1235.61 1448.67 Z" fill="#9eb1be" fill-rule="evenodd" fill-opacity="1" /><path clip-path="url(#clip030)" d="M 0 0 M1252.63 1477.97 L1257.51 1477.97 L1257.51 1483.85 L1252.63 1483.85 L1252.63 1477.97 Z" fill="#9eb1be" fill-rule="evenodd" fill-opacity="1" /><path clip-path="url(#clip030)" d="M 0 0 M1276.75 1465.22 Q1280.1 1465.94 1281.98 1468.2 Q1283.88 1470.47 1283.88 1473.81 Q1283.88 1478.92 1280.36 1481.72 Q1276.84 1484.52 1270.36 1484.52 Q1268.18 1484.52 1265.87 1484.08 Q1263.57 1483.67 1261.12 1482.81 L1261.12 1478.3 Q1263.06 1479.43 1265.38 1480.01 Q1267.69 1480.59 1270.22 1480.59 Q1274.62 1480.59 1276.91 1478.85 Q1279.22 1477.12 1279.22 1473.81 Q1279.22 1470.75 1277.07 1469.04 Q1274.94 1467.3 1271.12 1467.3 L1267.09 1467.3 L1267.09 1463.46 L1271.31 1463.46 Q1274.75 1463.46 1276.58 1462.09 Q1278.41 1460.7 1278.41 1458.11 Q1278.41 1455.45 1276.51 1454.04 Q1274.64 1452.6 1271.12 1452.6 Q1269.2 1452.6 1267 1453.02 Q1264.8 1453.44 1262.16 1454.31 L1262.16 1450.15 Q1264.82 1449.41 1267.14 1449.04 Q1269.48 1448.67 1271.54 1448.67 Q1276.86 1448.67 1279.96 1451.1 Q1283.06 1453.5 1283.06 1457.63 Q1283.06 1460.5 1281.42 1462.49 Q1279.78 1464.45 1276.75 1465.22 Z" fill="#9eb1be" fill-rule="evenodd" fill-opacity="1" /><path clip-path="url(#clip030)" d="M 0 0 M1541.13 1452.37 Q1537.52 1452.37 1535.69 1455.94 Q1533.88 1459.48 1533.88 1466.61 Q1533.88 1473.71 1535.69 1477.28 Q1537.52 1480.82 1541.13 1480.82 Q1544.76 1480.82 1546.57 1477.28 Q1548.4 1473.71 1548.4 1466.61 Q1548.4 1459.48 1546.57 1455.94 Q1544.76 1452.37 1541.13 1452.37 M1541.13 1448.67 Q1546.94 1448.67 1549.99 1453.27 Q1553.07 1457.86 1553.07 1466.61 Q1553.07 1475.33 1549.99 1479.94 Q1546.94 1484.52 1541.13 1484.52 Q1535.32 1484.52 1532.24 1479.94 Q1529.18 1475.33 1529.18 1466.61 Q1529.18 1457.86 1532.24 1453.27 Q1535.32 1448.67 1541.13 1448.67 Z" fill="#9eb1be" fill-rule="evenodd" fill-opacity="1" /><path clip-path="url(#clip030)" d="M 0 0 M1558.14 1477.97 L1563.02 1477.97 L1563.02 1483.85 L1558.14 1483.85 L1558.14 1477.97 Z" fill="#9eb1be" fill-rule="evenodd" fill-opacity="1" /><path clip-path="url(#clip030)" d="M 0 0 M1580.94 1453.37 L1569.14 1471.81 L1580.94 1471.81 L1580.94 1453.37 M1579.71 1449.29 L1585.59 1449.29 L1585.59 1471.81 L1590.52 1471.81 L1590.52 1475.7 L1585.59 1475.7 L1585.59 1483.85 L1580.94 1483.85 L1580.94 1475.7 L1565.34 1475.7 L1565.34 1471.19 L1579.71 1449.29 Z" fill="#9eb1be" fill-rule="evenodd" fill-opacity="1" /><path clip-path="url(#clip030)" d="M 0 0 M1847.95 1452.37 Q1844.34 1452.37 1842.51 1455.94 Q1840.7 1459.48 1840.7 1466.61 Q1840.7 1473.71 1842.51 1477.28 Q1844.34 1480.82 1847.95 1480.82 Q1851.58 1480.82 1853.39 1477.28 Q1855.22 1473.71 1855.22 1466.61 Q1855.22 1459.48 1853.39 1455.94 Q1851.58 1452.37 1847.95 1452.37 M1847.95 1448.67 Q1853.76 1448.67 1856.82 1453.27 Q1859.89 1457.86 1859.89 1466.61 Q1859.89 1475.33 1856.82 1479.94 Q1853.76 1484.52 1847.95 1484.52 Q1842.14 1484.52 1839.06 1479.94 Q1836.01 1475.33 1836.01 1466.61 Q1836.01 1457.86 1839.06 1453.27 Q1842.14 1448.67 1847.95 1448.67 Z" fill="#9eb1be" fill-rule="evenodd" fill-opacity="1" /><path clip-path="url(#clip030)" d="M 0 0 M1864.96 1477.97 L1869.85 1477.97 L1869.85 1483.85 L1864.96 1483.85 L1864.96 1477.97 Z" fill="#9eb1be" fill-rule="evenodd" fill-opacity="1" /><path clip-path="url(#clip030)" d="M 0 0 M1874.96 1449.29 L1893.32 1449.29 L1893.32 1453.23 L1879.25 1453.23 L1879.25 1461.7 Q1880.26 1461.35 1881.28 1461.19 Q1882.3 1461 1883.32 1461 Q1889.11 1461 1892.49 1464.18 Q1895.87 1467.35 1895.87 1472.76 Q1895.87 1478.34 1892.39 1481.44 Q1888.92 1484.52 1882.6 1484.52 Q1880.43 1484.52 1878.16 1484.15 Q1875.91 1483.78 1873.51 1483.04 L1873.51 1478.34 Q1875.59 1479.48 1877.81 1480.03 Q1880.03 1480.59 1882.51 1480.59 Q1886.51 1480.59 1888.85 1478.48 Q1891.19 1476.38 1891.19 1472.76 Q1891.19 1469.15 1888.85 1467.05 Q1886.51 1464.94 1882.51 1464.94 Q1880.63 1464.94 1878.76 1465.36 Q1876.91 1465.77 1874.96 1466.65 L1874.96 1449.29 Z" fill="#9eb1be" fill-rule="evenodd" fill-opacity="1" /><path clip-path="url(#clip030)" d="M 0 0 M2153.45 1452.37 Q2149.84 1452.37 2148.01 1455.94 Q2146.21 1459.48 2146.21 1466.61 Q2146.21 1473.71 2148.01 1477.28 Q2149.84 1480.82 2153.45 1480.82 Q2157.09 1480.82 2158.89 1477.28 Q2160.72 1473.71 2160.72 1466.61 Q2160.72 1459.48 2158.89 1455.94 Q2157.09 1452.37 2153.45 1452.37 M2153.45 1448.67 Q2159.26 1448.67 2162.32 1453.27 Q2165.4 1457.86 2165.4 1466.61 Q2165.4 1475.33 2162.32 1479.94 Q2159.26 1484.52 2153.45 1484.52 Q2147.64 1484.52 2144.56 1479.94 Q2141.51 1475.33 2141.51 1466.61 Q2141.51 1457.86 2144.56 1453.27 Q2147.64 1448.67 2153.45 1448.67 Z" fill="#9eb1be" fill-rule="evenodd" fill-opacity="1" /><path clip-path="url(#clip030)" d="M 0 0 M2170.47 1477.97 L2175.35 1477.97 L2175.35 1483.85 L2170.47 1483.85 L2170.47 1477.97 Z" fill="#9eb1be" fill-rule="evenodd" fill-opacity="1" /><path clip-path="url(#clip030)" d="M 0 0 M2191 1464.71 Q2187.85 1464.71 2186 1466.86 Q2184.17 1469.01 2184.17 1472.76 Q2184.17 1476.49 2186 1478.67 Q2187.85 1480.82 2191 1480.82 Q2194.15 1480.82 2195.98 1478.67 Q2197.83 1476.49 2197.83 1472.76 Q2197.83 1469.01 2195.98 1466.86 Q2194.15 1464.71 2191 1464.71 M2200.28 1450.06 L2200.28 1454.31 Q2198.52 1453.48 2196.72 1453.04 Q2194.93 1452.6 2193.18 1452.6 Q2188.55 1452.6 2186.09 1455.73 Q2183.66 1458.85 2183.31 1465.17 Q2184.68 1463.16 2186.74 1462.09 Q2188.8 1461 2191.28 1461 Q2196.49 1461 2199.49 1464.18 Q2202.53 1467.32 2202.53 1472.76 Q2202.53 1478.09 2199.38 1481.31 Q2196.23 1484.52 2191 1484.52 Q2185 1484.52 2181.83 1479.94 Q2178.66 1475.33 2178.66 1466.61 Q2178.66 1458.41 2182.55 1453.55 Q2186.44 1448.67 2192.99 1448.67 Q2194.75 1448.67 2196.53 1449.01 Q2198.34 1449.36 2200.28 1450.06 Z" fill="#9eb1be" fill-rule="evenodd" fill-opacity="1" /><path clip-path="url(#clip030)" d="M 0 0 M126.691 1378.34 Q123.08 1378.34 121.251 1381.91 Q119.445 1385.45 119.445 1392.58 Q119.445 1399.68 121.251 1403.25 Q123.08 1406.79 126.691 1406.79 Q130.325 1406.79 132.13 1403.25 Q133.959 1399.68 133.959 1392.58 Q133.959 1385.45 132.13 1381.91 Q130.325 1378.34 126.691 1378.34 M126.691 1374.64 Q132.501 1374.64 135.556 1379.24 Q138.635 1383.83 138.635 1392.58 Q138.635 1401.3 135.556 1405.91 Q132.501 1410.49 126.691 1410.49 Q120.88 1410.49 117.802 1405.91 Q114.746 1401.3 114.746 1392.58 Q114.746 1383.83 117.802 1379.24 Q120.88 1374.64 126.691 1374.64 Z" fill="#9eb1be" fill-rule="evenodd" fill-opacity="1" /><path clip-path="url(#clip030)" d="M 0 0 M143.704 1403.94 L148.589 1403.94 L148.589 1409.82 L143.704 1409.82 L143.704 1403.94 Z" fill="#9eb1be" fill-rule="evenodd" fill-opacity="1" /><path clip-path="url(#clip030)" d="M 0 0 M163.658 1378.34 Q160.047 1378.34 158.218 1381.91 Q156.413 1385.45 156.413 1392.58 Q156.413 1399.68 158.218 1403.25 Q160.047 1406.79 163.658 1406.79 Q167.292 1406.79 169.098 1403.25 Q170.927 1399.68 170.927 1392.58 Q170.927 1385.45 169.098 1381.91 Q167.292 1378.34 163.658 1378.34 M163.658 1374.64 Q169.468 1374.64 172.524 1379.24 Q175.602 1383.83 175.602 1392.58 Q175.602 1401.3 172.524 1405.91 Q169.468 1410.49 163.658 1410.49 Q157.848 1410.49 154.769 1405.91 Q151.714 1401.3 151.714 1392.58 Q151.714 1383.83 154.769 1379.24 Q157.848 1374.64 163.658 1374.64 Z" fill="#9eb1be" fill-rule="evenodd" fill-opacity="1" /><path clip-path="url(#clip030)" d="M 0 0 M190.672 1378.34 Q187.061 1378.34 185.232 1381.91 Q183.426 1385.45 183.426 1392.58 Q183.426 1399.68 185.232 1403.25 Q187.061 1406.79 190.672 1406.79 Q194.306 1406.79 196.112 1403.25 Q197.94 1399.68 197.94 1392.58 Q197.94 1385.45 196.112 1381.91 Q194.306 1378.34 190.672 1378.34 M190.672 1374.64 Q196.482 1374.64 199.537 1379.24 Q202.616 1383.83 202.616 1392.58 Q202.616 1401.3 199.537 1405.91 Q196.482 1410.49 190.672 1410.49 Q184.862 1410.49 181.783 1405.91 Q178.727 1401.3 178.727 1392.58 Q178.727 1383.83 181.783 1379.24 Q184.862 1374.64 190.672 1374.64 Z" fill="#9eb1be" fill-rule="evenodd" fill-opacity="1" /><path clip-path="url(#clip030)" d="M 0 0 M217.686 1378.34 Q214.074 1378.34 212.246 1381.91 Q210.44 1385.45 210.44 1392.58 Q210.44 1399.68 212.246 1403.25 Q214.074 1406.79 217.686 1406.79 Q221.32 1406.79 223.125 1403.25 Q224.954 1399.68 224.954 1392.58 Q224.954 1385.45 223.125 1381.91 Q221.32 1378.34 217.686 1378.34 M217.686 1374.64 Q223.496 1374.64 226.551 1379.24 Q229.63 1383.83 229.63 1392.58 Q229.63 1401.3 226.551 1405.91 Q223.496 1410.49 217.686 1410.49 Q211.875 1410.49 208.797 1405.91 Q205.741 1401.3 205.741 1392.58 Q205.741 1383.83 208.797 1379.24 Q211.875 1374.64 217.686 1374.64 Z" fill="#9eb1be" fill-rule="evenodd" fill-opacity="1" /><path clip-path="url(#clip030)" d="M 0 0 M244.699 1378.34 Q241.088 1378.34 239.259 1381.91 Q237.454 1385.45 237.454 1392.58 Q237.454 1399.68 239.259 1403.25 Q241.088 1406.79 244.699 1406.79 Q248.334 1406.79 250.139 1403.25 Q251.968 1399.68 251.968 1392.58 Q251.968 1385.45 250.139 1381.91 Q248.334 1378.34 244.699 1378.34 M244.699 1374.64 Q250.509 1374.64 253.565 1379.24 Q256.644 1383.83 256.644 1392.58 Q256.644 1401.3 253.565 1405.91 Q250.509 1410.49 244.699 1410.49 Q238.889 1410.49 235.81 1405.91 Q232.755 1401.3 232.755 1392.58 Q232.755 1383.83 235.81 1379.24 Q238.889 1374.64 244.699 1374.64 Z" fill="#9eb1be" fill-rule="evenodd" fill-opacity="1" /><path clip-path="url(#clip030)" d="M 0 0 M128.288 1179.27 Q124.677 1179.27 122.848 1182.83 Q121.043 1186.37 121.043 1193.5 Q121.043 1200.61 122.848 1204.17 Q124.677 1207.72 128.288 1207.72 Q131.922 1207.72 133.728 1204.17 Q135.556 1200.61 135.556 1193.5 Q135.556 1186.37 133.728 1182.83 Q131.922 1179.27 128.288 1179.27 M128.288 1175.56 Q134.098 1175.56 137.154 1180.17 Q140.232 1184.75 140.232 1193.5 Q140.232 1202.23 137.154 1206.84 Q134.098 1211.42 128.288 1211.42 Q122.478 1211.42 119.399 1206.84 Q116.343 1202.23 116.343 1193.5 Q116.343 1184.75 119.399 1180.17 Q122.478 1175.56 128.288 1175.56 Z" fill="#9eb1be" fill-rule="evenodd" fill-opacity="1" /><path clip-path="url(#clip030)" d="M 0 0 M145.302 1204.87 L150.186 1204.87 L150.186 1210.75 L145.302 1210.75 L145.302 1204.87 Z" fill="#9eb1be" fill-rule="evenodd" fill-opacity="1" /><path clip-path="url(#clip030)" d="M 0 0 M165.255 1179.27 Q161.644 1179.27 159.815 1182.83 Q158.01 1186.37 158.01 1193.5 Q158.01 1200.61 159.815 1204.17 Q161.644 1207.72 165.255 1207.72 Q168.889 1207.72 170.695 1204.17 Q172.524 1200.61 172.524 1193.5 Q172.524 1186.37 170.695 1182.83 Q168.889 1179.27 165.255 1179.27 M165.255 1175.56 Q171.065 1175.56 174.121 1180.17 Q177.2 1184.75 177.2 1193.5 Q177.2 1202.23 174.121 1206.84 Q171.065 1211.42 165.255 1211.42 Q159.445 1211.42 156.366 1206.84 Q153.311 1202.23 153.311 1193.5 Q153.311 1184.75 156.366 1180.17 Q159.445 1175.56 165.255 1175.56 Z" fill="#9eb1be" fill-rule="evenodd" fill-opacity="1" /><path clip-path="url(#clip030)" d="M 0 0 M192.269 1179.27 Q188.658 1179.27 186.829 1182.83 Q185.024 1186.37 185.024 1193.5 Q185.024 1200.61 186.829 1204.17 Q188.658 1207.72 192.269 1207.72 Q195.903 1207.72 197.709 1204.17 Q199.537 1200.61 199.537 1193.5 Q199.537 1186.37 197.709 1182.83 Q195.903 1179.27 192.269 1179.27 M192.269 1175.56 Q198.079 1175.56 201.135 1180.17 Q204.213 1184.75 204.213 1193.5 Q204.213 1202.23 201.135 1206.84 Q198.079 1211.42 192.269 1211.42 Q186.459 1211.42 183.38 1206.84 Q180.325 1202.23 180.325 1193.5 Q180.325 1184.75 183.38 1180.17 Q186.459 1175.56 192.269 1175.56 Z" fill="#9eb1be" fill-rule="evenodd" fill-opacity="1" /><path clip-path="url(#clip030)" d="M 0 0 M219.283 1179.27 Q215.672 1179.27 213.843 1182.83 Q212.037 1186.37 212.037 1193.5 Q212.037 1200.61 213.843 1204.17 Q215.672 1207.72 219.283 1207.72 Q222.917 1207.72 224.723 1204.17 Q226.551 1200.61 226.551 1193.5 Q226.551 1186.37 224.723 1182.83 Q222.917 1179.27 219.283 1179.27 M219.283 1175.56 Q225.093 1175.56 228.148 1180.17 Q231.227 1184.75 231.227 1193.5 Q231.227 1202.23 228.148 1206.84 Q225.093 1211.42 219.283 1211.42 Q213.473 1211.42 210.394 1206.84 Q207.338 1202.23 207.338 1193.5 Q207.338 1184.75 210.394 1180.17 Q213.473 1175.56 219.283 1175.56 Z" fill="#9eb1be" fill-rule="evenodd" fill-opacity="1" /><path clip-path="url(#clip030)" d="M 0 0 M240.324 1206.81 L256.644 1206.81 L256.644 1210.75 L234.699 1210.75 L234.699 1206.81 Q237.361 1204.06 241.945 1199.43 Q246.551 1194.78 247.732 1193.43 Q249.977 1190.91 250.857 1189.17 Q251.759 1187.41 251.759 1185.73 Q251.759 1182.97 249.815 1181.23 Q247.894 1179.5 244.792 1179.5 Q242.593 1179.5 240.139 1180.26 Q237.709 1181.03 234.931 1182.58 L234.931 1177.85 Q237.755 1176.72 240.209 1176.14 Q242.662 1175.56 244.699 1175.56 Q250.07 1175.56 253.264 1178.25 Q256.458 1180.93 256.458 1185.42 Q256.458 1187.55 255.648 1189.48 Q254.861 1191.37 252.755 1193.97 Q252.176 1194.64 249.074 1197.85 Q245.972 1201.05 240.324 1206.81 Z" fill="#9eb1be" fill-rule="evenodd" fill-opacity="1" /><path clip-path="url(#clip030)" d="M 0 0 M126.205 980.193 Q122.593 980.193 120.765 983.758 Q118.959 987.299 118.959 994.429 Q118.959 1001.54 120.765 1005.1 Q122.593 1008.64 126.205 1008.64 Q129.839 1008.64 131.644 1005.1 Q133.473 1001.54 133.473 994.429 Q133.473 987.299 131.644 983.758 Q129.839 980.193 126.205 980.193 M126.205 976.489 Q132.015 976.489 135.07 981.096 Q138.149 985.679 138.149 994.429 Q138.149 1003.16 135.07 1007.76 Q132.015 1012.35 126.205 1012.35 Q120.394 1012.35 117.316 1007.76 Q114.26 1003.16 114.26 994.429 Q114.26 985.679 117.316 981.096 Q120.394 976.489 126.205 976.489 Z" fill="#9eb1be" fill-rule="evenodd" fill-opacity="1" /><path clip-path="url(#clip030)" d="M 0 0 M143.218 1005.79 L148.103 1005.79 L148.103 1011.67 L143.218 1011.67 L143.218 1005.79 Z" fill="#9eb1be" fill-rule="evenodd" fill-opacity="1" /><path clip-path="url(#clip030)" d="M 0 0 M163.172 980.193 Q159.561 980.193 157.732 983.758 Q155.927 987.299 155.927 994.429 Q155.927 1001.54 157.732 1005.1 Q159.561 1008.64 163.172 1008.64 Q166.806 1008.64 168.612 1005.1 Q170.44 1001.54 170.44 994.429 Q170.44 987.299 168.612 983.758 Q166.806 980.193 163.172 980.193 M163.172 976.489 Q168.982 976.489 172.038 981.096 Q175.116 985.679 175.116 994.429 Q175.116 1003.16 172.038 1007.76 Q168.982 1012.35 163.172 1012.35 Q157.362 1012.35 154.283 1007.76 Q151.228 1003.16 151.228 994.429 Q151.228 985.679 154.283 981.096 Q157.362 976.489 163.172 976.489 Z" fill="#9eb1be" fill-rule="evenodd" fill-opacity="1" /><path clip-path="url(#clip030)" d="M 0 0 M190.186 980.193 Q186.575 980.193 184.746 983.758 Q182.94 987.299 182.94 994.429 Q182.94 1001.54 184.746 1005.1 Q186.575 1008.64 190.186 1008.64 Q193.82 1008.64 195.625 1005.1 Q197.454 1001.54 197.454 994.429 Q197.454 987.299 195.625 983.758 Q193.82 980.193 190.186 980.193 M190.186 976.489 Q195.996 976.489 199.051 981.096 Q202.13 985.679 202.13 994.429 Q202.13 1003.16 199.051 1007.76 Q195.996 1012.35 190.186 1012.35 Q184.376 1012.35 181.297 1007.76 Q178.241 1003.16 178.241 994.429 Q178.241 985.679 181.297 981.096 Q184.376 976.489 190.186 976.489 Z" fill="#9eb1be" fill-rule="evenodd" fill-opacity="1" /><path clip-path="url(#clip030)" d="M 0 0 M217.199 980.193 Q213.588 980.193 211.76 983.758 Q209.954 987.299 209.954 994.429 Q209.954 1001.54 211.76 1005.1 Q213.588 1008.64 217.199 1008.64 Q220.834 1008.64 222.639 1005.1 Q224.468 1001.54 224.468 994.429 Q224.468 987.299 222.639 983.758 Q220.834 980.193 217.199 980.193 M217.199 976.489 Q223.01 976.489 226.065 981.096 Q229.144 985.679 229.144 994.429 Q229.144 1003.16 226.065 1007.76 Q223.01 1012.35 217.199 1012.35 Q211.389 1012.35 208.311 1007.76 Q205.255 1003.16 205.255 994.429 Q205.255 985.679 208.311 981.096 Q211.389 976.489 217.199 976.489 Z" fill="#9eb1be" fill-rule="evenodd" fill-opacity="1" /><path clip-path="url(#clip030)" d="M 0 0 M247.06 981.188 L235.255 999.637 L247.06 999.637 L247.06 981.188 M245.834 977.114 L251.713 977.114 L251.713 999.637 L256.644 999.637 L256.644 1003.53 L251.713 1003.53 L251.713 1011.67 L247.06 1011.67 L247.06 1003.53 L231.459 1003.53 L231.459 999.012 L245.834 977.114 Z" fill="#9eb1be" fill-rule="evenodd" fill-opacity="1" /><path clip-path="url(#clip030)" d="M 0 0 M126.529 781.119 Q122.918 781.119 121.089 784.684 Q119.283 788.226 119.283 795.355 Q119.283 802.462 121.089 806.026 Q122.918 809.568 126.529 809.568 Q130.163 809.568 131.968 806.026 Q133.797 802.462 133.797 795.355 Q133.797 788.226 131.968 784.684 Q130.163 781.119 126.529 781.119 M126.529 777.415 Q132.339 777.415 135.394 782.022 Q138.473 786.605 138.473 795.355 Q138.473 804.082 135.394 808.688 Q132.339 813.272 126.529 813.272 Q120.718 813.272 117.64 808.688 Q114.584 804.082 114.584 795.355 Q114.584 786.605 117.64 782.022 Q120.718 777.415 126.529 777.415 Z" fill="#9eb1be" fill-rule="evenodd" fill-opacity="1" /><path clip-path="url(#clip030)" d="M 0 0 M143.542 806.721 L148.427 806.721 L148.427 812.6 L143.542 812.6 L143.542 806.721 Z" fill="#9eb1be" fill-rule="evenodd" fill-opacity="1" /><path clip-path="url(#clip030)" d="M 0 0 M163.496 781.119 Q159.885 781.119 158.056 784.684 Q156.251 788.226 156.251 795.355 Q156.251 802.462 158.056 806.026 Q159.885 809.568 163.496 809.568 Q167.13 809.568 168.936 806.026 Q170.764 802.462 170.764 795.355 Q170.764 788.226 168.936 784.684 Q167.13 781.119 163.496 781.119 M163.496 777.415 Q169.306 777.415 172.362 782.022 Q175.44 786.605 175.44 795.355 Q175.44 804.082 172.362 808.688 Q169.306 813.272 163.496 813.272 Q157.686 813.272 154.607 808.688 Q151.552 804.082 151.552 795.355 Q151.552 786.605 154.607 782.022 Q157.686 777.415 163.496 777.415 Z" fill="#9eb1be" fill-rule="evenodd" fill-opacity="1" /><path clip-path="url(#clip030)" d="M 0 0 M190.51 781.119 Q186.899 781.119 185.07 784.684 Q183.264 788.226 183.264 795.355 Q183.264 802.462 185.07 806.026 Q186.899 809.568 190.51 809.568 Q194.144 809.568 195.95 806.026 Q197.778 802.462 197.778 795.355 Q197.778 788.226 195.95 784.684 Q194.144 781.119 190.51 781.119 M190.51 777.415 Q196.32 777.415 199.375 782.022 Q202.454 786.605 202.454 795.355 Q202.454 804.082 199.375 808.688 Q196.32 813.272 190.51 813.272 Q184.7 813.272 181.621 808.688 Q178.565 804.082 178.565 795.355 Q178.565 786.605 181.621 782.022 Q184.7 777.415 190.51 777.415 Z" fill="#9eb1be" fill-rule="evenodd" fill-opacity="1" /><path clip-path="url(#clip030)" d="M 0 0 M217.523 781.119 Q213.912 781.119 212.084 784.684 Q210.278 788.226 210.278 795.355 Q210.278 802.462 212.084 806.026 Q213.912 809.568 217.523 809.568 Q221.158 809.568 222.963 806.026 Q224.792 802.462 224.792 795.355 Q224.792 788.226 222.963 784.684 Q221.158 781.119 217.523 781.119 M217.523 777.415 Q223.334 777.415 226.389 782.022 Q229.468 786.605 229.468 795.355 Q229.468 804.082 226.389 808.688 Q223.334 813.272 217.523 813.272 Q211.713 813.272 208.635 808.688 Q205.579 804.082 205.579 795.355 Q205.579 786.605 208.635 782.022 Q211.713 777.415 217.523 777.415 Z" fill="#9eb1be" fill-rule="evenodd" fill-opacity="1" /><path clip-path="url(#clip030)" d="M 0 0 M245.116 793.457 Q241.968 793.457 240.116 795.61 Q238.287 797.763 238.287 801.513 Q238.287 805.239 240.116 807.415 Q241.968 809.568 245.116 809.568 Q248.264 809.568 250.093 807.415 Q251.945 805.239 251.945 801.513 Q251.945 797.763 250.093 795.61 Q248.264 793.457 245.116 793.457 M254.398 778.804 L254.398 783.064 Q252.639 782.23 250.833 781.79 Q249.051 781.351 247.292 781.351 Q242.662 781.351 240.209 784.476 Q237.778 787.601 237.431 793.92 Q238.797 791.906 240.857 790.841 Q242.917 789.753 245.394 789.753 Q250.602 789.753 253.611 792.925 Q256.644 796.073 256.644 801.513 Q256.644 806.837 253.496 810.054 Q250.347 813.272 245.116 813.272 Q239.121 813.272 235.949 808.688 Q232.778 804.082 232.778 795.355 Q232.778 787.161 236.667 782.3 Q240.556 777.415 247.107 777.415 Q248.866 777.415 250.648 777.763 Q252.454 778.11 254.398 778.804 Z" fill="#9eb1be" fill-rule="evenodd" fill-opacity="1" /><path clip-path="url(#clip030)" d="M 0 0 M126.783 582.045 Q123.172 582.045 121.343 585.61 Q119.538 589.152 119.538 596.281 Q119.538 603.388 121.343 606.953 Q123.172 610.494 126.783 610.494 Q130.417 610.494 132.223 606.953 Q134.052 603.388 134.052 596.281 Q134.052 589.152 132.223 585.61 Q130.417 582.045 126.783 582.045 M126.783 578.342 Q132.593 578.342 135.649 582.948 Q138.728 587.531 138.728 596.281 Q138.728 605.008 135.649 609.615 Q132.593 614.198 126.783 614.198 Q120.973 614.198 117.894 609.615 Q114.839 605.008 114.839 596.281 Q114.839 587.531 117.894 582.948 Q120.973 578.342 126.783 578.342 Z" fill="#9eb1be" fill-rule="evenodd" fill-opacity="1" /><path clip-path="url(#clip030)" d="M 0 0 M143.797 607.647 L148.681 607.647 L148.681 613.527 L143.797 613.527 L143.797 607.647 Z" fill="#9eb1be" fill-rule="evenodd" fill-opacity="1" /><path clip-path="url(#clip030)" d="M 0 0 M163.751 582.045 Q160.14 582.045 158.311 585.61 Q156.505 589.152 156.505 596.281 Q156.505 603.388 158.311 606.953 Q160.14 610.494 163.751 610.494 Q167.385 610.494 169.19 606.953 Q171.019 603.388 171.019 596.281 Q171.019 589.152 169.19 585.61 Q167.385 582.045 163.751 582.045 M163.751 578.342 Q169.561 578.342 172.616 582.948 Q175.695 587.531 175.695 596.281 Q175.695 605.008 172.616 609.615 Q169.561 614.198 163.751 614.198 Q157.94 614.198 154.862 609.615 Q151.806 605.008 151.806 596.281 Q151.806 587.531 154.862 582.948 Q157.94 578.342 163.751 578.342 Z" fill="#9eb1be" fill-rule="evenodd" fill-opacity="1" /><path clip-path="url(#clip030)" d="M 0 0 M190.764 582.045 Q187.153 582.045 185.325 585.61 Q183.519 589.152 183.519 596.281 Q183.519 603.388 185.325 606.953 Q187.153 610.494 190.764 610.494 Q194.399 610.494 196.204 606.953 Q198.033 603.388 198.033 596.281 Q198.033 589.152 196.204 585.61 Q194.399 582.045 190.764 582.045 M190.764 578.342 Q196.575 578.342 199.63 582.948 Q202.709 587.531 202.709 596.281 Q202.709 605.008 199.63 609.615 Q196.575 614.198 190.764 614.198 Q184.954 614.198 181.876 609.615 Q178.82 605.008 178.82 596.281 Q178.82 587.531 181.876 582.948 Q184.954 578.342 190.764 578.342 Z" fill="#9eb1be" fill-rule="evenodd" fill-opacity="1" /><path clip-path="url(#clip030)" d="M 0 0 M217.778 582.045 Q214.167 582.045 212.338 585.61 Q210.533 589.152 210.533 596.281 Q210.533 603.388 212.338 606.953 Q214.167 610.494 217.778 610.494 Q221.412 610.494 223.218 606.953 Q225.047 603.388 225.047 596.281 Q225.047 589.152 223.218 585.61 Q221.412 582.045 217.778 582.045 M217.778 578.342 Q223.588 578.342 226.644 582.948 Q229.723 587.531 229.723 596.281 Q229.723 605.008 226.644 609.615 Q223.588 614.198 217.778 614.198 Q211.968 614.198 208.889 609.615 Q205.834 605.008 205.834 596.281 Q205.834 587.531 208.889 582.948 Q211.968 578.342 217.778 578.342 Z" fill="#9eb1be" fill-rule="evenodd" fill-opacity="1" /><path clip-path="url(#clip030)" d="M 0 0 M244.792 597.115 Q241.459 597.115 239.537 598.897 Q237.639 600.68 237.639 603.804 Q237.639 606.929 239.537 608.712 Q241.459 610.494 244.792 610.494 Q248.125 610.494 250.046 608.712 Q251.968 606.906 251.968 603.804 Q251.968 600.68 250.046 598.897 Q248.148 597.115 244.792 597.115 M240.116 595.124 Q237.107 594.383 235.417 592.323 Q233.75 590.263 233.75 587.3 Q233.75 583.156 236.69 580.749 Q239.653 578.342 244.792 578.342 Q249.954 578.342 252.894 580.749 Q255.833 583.156 255.833 587.3 Q255.833 590.263 254.144 592.323 Q252.477 594.383 249.491 595.124 Q252.871 595.911 254.746 598.203 Q256.644 600.494 256.644 603.804 Q256.644 608.828 253.565 611.513 Q250.509 614.198 244.792 614.198 Q239.074 614.198 235.996 611.513 Q232.94 608.828 232.94 603.804 Q232.94 600.494 234.838 598.203 Q236.736 595.911 240.116 595.124 M238.403 587.74 Q238.403 590.425 240.07 591.93 Q241.759 593.434 244.792 593.434 Q247.801 593.434 249.491 591.93 Q251.204 590.425 251.204 587.74 Q251.204 585.055 249.491 583.55 Q247.801 582.045 244.792 582.045 Q241.759 582.045 240.07 583.55 Q238.403 585.055 238.403 587.74 Z" fill="#9eb1be" fill-rule="evenodd" fill-opacity="1" /><path clip-path="url(#clip030)" d="M 0 0 M127.917 382.972 Q124.306 382.972 122.478 386.536 Q120.672 390.078 120.672 397.208 Q120.672 404.314 122.478 407.879 Q124.306 411.42 127.917 411.42 Q131.552 411.42 133.357 407.879 Q135.186 404.314 135.186 397.208 Q135.186 390.078 133.357 386.536 Q131.552 382.972 127.917 382.972 M127.917 379.268 Q133.728 379.268 136.783 383.874 Q139.862 388.458 139.862 397.208 Q139.862 405.934 136.783 410.541 Q133.728 415.124 127.917 415.124 Q122.107 415.124 119.029 410.541 Q115.973 405.934 115.973 397.208 Q115.973 388.458 119.029 383.874 Q122.107 379.268 127.917 379.268 Z" fill="#9eb1be" fill-rule="evenodd" fill-opacity="1" /><path clip-path="url(#clip030)" d="M 0 0 M144.931 408.573 L149.816 408.573 L149.816 414.453 L144.931 414.453 L144.931 408.573 Z" fill="#9eb1be" fill-rule="evenodd" fill-opacity="1" /><path clip-path="url(#clip030)" d="M 0 0 M164.885 382.972 Q161.274 382.972 159.445 386.536 Q157.64 390.078 157.64 397.208 Q157.64 404.314 159.445 407.879 Q161.274 411.42 164.885 411.42 Q168.519 411.42 170.325 407.879 Q172.153 404.314 172.153 397.208 Q172.153 390.078 170.325 386.536 Q168.519 382.972 164.885 382.972 M164.885 379.268 Q170.695 379.268 173.751 383.874 Q176.829 388.458 176.829 397.208 Q176.829 405.934 173.751 410.541 Q170.695 415.124 164.885 415.124 Q159.075 415.124 155.996 410.541 Q152.941 405.934 152.941 397.208 Q152.941 388.458 155.996 383.874 Q159.075 379.268 164.885 379.268 Z" fill="#9eb1be" fill-rule="evenodd" fill-opacity="1" /><path clip-path="url(#clip030)" d="M 0 0 M191.899 382.972 Q188.288 382.972 186.459 386.536 Q184.653 390.078 184.653 397.208 Q184.653 404.314 186.459 407.879 Q188.288 411.42 191.899 411.42 Q195.533 411.42 197.338 407.879 Q199.167 404.314 199.167 397.208 Q199.167 390.078 197.338 386.536 Q195.533 382.972 191.899 382.972 M191.899 379.268 Q197.709 379.268 200.764 383.874 Q203.843 388.458 203.843 397.208 Q203.843 405.934 200.764 410.541 Q197.709 415.124 191.899 415.124 Q186.088 415.124 183.01 410.541 Q179.954 405.934 179.954 397.208 Q179.954 388.458 183.01 383.874 Q186.088 379.268 191.899 379.268 Z" fill="#9eb1be" fill-rule="evenodd" fill-opacity="1" /><path clip-path="url(#clip030)" d="M 0 0 M209.723 410.518 L217.361 410.518 L217.361 384.152 L209.051 385.819 L209.051 381.56 L217.315 379.893 L221.991 379.893 L221.991 410.518 L229.63 410.518 L229.63 414.453 L209.723 414.453 L209.723 410.518 Z" fill="#9eb1be" fill-rule="evenodd" fill-opacity="1" /><path clip-path="url(#clip030)" d="M 0 0 M244.699 382.972 Q241.088 382.972 239.259 386.536 Q237.454 390.078 237.454 397.208 Q237.454 404.314 239.259 407.879 Q241.088 411.42 244.699 411.42 Q248.334 411.42 250.139 407.879 Q251.968 404.314 251.968 397.208 Q251.968 390.078 250.139 386.536 Q248.334 382.972 244.699 382.972 M244.699 379.268 Q250.509 379.268 253.565 383.874 Q256.644 388.458 256.644 397.208 Q256.644 405.934 253.565 410.541 Q250.509 415.124 244.699 415.124 Q238.889 415.124 235.81 410.541 Q232.755 405.934 232.755 397.208 Q232.755 388.458 235.81 383.874 Q238.889 379.268 244.699 379.268 Z" fill="#9eb1be" fill-rule="evenodd" fill-opacity="1" /><path clip-path="url(#clip030)" d="M 0 0 M129.515 183.898 Q125.904 183.898 124.075 187.463 Q122.269 191.004 122.269 198.134 Q122.269 205.24 124.075 208.805 Q125.904 212.347 129.515 212.347 Q133.149 212.347 134.954 208.805 Q136.783 205.24 136.783 198.134 Q136.783 191.004 134.954 187.463 Q133.149 183.898 129.515 183.898 M129.515 180.194 Q135.325 180.194 138.38 184.8 Q141.459 189.384 141.459 198.134 Q141.459 206.861 138.38 211.467 Q135.325 216.05 129.515 216.05 Q123.705 216.05 120.626 211.467 Q117.57 206.861 117.57 198.134 Q117.57 189.384 120.626 184.8 Q123.705 180.194 129.515 180.194 Z" fill="#9eb1be" fill-rule="evenodd" fill-opacity="1" /><path clip-path="url(#clip030)" d="M 0 0 M146.529 209.499 L151.413 209.499 L151.413 215.379 L146.529 215.379 L146.529 209.499 Z" fill="#9eb1be" fill-rule="evenodd" fill-opacity="1" /><path clip-path="url(#clip030)" d="M 0 0 M166.482 183.898 Q162.871 183.898 161.042 187.463 Q159.237 191.004 159.237 198.134 Q159.237 205.24 161.042 208.805 Q162.871 212.347 166.482 212.347 Q170.116 212.347 171.922 208.805 Q173.751 205.24 173.751 198.134 Q173.751 191.004 171.922 187.463 Q170.116 183.898 166.482 183.898 M166.482 180.194 Q172.292 180.194 175.348 184.8 Q178.426 189.384 178.426 198.134 Q178.426 206.861 175.348 211.467 Q172.292 216.05 166.482 216.05 Q160.672 216.05 157.593 211.467 Q154.538 206.861 154.538 198.134 Q154.538 189.384 157.593 184.8 Q160.672 180.194 166.482 180.194 Z" fill="#9eb1be" fill-rule="evenodd" fill-opacity="1" /><path clip-path="url(#clip030)" d="M 0 0 M193.496 183.898 Q189.885 183.898 188.056 187.463 Q186.251 191.004 186.251 198.134 Q186.251 205.24 188.056 208.805 Q189.885 212.347 193.496 212.347 Q197.13 212.347 198.936 208.805 Q200.764 205.24 200.764 198.134 Q200.764 191.004 198.936 187.463 Q197.13 183.898 193.496 183.898 M193.496 180.194 Q199.306 180.194 202.362 184.8 Q205.44 189.384 205.44 198.134 Q205.44 206.861 202.362 211.467 Q199.306 216.05 193.496 216.05 Q187.686 216.05 184.607 211.467 Q181.551 206.861 181.551 198.134 Q181.551 189.384 184.607 184.8 Q187.686 180.194 193.496 180.194 Z" fill="#9eb1be" fill-rule="evenodd" fill-opacity="1" /><path clip-path="url(#clip030)" d="M 0 0 M211.32 211.444 L218.959 211.444 L218.959 185.078 L210.649 186.745 L210.649 182.486 L218.912 180.819 L223.588 180.819 L223.588 211.444 L231.227 211.444 L231.227 215.379 L211.32 215.379 L211.32 211.444 Z" fill="#9eb1be" fill-rule="evenodd" fill-opacity="1" /><path clip-path="url(#clip030)" d="M 0 0 M240.324 211.444 L256.644 211.444 L256.644 215.379 L234.699 215.379 L234.699 211.444 Q237.361 208.689 241.945 204.06 Q246.551 199.407 247.732 198.064 Q249.977 195.541 250.857 193.805 Q251.759 192.046 251.759 190.356 Q251.759 187.601 249.815 185.865 Q247.894 184.129 244.792 184.129 Q242.593 184.129 240.139 184.893 Q237.709 185.657 234.931 187.208 L234.931 182.486 Q237.755 181.351 240.209 180.773 Q242.662 180.194 244.699 180.194 Q250.07 180.194 253.264 182.879 Q256.458 185.564 256.458 190.055 Q256.458 192.185 255.648 194.106 Q254.861 196.004 252.755 198.597 Q252.176 199.268 249.074 202.486 Q245.972 205.68 240.324 211.444 Z" fill="#9eb1be" fill-rule="evenodd" fill-opacity="1" /><path clip-path="url(#clip030)" d="M 0 0 M1174.57 1508.52 L1201.88 1508.52 L1201.88 1513.93 L1181 1513.93 L1181 1527.94 L1199.84 1527.94 L1199.84 1533.35 L1181 1533.35 L1181 1556.04 L1174.57 1556.04 L1174.57 1508.52 Z" fill="#9eb1be" fill-rule="evenodd" fill-opacity="1" /><path clip-path="url(#clip030)" d="M 0 0 M1223.94 1525.87 Q1222.95 1525.3 1221.77 1525.04 Q1220.63 1524.76 1219.23 1524.76 Q1214.26 1524.76 1211.59 1528 Q1208.94 1531.22 1208.94 1537.27 L1208.94 1556.04 L1203.06 1556.04 L1203.06 1520.4 L1208.94 1520.4 L1208.94 1525.93 Q1210.79 1522.69 1213.75 1521.13 Q1216.71 1519.54 1220.94 1519.54 Q1221.55 1519.54 1222.28 1519.63 Q1223.01 1519.7 1223.9 1519.85 L1223.94 1525.87 Z" fill="#9eb1be" fill-rule="evenodd" fill-opacity="1" /><path clip-path="url(#clip030)" d="M 0 0 M1259.14 1536.76 L1259.14 1539.62 L1232.21 1539.62 Q1232.59 1545.67 1235.84 1548.85 Q1239.12 1552 1244.94 1552 Q1248.32 1552 1251.47 1551.17 Q1254.65 1550.35 1257.77 1548.69 L1257.77 1554.23 Q1254.62 1555.57 1251.31 1556.27 Q1248 1556.97 1244.59 1556.97 Q1236.06 1556.97 1231.07 1552 Q1226.1 1547.04 1226.1 1538.57 Q1226.1 1529.82 1230.81 1524.69 Q1235.55 1519.54 1243.57 1519.54 Q1250.77 1519.54 1254.94 1524.18 Q1259.14 1528.8 1259.14 1536.76 M1253.28 1535.04 Q1253.22 1530.23 1250.58 1527.37 Q1247.97 1524.5 1243.64 1524.5 Q1238.74 1524.5 1235.78 1527.27 Q1232.85 1530.04 1232.4 1535.07 L1253.28 1535.04 Z" fill="#9eb1be" fill-rule="evenodd" fill-opacity="1" /><path clip-path="url(#clip030)" d="M 0 0 M1268.78 1538.25 Q1268.78 1544.71 1271.42 1548.4 Q1274.1 1552.07 1278.74 1552.07 Q1283.39 1552.07 1286.07 1548.4 Q1288.74 1544.71 1288.74 1538.25 Q1288.74 1531.79 1286.07 1528.13 Q1283.39 1524.44 1278.74 1524.44 Q1274.1 1524.44 1271.42 1528.13 Q1268.78 1531.79 1268.78 1538.25 M1288.74 1550.7 Q1286.89 1553.88 1284.06 1555.44 Q1281.26 1556.97 1277.31 1556.97 Q1270.85 1556.97 1266.78 1551.81 Q1262.73 1546.65 1262.73 1538.25 Q1262.73 1529.85 1266.78 1524.69 Q1270.85 1519.54 1277.31 1519.54 Q1281.26 1519.54 1284.06 1521.1 Q1286.89 1522.62 1288.74 1525.81 L1288.74 1520.4 L1294.6 1520.4 L1294.6 1569.6 L1288.74 1569.6 L1288.74 1550.7 Z" fill="#9eb1be" fill-rule="evenodd" fill-opacity="1" /><path clip-path="url(#clip030)" d="M 0 0 M1300.13 1541.98 L1300.13 1520.4 L1305.99 1520.4 L1305.99 1541.75 Q1305.99 1546.81 1307.96 1549.36 Q1309.94 1551.87 1313.88 1551.87 Q1318.63 1551.87 1321.36 1548.85 Q1324.13 1545.83 1324.13 1540.61 L1324.13 1520.4 L1329.99 1520.4 L1329.99 1556.04 L1324.13 1556.04 L1324.13 1550.57 Q1322 1553.82 1319.17 1555.41 Q1316.37 1556.97 1312.64 1556.97 Q1306.5 1556.97 1303.32 1553.15 Q1300.13 1549.33 1300.13 1541.98 M1314.87 1519.54 L1314.87 1519.54 Z" fill="#9eb1be" fill-rule="evenodd" fill-opacity="1" /><path clip-path="url(#clip030)" d="M 0 0 M1366.62 1536.76 L1366.62 1539.62 L1339.7 1539.62 Q1340.08 1545.67 1343.32 1548.85 Q1346.6 1552 1352.43 1552 Q1355.8 1552 1358.95 1551.17 Q1362.14 1550.35 1365.25 1548.69 L1365.25 1554.23 Q1362.1 1555.57 1358.79 1556.27 Q1355.48 1556.97 1352.08 1556.97 Q1343.55 1556.97 1338.55 1552 Q1333.59 1547.04 1333.59 1538.57 Q1333.59 1529.82 1338.3 1524.69 Q1343.04 1519.54 1351.06 1519.54 Q1358.25 1519.54 1362.42 1524.18 Q1366.62 1528.8 1366.62 1536.76 M1360.77 1535.04 Q1360.7 1530.23 1358.06 1527.37 Q1355.45 1524.5 1351.12 1524.5 Q1346.22 1524.5 1343.26 1527.27 Q1340.33 1530.04 1339.89 1535.07 L1360.77 1535.04 Z" fill="#9eb1be" fill-rule="evenodd" fill-opacity="1" /><path clip-path="url(#clip030)" d="M 0 0 M1402.4 1534.53 L1402.4 1556.04 L1396.54 1556.04 L1396.54 1534.72 Q1396.54 1529.66 1394.57 1527.14 Q1392.6 1524.63 1388.65 1524.63 Q1383.91 1524.63 1381.17 1527.65 Q1378.43 1530.68 1378.43 1535.9 L1378.43 1556.04 L1372.54 1556.04 L1372.54 1520.4 L1378.43 1520.4 L1378.43 1525.93 Q1380.53 1522.72 1383.36 1521.13 Q1386.23 1519.54 1389.95 1519.54 Q1396.1 1519.54 1399.25 1523.36 Q1402.4 1527.14 1402.4 1534.53 Z" fill="#9eb1be" fill-rule="evenodd" fill-opacity="1" /><path clip-path="url(#clip030)" d="M 0 0 M1434.2 1521.76 L1434.2 1527.24 Q1431.71 1525.87 1429.2 1525.2 Q1426.72 1524.5 1424.17 1524.5 Q1418.47 1524.5 1415.32 1528.13 Q1412.17 1531.73 1412.17 1538.25 Q1412.17 1544.78 1415.32 1548.4 Q1418.47 1552 1424.17 1552 Q1426.72 1552 1429.2 1551.33 Q1431.71 1550.63 1434.2 1549.26 L1434.2 1554.68 Q1431.74 1555.82 1429.1 1556.39 Q1426.49 1556.97 1423.53 1556.97 Q1415.48 1556.97 1410.74 1551.91 Q1406 1546.85 1406 1538.25 Q1406 1529.53 1410.77 1524.53 Q1415.58 1519.54 1423.91 1519.54 Q1426.62 1519.54 1429.2 1520.11 Q1431.78 1520.65 1434.2 1521.76 Z" fill="#9eb1be" fill-rule="evenodd" fill-opacity="1" /><path clip-path="url(#clip030)" d="M 0 0 M1455.17 1559.35 Q1452.69 1565.72 1450.33 1567.66 Q1447.98 1569.6 1444.03 1569.6 L1439.35 1569.6 L1439.35 1564.7 L1442.79 1564.7 Q1445.21 1564.7 1446.54 1563.56 Q1447.88 1562.41 1449.5 1558.14 L1450.55 1555.47 L1436.14 1520.4 L1442.34 1520.4 L1453.48 1548.28 L1464.62 1520.4 L1470.83 1520.4 L1455.17 1559.35 Z" fill="#9eb1be" fill-rule="evenodd" fill-opacity="1" /><path clip-path="url(#clip030)" d="M 0 0 M46.818 860.839 L70.4666 869.56 L70.4666 852.086 L46.818 860.839 M40.4842 864.468 L40.4842 857.179 L88.0042 839.068 L88.0042 845.752 L75.8138 850.081 L75.8138 871.502 L88.0042 875.83 L88.0042 882.61 L40.4842 864.468 Z" fill="#9eb1be" fill-rule="evenodd" fill-opacity="1" /><path clip-path="url(#clip030)" d="M 0 0 M59.1993 805.171 Q55.2526 802.975 53.3747 799.919 Q51.4968 796.864 51.4968 792.726 Q51.4968 787.156 55.4117 784.132 Q59.2948 781.109 66.4881 781.109 L88.0042 781.109 L88.0042 786.997 L66.679 786.997 Q61.5546 786.997 59.072 788.811 Q56.5894 790.625 56.5894 794.349 Q56.5894 798.901 59.6131 801.543 Q62.6368 804.184 67.8567 804.184 L88.0042 804.184 L88.0042 810.073 L66.679 810.073 Q61.5228 810.073 59.072 811.887 Q56.5894 813.701 56.5894 817.489 Q56.5894 821.977 59.6449 824.618 Q62.6686 827.26 67.8567 827.26 L88.0042 827.26 L88.0042 833.148 L52.3562 833.148 L52.3562 827.26 L57.8944 827.26 Q54.616 825.255 53.0564 822.454 Q51.4968 819.653 51.4968 815.802 Q51.4968 811.919 53.4702 809.213 Q55.4436 806.476 59.1993 805.171 Z" fill="#9eb1be" fill-rule="evenodd" fill-opacity="1" /><path clip-path="url(#clip030)" d="M 0 0 M82.657 769.3 L101.563 769.3 L101.563 775.189 L52.3562 775.189 L52.3562 769.3 L57.7671 769.3 Q54.5842 767.454 53.0564 764.653 Q51.4968 761.821 51.4968 757.906 Q51.4968 751.413 56.6531 747.37 Q61.8093 743.296 70.212 743.296 Q78.6147 743.296 83.771 747.37 Q88.9272 751.413 88.9272 757.906 Q88.9272 761.821 87.3994 764.653 Q85.8398 767.454 82.657 769.3 M70.212 749.376 Q63.7508 749.376 60.0905 752.049 Q56.3984 754.691 56.3984 759.338 Q56.3984 763.985 60.0905 766.659 Q63.7508 769.3 70.212 769.3 Q76.6732 769.3 80.3653 766.659 Q84.0256 763.985 84.0256 759.338 Q84.0256 754.691 80.3653 752.049 Q76.6732 749.376 70.212 749.376 Z" fill="#9eb1be" fill-rule="evenodd" fill-opacity="1" /><path clip-path="url(#clip030)" d="M 0 0 M38.479 737.154 L38.479 731.297 L88.0042 731.297 L88.0042 737.154 L38.479 737.154 Z" fill="#9eb1be" fill-rule="evenodd" fill-opacity="1" /><path clip-path="url(#clip030)" d="M 0 0 M52.3562 725.154 L52.3562 719.298 L88.0042 719.298 L88.0042 725.154 L52.3562 725.154 M38.479 725.154 L38.479 719.298 L45.895 719.298 L45.895 725.154 L38.479 725.154 Z" fill="#9eb1be" fill-rule="evenodd" fill-opacity="1" /><path clip-path="url(#clip030)" d="M 0 0 M42.2347 707.362 L52.3562 707.362 L52.3562 695.299 L56.9077 695.299 L56.9077 707.362 L76.2594 707.362 Q80.6199 707.362 81.8613 706.184 Q83.1026 704.975 83.1026 701.315 L83.1026 695.299 L88.0042 695.299 L88.0042 701.315 Q88.0042 708.094 85.4897 710.672 Q82.9434 713.25 76.2594 713.25 L56.9077 713.25 L56.9077 717.547 L52.3562 717.547 L52.3562 713.25 L42.2347 713.25 L42.2347 707.362 Z" fill="#9eb1be" fill-rule="evenodd" fill-opacity="1" /><path clip-path="url(#clip030)" d="M 0 0 M73.9359 689.761 L52.3562 689.761 L52.3562 683.904 L73.7131 683.904 Q78.7739 683.904 81.3202 681.931 Q83.8346 679.958 83.8346 676.011 Q83.8346 671.268 80.8109 668.531 Q77.7872 665.762 72.5673 665.762 L52.3562 665.762 L52.3562 659.906 L88.0042 659.906 L88.0042 665.762 L82.5296 665.762 Q85.7762 667.895 87.3676 670.727 Q88.9272 673.528 88.9272 677.252 Q88.9272 683.395 85.1078 686.578 Q81.2883 689.761 73.9359 689.761 M51.4968 675.024 L51.4968 675.024 Z" fill="#9eb1be" fill-rule="evenodd" fill-opacity="1" /><path clip-path="url(#clip030)" d="M 0 0 M57.7671 630.305 L38.479 630.305 L38.479 624.449 L88.0042 624.449 L88.0042 630.305 L82.657 630.305 Q85.8398 632.151 87.3994 634.984 Q88.9272 637.785 88.9272 641.732 Q88.9272 648.193 83.771 652.267 Q78.6147 656.309 70.212 656.309 Q61.8093 656.309 56.6531 652.267 Q51.4968 648.193 51.4968 641.732 Q51.4968 637.785 53.0564 634.984 Q54.5842 632.151 57.7671 630.305 M70.212 650.262 Q76.6732 650.262 80.3653 647.62 Q84.0256 644.946 84.0256 640.299 Q84.0256 635.652 80.3653 632.979 Q76.6732 630.305 70.212 630.305 Q63.7508 630.305 60.0905 632.979 Q56.3984 635.652 56.3984 640.299 Q56.3984 644.946 60.0905 647.62 Q63.7508 650.262 70.212 650.262 Z" fill="#9eb1be" fill-rule="evenodd" fill-opacity="1" /><path clip-path="url(#clip030)" d="M 0 0 M68.7161 587.814 L71.5806 587.814 L71.5806 614.741 Q77.6281 614.359 80.8109 611.113 Q83.9619 607.834 83.9619 602.01 Q83.9619 598.636 83.1344 595.485 Q82.3069 592.302 80.6518 589.183 L86.1899 589.183 Q87.5267 592.334 88.227 595.644 Q88.9272 598.954 88.9272 602.36 Q88.9272 610.89 83.9619 615.887 Q78.9967 620.852 70.5303 620.852 Q61.7774 620.852 56.6531 616.141 Q51.4968 611.399 51.4968 603.378 Q51.4968 596.185 56.1438 592.015 Q60.7589 587.814 68.7161 587.814 M66.9973 593.67 Q62.1912 593.734 59.3266 596.376 Q56.4621 598.986 56.4621 603.315 Q56.4621 608.216 59.2312 611.176 Q62.0002 614.104 67.0292 614.55 L66.9973 593.67 Z" fill="#9eb1be" fill-rule="evenodd" fill-opacity="1" /><polyline clip-path="url(#clip032)" style="stroke:#fe4365; stroke-width:4; stroke-opacity:1; fill:none" points="
  350.949,1336.32 366.373,1358.48 381.798,1339.47 397.223,1353.59 412.647,1344.25 428.072,1341.96 443.496,1334.8 458.921,1331.13 474.346,1348.68 489.77,1355.45 
  505.195,1327.13 520.62,1290.95 536.044,1330.2 551.469,1325.71 566.893,1306.8 582.318,1313.12 597.743,1364.66 613.167,1235.64 628.592,1282.69 644.016,1350.04 
  659.441,1363.26 674.866,1294.64 690.29,1265.66 705.715,1287.75 721.14,1384.24 736.564,1291 751.989,1361.42 767.413,1233.35 782.838,1294.95 798.263,1321.3 
  813.687,1295.44 829.112,1144.72 844.537,1286.58 859.961,1124.21 875.386,827.314 890.81,812.742 906.235,996.793 921.66,862.014 937.084,794.2 952.509,86.1857 
  967.934,801.287 983.358,933.668 998.783,1059.94 1014.21,1246.64 1029.63,1140.26 1045.06,1162.11 1060.48,1116.82 1075.91,1346.06 1091.33,1361.23 1106.76,1286.57 
  1122.18,1314.6 1137.6,1301.46 1153.03,1383.74 1168.45,1315.61 1183.88,1378.84 1199.3,1320.61 1214.73,1343.54 1230.15,1369.09 1245.58,1368.7 1261,1362.73 
  1276.43,1345.72 1291.85,1309.48 1307.28,1337.13 1322.7,1355.63 1338.12,1337.13 1353.55,1309.48 1368.97,1345.72 1384.4,1362.73 1399.82,1368.7 1415.25,1369.09 
  1430.67,1343.54 1446.1,1320.61 1461.52,1378.84 1476.95,1315.61 1492.37,1383.74 1507.8,1301.46 1523.22,1314.6 1538.64,1286.57 1554.07,1361.23 1569.49,1346.06 
  1584.92,1116.82 1600.34,1162.11 1615.77,1140.26 1631.19,1246.64 1646.62,1059.94 1662.04,933.668 1677.47,801.287 1692.89,86.1857 1708.32,794.2 1723.74,862.014 
  1739.16,996.793 1754.59,812.742 1770.01,827.314 1785.44,1124.21 1800.86,1286.58 1816.29,1144.72 1831.71,1295.44 1847.14,1321.3 1862.56,1294.95 1877.99,1233.35 
  1893.41,1361.42 1908.84,1291 1924.26,1384.24 1939.68,1287.75 1955.11,1265.66 1970.53,1294.64 1985.96,1363.26 2001.38,1350.04 2016.81,1282.69 2032.23,1235.64 
  2047.66,1364.66 2063.08,1313.12 2078.51,1306.8 2093.93,1325.71 2109.36,1330.2 2124.78,1290.95 2140.2,1327.13 2155.63,1355.45 2171.05,1348.68 2186.48,1331.13 
  2201.9,1334.8 2217.33,1341.96 2232.75,1344.25 2248.18,1353.59 2263.6,1339.47 2279.03,1358.48 2294.45,1336.32 
  "/>
</svg>
