<?xml version="1.0" encoding="utf-8"?>
<svg xmlns="http://www.w3.org/2000/svg" xmlns:xlink="http://www.w3.org/1999/xlink" width="600" height="400" viewBox="0 0 2400 1600">
<defs>
  <clipPath id="clip730">
    <rect x="0" y="0" width="2400" height="1600"/>
  </clipPath>
</defs>
<path clip-path="url(#clip730)" d="
M0 1600 L2400 1600 L2400 0 L0 0  Z
  " fill="#282c34" fill-rule="evenodd" fill-opacity="1"/>
<defs>
  <clipPath id="clip731">
    <rect x="480" y="0" width="1681" height="1600"/>
  </clipPath>
</defs>
<path clip-path="url(#clip730)" d="
M292.644 1423.18 L2352.76 1423.18 L2352.76 47.2441 L292.644 47.2441  Z
  " fill="#21252b" fill-rule="evenodd" fill-opacity="1"/>
<defs>
  <clipPath id="clip732">
    <rect x="292" y="47" width="2061" height="1377"/>
  </clipPath>
</defs>
<polyline clip-path="url(#clip732)" style="stroke:#adb2b7; stroke-width:2; stroke-opacity:0.1; fill:none" points="
  350.949,1423.18 350.949,47.2441 
  "/>
<polyline clip-path="url(#clip732)" style="stroke:#adb2b7; stroke-width:2; stroke-opacity:0.1; fill:none" points="
  836.824,1423.18 836.824,47.2441 
  "/>
<polyline clip-path="url(#clip732)" style="stroke:#adb2b7; stroke-width:2; stroke-opacity:0.1; fill:none" points="
  1322.7,1423.18 1322.7,47.2441 
  "/>
<polyline clip-path="url(#clip732)" style="stroke:#adb2b7; stroke-width:2; stroke-opacity:0.1; fill:none" points="
  1808.58,1423.18 1808.58,47.2441 
  "/>
<polyline clip-path="url(#clip732)" style="stroke:#adb2b7; stroke-width:2; stroke-opacity:0.1; fill:none" points="
  2294.45,1423.18 2294.45,47.2441 
  "/>
<polyline clip-path="url(#clip730)" style="stroke:#adb2b7; stroke-width:4; stroke-opacity:1; fill:none" points="
  292.644,1423.18 2352.76,1423.18 
  "/>
<polyline clip-path="url(#clip730)" style="stroke:#adb2b7; stroke-width:4; stroke-opacity:1; fill:none" points="
  350.949,1423.18 350.949,1406.67 
  "/>
<polyline clip-path="url(#clip730)" style="stroke:#adb2b7; stroke-width:4; stroke-opacity:1; fill:none" points="
  836.824,1423.18 836.824,1406.67 
  "/>
<polyline clip-path="url(#clip730)" style="stroke:#adb2b7; stroke-width:4; stroke-opacity:1; fill:none" points="
  1322.7,1423.18 1322.7,1406.67 
  "/>
<polyline clip-path="url(#clip730)" style="stroke:#adb2b7; stroke-width:4; stroke-opacity:1; fill:none" points="
  1808.58,1423.18 1808.58,1406.67 
  "/>
<polyline clip-path="url(#clip730)" style="stroke:#adb2b7; stroke-width:4; stroke-opacity:1; fill:none" points="
  2294.45,1423.18 2294.45,1406.67 
  "/>
<path clip-path="url(#clip730)" d="M 0 0 M350.949 1452.37 Q347.338 1452.37 345.509 1455.94 Q343.703 1459.48 343.703 1466.61 Q343.703 1473.71 345.509 1477.28 Q347.338 1480.82 350.949 1480.82 Q354.583 1480.82 356.389 1477.28 Q358.217 1473.71 358.217 1466.61 Q358.217 1459.48 356.389 1455.94 Q354.583 1452.37 350.949 1452.37 M350.949 1448.67 Q356.759 1448.67 359.814 1453.27 Q362.893 1457.86 362.893 1466.61 Q362.893 1475.33 359.814 1479.94 Q356.759 1484.52 350.949 1484.52 Q345.139 1484.52 342.06 1479.94 Q339.004 1475.33 339.004 1466.61 Q339.004 1457.86 342.06 1453.27 Q345.139 1448.67 350.949 1448.67 Z" fill="#9eb1be" fill-rule="evenodd" fill-opacity="1" /><path clip-path="url(#clip730)" d="M 0 0 M827.206 1479.92 L834.845 1479.92 L834.845 1453.55 L826.535 1455.22 L826.535 1450.96 L834.799 1449.29 L839.475 1449.29 L839.475 1479.92 L847.114 1479.92 L847.114 1483.85 L827.206 1483.85 L827.206 1479.92 Z" fill="#9eb1be" fill-rule="evenodd" fill-opacity="1" /><path clip-path="url(#clip730)" d="M 0 0 M1317.35 1479.92 L1333.67 1479.92 L1333.67 1483.85 L1311.73 1483.85 L1311.73 1479.92 Q1314.39 1477.16 1318.97 1472.53 Q1323.58 1467.88 1324.76 1466.54 Q1327.01 1464.01 1327.88 1462.28 Q1328.79 1460.52 1328.79 1458.83 Q1328.79 1456.07 1326.84 1454.34 Q1324.92 1452.6 1321.82 1452.6 Q1319.62 1452.6 1317.17 1453.37 Q1314.74 1454.13 1311.96 1455.68 L1311.96 1450.96 Q1314.78 1449.82 1317.24 1449.25 Q1319.69 1448.67 1321.73 1448.67 Q1327.1 1448.67 1330.29 1451.35 Q1333.49 1454.04 1333.49 1458.53 Q1333.49 1460.66 1332.68 1462.58 Q1331.89 1464.48 1329.78 1467.07 Q1329.2 1467.74 1326.1 1470.96 Q1323 1474.15 1317.35 1479.92 Z" fill="#9eb1be" fill-rule="evenodd" fill-opacity="1" /><path clip-path="url(#clip730)" d="M 0 0 M1812.82 1465.22 Q1816.18 1465.94 1818.05 1468.2 Q1819.95 1470.47 1819.95 1473.81 Q1819.95 1478.92 1816.43 1481.72 Q1812.92 1484.52 1806.43 1484.52 Q1804.26 1484.52 1801.94 1484.08 Q1799.65 1483.67 1797.2 1482.81 L1797.2 1478.3 Q1799.14 1479.43 1801.46 1480.01 Q1803.77 1480.59 1806.3 1480.59 Q1810.69 1480.59 1812.99 1478.85 Q1815.3 1477.12 1815.3 1473.81 Q1815.3 1470.75 1813.15 1469.04 Q1811.02 1467.3 1807.2 1467.3 L1803.17 1467.3 L1803.17 1463.46 L1807.38 1463.46 Q1810.83 1463.46 1812.66 1462.09 Q1814.49 1460.7 1814.49 1458.11 Q1814.49 1455.45 1812.59 1454.04 Q1810.72 1452.6 1807.2 1452.6 Q1805.28 1452.6 1803.08 1453.02 Q1800.88 1453.44 1798.24 1454.31 L1798.24 1450.15 Q1800.9 1449.41 1803.22 1449.04 Q1805.55 1448.67 1807.61 1448.67 Q1812.94 1448.67 1816.04 1451.1 Q1819.14 1453.5 1819.14 1457.63 Q1819.14 1460.5 1817.5 1462.49 Q1815.86 1464.45 1812.82 1465.22 Z" fill="#9eb1be" fill-rule="evenodd" fill-opacity="1" /><path clip-path="url(#clip730)" d="M 0 0 M2297.46 1453.37 L2285.65 1471.81 L2297.46 1471.81 L2297.46 1453.37 M2296.23 1449.29 L2302.11 1449.29 L2302.11 1471.81 L2307.04 1471.81 L2307.04 1475.7 L2302.11 1475.7 L2302.11 1483.85 L2297.46 1483.85 L2297.46 1475.7 L2281.86 1475.7 L2281.86 1471.19 L2296.23 1449.29 Z" fill="#9eb1be" fill-rule="evenodd" fill-opacity="1" /><path clip-path="url(#clip730)" d="M 0 0 M1174.57 1508.52 L1201.88 1508.52 L1201.88 1513.93 L1181 1513.93 L1181 1527.94 L1199.84 1527.94 L1199.84 1533.35 L1181 1533.35 L1181 1556.04 L1174.57 1556.04 L1174.57 1508.52 Z" fill="#9eb1be" fill-rule="evenodd" fill-opacity="1" /><path clip-path="url(#clip730)" d="M 0 0 M1223.94 1525.87 Q1222.95 1525.3 1221.77 1525.04 Q1220.63 1524.76 1219.23 1524.76 Q1214.26 1524.76 1211.59 1528 Q1208.94 1531.22 1208.94 1537.27 L1208.94 1556.04 L1203.06 1556.04 L1203.06 1520.4 L1208.94 1520.4 L1208.94 1525.93 Q1210.79 1522.69 1213.75 1521.13 Q1216.71 1519.54 1220.94 1519.54 Q1221.55 1519.54 1222.28 1519.63 Q1223.01 1519.7 1223.9 1519.85 L1223.94 1525.87 Z" fill="#9eb1be" fill-rule="evenodd" fill-opacity="1" /><path clip-path="url(#clip730)" d="M 0 0 M1259.14 1536.76 L1259.14 1539.62 L1232.21 1539.62 Q1232.59 1545.67 1235.84 1548.85 Q1239.12 1552 1244.94 1552 Q1248.32 1552 1251.47 1551.17 Q1254.65 1550.35 1257.77 1548.69 L1257.77 1554.23 Q1254.62 1555.57 1251.31 1556.27 Q1248 1556.97 1244.59 1556.97 Q1236.06 1556.97 1231.07 1552 Q1226.1 1547.04 1226.1 1538.57 Q1226.1 1529.82 1230.81 1524.69 Q1235.55 1519.54 1243.57 1519.54 Q1250.77 1519.54 1254.94 1524.18 Q1259.14 1528.8 1259.14 1536.76 M1253.28 1535.04 Q1253.22 1530.23 1250.58 1527.37 Q1247.97 1524.5 1243.64 1524.5 Q1238.74 1524.5 1235.78 1527.27 Q1232.85 1530.04 1232.4 1535.07 L1253.28 1535.04 Z" fill="#9eb1be" fill-rule="evenodd" fill-opacity="1" /><path clip-path="url(#clip730)" d="M 0 0 M1268.78 1538.25 Q1268.78 1544.71 1271.42 1548.4 Q1274.1 1552.07 1278.74 1552.07 Q1283.39 1552.07 1286.07 1548.4 Q1288.74 1544.71 1288.74 1538.25 Q1288.74 1531.79 1286.07 1528.13 Q1283.39 1524.44 1278.74 1524.44 Q1274.1 1524.44 1271.42 1528.13 Q1268.78 1531.79 1268.78 1538.25 M1288.74 1550.7 Q1286.89 1553.88 1284.06 1555.44 Q1281.26 1556.97 1277.31 1556.97 Q1270.85 1556.97 1266.78 1551.81 Q1262.73 1546.65 1262.73 1538.25 Q1262.73 1529.85 1266.78 1524.69 Q1270.85 1519.54 1277.31 1519.54 Q1281.26 1519.54 1284.06 1521.1 Q1286.89 1522.62 1288.74 1525.81 L1288.74 1520.4 L1294.6 1520.4 L1294.6 1569.6 L1288.74 1569.6 L1288.74 1550.7 Z" fill="#9eb1be" fill-rule="evenodd" fill-opacity="1" /><path clip-path="url(#clip730)" d="M 0 0 M1300.13 1541.98 L1300.13 1520.4 L1305.99 1520.4 L1305.99 1541.75 Q1305.99 1546.81 1307.96 1549.36 Q1309.94 1551.87 1313.88 1551.87 Q1318.63 1551.87 1321.36 1548.85 Q1324.13 1545.83 1324.13 1540.61 L1324.13 1520.4 L1329.99 1520.4 L1329.99 1556.04 L1324.13 1556.04 L1324.13 1550.57 Q1322 1553.82 1319.17 1555.41 Q1316.37 1556.97 1312.64 1556.97 Q1306.5 1556.97 1303.32 1553.15 Q1300.13 1549.33 1300.13 1541.98 M1314.87 1519.54 L1314.87 1519.54 Z" fill="#9eb1be" fill-rule="evenodd" fill-opacity="1" /><path clip-path="url(#clip730)" d="M 0 0 M1366.62 1536.76 L1366.62 1539.62 L1339.7 1539.62 Q1340.08 1545.67 1343.32 1548.85 Q1346.6 1552 1352.43 1552 Q1355.8 1552 1358.95 1551.17 Q1362.14 1550.35 1365.25 1548.69 L1365.25 1554.23 Q1362.1 1555.57 1358.79 1556.27 Q1355.48 1556.97 1352.08 1556.97 Q1343.55 1556.97 1338.55 1552 Q1333.59 1547.04 1333.59 1538.57 Q1333.59 1529.82 1338.3 1524.69 Q1343.04 1519.54 1351.06 1519.54 Q1358.25 1519.54 1362.42 1524.18 Q1366.62 1528.8 1366.62 1536.76 M1360.77 1535.04 Q1360.7 1530.23 1358.06 1527.37 Q1355.45 1524.5 1351.12 1524.5 Q1346.22 1524.5 1343.26 1527.27 Q1340.33 1530.04 1339.89 1535.07 L1360.77 1535.04 Z" fill="#9eb1be" fill-rule="evenodd" fill-opacity="1" /><path clip-path="url(#clip730)" d="M 0 0 M1402.4 1534.53 L1402.4 1556.04 L1396.54 1556.04 L1396.54 1534.72 Q1396.54 1529.66 1394.57 1527.14 Q1392.6 1524.63 1388.65 1524.63 Q1383.91 1524.63 1381.17 1527.65 Q1378.43 1530.68 1378.43 1535.9 L1378.43 1556.04 L1372.54 1556.04 L1372.54 1520.4 L1378.43 1520.4 L1378.43 1525.93 Q1380.53 1522.72 1383.36 1521.13 Q1386.23 1519.54 1389.95 1519.54 Q1396.1 1519.54 1399.25 1523.36 Q1402.4 1527.14 1402.4 1534.53 Z" fill="#9eb1be" fill-rule="evenodd" fill-opacity="1" /><path clip-path="url(#clip730)" d="M 0 0 M1434.2 1521.76 L1434.2 1527.24 Q1431.71 1525.87 1429.2 1525.2 Q1426.72 1524.5 1424.17 1524.5 Q1418.47 1524.5 1415.32 1528.13 Q1412.17 1531.73 1412.17 1538.25 Q1412.17 1544.78 1415.32 1548.4 Q1418.47 1552 1424.17 1552 Q1426.72 1552 1429.2 1551.33 Q1431.71 1550.63 1434.2 1549.26 L1434.2 1554.68 Q1431.74 1555.82 1429.1 1556.39 Q1426.49 1556.97 1423.53 1556.97 Q1415.48 1556.97 1410.74 1551.91 Q1406 1546.85 1406 1538.25 Q1406 1529.53 1410.77 1524.53 Q1415.58 1519.54 1423.91 1519.54 Q1426.62 1519.54 1429.2 1520.11 Q1431.78 1520.65 1434.2 1521.76 Z" fill="#9eb1be" fill-rule="evenodd" fill-opacity="1" /><path clip-path="url(#clip730)" d="M 0 0 M1455.17 1559.35 Q1452.69 1565.72 1450.33 1567.66 Q1447.98 1569.6 1444.03 1569.6 L1439.35 1569.6 L1439.35 1564.7 L1442.79 1564.7 Q1445.21 1564.7 1446.54 1563.56 Q1447.88 1562.41 1449.5 1558.14 L1450.55 1555.47 L1436.14 1520.4 L1442.34 1520.4 L1453.48 1548.28 L1464.62 1520.4 L1470.83 1520.4 L1455.17 1559.35 Z" fill="#9eb1be" fill-rule="evenodd" fill-opacity="1" /><polyline clip-path="url(#clip732)" style="stroke:#adb2b7; stroke-width:2; stroke-opacity:0.1; fill:none" points="
  292.644,1403.43 2352.76,1403.43 
  "/>
<polyline clip-path="url(#clip732)" style="stroke:#adb2b7; stroke-width:2; stroke-opacity:0.1; fill:none" points="
  292.644,1194.81 2352.76,1194.81 
  "/>
<polyline clip-path="url(#clip732)" style="stroke:#adb2b7; stroke-width:2; stroke-opacity:0.1; fill:none" points="
  292.644,986.183 2352.76,986.183 
  "/>
<polyline clip-path="url(#clip732)" style="stroke:#adb2b7; stroke-width:2; stroke-opacity:0.1; fill:none" points="
  292.644,777.558 2352.76,777.558 
  "/>
<polyline clip-path="url(#clip732)" style="stroke:#adb2b7; stroke-width:2; stroke-opacity:0.1; fill:none" points="
  292.644,568.934 2352.76,568.934 
  "/>
<polyline clip-path="url(#clip732)" style="stroke:#adb2b7; stroke-width:2; stroke-opacity:0.1; fill:none" points="
  292.644,360.309 2352.76,360.309 
  "/>
<polyline clip-path="url(#clip732)" style="stroke:#adb2b7; stroke-width:2; stroke-opacity:0.1; fill:none" points="
  292.644,151.684 2352.76,151.684 
  "/>
<polyline clip-path="url(#clip730)" style="stroke:#adb2b7; stroke-width:4; stroke-opacity:1; fill:none" points="
  292.644,1423.18 292.644,47.2441 
  "/>
<polyline clip-path="url(#clip730)" style="stroke:#adb2b7; stroke-width:4; stroke-opacity:1; fill:none" points="
  292.644,1403.43 317.365,1403.43 
  "/>
<polyline clip-path="url(#clip730)" style="stroke:#adb2b7; stroke-width:4; stroke-opacity:1; fill:none" points="
  292.644,1194.81 317.365,1194.81 
  "/>
<polyline clip-path="url(#clip730)" style="stroke:#adb2b7; stroke-width:4; stroke-opacity:1; fill:none" points="
  292.644,986.183 317.365,986.183 
  "/>
<polyline clip-path="url(#clip730)" style="stroke:#adb2b7; stroke-width:4; stroke-opacity:1; fill:none" points="
  292.644,777.558 317.365,777.558 
  "/>
<polyline clip-path="url(#clip730)" style="stroke:#adb2b7; stroke-width:4; stroke-opacity:1; fill:none" points="
  292.644,568.934 317.365,568.934 
  "/>
<polyline clip-path="url(#clip730)" style="stroke:#adb2b7; stroke-width:4; stroke-opacity:1; fill:none" points="
  292.644,360.309 317.365,360.309 
  "/>
<polyline clip-path="url(#clip730)" style="stroke:#adb2b7; stroke-width:4; stroke-opacity:1; fill:none" points="
  292.644,151.684 317.365,151.684 
  "/>
<path clip-path="url(#clip730)" d="M 0 0 M126.691 1389.23 Q123.08 1389.23 121.251 1392.8 Q119.445 1396.34 119.445 1403.47 Q119.445 1410.57 121.251 1414.14 Q123.08 1417.68 126.691 1417.68 Q130.325 1417.68 132.13 1414.14 Q133.959 1410.57 133.959 1403.47 Q133.959 1396.34 132.13 1392.8 Q130.325 1389.23 126.691 1389.23 M126.691 1385.53 Q132.501 1385.53 135.556 1390.13 Q138.635 1394.72 138.635 1403.47 Q138.635 1412.19 135.556 1416.8 Q132.501 1421.38 126.691 1421.38 Q120.88 1421.38 117.802 1416.8 Q114.746 1412.19 114.746 1403.47 Q114.746 1394.72 117.802 1390.13 Q120.88 1385.53 126.691 1385.53 Z" fill="#9eb1be" fill-rule="evenodd" fill-opacity="1" /><path clip-path="url(#clip730)" d="M 0 0 M143.704 1414.83 L148.589 1414.83 L148.589 1420.71 L143.704 1420.71 L143.704 1414.83 Z" fill="#9eb1be" fill-rule="evenodd" fill-opacity="1" /><path clip-path="url(#clip730)" d="M 0 0 M163.658 1389.23 Q160.047 1389.23 158.218 1392.8 Q156.413 1396.34 156.413 1403.47 Q156.413 1410.57 158.218 1414.14 Q160.047 1417.68 163.658 1417.68 Q167.292 1417.68 169.098 1414.14 Q170.927 1410.57 170.927 1403.47 Q170.927 1396.34 169.098 1392.8 Q167.292 1389.23 163.658 1389.23 M163.658 1385.53 Q169.468 1385.53 172.524 1390.13 Q175.602 1394.72 175.602 1403.47 Q175.602 1412.19 172.524 1416.8 Q169.468 1421.38 163.658 1421.38 Q157.848 1421.38 154.769 1416.8 Q151.714 1412.19 151.714 1403.47 Q151.714 1394.72 154.769 1390.13 Q157.848 1385.53 163.658 1385.53 Z" fill="#9eb1be" fill-rule="evenodd" fill-opacity="1" /><path clip-path="url(#clip730)" d="M 0 0 M190.672 1389.23 Q187.061 1389.23 185.232 1392.8 Q183.426 1396.34 183.426 1403.47 Q183.426 1410.57 185.232 1414.14 Q187.061 1417.68 190.672 1417.68 Q194.306 1417.68 196.112 1414.14 Q197.94 1410.57 197.94 1403.47 Q197.94 1396.34 196.112 1392.8 Q194.306 1389.23 190.672 1389.23 M190.672 1385.53 Q196.482 1385.53 199.537 1390.13 Q202.616 1394.72 202.616 1403.47 Q202.616 1412.19 199.537 1416.8 Q196.482 1421.38 190.672 1421.38 Q184.862 1421.38 181.783 1416.8 Q178.727 1412.19 178.727 1403.47 Q178.727 1394.72 181.783 1390.13 Q184.862 1385.53 190.672 1385.53 Z" fill="#9eb1be" fill-rule="evenodd" fill-opacity="1" /><path clip-path="url(#clip730)" d="M 0 0 M217.686 1389.23 Q214.074 1389.23 212.246 1392.8 Q210.44 1396.34 210.44 1403.47 Q210.44 1410.57 212.246 1414.14 Q214.074 1417.68 217.686 1417.68 Q221.32 1417.68 223.125 1414.14 Q224.954 1410.57 224.954 1403.47 Q224.954 1396.34 223.125 1392.8 Q221.32 1389.23 217.686 1389.23 M217.686 1385.53 Q223.496 1385.53 226.551 1390.13 Q229.63 1394.72 229.63 1403.47 Q229.63 1412.19 226.551 1416.8 Q223.496 1421.38 217.686 1421.38 Q211.875 1421.38 208.797 1416.8 Q205.741 1412.19 205.741 1403.47 Q205.741 1394.72 208.797 1390.13 Q211.875 1385.53 217.686 1385.53 Z" fill="#9eb1be" fill-rule="evenodd" fill-opacity="1" /><path clip-path="url(#clip730)" d="M 0 0 M244.699 1389.23 Q241.088 1389.23 239.259 1392.8 Q237.454 1396.34 237.454 1403.47 Q237.454 1410.57 239.259 1414.14 Q241.088 1417.68 244.699 1417.68 Q248.334 1417.68 250.139 1414.14 Q251.968 1410.57 251.968 1403.47 Q251.968 1396.34 250.139 1392.8 Q248.334 1389.23 244.699 1389.23 M244.699 1385.53 Q250.509 1385.53 253.565 1390.13 Q256.644 1394.72 256.644 1403.47 Q256.644 1412.19 253.565 1416.8 Q250.509 1421.38 244.699 1421.38 Q238.889 1421.38 235.81 1416.8 Q232.755 1412.19 232.755 1403.47 Q232.755 1394.72 235.81 1390.13 Q238.889 1385.53 244.699 1385.53 Z" fill="#9eb1be" fill-rule="evenodd" fill-opacity="1" /><path clip-path="url(#clip730)" d="M 0 0 M128.288 1180.61 Q124.677 1180.61 122.848 1184.17 Q121.043 1187.71 121.043 1194.84 Q121.043 1201.95 122.848 1205.51 Q124.677 1209.06 128.288 1209.06 Q131.922 1209.06 133.728 1205.51 Q135.556 1201.95 135.556 1194.84 Q135.556 1187.71 133.728 1184.17 Q131.922 1180.61 128.288 1180.61 M128.288 1176.9 Q134.098 1176.9 137.154 1181.51 Q140.232 1186.09 140.232 1194.84 Q140.232 1203.57 137.154 1208.18 Q134.098 1212.76 128.288 1212.76 Q122.478 1212.76 119.399 1208.18 Q116.343 1203.57 116.343 1194.84 Q116.343 1186.09 119.399 1181.51 Q122.478 1176.9 128.288 1176.9 Z" fill="#9eb1be" fill-rule="evenodd" fill-opacity="1" /><path clip-path="url(#clip730)" d="M 0 0 M145.302 1206.21 L150.186 1206.21 L150.186 1212.09 L145.302 1212.09 L145.302 1206.21 Z" fill="#9eb1be" fill-rule="evenodd" fill-opacity="1" /><path clip-path="url(#clip730)" d="M 0 0 M165.255 1180.61 Q161.644 1180.61 159.815 1184.17 Q158.01 1187.71 158.01 1194.84 Q158.01 1201.95 159.815 1205.51 Q161.644 1209.06 165.255 1209.06 Q168.889 1209.06 170.695 1205.51 Q172.524 1201.95 172.524 1194.84 Q172.524 1187.71 170.695 1184.17 Q168.889 1180.61 165.255 1180.61 M165.255 1176.9 Q171.065 1176.9 174.121 1181.51 Q177.2 1186.09 177.2 1194.84 Q177.2 1203.57 174.121 1208.18 Q171.065 1212.76 165.255 1212.76 Q159.445 1212.76 156.366 1208.18 Q153.311 1203.57 153.311 1194.84 Q153.311 1186.09 156.366 1181.51 Q159.445 1176.9 165.255 1176.9 Z" fill="#9eb1be" fill-rule="evenodd" fill-opacity="1" /><path clip-path="url(#clip730)" d="M 0 0 M192.269 1180.61 Q188.658 1180.61 186.829 1184.17 Q185.024 1187.71 185.024 1194.84 Q185.024 1201.95 186.829 1205.51 Q188.658 1209.06 192.269 1209.06 Q195.903 1209.06 197.709 1205.51 Q199.537 1201.95 199.537 1194.84 Q199.537 1187.71 197.709 1184.17 Q195.903 1180.61 192.269 1180.61 M192.269 1176.9 Q198.079 1176.9 201.135 1181.51 Q204.213 1186.09 204.213 1194.84 Q204.213 1203.57 201.135 1208.18 Q198.079 1212.76 192.269 1212.76 Q186.459 1212.76 183.38 1208.18 Q180.325 1203.57 180.325 1194.84 Q180.325 1186.09 183.38 1181.51 Q186.459 1176.9 192.269 1176.9 Z" fill="#9eb1be" fill-rule="evenodd" fill-opacity="1" /><path clip-path="url(#clip730)" d="M 0 0 M219.283 1180.61 Q215.672 1180.61 213.843 1184.17 Q212.037 1187.71 212.037 1194.84 Q212.037 1201.95 213.843 1205.51 Q215.672 1209.06 219.283 1209.06 Q222.917 1209.06 224.723 1205.51 Q226.551 1201.95 226.551 1194.84 Q226.551 1187.71 224.723 1184.17 Q222.917 1180.61 219.283 1180.61 M219.283 1176.9 Q225.093 1176.9 228.148 1181.51 Q231.227 1186.09 231.227 1194.84 Q231.227 1203.57 228.148 1208.18 Q225.093 1212.76 219.283 1212.76 Q213.473 1212.76 210.394 1208.18 Q207.338 1203.57 207.338 1194.84 Q207.338 1186.09 210.394 1181.51 Q213.473 1176.9 219.283 1176.9 Z" fill="#9eb1be" fill-rule="evenodd" fill-opacity="1" /><path clip-path="url(#clip730)" d="M 0 0 M240.324 1208.15 L256.644 1208.15 L256.644 1212.09 L234.699 1212.09 L234.699 1208.15 Q237.361 1205.4 241.945 1200.77 Q246.551 1196.12 247.732 1194.77 Q249.977 1192.25 250.857 1190.51 Q251.759 1188.75 251.759 1187.06 Q251.759 1184.31 249.815 1182.57 Q247.894 1180.84 244.792 1180.84 Q242.593 1180.84 240.139 1181.6 Q237.709 1182.37 234.931 1183.92 L234.931 1179.19 Q237.755 1178.06 240.209 1177.48 Q242.662 1176.9 244.699 1176.9 Q250.07 1176.9 253.264 1179.59 Q256.458 1182.27 256.458 1186.76 Q256.458 1188.89 255.648 1190.81 Q254.861 1192.71 252.755 1195.31 Q252.176 1195.98 249.074 1199.19 Q245.972 1202.39 240.324 1208.15 Z" fill="#9eb1be" fill-rule="evenodd" fill-opacity="1" /><path clip-path="url(#clip730)" d="M 0 0 M126.205 971.982 Q122.593 971.982 120.765 975.546 Q118.959 979.088 118.959 986.218 Q118.959 993.324 120.765 996.889 Q122.593 1000.43 126.205 1000.43 Q129.839 1000.43 131.644 996.889 Q133.473 993.324 133.473 986.218 Q133.473 979.088 131.644 975.546 Q129.839 971.982 126.205 971.982 M126.205 968.278 Q132.015 968.278 135.07 972.884 Q138.149 977.468 138.149 986.218 Q138.149 994.944 135.07 999.551 Q132.015 1004.13 126.205 1004.13 Q120.394 1004.13 117.316 999.551 Q114.26 994.944 114.26 986.218 Q114.26 977.468 117.316 972.884 Q120.394 968.278 126.205 968.278 Z" fill="#9eb1be" fill-rule="evenodd" fill-opacity="1" /><path clip-path="url(#clip730)" d="M 0 0 M143.218 997.583 L148.103 997.583 L148.103 1003.46 L143.218 1003.46 L143.218 997.583 Z" fill="#9eb1be" fill-rule="evenodd" fill-opacity="1" /><path clip-path="url(#clip730)" d="M 0 0 M163.172 971.982 Q159.561 971.982 157.732 975.546 Q155.927 979.088 155.927 986.218 Q155.927 993.324 157.732 996.889 Q159.561 1000.43 163.172 1000.43 Q166.806 1000.43 168.612 996.889 Q170.44 993.324 170.44 986.218 Q170.44 979.088 168.612 975.546 Q166.806 971.982 163.172 971.982 M163.172 968.278 Q168.982 968.278 172.038 972.884 Q175.116 977.468 175.116 986.218 Q175.116 994.944 172.038 999.551 Q168.982 1004.13 163.172 1004.13 Q157.362 1004.13 154.283 999.551 Q151.228 994.944 151.228 986.218 Q151.228 977.468 154.283 972.884 Q157.362 968.278 163.172 968.278 Z" fill="#9eb1be" fill-rule="evenodd" fill-opacity="1" /><path clip-path="url(#clip730)" d="M 0 0 M190.186 971.982 Q186.575 971.982 184.746 975.546 Q182.94 979.088 182.94 986.218 Q182.94 993.324 184.746 996.889 Q186.575 1000.43 190.186 1000.43 Q193.82 1000.43 195.625 996.889 Q197.454 993.324 197.454 986.218 Q197.454 979.088 195.625 975.546 Q193.82 971.982 190.186 971.982 M190.186 968.278 Q195.996 968.278 199.051 972.884 Q202.13 977.468 202.13 986.218 Q202.13 994.944 199.051 999.551 Q195.996 1004.13 190.186 1004.13 Q184.376 1004.13 181.297 999.551 Q178.241 994.944 178.241 986.218 Q178.241 977.468 181.297 972.884 Q184.376 968.278 190.186 968.278 Z" fill="#9eb1be" fill-rule="evenodd" fill-opacity="1" /><path clip-path="url(#clip730)" d="M 0 0 M217.199 971.982 Q213.588 971.982 211.76 975.546 Q209.954 979.088 209.954 986.218 Q209.954 993.324 211.76 996.889 Q213.588 1000.43 217.199 1000.43 Q220.834 1000.43 222.639 996.889 Q224.468 993.324 224.468 986.218 Q224.468 979.088 222.639 975.546 Q220.834 971.982 217.199 971.982 M217.199 968.278 Q223.01 968.278 226.065 972.884 Q229.144 977.468 229.144 986.218 Q229.144 994.944 226.065 999.551 Q223.01 1004.13 217.199 1004.13 Q211.389 1004.13 208.311 999.551 Q205.255 994.944 205.255 986.218 Q205.255 977.468 208.311 972.884 Q211.389 968.278 217.199 968.278 Z" fill="#9eb1be" fill-rule="evenodd" fill-opacity="1" /><path clip-path="url(#clip730)" d="M 0 0 M247.06 972.977 L235.255 991.426 L247.06 991.426 L247.06 972.977 M245.834 968.903 L251.713 968.903 L251.713 991.426 L256.644 991.426 L256.644 995.315 L251.713 995.315 L251.713 1003.46 L247.06 1003.46 L247.06 995.315 L231.459 995.315 L231.459 990.801 L245.834 968.903 Z" fill="#9eb1be" fill-rule="evenodd" fill-opacity="1" /><path clip-path="url(#clip730)" d="M 0 0 M126.529 763.357 Q122.918 763.357 121.089 766.922 Q119.283 770.463 119.283 777.593 Q119.283 784.699 121.089 788.264 Q122.918 791.806 126.529 791.806 Q130.163 791.806 131.968 788.264 Q133.797 784.699 133.797 777.593 Q133.797 770.463 131.968 766.922 Q130.163 763.357 126.529 763.357 M126.529 759.653 Q132.339 759.653 135.394 764.26 Q138.473 768.843 138.473 777.593 Q138.473 786.32 135.394 790.926 Q132.339 795.509 126.529 795.509 Q120.718 795.509 117.64 790.926 Q114.584 786.32 114.584 777.593 Q114.584 768.843 117.64 764.26 Q120.718 759.653 126.529 759.653 Z" fill="#9eb1be" fill-rule="evenodd" fill-opacity="1" /><path clip-path="url(#clip730)" d="M 0 0 M143.542 788.959 L148.427 788.959 L148.427 794.838 L143.542 794.838 L143.542 788.959 Z" fill="#9eb1be" fill-rule="evenodd" fill-opacity="1" /><path clip-path="url(#clip730)" d="M 0 0 M163.496 763.357 Q159.885 763.357 158.056 766.922 Q156.251 770.463 156.251 777.593 Q156.251 784.699 158.056 788.264 Q159.885 791.806 163.496 791.806 Q167.13 791.806 168.936 788.264 Q170.764 784.699 170.764 777.593 Q170.764 770.463 168.936 766.922 Q167.13 763.357 163.496 763.357 M163.496 759.653 Q169.306 759.653 172.362 764.26 Q175.44 768.843 175.44 777.593 Q175.44 786.32 172.362 790.926 Q169.306 795.509 163.496 795.509 Q157.686 795.509 154.607 790.926 Q151.552 786.32 151.552 777.593 Q151.552 768.843 154.607 764.26 Q157.686 759.653 163.496 759.653 Z" fill="#9eb1be" fill-rule="evenodd" fill-opacity="1" /><path clip-path="url(#clip730)" d="M 0 0 M190.51 763.357 Q186.899 763.357 185.07 766.922 Q183.264 770.463 183.264 777.593 Q183.264 784.699 185.07 788.264 Q186.899 791.806 190.51 791.806 Q194.144 791.806 195.95 788.264 Q197.778 784.699 197.778 777.593 Q197.778 770.463 195.95 766.922 Q194.144 763.357 190.51 763.357 M190.51 759.653 Q196.32 759.653 199.375 764.26 Q202.454 768.843 202.454 777.593 Q202.454 786.32 199.375 790.926 Q196.32 795.509 190.51 795.509 Q184.7 795.509 181.621 790.926 Q178.565 786.32 178.565 777.593 Q178.565 768.843 181.621 764.26 Q184.7 759.653 190.51 759.653 Z" fill="#9eb1be" fill-rule="evenodd" fill-opacity="1" /><path clip-path="url(#clip730)" d="M 0 0 M217.523 763.357 Q213.912 763.357 212.084 766.922 Q210.278 770.463 210.278 777.593 Q210.278 784.699 212.084 788.264 Q213.912 791.806 217.523 791.806 Q221.158 791.806 222.963 788.264 Q224.792 784.699 224.792 777.593 Q224.792 770.463 222.963 766.922 Q221.158 763.357 217.523 763.357 M217.523 759.653 Q223.334 759.653 226.389 764.26 Q229.468 768.843 229.468 777.593 Q229.468 786.32 226.389 790.926 Q223.334 795.509 217.523 795.509 Q211.713 795.509 208.635 790.926 Q205.579 786.32 205.579 777.593 Q205.579 768.843 208.635 764.26 Q211.713 759.653 217.523 759.653 Z" fill="#9eb1be" fill-rule="evenodd" fill-opacity="1" /><path clip-path="url(#clip730)" d="M 0 0 M245.116 775.695 Q241.968 775.695 240.116 777.848 Q238.287 780 238.287 783.75 Q238.287 787.477 240.116 789.653 Q241.968 791.806 245.116 791.806 Q248.264 791.806 250.093 789.653 Q251.945 787.477 251.945 783.75 Q251.945 780 250.093 777.848 Q248.264 775.695 245.116 775.695 M254.398 761.042 L254.398 765.301 Q252.639 764.468 250.833 764.028 Q249.051 763.588 247.292 763.588 Q242.662 763.588 240.209 766.713 Q237.778 769.838 237.431 776.158 Q238.797 774.144 240.857 773.079 Q242.917 771.991 245.394 771.991 Q250.602 771.991 253.611 775.162 Q256.644 778.31 256.644 783.75 Q256.644 789.074 253.496 792.292 Q250.347 795.509 245.116 795.509 Q239.121 795.509 235.949 790.926 Q232.778 786.32 232.778 777.593 Q232.778 769.398 236.667 764.537 Q240.556 759.653 247.107 759.653 Q248.866 759.653 250.648 760 Q252.454 760.348 254.398 761.042 Z" fill="#9eb1be" fill-rule="evenodd" fill-opacity="1" /><path clip-path="url(#clip730)" d="M 0 0 M126.783 554.732 Q123.172 554.732 121.343 558.297 Q119.538 561.839 119.538 568.968 Q119.538 576.075 121.343 579.639 Q123.172 583.181 126.783 583.181 Q130.417 583.181 132.223 579.639 Q134.052 576.075 134.052 568.968 Q134.052 561.839 132.223 558.297 Q130.417 554.732 126.783 554.732 M126.783 551.029 Q132.593 551.029 135.649 555.635 Q138.728 560.218 138.728 568.968 Q138.728 577.695 135.649 582.302 Q132.593 586.885 126.783 586.885 Q120.973 586.885 117.894 582.302 Q114.839 577.695 114.839 568.968 Q114.839 560.218 117.894 555.635 Q120.973 551.029 126.783 551.029 Z" fill="#9eb1be" fill-rule="evenodd" fill-opacity="1" /><path clip-path="url(#clip730)" d="M 0 0 M143.797 580.334 L148.681 580.334 L148.681 586.214 L143.797 586.214 L143.797 580.334 Z" fill="#9eb1be" fill-rule="evenodd" fill-opacity="1" /><path clip-path="url(#clip730)" d="M 0 0 M163.751 554.732 Q160.14 554.732 158.311 558.297 Q156.505 561.839 156.505 568.968 Q156.505 576.075 158.311 579.639 Q160.14 583.181 163.751 583.181 Q167.385 583.181 169.19 579.639 Q171.019 576.075 171.019 568.968 Q171.019 561.839 169.19 558.297 Q167.385 554.732 163.751 554.732 M163.751 551.029 Q169.561 551.029 172.616 555.635 Q175.695 560.218 175.695 568.968 Q175.695 577.695 172.616 582.302 Q169.561 586.885 163.751 586.885 Q157.94 586.885 154.862 582.302 Q151.806 577.695 151.806 568.968 Q151.806 560.218 154.862 555.635 Q157.94 551.029 163.751 551.029 Z" fill="#9eb1be" fill-rule="evenodd" fill-opacity="1" /><path clip-path="url(#clip730)" d="M 0 0 M190.764 554.732 Q187.153 554.732 185.325 558.297 Q183.519 561.839 183.519 568.968 Q183.519 576.075 185.325 579.639 Q187.153 583.181 190.764 583.181 Q194.399 583.181 196.204 579.639 Q198.033 576.075 198.033 568.968 Q198.033 561.839 196.204 558.297 Q194.399 554.732 190.764 554.732 M190.764 551.029 Q196.575 551.029 199.63 555.635 Q202.709 560.218 202.709 568.968 Q202.709 577.695 199.63 582.302 Q196.575 586.885 190.764 586.885 Q184.954 586.885 181.876 582.302 Q178.82 577.695 178.82 568.968 Q178.82 560.218 181.876 555.635 Q184.954 551.029 190.764 551.029 Z" fill="#9eb1be" fill-rule="evenodd" fill-opacity="1" /><path clip-path="url(#clip730)" d="M 0 0 M217.778 554.732 Q214.167 554.732 212.338 558.297 Q210.533 561.839 210.533 568.968 Q210.533 576.075 212.338 579.639 Q214.167 583.181 217.778 583.181 Q221.412 583.181 223.218 579.639 Q225.047 576.075 225.047 568.968 Q225.047 561.839 223.218 558.297 Q221.412 554.732 217.778 554.732 M217.778 551.029 Q223.588 551.029 226.644 555.635 Q229.723 560.218 229.723 568.968 Q229.723 577.695 226.644 582.302 Q223.588 586.885 217.778 586.885 Q211.968 586.885 208.889 582.302 Q205.834 577.695 205.834 568.968 Q205.834 560.218 208.889 555.635 Q211.968 551.029 217.778 551.029 Z" fill="#9eb1be" fill-rule="evenodd" fill-opacity="1" /><path clip-path="url(#clip730)" d="M 0 0 M244.792 569.802 Q241.459 569.802 239.537 571.584 Q237.639 573.366 237.639 576.491 Q237.639 579.616 239.537 581.399 Q241.459 583.181 244.792 583.181 Q248.125 583.181 250.046 581.399 Q251.968 579.593 251.968 576.491 Q251.968 573.366 250.046 571.584 Q248.148 569.802 244.792 569.802 M240.116 567.811 Q237.107 567.07 235.417 565.01 Q233.75 562.95 233.75 559.987 Q233.75 555.843 236.69 553.436 Q239.653 551.029 244.792 551.029 Q249.954 551.029 252.894 553.436 Q255.833 555.843 255.833 559.987 Q255.833 562.95 254.144 565.01 Q252.477 567.07 249.491 567.811 Q252.871 568.598 254.746 570.89 Q256.644 573.181 256.644 576.491 Q256.644 581.514 253.565 584.2 Q250.509 586.885 244.792 586.885 Q239.074 586.885 235.996 584.2 Q232.94 581.514 232.94 576.491 Q232.94 573.181 234.838 570.89 Q236.736 568.598 240.116 567.811 M238.403 560.427 Q238.403 563.112 240.07 564.616 Q241.759 566.121 244.792 566.121 Q247.801 566.121 249.491 564.616 Q251.204 563.112 251.204 560.427 Q251.204 557.741 249.491 556.237 Q247.801 554.732 244.792 554.732 Q241.759 554.732 240.07 556.237 Q238.403 557.741 238.403 560.427 Z" fill="#9eb1be" fill-rule="evenodd" fill-opacity="1" /><path clip-path="url(#clip730)" d="M 0 0 M127.917 346.108 Q124.306 346.108 122.478 349.672 Q120.672 353.214 120.672 360.344 Q120.672 367.45 122.478 371.015 Q124.306 374.556 127.917 374.556 Q131.552 374.556 133.357 371.015 Q135.186 367.45 135.186 360.344 Q135.186 353.214 133.357 349.672 Q131.552 346.108 127.917 346.108 M127.917 342.404 Q133.728 342.404 136.783 347.01 Q139.862 351.594 139.862 360.344 Q139.862 369.07 136.783 373.677 Q133.728 378.26 127.917 378.26 Q122.107 378.26 119.029 373.677 Q115.973 369.07 115.973 360.344 Q115.973 351.594 119.029 347.01 Q122.107 342.404 127.917 342.404 Z" fill="#9eb1be" fill-rule="evenodd" fill-opacity="1" /><path clip-path="url(#clip730)" d="M 0 0 M144.931 371.709 L149.816 371.709 L149.816 377.589 L144.931 377.589 L144.931 371.709 Z" fill="#9eb1be" fill-rule="evenodd" fill-opacity="1" /><path clip-path="url(#clip730)" d="M 0 0 M164.885 346.108 Q161.274 346.108 159.445 349.672 Q157.64 353.214 157.64 360.344 Q157.64 367.45 159.445 371.015 Q161.274 374.556 164.885 374.556 Q168.519 374.556 170.325 371.015 Q172.153 367.45 172.153 360.344 Q172.153 353.214 170.325 349.672 Q168.519 346.108 164.885 346.108 M164.885 342.404 Q170.695 342.404 173.751 347.01 Q176.829 351.594 176.829 360.344 Q176.829 369.07 173.751 373.677 Q170.695 378.26 164.885 378.26 Q159.075 378.26 155.996 373.677 Q152.941 369.07 152.941 360.344 Q152.941 351.594 155.996 347.01 Q159.075 342.404 164.885 342.404 Z" fill="#9eb1be" fill-rule="evenodd" fill-opacity="1" /><path clip-path="url(#clip730)" d="M 0 0 M191.899 346.108 Q188.288 346.108 186.459 349.672 Q184.653 353.214 184.653 360.344 Q184.653 367.45 186.459 371.015 Q188.288 374.556 191.899 374.556 Q195.533 374.556 197.338 371.015 Q199.167 367.45 199.167 360.344 Q199.167 353.214 197.338 349.672 Q195.533 346.108 191.899 346.108 M191.899 342.404 Q197.709 342.404 200.764 347.01 Q203.843 351.594 203.843 360.344 Q203.843 369.07 200.764 373.677 Q197.709 378.26 191.899 378.26 Q186.088 378.26 183.01 373.677 Q179.954 369.07 179.954 360.344 Q179.954 351.594 183.01 347.01 Q186.088 342.404 191.899 342.404 Z" fill="#9eb1be" fill-rule="evenodd" fill-opacity="1" /><path clip-path="url(#clip730)" d="M 0 0 M209.723 373.654 L217.361 373.654 L217.361 347.288 L209.051 348.955 L209.051 344.696 L217.315 343.029 L221.991 343.029 L221.991 373.654 L229.63 373.654 L229.63 377.589 L209.723 377.589 L209.723 373.654 Z" fill="#9eb1be" fill-rule="evenodd" fill-opacity="1" /><path clip-path="url(#clip730)" d="M 0 0 M244.699 346.108 Q241.088 346.108 239.259 349.672 Q237.454 353.214 237.454 360.344 Q237.454 367.45 239.259 371.015 Q241.088 374.556 244.699 374.556 Q248.334 374.556 250.139 371.015 Q251.968 367.45 251.968 360.344 Q251.968 353.214 250.139 349.672 Q248.334 346.108 244.699 346.108 M244.699 342.404 Q250.509 342.404 253.565 347.01 Q256.644 351.594 256.644 360.344 Q256.644 369.07 253.565 373.677 Q250.509 378.26 244.699 378.26 Q238.889 378.26 235.81 373.677 Q232.755 369.07 232.755 360.344 Q232.755 351.594 235.81 347.01 Q238.889 342.404 244.699 342.404 Z" fill="#9eb1be" fill-rule="evenodd" fill-opacity="1" /><path clip-path="url(#clip730)" d="M 0 0 M129.515 137.483 Q125.904 137.483 124.075 141.048 Q122.269 144.589 122.269 151.719 Q122.269 158.825 124.075 162.39 Q125.904 165.932 129.515 165.932 Q133.149 165.932 134.954 162.39 Q136.783 158.825 136.783 151.719 Q136.783 144.589 134.954 141.048 Q133.149 137.483 129.515 137.483 M129.515 133.779 Q135.325 133.779 138.38 138.386 Q141.459 142.969 141.459 151.719 Q141.459 160.446 138.38 165.052 Q135.325 169.635 129.515 169.635 Q123.705 169.635 120.626 165.052 Q117.57 160.446 117.57 151.719 Q117.57 142.969 120.626 138.386 Q123.705 133.779 129.515 133.779 Z" fill="#9eb1be" fill-rule="evenodd" fill-opacity="1" /><path clip-path="url(#clip730)" d="M 0 0 M146.529 163.085 L151.413 163.085 L151.413 168.964 L146.529 168.964 L146.529 163.085 Z" fill="#9eb1be" fill-rule="evenodd" fill-opacity="1" /><path clip-path="url(#clip730)" d="M 0 0 M166.482 137.483 Q162.871 137.483 161.042 141.048 Q159.237 144.589 159.237 151.719 Q159.237 158.825 161.042 162.39 Q162.871 165.932 166.482 165.932 Q170.116 165.932 171.922 162.39 Q173.751 158.825 173.751 151.719 Q173.751 144.589 171.922 141.048 Q170.116 137.483 166.482 137.483 M166.482 133.779 Q172.292 133.779 175.348 138.386 Q178.426 142.969 178.426 151.719 Q178.426 160.446 175.348 165.052 Q172.292 169.635 166.482 169.635 Q160.672 169.635 157.593 165.052 Q154.538 160.446 154.538 151.719 Q154.538 142.969 157.593 138.386 Q160.672 133.779 166.482 133.779 Z" fill="#9eb1be" fill-rule="evenodd" fill-opacity="1" /><path clip-path="url(#clip730)" d="M 0 0 M193.496 137.483 Q189.885 137.483 188.056 141.048 Q186.251 144.589 186.251 151.719 Q186.251 158.825 188.056 162.39 Q189.885 165.932 193.496 165.932 Q197.13 165.932 198.936 162.39 Q200.764 158.825 200.764 151.719 Q200.764 144.589 198.936 141.048 Q197.13 137.483 193.496 137.483 M193.496 133.779 Q199.306 133.779 202.362 138.386 Q205.44 142.969 205.44 151.719 Q205.44 160.446 202.362 165.052 Q199.306 169.635 193.496 169.635 Q187.686 169.635 184.607 165.052 Q181.551 160.446 181.551 151.719 Q181.551 142.969 184.607 138.386 Q187.686 133.779 193.496 133.779 Z" fill="#9eb1be" fill-rule="evenodd" fill-opacity="1" /><path clip-path="url(#clip730)" d="M 0 0 M211.32 165.029 L218.959 165.029 L218.959 138.663 L210.649 140.33 L210.649 136.071 L218.912 134.404 L223.588 134.404 L223.588 165.029 L231.227 165.029 L231.227 168.964 L211.32 168.964 L211.32 165.029 Z" fill="#9eb1be" fill-rule="evenodd" fill-opacity="1" /><path clip-path="url(#clip730)" d="M 0 0 M240.324 165.029 L256.644 165.029 L256.644 168.964 L234.699 168.964 L234.699 165.029 Q237.361 162.274 241.945 157.645 Q246.551 152.992 247.732 151.649 Q249.977 149.126 250.857 147.39 Q251.759 145.631 251.759 143.941 Q251.759 141.187 249.815 139.45 Q247.894 137.714 244.792 137.714 Q242.593 137.714 240.139 138.478 Q237.709 139.242 234.931 140.793 L234.931 136.071 Q237.755 134.937 240.209 134.358 Q242.662 133.779 244.699 133.779 Q250.07 133.779 253.264 136.464 Q256.458 139.15 256.458 143.64 Q256.458 145.77 255.648 147.691 Q254.861 149.589 252.755 152.182 Q252.176 152.853 249.074 156.071 Q245.972 159.265 240.324 165.029 Z" fill="#9eb1be" fill-rule="evenodd" fill-opacity="1" /><path clip-path="url(#clip730)" d="M 0 0 M46.818 860.839 L70.4666 869.56 L70.4666 852.086 L46.818 860.839 M40.4842 864.468 L40.4842 857.179 L88.0042 839.068 L88.0042 845.752 L75.8138 850.081 L75.8138 871.502 L88.0042 875.83 L88.0042 882.61 L40.4842 864.468 Z" fill="#9eb1be" fill-rule="evenodd" fill-opacity="1" /><path clip-path="url(#clip730)" d="M 0 0 M59.1993 805.171 Q55.2526 802.975 53.3747 799.919 Q51.4968 796.864 51.4968 792.726 Q51.4968 787.156 55.4117 784.132 Q59.2948 781.109 66.4881 781.109 L88.0042 781.109 L88.0042 786.997 L66.679 786.997 Q61.5546 786.997 59.072 788.811 Q56.5894 790.625 56.5894 794.349 Q56.5894 798.901 59.6131 801.543 Q62.6368 804.184 67.8567 804.184 L88.0042 804.184 L88.0042 810.073 L66.679 810.073 Q61.5228 810.073 59.072 811.887 Q56.5894 813.701 56.5894 817.489 Q56.5894 821.977 59.6449 824.618 Q62.6686 827.26 67.8567 827.26 L88.0042 827.26 L88.0042 833.148 L52.3562 833.148 L52.3562 827.26 L57.8944 827.26 Q54.616 825.255 53.0564 822.454 Q51.4968 819.653 51.4968 815.802 Q51.4968 811.919 53.4702 809.213 Q55.4436 806.476 59.1993 805.171 Z" fill="#9eb1be" fill-rule="evenodd" fill-opacity="1" /><path clip-path="url(#clip730)" d="M 0 0 M82.657 769.3 L101.563 769.3 L101.563 775.189 L52.3562 775.189 L52.3562 769.3 L57.7671 769.3 Q54.5842 767.454 53.0564 764.653 Q51.4968 761.821 51.4968 757.906 Q51.4968 751.413 56.6531 747.37 Q61.8093 743.296 70.212 743.296 Q78.6147 743.296 83.771 747.37 Q88.9272 751.413 88.9272 757.906 Q88.9272 761.821 87.3994 764.653 Q85.8398 767.454 82.657 769.3 M70.212 749.376 Q63.7508 749.376 60.0905 752.049 Q56.3984 754.691 56.3984 759.338 Q56.3984 763.985 60.0905 766.659 Q63.7508 769.3 70.212 769.3 Q76.6732 769.3 80.3653 766.659 Q84.0256 763.985 84.0256 759.338 Q84.0256 754.691 80.3653 752.049 Q76.6732 749.376 70.212 749.376 Z" fill="#9eb1be" fill-rule="evenodd" fill-opacity="1" /><path clip-path="url(#clip730)" d="M 0 0 M38.479 737.154 L38.479 731.297 L88.0042 731.297 L88.0042 737.154 L38.479 737.154 Z" fill="#9eb1be" fill-rule="evenodd" fill-opacity="1" /><path clip-path="url(#clip730)" d="M 0 0 M52.3562 725.154 L52.3562 719.298 L88.0042 719.298 L88.0042 725.154 L52.3562 725.154 M38.479 725.154 L38.479 719.298 L45.895 719.298 L45.895 725.154 L38.479 725.154 Z" fill="#9eb1be" fill-rule="evenodd" fill-opacity="1" /><path clip-path="url(#clip730)" d="M 0 0 M42.2347 707.362 L52.3562 707.362 L52.3562 695.299 L56.9077 695.299 L56.9077 707.362 L76.2594 707.362 Q80.6199 707.362 81.8613 706.184 Q83.1026 704.975 83.1026 701.315 L83.1026 695.299 L88.0042 695.299 L88.0042 701.315 Q88.0042 708.094 85.4897 710.672 Q82.9434 713.25 76.2594 713.25 L56.9077 713.25 L56.9077 717.547 L52.3562 717.547 L52.3562 713.25 L42.2347 713.25 L42.2347 707.362 Z" fill="#9eb1be" fill-rule="evenodd" fill-opacity="1" /><path clip-path="url(#clip730)" d="M 0 0 M73.9359 689.761 L52.3562 689.761 L52.3562 683.904 L73.7131 683.904 Q78.7739 683.904 81.3202 681.931 Q83.8346 679.958 83.8346 676.011 Q83.8346 671.268 80.8109 668.531 Q77.7872 665.762 72.5673 665.762 L52.3562 665.762 L52.3562 659.906 L88.0042 659.906 L88.0042 665.762 L82.5296 665.762 Q85.7762 667.895 87.3676 670.727 Q88.9272 673.528 88.9272 677.252 Q88.9272 683.395 85.1078 686.578 Q81.2883 689.761 73.9359 689.761 M51.4968 675.024 L51.4968 675.024 Z" fill="#9eb1be" fill-rule="evenodd" fill-opacity="1" /><path clip-path="url(#clip730)" d="M 0 0 M57.7671 630.305 L38.479 630.305 L38.479 624.449 L88.0042 624.449 L88.0042 630.305 L82.657 630.305 Q85.8398 632.151 87.3994 634.984 Q88.9272 637.785 88.9272 641.732 Q88.9272 648.193 83.771 652.267 Q78.6147 656.309 70.212 656.309 Q61.8093 656.309 56.6531 652.267 Q51.4968 648.193 51.4968 641.732 Q51.4968 637.785 53.0564 634.984 Q54.5842 632.151 57.7671 630.305 M70.212 650.262 Q76.6732 650.262 80.3653 647.62 Q84.0256 644.946 84.0256 640.299 Q84.0256 635.652 80.3653 632.979 Q76.6732 630.305 70.212 630.305 Q63.7508 630.305 60.0905 632.979 Q56.3984 635.652 56.3984 640.299 Q56.3984 644.946 60.0905 647.62 Q63.7508 650.262 70.212 650.262 Z" fill="#9eb1be" fill-rule="evenodd" fill-opacity="1" /><path clip-path="url(#clip730)" d="M 0 0 M68.7161 587.814 L71.5806 587.814 L71.5806 614.741 Q77.6281 614.359 80.8109 611.113 Q83.9619 607.834 83.9619 602.01 Q83.9619 598.636 83.1344 595.485 Q82.3069 592.302 80.6518 589.183 L86.1899 589.183 Q87.5267 592.334 88.227 595.644 Q88.9272 598.954 88.9272 602.36 Q88.9272 610.89 83.9619 615.887 Q78.9967 620.852 70.5303 620.852 Q61.7774 620.852 56.6531 616.141 Q51.4968 611.399 51.4968 603.378 Q51.4968 596.185 56.1438 592.015 Q60.7589 587.814 68.7161 587.814 M66.9973 593.67 Q62.1912 593.734 59.3266 596.376 Q56.4621 598.986 56.4621 603.315 Q56.4621 608.216 59.2312 611.176 Q62.0002 614.104 67.0292 614.55 L66.9973 593.67 Z" fill="#9eb1be" fill-rule="evenodd" fill-opacity="1" /><polyline clip-path="url(#clip732)" style="stroke:#fe4365; stroke-width:4; stroke-opacity:1; fill:none" points="
  350.949,1384.03 370.78,1368.65 390.612,1348.34 410.444,1314.17 430.275,1369.01 450.107,1281.97 469.939,1200.16 489.77,1018.31 509.602,86.1857 529.434,314.403 
  549.265,990.487 569.097,1139.68 588.929,1203.59 608.76,1259.42 628.592,1261 648.424,1282.3 668.255,1296.46 688.087,1306.5 707.918,1305.21 727.75,1324.29 
  747.582,1329.06 767.413,1333.74 787.245,1337.59 807.077,1338.41 826.908,1343.16 846.74,1345.78 866.572,1347.27 886.403,1346.84 906.235,1355.51 926.067,1356.98 
  945.898,1358.38 965.73,1360.05 985.562,1334.74 1005.39,1363.38 1025.22,1363.87 1045.06,1364.74 1064.89,1364.98 1084.72,1367.19 1104.55,1367.32 1124.38,1368.18 
  1144.21,1368.49 1164.05,1367.95 1183.88,1372.87 1203.71,1372.71 1223.54,1372.77 1243.37,1372.96 1263.2,1371.2 1283.04,1374.99 1302.87,1375.37 1322.7,1375.62 
  1342.53,1376.01 1362.36,1375.74 1382.19,1376.8 1402.03,1377.18 1421.86,1377.62 1441.69,1377.65 1461.52,1377.55 1481.35,1378.04 1501.18,1378.3 1521.02,1378.54 
  1540.85,1377.57 1560.68,1380.41 1580.51,1380.36 1600.34,1380.35 1620.17,1380.49 1640.01,1382.25 1659.84,1380.82 1679.67,1381.36 1699.5,1381.2 1719.33,1381.25 
  1739.16,1381.89 1759,1381.82 1778.83,1381.81 1798.66,1381.99 1818.49,1381.84 1838.32,1382.74 1858.15,1382.68 1877.99,1382.66 1897.82,1382.74 1917.65,1381.72 
  1937.48,1383.31 1957.31,1383.21 1977.14,1383.21 1996.98,1383.2 2016.81,1384.18 2036.64,1383.42 2056.47,1383.85 2076.3,1383.59 2096.13,1383.61 2115.97,1384.24 
  2135.8,1384.18 2155.63,1383.73 2175.46,1383.78 2195.29,1383.48 2215.12,1384.17 2234.96,1384.19 2254.79,1384.02 2274.62,1384.07 2294.45,1383.92 
  "/>
<polyline clip-path="url(#clip732)" style="stroke:#eca25c; stroke-width:4; stroke-opacity:1; fill:none" points="
  509.602,2799.12 509.602,-1328.69 
  "/>
<path clip-path="url(#clip730)" d="
M1609.08 214.069 L2284.09 214.069 L2284.09 93.1086 L1609.08 93.1086  Z
  " fill="#282c34" fill-rule="evenodd" fill-opacity="1"/>
<polyline clip-path="url(#clip730)" style="stroke:#9eb1be; stroke-width:4; stroke-opacity:1; fill:none" points="
  1609.08,214.069 2284.09,214.069 2284.09,93.1086 1609.08,93.1086 1609.08,214.069 
  "/>
<polyline clip-path="url(#clip730)" style="stroke:#eca25c; stroke-width:4; stroke-opacity:1; fill:none" points="
  1631.97,153.589 1769.31,153.589 
  "/>
<path clip-path="url(#clip730)" d="M 0 0 M1792.2 136.309 L1799.16 136.309 L1807.98 159.827 L1816.85 136.309 L1823.82 136.309 L1823.82 170.869 L1819.26 170.869 L1819.26 140.522 L1810.34 164.225 L1805.65 164.225 L1796.73 140.522 L1796.73 170.869 L1792.2 170.869 L1792.2 136.309 Z" fill="#adb2b7" fill-rule="evenodd" fill-opacity="1" /><path clip-path="url(#clip730)" d="M 0 0 M1840.07 157.836 Q1834.9 157.836 1832.91 159.017 Q1830.92 160.197 1830.92 163.045 Q1830.92 165.313 1832.4 166.656 Q1833.91 167.975 1836.48 167.975 Q1840.02 167.975 1842.15 165.475 Q1844.3 162.952 1844.3 158.785 L1844.3 157.836 L1840.07 157.836 M1848.56 156.077 L1848.56 170.869 L1844.3 170.869 L1844.3 166.933 Q1842.84 169.295 1840.67 170.429 Q1838.49 171.54 1835.34 171.54 Q1831.36 171.54 1829 169.318 Q1826.66 167.072 1826.66 163.322 Q1826.66 158.947 1829.58 156.725 Q1832.52 154.503 1838.33 154.503 L1844.3 154.503 L1844.3 154.086 Q1844.3 151.147 1842.36 149.549 Q1840.44 147.929 1836.94 147.929 Q1834.72 147.929 1832.61 148.461 Q1830.51 148.994 1828.56 150.059 L1828.56 146.123 Q1830.9 145.221 1833.1 144.781 Q1835.3 144.318 1837.38 144.318 Q1843.01 144.318 1845.78 147.234 Q1848.56 150.151 1848.56 156.077 Z" fill="#adb2b7" fill-rule="evenodd" fill-opacity="1" /><path clip-path="url(#clip730)" d="M 0 0 M1874.58 144.943 L1865.21 157.559 L1875.07 170.869 L1870.04 170.869 L1862.5 160.683 L1854.95 170.869 L1849.93 170.869 L1860 157.304 L1850.78 144.943 L1855.81 144.943 L1862.68 154.179 L1869.56 144.943 L1874.58 144.943 Z" fill="#adb2b7" fill-rule="evenodd" fill-opacity="1" /><path clip-path="url(#clip730)" d="M 0 0 M1879.53 144.943 L1883.79 144.943 L1883.79 170.869 L1879.53 170.869 L1879.53 144.943 M1879.53 134.85 L1883.79 134.85 L1883.79 140.244 L1879.53 140.244 L1879.53 134.85 Z" fill="#adb2b7" fill-rule="evenodd" fill-opacity="1" /><path clip-path="url(#clip730)" d="M 0 0 M1908.45 149.92 Q1910.04 147.049 1912.27 145.684 Q1914.49 144.318 1917.5 144.318 Q1921.55 144.318 1923.75 147.165 Q1925.95 149.989 1925.95 155.221 L1925.95 170.869 L1921.66 170.869 L1921.66 155.359 Q1921.66 151.633 1920.34 149.827 Q1919.02 148.022 1916.32 148.022 Q1913.01 148.022 1911.08 150.221 Q1909.16 152.42 1909.16 156.216 L1909.16 170.869 L1904.88 170.869 L1904.88 155.359 Q1904.88 151.609 1903.56 149.827 Q1902.24 148.022 1899.49 148.022 Q1896.22 148.022 1894.3 150.244 Q1892.38 152.443 1892.38 156.216 L1892.38 170.869 L1888.1 170.869 L1888.1 144.943 L1892.38 144.943 L1892.38 148.971 Q1893.84 146.586 1895.88 145.452 Q1897.91 144.318 1900.71 144.318 Q1903.54 144.318 1905.51 145.753 Q1907.5 147.188 1908.45 149.92 Z" fill="#adb2b7" fill-rule="evenodd" fill-opacity="1" /><path clip-path="url(#clip730)" d="M 0 0 M1929.97 160.637 L1929.97 144.943 L1934.23 144.943 L1934.23 160.475 Q1934.23 164.156 1935.67 166.008 Q1937.1 167.836 1939.97 167.836 Q1943.42 167.836 1945.41 165.637 Q1947.43 163.438 1947.43 159.642 L1947.43 144.943 L1951.69 144.943 L1951.69 170.869 L1947.43 170.869 L1947.43 166.887 Q1945.88 169.248 1943.82 170.406 Q1941.78 171.54 1939.07 171.54 Q1934.6 171.54 1932.29 168.762 Q1929.97 165.984 1929.97 160.637 M1940.69 144.318 L1940.69 144.318 Z" fill="#adb2b7" fill-rule="evenodd" fill-opacity="1" /><path clip-path="url(#clip730)" d="M 0 0 M1976.34 149.92 Q1977.94 147.049 1980.16 145.684 Q1982.38 144.318 1985.39 144.318 Q1989.44 144.318 1991.64 147.165 Q1993.84 149.989 1993.84 155.221 L1993.84 170.869 L1989.56 170.869 L1989.56 155.359 Q1989.56 151.633 1988.24 149.827 Q1986.92 148.022 1984.21 148.022 Q1980.9 148.022 1978.98 150.221 Q1977.06 152.42 1977.06 156.216 L1977.06 170.869 L1972.77 170.869 L1972.77 155.359 Q1972.77 151.609 1971.45 149.827 Q1970.14 148.022 1967.38 148.022 Q1964.12 148.022 1962.2 150.244 Q1960.27 152.443 1960.27 156.216 L1960.27 170.869 L1955.99 170.869 L1955.99 144.943 L1960.27 144.943 L1960.27 148.971 Q1961.73 146.586 1963.77 145.452 Q1965.81 144.318 1968.61 144.318 Q1971.43 144.318 1973.4 145.753 Q1975.39 147.188 1976.34 149.92 Z" fill="#adb2b7" fill-rule="evenodd" fill-opacity="1" /><path clip-path="url(#clip730)" d="M 0 0 M2025.16 157.836 Q2020 157.836 2018.01 159.017 Q2016.01 160.197 2016.01 163.045 Q2016.01 165.313 2017.5 166.656 Q2019 167.975 2021.57 167.975 Q2025.11 167.975 2027.24 165.475 Q2029.39 162.952 2029.39 158.785 L2029.39 157.836 L2025.16 157.836 M2033.65 156.077 L2033.65 170.869 L2029.39 170.869 L2029.39 166.933 Q2027.94 169.295 2025.76 170.429 Q2023.58 171.54 2020.44 171.54 Q2016.45 171.54 2014.09 169.318 Q2011.76 167.072 2011.76 163.322 Q2011.76 158.947 2014.67 156.725 Q2017.61 154.503 2023.42 154.503 L2029.39 154.503 L2029.39 154.086 Q2029.39 151.147 2027.45 149.549 Q2025.53 147.929 2022.03 147.929 Q2019.81 147.929 2017.7 148.461 Q2015.6 148.994 2013.65 150.059 L2013.65 146.123 Q2015.99 145.221 2018.19 144.781 Q2020.39 144.318 2022.47 144.318 Q2028.1 144.318 2030.88 147.234 Q2033.65 150.151 2033.65 156.077 Z" fill="#adb2b7" fill-rule="evenodd" fill-opacity="1" /><path clip-path="url(#clip730)" d="M 0 0 M2042.33 137.582 L2042.33 144.943 L2051.11 144.943 L2051.11 148.253 L2042.33 148.253 L2042.33 162.327 Q2042.33 165.498 2043.19 166.401 Q2044.07 167.304 2046.73 167.304 L2051.11 167.304 L2051.11 170.869 L2046.73 170.869 Q2041.8 170.869 2039.93 169.04 Q2038.05 167.188 2038.05 162.327 L2038.05 148.253 L2034.93 148.253 L2034.93 144.943 L2038.05 144.943 L2038.05 137.582 L2042.33 137.582 Z" fill="#adb2b7" fill-rule="evenodd" fill-opacity="1" /><path clip-path="url(#clip730)" d="M 0 0 M2083.77 134.85 L2083.77 138.392 L2079.69 138.392 Q2077.4 138.392 2076.5 139.318 Q2075.62 140.244 2075.62 142.651 L2075.62 144.943 L2082.63 144.943 L2082.63 148.253 L2075.62 148.253 L2075.62 170.869 L2071.34 170.869 L2071.34 148.253 L2067.26 148.253 L2067.26 144.943 L2071.34 144.943 L2071.34 143.137 Q2071.34 138.809 2073.35 136.841 Q2075.37 134.85 2079.74 134.85 L2083.77 134.85 Z" fill="#adb2b7" fill-rule="evenodd" fill-opacity="1" /><path clip-path="url(#clip730)" d="M 0 0 M2103.86 149.341 L2133.54 149.341 L2133.54 153.23 L2103.86 153.23 L2103.86 149.341 M2103.86 158.785 L2133.54 158.785 L2133.54 162.721 L2103.86 162.721 L2103.86 158.785 Z" fill="#adb2b7" fill-rule="evenodd" fill-opacity="1" /><path clip-path="url(#clip730)" d="M 0 0 M2163.68 139.387 Q2160.06 139.387 2158.24 142.952 Q2156.43 146.494 2156.43 153.623 Q2156.43 160.73 2158.24 164.295 Q2160.06 167.836 2163.68 167.836 Q2167.31 167.836 2169.12 164.295 Q2170.94 160.73 2170.94 153.623 Q2170.94 146.494 2169.12 142.952 Q2167.31 139.387 2163.68 139.387 M2163.68 135.684 Q2169.49 135.684 2172.54 140.29 Q2175.62 144.873 2175.62 153.623 Q2175.62 162.35 2172.54 166.957 Q2169.49 171.54 2163.68 171.54 Q2157.87 171.54 2154.79 166.957 Q2151.73 162.35 2151.73 153.623 Q2151.73 144.873 2154.79 140.29 Q2157.87 135.684 2163.68 135.684 Z" fill="#adb2b7" fill-rule="evenodd" fill-opacity="1" /><path clip-path="url(#clip730)" d="M 0 0 M2180.69 164.989 L2185.57 164.989 L2185.57 170.869 L2180.69 170.869 L2180.69 164.989 Z" fill="#adb2b7" fill-rule="evenodd" fill-opacity="1" /><path clip-path="url(#clip730)" d="M 0 0 M2204.81 152.234 Q2208.17 152.952 2210.04 155.221 Q2211.94 157.489 2211.94 160.822 Q2211.94 165.938 2208.42 168.739 Q2204.9 171.54 2198.42 171.54 Q2196.25 171.54 2193.93 171.1 Q2191.64 170.683 2189.19 169.827 L2189.19 165.313 Q2191.13 166.447 2193.44 167.026 Q2195.76 167.605 2198.28 167.605 Q2202.68 167.605 2204.97 165.869 Q2207.29 164.133 2207.29 160.822 Q2207.29 157.767 2205.13 156.054 Q2203 154.318 2199.19 154.318 L2195.16 154.318 L2195.16 150.475 L2199.37 150.475 Q2202.82 150.475 2204.65 149.109 Q2206.48 147.721 2206.48 145.128 Q2206.48 142.466 2204.58 141.054 Q2202.7 139.619 2199.19 139.619 Q2197.26 139.619 2195.06 140.035 Q2192.87 140.452 2190.23 141.332 L2190.23 137.165 Q2192.89 136.424 2195.2 136.054 Q2197.54 135.684 2199.6 135.684 Q2204.93 135.684 2208.03 138.114 Q2211.13 140.522 2211.13 144.642 Q2211.13 147.512 2209.49 149.503 Q2207.84 151.471 2204.81 152.234 Z" fill="#adb2b7" fill-rule="evenodd" fill-opacity="1" /><path clip-path="url(#clip730)" d="M 0 0 M2231.18 152.234 Q2234.53 152.952 2236.41 155.221 Q2238.31 157.489 2238.31 160.822 Q2238.31 165.938 2234.79 168.739 Q2231.27 171.54 2224.79 171.54 Q2222.61 171.54 2220.3 171.1 Q2218 170.683 2215.55 169.827 L2215.55 165.313 Q2217.5 166.447 2219.81 167.026 Q2222.12 167.605 2224.65 167.605 Q2229.05 167.605 2231.34 165.869 Q2233.65 164.133 2233.65 160.822 Q2233.65 157.767 2231.5 156.054 Q2229.37 154.318 2225.55 154.318 L2221.52 154.318 L2221.52 150.475 L2225.74 150.475 Q2229.18 150.475 2231.01 149.109 Q2232.84 147.721 2232.84 145.128 Q2232.84 142.466 2230.94 141.054 Q2229.07 139.619 2225.55 139.619 Q2223.63 139.619 2221.43 140.035 Q2219.23 140.452 2216.59 141.332 L2216.59 137.165 Q2219.25 136.424 2221.57 136.054 Q2223.91 135.684 2225.97 135.684 Q2231.29 135.684 2234.39 138.114 Q2237.5 140.522 2237.5 144.642 Q2237.5 147.512 2235.85 149.503 Q2234.21 151.471 2231.18 152.234 Z" fill="#adb2b7" fill-rule="evenodd" fill-opacity="1" /></svg>
