<?xml version="1.0" encoding="utf-8"?>
<svg xmlns="http://www.w3.org/2000/svg" xmlns:xlink="http://www.w3.org/1999/xlink" width="600" height="400" viewBox="0 0 2400 1600">
<defs>
  <clipPath id="clip970">
    <rect x="0" y="0" width="2400" height="1600"/>
  </clipPath>
</defs>
<path clip-path="url(#clip970)" d="
M0 1600 L2400 1600 L2400 0 L0 0  Z
  " fill="#282c34" fill-rule="evenodd" fill-opacity="1"/>
<defs>
  <clipPath id="clip971">
    <rect x="480" y="0" width="1681" height="1600"/>
  </clipPath>
</defs>
<path clip-path="url(#clip970)" d="
M211.602 1423.18 L2352.76 1423.18 L2352.76 123.472 L211.602 123.472  Z
  " fill="#21252b" fill-rule="evenodd" fill-opacity="1"/>
<defs>
  <clipPath id="clip972">
    <rect x="211" y="123" width="2142" height="1301"/>
  </clipPath>
</defs>
<polyline clip-path="url(#clip972)" style="stroke:#adb2b7; stroke-width:2; stroke-opacity:0.1; fill:none" points="
  458.659,1423.18 458.659,123.472 
  "/>
<polyline clip-path="url(#clip972)" style="stroke:#adb2b7; stroke-width:2; stroke-opacity:0.1; fill:none" points="
  870.419,1423.18 870.419,123.472 
  "/>
<polyline clip-path="url(#clip972)" style="stroke:#adb2b7; stroke-width:2; stroke-opacity:0.1; fill:none" points="
  1282.18,1423.18 1282.18,123.472 
  "/>
<polyline clip-path="url(#clip972)" style="stroke:#adb2b7; stroke-width:2; stroke-opacity:0.1; fill:none" points="
  1693.94,1423.18 1693.94,123.472 
  "/>
<polyline clip-path="url(#clip972)" style="stroke:#adb2b7; stroke-width:2; stroke-opacity:0.1; fill:none" points="
  2105.7,1423.18 2105.7,123.472 
  "/>
<polyline clip-path="url(#clip972)" style="stroke:#adb2b7; stroke-width:2; stroke-opacity:0.1; fill:none" points="
  211.602,1390.34 2352.76,1390.34 
  "/>
<polyline clip-path="url(#clip972)" style="stroke:#adb2b7; stroke-width:2; stroke-opacity:0.1; fill:none" points="
  211.602,1089.11 2352.76,1089.11 
  "/>
<polyline clip-path="url(#clip972)" style="stroke:#adb2b7; stroke-width:2; stroke-opacity:0.1; fill:none" points="
  211.602,787.876 2352.76,787.876 
  "/>
<polyline clip-path="url(#clip972)" style="stroke:#adb2b7; stroke-width:2; stroke-opacity:0.1; fill:none" points="
  211.602,486.643 2352.76,486.643 
  "/>
<polyline clip-path="url(#clip972)" style="stroke:#adb2b7; stroke-width:2; stroke-opacity:0.1; fill:none" points="
  211.602,185.409 2352.76,185.409 
  "/>
<polyline clip-path="url(#clip970)" style="stroke:#adb2b7; stroke-width:4; stroke-opacity:1; fill:none" points="
  211.602,1423.18 2352.76,1423.18 
  "/>
<polyline clip-path="url(#clip970)" style="stroke:#adb2b7; stroke-width:4; stroke-opacity:1; fill:none" points="
  211.602,1423.18 211.602,123.472 
  "/>
<polyline clip-path="url(#clip970)" style="stroke:#adb2b7; stroke-width:4; stroke-opacity:1; fill:none" points="
  458.659,1423.18 458.659,1407.58 
  "/>
<polyline clip-path="url(#clip970)" style="stroke:#adb2b7; stroke-width:4; stroke-opacity:1; fill:none" points="
  870.419,1423.18 870.419,1407.58 
  "/>
<polyline clip-path="url(#clip970)" style="stroke:#adb2b7; stroke-width:4; stroke-opacity:1; fill:none" points="
  1282.18,1423.18 1282.18,1407.58 
  "/>
<polyline clip-path="url(#clip970)" style="stroke:#adb2b7; stroke-width:4; stroke-opacity:1; fill:none" points="
  1693.94,1423.18 1693.94,1407.58 
  "/>
<polyline clip-path="url(#clip970)" style="stroke:#adb2b7; stroke-width:4; stroke-opacity:1; fill:none" points="
  2105.7,1423.18 2105.7,1407.58 
  "/>
<polyline clip-path="url(#clip970)" style="stroke:#adb2b7; stroke-width:4; stroke-opacity:1; fill:none" points="
  211.602,1390.34 237.296,1390.34 
  "/>
<polyline clip-path="url(#clip970)" style="stroke:#adb2b7; stroke-width:4; stroke-opacity:1; fill:none" points="
  211.602,1089.11 237.296,1089.11 
  "/>
<polyline clip-path="url(#clip970)" style="stroke:#adb2b7; stroke-width:4; stroke-opacity:1; fill:none" points="
  211.602,787.876 237.296,787.876 
  "/>
<polyline clip-path="url(#clip970)" style="stroke:#adb2b7; stroke-width:4; stroke-opacity:1; fill:none" points="
  211.602,486.643 237.296,486.643 
  "/>
<polyline clip-path="url(#clip970)" style="stroke:#adb2b7; stroke-width:4; stroke-opacity:1; fill:none" points="
  211.602,185.409 237.296,185.409 
  "/>
<path clip-path="url(#clip970)" d="M 0 0 M435.325 1479.92 L451.645 1479.92 L451.645 1483.85 L429.7 1483.85 L429.7 1479.92 Q432.362 1477.16 436.946 1472.53 Q441.552 1467.88 442.733 1466.54 Q444.978 1464.01 445.858 1462.28 Q446.761 1460.52 446.761 1458.83 Q446.761 1456.07 444.816 1454.34 Q442.895 1452.6 439.793 1452.6 Q437.594 1452.6 435.14 1453.37 Q432.71 1454.13 429.932 1455.68 L429.932 1450.96 Q432.756 1449.82 435.21 1449.25 Q437.663 1448.67 439.7 1448.67 Q445.071 1448.67 448.265 1451.35 Q451.46 1454.04 451.46 1458.53 Q451.46 1460.66 450.649 1462.58 Q449.862 1464.48 447.756 1467.07 Q447.177 1467.74 444.075 1470.96 Q440.974 1474.15 435.325 1479.92 Z" fill="#9eb1be" fill-rule="evenodd" fill-opacity="1" /><path clip-path="url(#clip970)" d="M 0 0 M456.714 1477.97 L461.598 1477.97 L461.598 1483.85 L456.714 1483.85 L456.714 1477.97 Z" fill="#9eb1be" fill-rule="evenodd" fill-opacity="1" /><path clip-path="url(#clip970)" d="M 0 0 M466.714 1449.29 L485.07 1449.29 L485.07 1453.23 L470.996 1453.23 L470.996 1461.7 Q472.015 1461.35 473.034 1461.19 Q474.052 1461 475.071 1461 Q480.858 1461 484.237 1464.18 Q487.617 1467.35 487.617 1472.76 Q487.617 1478.34 484.145 1481.44 Q480.672 1484.52 474.353 1484.52 Q472.177 1484.52 469.909 1484.15 Q467.663 1483.78 465.256 1483.04 L465.256 1478.34 Q467.339 1479.48 469.561 1480.03 Q471.784 1480.59 474.26 1480.59 Q478.265 1480.59 480.603 1478.48 Q482.941 1476.38 482.941 1472.76 Q482.941 1469.15 480.603 1467.05 Q478.265 1464.94 474.26 1464.94 Q472.385 1464.94 470.51 1465.36 Q468.659 1465.77 466.714 1466.65 L466.714 1449.29 Z" fill="#9eb1be" fill-rule="evenodd" fill-opacity="1" /><path clip-path="url(#clip970)" d="M 0 0 M842.213 1449.29 L860.569 1449.29 L860.569 1453.23 L846.495 1453.23 L846.495 1461.7 Q847.514 1461.35 848.532 1461.19 Q849.551 1461 850.569 1461 Q856.356 1461 859.736 1464.18 Q863.116 1467.35 863.116 1472.76 Q863.116 1478.34 859.643 1481.44 Q856.171 1484.52 849.852 1484.52 Q847.676 1484.52 845.407 1484.15 Q843.162 1483.78 840.755 1483.04 L840.755 1478.34 Q842.838 1479.48 845.06 1480.03 Q847.282 1480.59 849.759 1480.59 Q853.764 1480.59 856.102 1478.48 Q858.44 1476.38 858.44 1472.76 Q858.44 1469.15 856.102 1467.05 Q853.764 1464.94 849.759 1464.94 Q847.884 1464.94 846.009 1465.36 Q844.157 1465.77 842.213 1466.65 L842.213 1449.29 Z" fill="#9eb1be" fill-rule="evenodd" fill-opacity="1" /><path clip-path="url(#clip970)" d="M 0 0 M868.185 1477.97 L873.069 1477.97 L873.069 1483.85 L868.185 1483.85 L868.185 1477.97 Z" fill="#9eb1be" fill-rule="evenodd" fill-opacity="1" /><path clip-path="url(#clip970)" d="M 0 0 M888.139 1452.37 Q884.528 1452.37 882.699 1455.94 Q880.893 1459.48 880.893 1466.61 Q880.893 1473.71 882.699 1477.28 Q884.528 1480.82 888.139 1480.82 Q891.773 1480.82 893.578 1477.28 Q895.407 1473.71 895.407 1466.61 Q895.407 1459.48 893.578 1455.94 Q891.773 1452.37 888.139 1452.37 M888.139 1448.67 Q893.949 1448.67 897.004 1453.27 Q900.083 1457.86 900.083 1466.61 Q900.083 1475.33 897.004 1479.94 Q893.949 1484.52 888.139 1484.52 Q882.329 1484.52 879.25 1479.94 Q876.194 1475.33 876.194 1466.61 Q876.194 1457.86 879.25 1453.27 Q882.329 1448.67 888.139 1448.67 Z" fill="#9eb1be" fill-rule="evenodd" fill-opacity="1" /><path clip-path="url(#clip970)" d="M 0 0 M1253.08 1449.29 L1275.3 1449.29 L1275.3 1451.28 L1262.76 1483.85 L1257.87 1483.85 L1269.68 1453.23 L1253.08 1453.23 L1253.08 1449.29 Z" fill="#9eb1be" fill-rule="evenodd" fill-opacity="1" /><path clip-path="url(#clip970)" d="M 0 0 M1280.37 1477.97 L1285.26 1477.97 L1285.26 1483.85 L1280.37 1483.85 L1280.37 1477.97 Z" fill="#9eb1be" fill-rule="evenodd" fill-opacity="1" /><path clip-path="url(#clip970)" d="M 0 0 M1290.37 1449.29 L1308.73 1449.29 L1308.73 1453.23 L1294.66 1453.23 L1294.66 1461.7 Q1295.67 1461.35 1296.69 1461.19 Q1297.71 1461 1298.73 1461 Q1304.52 1461 1307.9 1464.18 Q1311.28 1467.35 1311.28 1472.76 Q1311.28 1478.34 1307.8 1481.44 Q1304.33 1484.52 1298.01 1484.52 Q1295.84 1484.52 1293.57 1484.15 Q1291.32 1483.78 1288.92 1483.04 L1288.92 1478.34 Q1291 1479.48 1293.22 1480.03 Q1295.44 1480.59 1297.92 1480.59 Q1301.92 1480.59 1304.26 1478.48 Q1306.6 1476.38 1306.6 1472.76 Q1306.6 1469.15 1304.26 1467.05 Q1301.92 1464.94 1297.92 1464.94 Q1296.04 1464.94 1294.17 1465.36 Q1292.32 1465.77 1290.37 1466.65 L1290.37 1449.29 Z" fill="#9eb1be" fill-rule="evenodd" fill-opacity="1" /><path clip-path="url(#clip970)" d="M 0 0 M1652.33 1479.92 L1659.97 1479.92 L1659.97 1453.55 L1651.66 1455.22 L1651.66 1450.96 L1659.92 1449.29 L1664.6 1449.29 L1664.6 1479.92 L1672.24 1479.92 L1672.24 1483.85 L1652.33 1483.85 L1652.33 1479.92 Z" fill="#9eb1be" fill-rule="evenodd" fill-opacity="1" /><path clip-path="url(#clip970)" d="M 0 0 M1687.31 1452.37 Q1683.7 1452.37 1681.87 1455.94 Q1680.06 1459.48 1680.06 1466.61 Q1680.06 1473.71 1681.87 1477.28 Q1683.7 1480.82 1687.31 1480.82 Q1690.94 1480.82 1692.75 1477.28 Q1694.58 1473.71 1694.58 1466.61 Q1694.58 1459.48 1692.75 1455.94 Q1690.94 1452.37 1687.31 1452.37 M1687.31 1448.67 Q1693.12 1448.67 1696.17 1453.27 Q1699.25 1457.86 1699.25 1466.61 Q1699.25 1475.33 1696.17 1479.94 Q1693.12 1484.52 1687.31 1484.52 Q1681.5 1484.52 1678.42 1479.94 Q1675.36 1475.33 1675.36 1466.61 Q1675.36 1457.86 1678.42 1453.27 Q1681.5 1448.67 1687.31 1448.67 Z" fill="#9eb1be" fill-rule="evenodd" fill-opacity="1" /><path clip-path="url(#clip970)" d="M 0 0 M1704.32 1477.97 L1709.21 1477.97 L1709.21 1483.85 L1704.32 1483.85 L1704.32 1477.97 Z" fill="#9eb1be" fill-rule="evenodd" fill-opacity="1" /><path clip-path="url(#clip970)" d="M 0 0 M1724.27 1452.37 Q1720.66 1452.37 1718.84 1455.94 Q1717.03 1459.48 1717.03 1466.61 Q1717.03 1473.71 1718.84 1477.28 Q1720.66 1480.82 1724.27 1480.82 Q1727.91 1480.82 1729.71 1477.28 Q1731.54 1473.71 1731.54 1466.61 Q1731.54 1459.48 1729.71 1455.94 Q1727.91 1452.37 1724.27 1452.37 M1724.27 1448.67 Q1730.09 1448.67 1733.14 1453.27 Q1736.22 1457.86 1736.22 1466.61 Q1736.22 1475.33 1733.14 1479.94 Q1730.09 1484.52 1724.27 1484.52 Q1718.46 1484.52 1715.39 1479.94 Q1712.33 1475.33 1712.33 1466.61 Q1712.33 1457.86 1715.39 1453.27 Q1718.46 1448.67 1724.27 1448.67 Z" fill="#9eb1be" fill-rule="evenodd" fill-opacity="1" /><path clip-path="url(#clip970)" d="M 0 0 M2065.39 1479.92 L2073.03 1479.92 L2073.03 1453.55 L2064.72 1455.22 L2064.72 1450.96 L2072.98 1449.29 L2077.66 1449.29 L2077.66 1479.92 L2085.29 1479.92 L2085.29 1483.85 L2065.39 1483.85 L2065.39 1479.92 Z" fill="#9eb1be" fill-rule="evenodd" fill-opacity="1" /><path clip-path="url(#clip970)" d="M 0 0 M2094.39 1479.92 L2110.71 1479.92 L2110.71 1483.85 L2088.77 1483.85 L2088.77 1479.92 Q2091.43 1477.16 2096.01 1472.53 Q2100.62 1467.88 2101.8 1466.54 Q2104.04 1464.01 2104.92 1462.28 Q2105.83 1460.52 2105.83 1458.83 Q2105.83 1456.07 2103.88 1454.34 Q2101.96 1452.6 2098.86 1452.6 Q2096.66 1452.6 2094.21 1453.37 Q2091.78 1454.13 2089 1455.68 L2089 1450.96 Q2091.82 1449.82 2094.28 1449.25 Q2096.73 1448.67 2098.77 1448.67 Q2104.14 1448.67 2107.33 1451.35 Q2110.53 1454.04 2110.53 1458.53 Q2110.53 1460.66 2109.72 1462.58 Q2108.93 1464.48 2106.82 1467.07 Q2106.24 1467.74 2103.14 1470.96 Q2100.04 1474.15 2094.39 1479.92 Z" fill="#9eb1be" fill-rule="evenodd" fill-opacity="1" /><path clip-path="url(#clip970)" d="M 0 0 M2115.78 1477.97 L2120.66 1477.97 L2120.66 1483.85 L2115.78 1483.85 L2115.78 1477.97 Z" fill="#9eb1be" fill-rule="evenodd" fill-opacity="1" /><path clip-path="url(#clip970)" d="M 0 0 M2125.78 1449.29 L2144.14 1449.29 L2144.14 1453.23 L2130.06 1453.23 L2130.06 1461.7 Q2131.08 1461.35 2132.1 1461.19 Q2133.12 1461 2134.14 1461 Q2139.92 1461 2143.3 1464.18 Q2146.68 1467.35 2146.68 1472.76 Q2146.68 1478.34 2143.21 1481.44 Q2139.74 1484.52 2133.42 1484.52 Q2131.24 1484.52 2128.98 1484.15 Q2126.73 1483.78 2124.32 1483.04 L2124.32 1478.34 Q2126.41 1479.48 2128.63 1480.03 Q2130.85 1480.59 2133.33 1480.59 Q2137.33 1480.59 2139.67 1478.48 Q2142.01 1476.38 2142.01 1472.76 Q2142.01 1469.15 2139.67 1467.05 Q2137.33 1464.94 2133.33 1464.94 Q2131.45 1464.94 2129.58 1465.36 Q2127.73 1465.77 2125.78 1466.65 L2125.78 1449.29 Z" fill="#9eb1be" fill-rule="evenodd" fill-opacity="1" /><path clip-path="url(#clip970)" d="M 0 0 M126.691 1376.14 Q123.08 1376.14 121.251 1379.71 Q119.445 1383.25 119.445 1390.38 Q119.445 1397.48 121.251 1401.05 Q123.08 1404.59 126.691 1404.59 Q130.325 1404.59 132.13 1401.05 Q133.959 1397.48 133.959 1390.38 Q133.959 1383.25 132.13 1379.71 Q130.325 1376.14 126.691 1376.14 M126.691 1372.44 Q132.501 1372.44 135.556 1377.05 Q138.635 1381.63 138.635 1390.38 Q138.635 1399.11 135.556 1403.71 Q132.501 1408.29 126.691 1408.29 Q120.88 1408.29 117.802 1403.71 Q114.746 1399.11 114.746 1390.38 Q114.746 1381.63 117.802 1377.05 Q120.88 1372.44 126.691 1372.44 Z" fill="#9eb1be" fill-rule="evenodd" fill-opacity="1" /><path clip-path="url(#clip970)" d="M 0 0 M143.704 1401.74 L148.589 1401.74 L148.589 1407.62 L143.704 1407.62 L143.704 1401.74 Z" fill="#9eb1be" fill-rule="evenodd" fill-opacity="1" /><path clip-path="url(#clip970)" d="M 0 0 M163.658 1376.14 Q160.047 1376.14 158.218 1379.71 Q156.413 1383.25 156.413 1390.38 Q156.413 1397.48 158.218 1401.05 Q160.047 1404.59 163.658 1404.59 Q167.292 1404.59 169.098 1401.05 Q170.927 1397.48 170.927 1390.38 Q170.927 1383.25 169.098 1379.71 Q167.292 1376.14 163.658 1376.14 M163.658 1372.44 Q169.468 1372.44 172.524 1377.05 Q175.602 1381.63 175.602 1390.38 Q175.602 1399.11 172.524 1403.71 Q169.468 1408.29 163.658 1408.29 Q157.848 1408.29 154.769 1403.71 Q151.714 1399.11 151.714 1390.38 Q151.714 1381.63 154.769 1377.05 Q157.848 1372.44 163.658 1372.44 Z" fill="#9eb1be" fill-rule="evenodd" fill-opacity="1" /><path clip-path="url(#clip970)" d="M 0 0 M127.917 1074.91 Q124.306 1074.91 122.478 1078.47 Q120.672 1082.02 120.672 1089.14 Q120.672 1096.25 122.478 1099.82 Q124.306 1103.36 127.917 1103.36 Q131.552 1103.36 133.357 1099.82 Q135.186 1096.25 135.186 1089.14 Q135.186 1082.02 133.357 1078.47 Q131.552 1074.91 127.917 1074.91 M127.917 1071.21 Q133.728 1071.21 136.783 1075.81 Q139.862 1080.39 139.862 1089.14 Q139.862 1097.87 136.783 1102.48 Q133.728 1107.06 127.917 1107.06 Q122.107 1107.06 119.029 1102.48 Q115.973 1097.87 115.973 1089.14 Q115.973 1080.39 119.029 1075.81 Q122.107 1071.21 127.917 1071.21 Z" fill="#9eb1be" fill-rule="evenodd" fill-opacity="1" /><path clip-path="url(#clip970)" d="M 0 0 M144.931 1100.51 L149.816 1100.51 L149.816 1106.39 L144.931 1106.39 L144.931 1100.51 Z" fill="#9eb1be" fill-rule="evenodd" fill-opacity="1" /><path clip-path="url(#clip970)" d="M 0 0 M155.695 1102.45 L163.334 1102.45 L163.334 1076.09 L155.024 1077.76 L155.024 1073.5 L163.288 1071.83 L167.964 1071.83 L167.964 1102.45 L175.602 1102.45 L175.602 1106.39 L155.695 1106.39 L155.695 1102.45 Z" fill="#9eb1be" fill-rule="evenodd" fill-opacity="1" /><path clip-path="url(#clip970)" d="M 0 0 M128.288 773.675 Q124.677 773.675 122.848 777.24 Q121.043 780.782 121.043 787.911 Q121.043 795.018 122.848 798.582 Q124.677 802.124 128.288 802.124 Q131.922 802.124 133.728 798.582 Q135.556 795.018 135.556 787.911 Q135.556 780.782 133.728 777.24 Q131.922 773.675 128.288 773.675 M128.288 769.971 Q134.098 769.971 137.154 774.578 Q140.232 779.161 140.232 787.911 Q140.232 796.638 137.154 801.244 Q134.098 805.828 128.288 805.828 Q122.478 805.828 119.399 801.244 Q116.343 796.638 116.343 787.911 Q116.343 779.161 119.399 774.578 Q122.478 769.971 128.288 769.971 Z" fill="#9eb1be" fill-rule="evenodd" fill-opacity="1" /><path clip-path="url(#clip970)" d="M 0 0 M145.302 799.277 L150.186 799.277 L150.186 805.156 L145.302 805.156 L145.302 799.277 Z" fill="#9eb1be" fill-rule="evenodd" fill-opacity="1" /><path clip-path="url(#clip970)" d="M 0 0 M159.283 801.221 L175.602 801.221 L175.602 805.156 L153.658 805.156 L153.658 801.221 Q156.32 798.467 160.903 793.837 Q165.51 789.184 166.69 787.842 Q168.936 785.319 169.815 783.582 Q170.718 781.823 170.718 780.133 Q170.718 777.379 168.774 775.643 Q166.852 773.907 163.751 773.907 Q161.552 773.907 159.098 774.67 Q156.667 775.434 153.89 776.985 L153.89 772.263 Q156.714 771.129 159.167 770.55 Q161.621 769.971 163.658 769.971 Q169.028 769.971 172.223 772.657 Q175.417 775.342 175.417 779.832 Q175.417 781.962 174.607 783.883 Q173.82 785.782 171.714 788.374 Q171.135 789.045 168.033 792.263 Q164.931 795.457 159.283 801.221 Z" fill="#9eb1be" fill-rule="evenodd" fill-opacity="1" /><path clip-path="url(#clip970)" d="M 0 0 M127.339 472.441 Q123.728 472.441 121.899 476.006 Q120.093 479.548 120.093 486.677 Q120.093 493.784 121.899 497.349 Q123.728 500.89 127.339 500.89 Q130.973 500.89 132.779 497.349 Q134.607 493.784 134.607 486.677 Q134.607 479.548 132.779 476.006 Q130.973 472.441 127.339 472.441 M127.339 468.738 Q133.149 468.738 136.204 473.344 Q139.283 477.928 139.283 486.677 Q139.283 495.404 136.204 500.011 Q133.149 504.594 127.339 504.594 Q121.529 504.594 118.45 500.011 Q115.394 495.404 115.394 486.677 Q115.394 477.928 118.45 473.344 Q121.529 468.738 127.339 468.738 Z" fill="#9eb1be" fill-rule="evenodd" fill-opacity="1" /><path clip-path="url(#clip970)" d="M 0 0 M144.353 498.043 L149.237 498.043 L149.237 503.923 L144.353 503.923 L144.353 498.043 Z" fill="#9eb1be" fill-rule="evenodd" fill-opacity="1" /><path clip-path="url(#clip970)" d="M 0 0 M168.473 485.289 Q171.829 486.006 173.704 488.275 Q175.602 490.543 175.602 493.877 Q175.602 498.992 172.084 501.793 Q168.565 504.594 162.084 504.594 Q159.908 504.594 157.593 504.154 Q155.302 503.738 152.848 502.881 L152.848 498.367 Q154.792 499.501 157.107 500.08 Q159.422 500.659 161.945 500.659 Q166.343 500.659 168.635 498.923 Q170.95 497.187 170.95 493.877 Q170.95 490.821 168.797 489.108 Q166.667 487.372 162.848 487.372 L158.82 487.372 L158.82 483.529 L163.033 483.529 Q166.482 483.529 168.311 482.164 Q170.139 480.775 170.139 478.182 Q170.139 475.52 168.241 474.108 Q166.366 472.673 162.848 472.673 Q160.927 472.673 158.728 473.09 Q156.528 473.506 153.89 474.386 L153.89 470.219 Q156.552 469.478 158.866 469.108 Q161.204 468.738 163.265 468.738 Q168.589 468.738 171.69 471.168 Q174.792 473.576 174.792 477.696 Q174.792 480.566 173.149 482.557 Q171.505 484.525 168.473 485.289 Z" fill="#9eb1be" fill-rule="evenodd" fill-opacity="1" /><path clip-path="url(#clip970)" d="M 0 0 M126.205 171.208 Q122.593 171.208 120.765 174.773 Q118.959 178.314 118.959 185.444 Q118.959 192.55 120.765 196.115 Q122.593 199.657 126.205 199.657 Q129.839 199.657 131.644 196.115 Q133.473 192.55 133.473 185.444 Q133.473 178.314 131.644 174.773 Q129.839 171.208 126.205 171.208 M126.205 167.504 Q132.015 167.504 135.07 172.111 Q138.149 176.694 138.149 185.444 Q138.149 194.171 135.07 198.777 Q132.015 203.36 126.205 203.36 Q120.394 203.36 117.316 198.777 Q114.26 194.171 114.26 185.444 Q114.26 176.694 117.316 172.111 Q120.394 167.504 126.205 167.504 Z" fill="#9eb1be" fill-rule="evenodd" fill-opacity="1" /><path clip-path="url(#clip970)" d="M 0 0 M143.218 196.81 L148.103 196.81 L148.103 202.689 L143.218 202.689 L143.218 196.81 Z" fill="#9eb1be" fill-rule="evenodd" fill-opacity="1" /><path clip-path="url(#clip970)" d="M 0 0 M166.019 172.203 L154.214 190.652 L166.019 190.652 L166.019 172.203 M164.792 168.129 L170.672 168.129 L170.672 190.652 L175.602 190.652 L175.602 194.541 L170.672 194.541 L170.672 202.689 L166.019 202.689 L166.019 194.541 L150.417 194.541 L150.417 190.027 L164.792 168.129 Z" fill="#9eb1be" fill-rule="evenodd" fill-opacity="1" /><path clip-path="url(#clip970)" d="M 0 0 M781.406 34.3355 L791.331 62.3677 L805.509 27.2059 L813.409 27.2059 L795.058 72.576 L795.058 89.8329 L787.604 89.8329 L787.604 72.576 L775.695 38.7104 Q773.912 33.6063 770.064 33.6063 L768.079 33.6063 L768.079 27.2059 L770.915 27.2059 Q778.895 27.2059 781.406 34.3355 Z" fill="#adb2b7" fill-rule="evenodd" fill-opacity="1" /><path clip-path="url(#clip970)" d="M 0 0 M848.57 34.9026 L900.503 34.9026 L900.503 41.7081 L848.57 41.7081 L848.57 34.9026 M848.57 51.4303 L900.503 51.4303 L900.503 58.3168 L848.57 58.3168 L848.57 51.4303 Z" fill="#adb2b7" fill-rule="evenodd" fill-opacity="1" /><path clip-path="url(#clip970)" d="M 0 0 M953.246 17.4837 Q946.926 17.4837 943.726 23.7221 Q940.566 29.92 940.566 42.3968 Q940.566 54.833 943.726 61.0714 Q946.926 67.2693 953.246 67.2693 Q959.606 67.2693 962.765 61.0714 Q965.966 54.833 965.966 42.3968 Q965.966 29.92 962.765 23.7221 Q959.606 17.4837 953.246 17.4837 M953.246 11.0023 Q963.414 11.0023 968.761 19.0636 Q974.148 27.0843 974.148 42.3968 Q974.148 57.6687 968.761 65.73 Q963.414 73.7508 953.246 73.7508 Q943.078 73.7508 937.69 65.73 Q932.343 57.6687 932.343 42.3968 Q932.343 27.0843 937.69 19.0636 Q943.078 11.0023 953.246 11.0023 Z" fill="#adb2b7" fill-rule="evenodd" fill-opacity="1" /><path clip-path="url(#clip970)" d="M 0 0 M983.02 62.2867 L991.567 62.2867 L991.567 72.576 L983.02 72.576 L983.02 62.2867 Z" fill="#adb2b7" fill-rule="evenodd" fill-opacity="1" /><path clip-path="url(#clip970)" d="M 0 0 M1022.92 19.2256 L1002.26 51.5113 L1022.92 51.5113 L1022.92 19.2256 M1020.77 12.096 L1031.06 12.096 L1031.06 51.5113 L1039.69 51.5113 L1039.69 58.3168 L1031.06 58.3168 L1031.06 72.576 L1022.92 72.576 L1022.92 58.3168 L995.618 58.3168 L995.618 50.4176 L1020.77 12.096 Z" fill="#adb2b7" fill-rule="evenodd" fill-opacity="1" /><path clip-path="url(#clip970)" d="M 0 0 M1066.06 43.8551 Q1060.23 43.8551 1056.87 46.9743 Q1053.55 50.0935 1053.55 55.5622 Q1053.55 61.0309 1056.87 64.1501 Q1060.23 67.2693 1066.06 67.2693 Q1071.9 67.2693 1075.26 64.1501 Q1078.62 60.9904 1078.62 55.5622 Q1078.62 50.0935 1075.26 46.9743 Q1071.94 43.8551 1066.06 43.8551 M1057.88 40.3713 Q1052.61 39.075 1049.66 35.4697 Q1046.74 31.8644 1046.74 26.6793 Q1046.74 19.4281 1051.89 15.2152 Q1057.07 11.0023 1066.06 11.0023 Q1075.1 11.0023 1080.24 15.2152 Q1085.39 19.4281 1085.39 26.6793 Q1085.39 31.8644 1082.43 35.4697 Q1079.51 39.075 1074.29 40.3713 Q1080.2 41.7486 1083.48 45.759 Q1086.8 49.7694 1086.8 55.5622 Q1086.8 64.3527 1081.42 69.0517 Q1076.07 73.7508 1066.06 73.7508 Q1056.06 73.7508 1050.67 69.0517 Q1045.32 64.3527 1045.32 55.5622 Q1045.32 49.7694 1048.64 45.759 Q1051.97 41.7486 1057.88 40.3713 M1054.88 27.4489 Q1054.88 32.148 1057.8 34.7811 Q1060.76 37.4142 1066.06 37.4142 Q1071.33 37.4142 1074.29 34.7811 Q1077.28 32.148 1077.28 27.4489 Q1077.28 22.7499 1074.29 20.1168 Q1071.33 17.4837 1066.06 17.4837 Q1060.76 17.4837 1057.8 20.1168 Q1054.88 22.7499 1054.88 27.4489 Z" fill="#adb2b7" fill-rule="evenodd" fill-opacity="1" /><path clip-path="url(#clip970)" d="M 0 0 M1096.53 62.2867 L1105.07 62.2867 L1105.07 69.2543 L1098.43 82.2172 L1093.2 82.2172 L1096.53 69.2543 L1096.53 62.2867 Z" fill="#adb2b7" fill-rule="evenodd" fill-opacity="1" /><path clip-path="url(#clip970)" d="M 0 0 M1146.72 69.7809 L1146.72 89.8329 L1139.22 89.8329 L1139.22 27.4894 Q1139.22 9.01731 1156.48 9.01731 Q1174.06 9.01731 1174.06 24.6133 Q1174.06 35.7128 1167.09 39.7637 Q1178.44 43.4095 1178.44 54.2254 Q1178.44 73.4267 1158.91 73.4267 Q1150.32 73.4267 1146.72 69.7809 M1146.72 60.0587 Q1151.21 67.0668 1159.19 67.0668 Q1170.86 67.0668 1170.86 54.3469 Q1170.86 42.9234 1152.06 43.8146 L1152.06 36.928 Q1166.77 36.928 1166.77 23.9651 Q1166.77 15.0937 1157.29 15.0937 Q1146.72 15.0937 1146.72 27.7325 L1146.72 60.0587 Z" fill="#adb2b7" fill-rule="evenodd" fill-opacity="1" /><path clip-path="url(#clip970)" d="M 0 0 M1213.6 34.9026 L1265.53 34.9026 L1265.53 41.7081 L1213.6 41.7081 L1213.6 34.9026 M1213.6 51.4303 L1265.53 51.4303 L1265.53 58.3168 L1213.6 58.3168 L1213.6 51.4303 Z" fill="#adb2b7" fill-rule="evenodd" fill-opacity="1" /><path clip-path="url(#clip970)" d="M 0 0 M1302.19 65.6895 L1315.56 65.6895 L1315.56 19.5497 L1301.02 22.4663 L1301.02 15.0127 L1315.48 12.096 L1323.66 12.096 L1323.66 65.6895 L1337.03 65.6895 L1337.03 72.576 L1302.19 72.576 L1302.19 65.6895 Z" fill="#adb2b7" fill-rule="evenodd" fill-opacity="1" /><path clip-path="url(#clip970)" d="M 0 0 M1345.9 62.2867 L1354.45 62.2867 L1354.45 72.576 L1345.9 72.576 L1345.9 62.2867 Z" fill="#adb2b7" fill-rule="evenodd" fill-opacity="1" /><path clip-path="url(#clip970)" d="M 0 0 M1363.56 71.3202 L1363.56 63.8666 Q1366.64 65.3249 1369.8 66.0946 Q1372.96 66.8642 1376 66.8642 Q1384.1 66.8642 1388.35 61.436 Q1392.65 55.9673 1393.25 44.8678 Q1390.91 48.3516 1387.3 50.215 Q1383.69 52.0784 1379.32 52.0784 Q1370.25 52.0784 1364.94 46.6097 Q1359.67 41.1005 1359.67 31.5808 Q1359.67 22.2638 1365.18 16.633 Q1370.69 11.0023 1379.85 11.0023 Q1390.34 11.0023 1395.85 19.0636 Q1401.4 27.0843 1401.4 42.3968 Q1401.4 56.6965 1394.59 65.2439 Q1387.83 73.7508 1376.36 73.7508 Q1373.28 73.7508 1370.12 73.1431 Q1366.96 72.5355 1363.56 71.3202 M1379.85 45.678 Q1385.36 45.678 1388.56 41.9107 Q1391.8 38.1433 1391.8 31.5808 Q1391.8 25.0589 1388.56 21.2916 Q1385.36 17.4837 1379.85 17.4837 Q1374.34 17.4837 1371.1 21.2916 Q1367.9 25.0589 1367.9 31.5808 Q1367.9 38.1433 1371.1 41.9107 Q1374.34 45.678 1379.85 45.678 Z" fill="#adb2b7" fill-rule="evenodd" fill-opacity="1" /><path clip-path="url(#clip970)" d="M 0 0 M1410.35 12.096 L1442.47 12.096 L1442.47 18.9825 L1417.84 18.9825 L1417.84 33.8088 Q1419.63 33.2012 1421.41 32.9176 Q1423.19 32.5936 1424.97 32.5936 Q1435.1 32.5936 1441.02 38.1433 Q1446.93 43.6931 1446.93 53.1722 Q1446.93 62.9348 1440.85 68.3631 Q1434.78 73.7508 1423.72 73.7508 Q1419.91 73.7508 1415.94 73.1026 Q1412.01 72.4545 1407.8 71.1582 L1407.8 62.9348 Q1411.44 64.9198 1415.33 65.892 Q1419.22 66.8642 1423.56 66.8642 Q1430.56 66.8642 1434.66 63.1779 Q1438.75 59.4916 1438.75 53.1722 Q1438.75 46.8528 1434.66 43.1664 Q1430.56 39.4801 1423.56 39.4801 Q1420.27 39.4801 1416.99 40.2093 Q1413.75 40.9384 1410.35 42.4778 L1410.35 12.096 Z" fill="#adb2b7" fill-rule="evenodd" fill-opacity="1" /><path clip-path="url(#clip970)" d="M 0 0 M1456.65 62.2867 L1465.2 62.2867 L1465.2 69.2543 L1458.56 82.2172 L1453.33 82.2172 L1456.65 69.2543 L1456.65 62.2867 Z" fill="#adb2b7" fill-rule="evenodd" fill-opacity="1" /><path clip-path="url(#clip970)" d="M 0 0 M1528.39 44.2197 Q1531.03 45.1109 1533.5 48.0275 Q1536.01 50.9442 1538.52 56.0483 L1546.82 72.576 L1538.03 72.576 L1530.3 57.061 Q1527.3 50.9847 1524.46 48.9997 Q1521.67 47.0148 1516.81 47.0148 L1507.9 47.0148 L1507.9 72.576 L1499.71 72.576 L1499.71 12.096 L1518.18 12.096 Q1528.56 12.096 1533.66 16.4305 Q1538.76 20.7649 1538.76 29.5149 Q1538.76 35.2267 1536.09 38.994 Q1533.46 42.7613 1528.39 44.2197 M1507.9 18.8205 L1507.9 40.2903 L1518.18 40.2903 Q1524.1 40.2903 1527.1 37.5762 Q1530.14 34.8216 1530.14 29.5149 Q1530.14 24.2082 1527.1 21.5346 Q1524.1 18.8205 1518.18 18.8205 L1507.9 18.8205 Z" fill="#adb2b7" fill-rule="evenodd" fill-opacity="1" /><path clip-path="url(#clip970)" d="M 0 0 M1569.91 45.1514 Q1567.89 41.6676 1563.8 41.6676 Q1559.71 41.6676 1557.68 45.1514 Q1555.62 48.6352 1555.62 55.6027 Q1555.62 62.6108 1557.68 66.0946 Q1559.71 69.5783 1563.8 69.5783 Q1567.89 69.5783 1569.91 66.0946 Q1571.98 62.6108 1571.98 55.6027 Q1571.98 48.6352 1569.91 45.1514 M1563.8 38.0623 Q1570.32 38.0623 1573.76 42.5588 Q1577.21 47.0553 1577.21 55.6027 Q1577.21 64.1906 1573.76 68.6871 Q1570.32 73.1836 1563.8 73.1836 Q1557.24 73.1836 1553.79 68.6871 Q1550.35 64.1906 1550.35 55.6027 Q1550.35 47.0553 1553.79 42.5588 Q1557.24 38.0623 1563.8 38.0623 Z" fill="#adb2b7" fill-rule="evenodd" fill-opacity="1" /><path clip-path="url(#clip970)" d="M 0 0 M1586 34.9026 L1637.93 34.9026 L1637.93 41.7081 L1586 41.7081 L1586 34.9026 M1586 51.4303 L1637.93 51.4303 L1637.93 58.3168 L1586 58.3168 L1586 51.4303 Z" fill="#adb2b7" fill-rule="evenodd" fill-opacity="1" /><path clip-path="url(#clip970)" d="M 0 0 M1669.28 19.2256 L1648.62 51.5113 L1669.28 51.5113 L1669.28 19.2256 M1667.14 12.096 L1677.43 12.096 L1677.43 51.5113 L1686.05 51.5113 L1686.05 58.3168 L1677.43 58.3168 L1677.43 72.576 L1669.28 72.576 L1669.28 58.3168 L1641.98 58.3168 L1641.98 50.4176 L1667.14 12.096 Z" fill="#adb2b7" fill-rule="evenodd" fill-opacity="1" /><path clip-path="url(#clip970)" d="M 0 0 M1694.93 62.2867 L1703.47 62.2867 L1703.47 72.576 L1694.93 72.576 L1694.93 62.2867 Z" fill="#adb2b7" fill-rule="evenodd" fill-opacity="1" /><path clip-path="url(#clip970)" d="M 0 0 M1729.84 17.4837 Q1723.53 17.4837 1720.32 23.7221 Q1717.17 29.92 1717.17 42.3968 Q1717.17 54.833 1720.32 61.0714 Q1723.53 67.2693 1729.84 67.2693 Q1736.2 67.2693 1739.36 61.0714 Q1742.56 54.833 1742.56 42.3968 Q1742.56 29.92 1739.36 23.7221 Q1736.2 17.4837 1729.84 17.4837 M1729.84 11.0023 Q1740.01 11.0023 1745.36 19.0636 Q1750.75 27.0843 1750.75 42.3968 Q1750.75 57.6687 1745.36 65.73 Q1740.01 73.7508 1729.84 73.7508 Q1719.68 73.7508 1714.29 65.73 Q1708.94 57.6687 1708.94 42.3968 Q1708.94 27.0843 1714.29 19.0636 Q1719.68 11.0023 1729.84 11.0023 Z" fill="#adb2b7" fill-rule="evenodd" fill-opacity="1" /><path clip-path="url(#clip970)" d="M 0 0 M1759.7 12.096 L1791.82 12.096 L1791.82 18.9825 L1767.19 18.9825 L1767.19 33.8088 Q1768.98 33.2012 1770.76 32.9176 Q1772.54 32.5936 1774.32 32.5936 Q1784.45 32.5936 1790.37 38.1433 Q1796.28 43.6931 1796.28 53.1722 Q1796.28 62.9348 1790.2 68.3631 Q1784.13 73.7508 1773.07 73.7508 Q1769.26 73.7508 1765.29 73.1026 Q1761.36 72.4545 1757.15 71.1582 L1757.15 62.9348 Q1760.79 64.9198 1764.68 65.892 Q1768.57 66.8642 1772.91 66.8642 Q1779.91 66.8642 1784.01 63.1779 Q1788.1 59.4916 1788.1 53.1722 Q1788.1 46.8528 1784.01 43.1664 Q1779.91 39.4801 1772.91 39.4801 Q1769.62 39.4801 1766.34 40.2093 Q1763.1 40.9384 1759.7 42.4778 L1759.7 12.096 Z" fill="#adb2b7" fill-rule="evenodd" fill-opacity="1" /><path clip-path="url(#clip970)" d="M 0 0 M1217.92 1513.81 L1217.92 1550.76 L1225.68 1550.76 Q1235.52 1550.76 1240.07 1546.3 Q1244.65 1541.85 1244.65 1532.24 Q1244.65 1522.69 1240.07 1518.26 Q1235.52 1513.81 1225.68 1513.81 L1217.92 1513.81 M1211.49 1508.52 L1224.7 1508.52 Q1238.51 1508.52 1244.97 1514.28 Q1251.43 1520.01 1251.43 1532.24 Q1251.43 1544.52 1244.94 1550.28 Q1238.45 1556.04 1224.7 1556.04 L1211.49 1556.04 L1211.49 1508.52 Z" fill="#9eb1be" fill-rule="evenodd" fill-opacity="1" /><path clip-path="url(#clip970)" d="M 0 0 M1273.78 1538.12 Q1266.68 1538.12 1263.94 1539.75 Q1261.2 1541.37 1261.2 1545.29 Q1261.2 1548.4 1263.24 1550.25 Q1265.31 1552.07 1268.84 1552.07 Q1273.71 1552.07 1276.64 1548.63 Q1279.6 1545.16 1279.6 1539.43 L1279.6 1538.12 L1273.78 1538.12 M1285.46 1535.71 L1285.46 1556.04 L1279.6 1556.04 L1279.6 1550.63 Q1277.6 1553.88 1274.6 1555.44 Q1271.61 1556.97 1267.28 1556.97 Q1261.81 1556.97 1258.56 1553.91 Q1255.35 1550.82 1255.35 1545.67 Q1255.35 1539.65 1259.36 1536.6 Q1263.4 1533.54 1271.39 1533.54 L1279.6 1533.54 L1279.6 1532.97 Q1279.6 1528.93 1276.93 1526.73 Q1274.29 1524.5 1269.48 1524.5 Q1266.42 1524.5 1263.53 1525.23 Q1260.63 1525.97 1257.96 1527.43 L1257.96 1522.02 Q1261.17 1520.78 1264.2 1520.17 Q1267.22 1519.54 1270.08 1519.54 Q1277.82 1519.54 1281.64 1523.55 Q1285.46 1527.56 1285.46 1535.71 Z" fill="#9eb1be" fill-rule="evenodd" fill-opacity="1" /><path clip-path="url(#clip970)" d="M 0 0 M1306.43 1559.35 Q1303.95 1565.72 1301.59 1567.66 Q1299.24 1569.6 1295.29 1569.6 L1290.61 1569.6 L1290.61 1564.7 L1294.05 1564.7 Q1296.47 1564.7 1297.81 1563.56 Q1299.14 1562.41 1300.77 1558.14 L1301.82 1555.47 L1287.4 1520.4 L1293.61 1520.4 L1304.75 1548.28 L1315.89 1520.4 L1322.09 1520.4 L1306.43 1559.35 Z" fill="#9eb1be" fill-rule="evenodd" fill-opacity="1" /><path clip-path="url(#clip970)" d="M 0 0 M1350.96 1521.45 L1350.96 1526.98 Q1348.48 1525.71 1345.8 1525.07 Q1343.13 1524.44 1340.27 1524.44 Q1335.91 1524.44 1333.71 1525.77 Q1331.55 1527.11 1331.55 1529.79 Q1331.55 1531.82 1333.1 1533 Q1334.66 1534.15 1339.38 1535.2 L1341.38 1535.64 Q1347.62 1536.98 1350.23 1539.43 Q1352.87 1541.85 1352.87 1546.21 Q1352.87 1551.17 1348.92 1554.07 Q1345.01 1556.97 1338.13 1556.97 Q1335.27 1556.97 1332.15 1556.39 Q1329.06 1555.85 1325.63 1554.74 L1325.63 1548.69 Q1328.87 1550.38 1332.02 1551.24 Q1335.17 1552.07 1338.26 1552.07 Q1342.4 1552.07 1344.63 1550.66 Q1346.85 1549.23 1346.85 1546.65 Q1346.85 1544.27 1345.23 1542.99 Q1343.64 1541.72 1338.2 1540.54 L1336.16 1540.07 Q1330.72 1538.92 1328.3 1536.56 Q1325.88 1534.18 1325.88 1530.04 Q1325.88 1525.01 1329.44 1522.27 Q1333.01 1519.54 1339.57 1519.54 Q1342.81 1519.54 1345.68 1520.01 Q1348.54 1520.49 1350.96 1521.45 Z" fill="#9eb1be" fill-rule="evenodd" fill-opacity="1" /><path clip-path="url(#clip970)" d="M 0 0 M65.7242 991.383 Q66.4244 989.314 68.7161 987.373 Q71.0077 985.4 75.0181 983.426 L88.0042 976.901 L88.0042 983.808 L75.8138 989.887 Q71.0395 992.243 69.48 994.471 Q67.9204 996.667 67.9204 1000.49 L67.9204 1007.49 L88.0042 1007.49 L88.0042 1013.92 L40.4842 1013.92 L40.4842 999.404 Q40.4842 991.256 43.8898 987.246 Q47.2955 983.235 54.1704 983.235 Q58.6582 983.235 61.6183 985.336 Q64.5784 987.405 65.7242 991.383 M45.7677 1007.49 L62.6368 1007.49 L62.6368 999.404 Q62.6368 994.757 60.5043 992.402 Q58.34 990.015 54.1704 990.015 Q50.0009 990.015 47.9002 992.402 Q45.7677 994.757 45.7677 999.404 L45.7677 1007.49 Z" fill="#9eb1be" fill-rule="evenodd" fill-opacity="1" /><path clip-path="url(#clip970)" d="M 0 0 M70.0847 955.99 Q70.0847 963.088 71.7079 965.825 Q73.3312 968.562 77.2461 968.562 Q80.3653 968.562 82.2114 966.525 Q84.0256 964.456 84.0256 960.923 Q84.0256 956.054 80.5881 953.125 Q77.1188 950.165 71.3897 950.165 L70.0847 950.165 L70.0847 955.99 M67.6657 944.309 L88.0042 944.309 L88.0042 950.165 L82.5933 950.165 Q85.8398 952.171 87.3994 955.162 Q88.9272 958.154 88.9272 962.483 Q88.9272 967.957 85.8716 971.204 Q82.7843 974.419 77.6281 974.419 Q71.6125 974.419 68.5569 970.408 Q65.5014 966.366 65.5014 958.377 L65.5014 950.165 L64.9285 950.165 Q60.8862 950.165 58.6901 952.839 Q56.4621 955.481 56.4621 960.287 Q56.4621 963.342 57.1941 966.239 Q57.9262 969.135 59.3903 971.809 L53.9795 971.809 Q52.7381 968.594 52.1334 965.57 Q51.4968 962.547 51.4968 959.682 Q51.4968 951.948 55.5072 948.128 Q59.5176 944.309 67.6657 944.309 Z" fill="#9eb1be" fill-rule="evenodd" fill-opacity="1" /><path clip-path="url(#clip970)" d="M 0 0 M42.2347 932.373 L52.3562 932.373 L52.3562 920.31 L56.9077 920.31 L56.9077 932.373 L76.2594 932.373 Q80.6199 932.373 81.8613 931.196 Q83.1026 929.986 83.1026 926.326 L83.1026 920.31 L88.0042 920.31 L88.0042 926.326 Q88.0042 933.105 85.4897 935.683 Q82.9434 938.261 76.2594 938.261 L56.9077 938.261 L56.9077 942.558 L52.3562 942.558 L52.3562 938.261 L42.2347 938.261 L42.2347 932.373 Z" fill="#9eb1be" fill-rule="evenodd" fill-opacity="1" /><path clip-path="url(#clip970)" d="M 0 0 M52.3562 914.167 L52.3562 908.311 L88.0042 908.311 L88.0042 914.167 L52.3562 914.167 M38.479 914.167 L38.479 908.311 L45.895 908.311 L45.895 914.167 L38.479 914.167 Z" fill="#9eb1be" fill-rule="evenodd" fill-opacity="1" /><path clip-path="url(#clip970)" d="M 0 0 M56.4621 888.354 Q56.4621 893.065 60.1542 895.802 Q63.8145 898.539 70.212 898.539 Q76.6095 898.539 80.3017 895.834 Q83.9619 893.097 83.9619 888.354 Q83.9619 883.676 80.2698 880.938 Q76.5777 878.201 70.212 878.201 Q63.8781 878.201 60.186 880.938 Q56.4621 883.676 56.4621 888.354 M51.4968 888.354 Q51.4968 880.715 56.4621 876.355 Q61.4273 871.994 70.212 871.994 Q78.9649 871.994 83.9619 876.355 Q88.9272 880.715 88.9272 888.354 Q88.9272 896.025 83.9619 900.385 Q78.9649 904.714 70.212 904.714 Q61.4273 904.714 56.4621 900.385 Q51.4968 896.025 51.4968 888.354 Z" fill="#9eb1be" fill-rule="evenodd" fill-opacity="1" /><path clip-path="url(#clip970)" d="M 0 0 M56.4621 831.318 Q56.4621 836.028 60.1542 838.765 Q63.8145 841.503 70.212 841.503 Q76.6095 841.503 80.3017 838.797 Q83.9619 836.06 83.9619 831.318 Q83.9619 826.639 80.2698 823.902 Q76.5777 821.164 70.212 821.164 Q63.8781 821.164 60.186 823.902 Q56.4621 826.639 56.4621 831.318 M51.4968 831.318 Q51.4968 823.679 56.4621 819.318 Q61.4273 814.958 70.212 814.958 Q78.9649 814.958 83.9619 819.318 Q88.9272 823.679 88.9272 831.318 Q88.9272 838.988 83.9619 843.349 Q78.9649 847.677 70.212 847.677 Q61.4273 847.677 56.4621 843.349 Q51.4968 838.988 51.4968 831.318 Z" fill="#9eb1be" fill-rule="evenodd" fill-opacity="1" /><path clip-path="url(#clip970)" d="M 0 0 M38.479 790.768 L43.3487 790.768 L43.3487 796.37 Q43.3487 799.521 44.6219 800.762 Q45.895 801.972 49.2052 801.972 L52.3562 801.972 L52.3562 792.328 L56.9077 792.328 L56.9077 801.972 L88.0042 801.972 L88.0042 807.86 L56.9077 807.86 L56.9077 813.462 L52.3562 813.462 L52.3562 807.86 L49.8736 807.86 Q43.9216 807.86 41.2162 805.091 Q38.479 802.322 38.479 796.306 L38.479 790.768 Z" fill="#9eb1be" fill-rule="evenodd" fill-opacity="1" /><path clip-path="url(#clip970)" d="M 0 0 M40.4842 763.65 L40.4842 757.221 L88.0042 757.221 L88.0042 763.65 L40.4842 763.65 Z" fill="#9eb1be" fill-rule="evenodd" fill-opacity="1" /><path clip-path="url(#clip970)" d="M 0 0 M66.4881 721.445 L88.0042 721.445 L88.0042 727.302 L66.679 727.302 Q61.6183 727.302 59.1038 729.275 Q56.5894 731.249 56.5894 735.195 Q56.5894 739.938 59.6131 742.675 Q62.6368 745.412 67.8567 745.412 L88.0042 745.412 L88.0042 751.301 L52.3562 751.301 L52.3562 745.412 L57.8944 745.412 Q54.6797 743.312 53.0883 740.479 Q51.4968 737.614 51.4968 733.89 Q51.4968 727.748 55.3163 724.596 Q59.1038 721.445 66.4881 721.445 Z" fill="#9eb1be" fill-rule="evenodd" fill-opacity="1" /><path clip-path="url(#clip970)" d="M 0 0 M38.479 697.256 L43.3487 697.256 L43.3487 702.858 Q43.3487 706.009 44.6219 707.25 Q45.895 708.459 49.2052 708.459 L52.3562 708.459 L52.3562 698.815 L56.9077 698.815 L56.9077 708.459 L88.0042 708.459 L88.0042 714.348 L56.9077 714.348 L56.9077 719.95 L52.3562 719.95 L52.3562 714.348 L49.8736 714.348 Q43.9216 714.348 41.2162 711.579 Q38.479 708.81 38.479 702.794 L38.479 697.256 Z" fill="#9eb1be" fill-rule="evenodd" fill-opacity="1" /><path clip-path="url(#clip970)" d="M 0 0 M68.7161 660.621 L71.5806 660.621 L71.5806 687.548 Q77.6281 687.166 80.8109 683.92 Q83.9619 680.641 83.9619 674.817 Q83.9619 671.443 83.1344 668.292 Q82.3069 665.109 80.6518 661.99 L86.1899 661.99 Q87.5267 665.141 88.227 668.451 Q88.9272 671.761 88.9272 675.167 Q88.9272 683.697 83.9619 688.694 Q78.9967 693.659 70.5303 693.659 Q61.7774 693.659 56.6531 688.949 Q51.4968 684.206 51.4968 676.185 Q51.4968 668.992 56.1438 664.823 Q60.7589 660.621 68.7161 660.621 M66.9973 666.478 Q62.1912 666.541 59.3266 669.183 Q56.4621 671.793 56.4621 676.122 Q56.4621 681.023 59.2312 683.983 Q62.0002 686.912 67.0292 687.357 L66.9973 666.478 Z" fill="#9eb1be" fill-rule="evenodd" fill-opacity="1" /><path clip-path="url(#clip970)" d="M 0 0 M53.7248 628.824 L59.1993 628.824 Q57.8307 631.307 57.1623 633.822 Q56.4621 636.304 56.4621 638.85 Q56.4621 644.548 60.0905 647.699 Q63.6872 650.85 70.212 650.85 Q76.7369 650.85 80.3653 647.699 Q83.9619 644.548 83.9619 638.85 Q83.9619 636.304 83.2935 633.822 Q82.5933 631.307 81.2247 628.824 L86.6355 628.824 Q87.7814 631.275 88.3543 633.917 Q88.9272 636.527 88.9272 639.487 Q88.9272 647.54 83.8664 652.282 Q78.8057 657.025 70.212 657.025 Q61.491 657.025 56.4939 652.25 Q51.4968 647.444 51.4968 639.105 Q51.4968 636.4 52.0697 633.822 Q52.6108 631.243 53.7248 628.824 Z" fill="#9eb1be" fill-rule="evenodd" fill-opacity="1" /><path clip-path="url(#clip970)" d="M 0 0 M42.2347 616.889 L52.3562 616.889 L52.3562 604.826 L56.9077 604.826 L56.9077 616.889 L76.2594 616.889 Q80.6199 616.889 81.8613 615.711 Q83.1026 614.502 83.1026 610.841 L83.1026 604.826 L88.0042 604.826 L88.0042 610.841 Q88.0042 617.621 85.4897 620.199 Q82.9434 622.777 76.2594 622.777 L56.9077 622.777 L56.9077 627.074 L52.3562 627.074 L52.3562 622.777 L42.2347 622.777 L42.2347 616.889 Z" fill="#9eb1be" fill-rule="evenodd" fill-opacity="1" /><path clip-path="url(#clip970)" d="M 0 0 M68.7161 568.191 L71.5806 568.191 L71.5806 595.118 Q77.6281 594.736 80.8109 591.49 Q83.9619 588.211 83.9619 582.387 Q83.9619 579.013 83.1344 575.862 Q82.3069 572.679 80.6518 569.56 L86.1899 569.56 Q87.5267 572.711 88.227 576.021 Q88.9272 579.331 88.9272 582.737 Q88.9272 591.267 83.9619 596.264 Q78.9967 601.229 70.5303 601.229 Q61.7774 601.229 56.6531 596.518 Q51.4968 591.776 51.4968 583.755 Q51.4968 576.562 56.1438 572.392 Q60.7589 568.191 68.7161 568.191 M66.9973 574.048 Q62.1912 574.111 59.3266 576.753 Q56.4621 579.363 56.4621 583.692 Q56.4621 588.593 59.2312 591.553 Q62.0002 594.481 67.0292 594.927 L66.9973 574.048 Z" fill="#9eb1be" fill-rule="evenodd" fill-opacity="1" /><path clip-path="url(#clip970)" d="M 0 0 M57.7671 538.591 L38.479 538.591 L38.479 532.734 L88.0042 532.734 L88.0042 538.591 L82.657 538.591 Q85.8398 540.437 87.3994 543.269 Q88.9272 546.07 88.9272 550.017 Q88.9272 556.478 83.771 560.552 Q78.6147 564.594 70.212 564.594 Q61.8093 564.594 56.6531 560.552 Q51.4968 556.478 51.4968 550.017 Q51.4968 546.07 53.0564 543.269 Q54.5842 540.437 57.7671 538.591 M70.212 558.547 Q76.6732 558.547 80.3653 555.905 Q84.0256 553.232 84.0256 548.585 Q84.0256 543.938 80.3653 541.264 Q76.6732 538.591 70.212 538.591 Q63.7508 538.591 60.0905 541.264 Q56.3984 543.938 56.3984 548.585 Q56.3984 553.232 60.0905 555.905 Q63.7508 558.547 70.212 558.547 Z" fill="#9eb1be" fill-rule="evenodd" fill-opacity="1" /><polyline clip-path="url(#clip972)" style="stroke:#fe4365; stroke-width:4; stroke-opacity:1; fill:none" points="
  211.602,1386.4 233.23,1385.56 254.858,1384.54 276.486,1383.31 298.114,1381.82 319.741,1380.02 341.369,1377.84 362.997,1375.2 384.625,1372.01 406.253,1368.16 
  427.881,1363.51 449.508,1357.9 471.136,1351.16 492.764,1343.04 514.392,1333.31 536.02,1321.66 557.647,1307.75 579.275,1291.19 600.903,1271.57 622.531,1248.4 
  644.159,1221.2 665.786,1189.48 687.414,1152.77 709.042,1110.64 730.67,1062.77 752.298,1009.04 773.926,949.557 795.553,884.65 817.181,815.075 838.809,741.931 
  860.437,666.615 882.065,590.814 903.692,516.435 925.32,445.471 946.948,379.876 968.576,321.265 990.204,270.893 1011.83,229.664 1033.46,198.124 1055.09,176.33 
  1076.71,163.895 1098.34,160.256 1119.97,164.697 1141.6,176.341 1163.23,194.162 1184.85,217.148 1206.48,244.416 1228.11,275.153 1249.74,308.614 1271.37,344.122 
  1292.99,381.069 1314.62,418.915 1336.25,457.189 1357.88,495.503 1379.5,533.578 1401.13,571.171 1422.76,608.082 1444.39,644.147 1466.02,679.244 1487.64,713.286 
  1509.27,746.2 1530.9,777.949 1552.53,808.514 1574.15,837.879 1595.78,866.042 1617.41,893.005 1639.04,918.78 1660.67,943.389 1682.29,966.86 1703.92,989.23 
  1725.55,1010.54 1747.18,1030.81 1768.8,1050.09 1790.43,1068.4 1812.06,1085.8 1833.69,1102.31 1855.32,1117.98 1876.94,1132.83 1898.57,1146.91 1920.2,1160.26 
  1941.83,1172.9 1963.46,1184.88 1985.08,1196.22 2006.71,1206.95 2028.34,1217.1 2049.97,1226.71 2071.59,1235.79 2093.22,1244.39 2114.85,1252.51 2136.48,1260.19 
  2158.11,1267.45 2179.73,1274.31 2201.36,1280.8 2222.99,1286.93 2244.62,1292.72 2266.24,1298.19 2287.87,1303.36 2309.5,1308.24 2331.13,1312.85 2352.76,1317.2 
  
  "/>
<polyline clip-path="url(#clip972)" style="stroke:#eca25c; stroke-width:4; stroke-opacity:1; fill:none" points="
  211.602,1378.5 233.23,1375.91 254.858,1373.32 276.486,1370.72 298.114,1368.13 319.741,1365.54 341.369,1362.95 362.997,1360.35 384.625,1354.77 406.253,1344.4 
  427.881,1334.03 449.508,1323.67 471.136,1313.3 492.764,1302.93 514.392,1292.56 536.02,1282.19 557.647,1261.06 579.275,1236.69 600.903,1212.32 622.531,1187.96 
  644.159,1163.59 665.786,1139.23 687.414,1114.86 709.042,1082.6 730.67,1006.91 752.298,931.217 773.926,855.527 795.553,779.837 817.181,704.147 838.809,628.456 
  860.437,552.766 882.065,498.291 903.692,462.002 925.32,425.712 946.948,389.422 968.576,353.132 990.204,316.842 1011.83,280.552 1033.46,244.262 1055.09,258.699 
  1076.71,277.362 1098.34,296.025 1119.97,314.689 1141.6,333.352 1163.23,352.015 1184.85,370.679 1206.48,386.79 1228.11,397.158 1249.74,407.527 1271.37,417.895 
  1292.99,428.264 1314.62,438.632 1336.25,449.001 1357.88,459.37 1379.5,478.711 1401.13,502.04 1422.76,525.369 1444.39,548.698 1466.02,572.028 1487.64,595.357 
  1509.27,618.686 1530.9,642.813 1552.53,676.51 1574.15,710.208 1595.78,743.906 1617.41,777.604 1639.04,811.301 1660.67,844.999 1682.29,878.697 1703.92,910.002 
  1725.55,938.515 1747.18,967.029 1768.8,995.542 1790.43,1024.06 1812.06,1052.57 1833.69,1081.08 1855.32,1109.6 1876.94,1132.41 1898.57,1154.18 1920.2,1175.95 
  1941.83,1197.73 1963.46,1219.5 1985.08,1241.28 2006.71,1263.05 2028.34,1281.71 2049.97,1290.01 2071.59,1298.3 2093.22,1306.6 2114.85,1314.89 2136.48,1323.19 
  2158.11,1331.48 2179.73,1339.78 2201.36,1345.2 2222.99,1348.83 2244.62,1352.46 2266.24,1356.09 2287.87,1359.72 2309.5,1363.35 2331.13,1366.97 2352.76,1370.6 
  
  "/>
<path clip-path="url(#clip970)" d="
M1676.7 348.236 L2281.38 348.236 L2281.38 166.796 L1676.7 166.796  Z
  " fill="#282c34" fill-rule="evenodd" fill-opacity="1"/>
<polyline clip-path="url(#clip970)" style="stroke:#9eb1be; stroke-width:4; stroke-opacity:1; fill:none" points="
  1676.7,348.236 2281.38,348.236 2281.38,166.796 1676.7,166.796 1676.7,348.236 
  "/>
<polyline clip-path="url(#clip970)" style="stroke:#fe4365; stroke-width:4; stroke-opacity:1; fill:none" points="
  1700.49,227.276 1843.23,227.276 
  "/>
<path clip-path="url(#clip970)" d="M 0 0 M1867.02 209.996 L1873.99 209.996 L1882.81 233.514 L1891.68 209.996 L1898.64 209.996 L1898.64 244.556 L1894.08 244.556 L1894.08 214.209 L1885.17 237.912 L1880.47 237.912 L1871.56 214.209 L1871.56 244.556 L1867.02 244.556 L1867.02 209.996 Z" fill="#adb2b7" fill-rule="evenodd" fill-opacity="1" /><path clip-path="url(#clip970)" d="M 0 0 M1913.16 221.616 Q1909.73 221.616 1907.74 224.301 Q1905.75 226.963 1905.75 231.616 Q1905.75 236.269 1907.72 238.954 Q1909.71 241.616 1913.16 241.616 Q1916.56 241.616 1918.55 238.931 Q1920.54 236.246 1920.54 231.616 Q1920.54 227.01 1918.55 224.324 Q1916.56 221.616 1913.16 221.616 M1913.16 218.005 Q1918.71 218.005 1921.88 221.616 Q1925.05 225.227 1925.05 231.616 Q1925.05 237.982 1921.88 241.616 Q1918.71 245.227 1913.16 245.227 Q1907.58 245.227 1904.41 241.616 Q1901.26 237.982 1901.26 231.616 Q1901.26 225.227 1904.41 221.616 Q1907.58 218.005 1913.16 218.005 Z" fill="#adb2b7" fill-rule="evenodd" fill-opacity="1" /><path clip-path="url(#clip970)" d="M 0 0 M1946.58 222.565 L1946.58 208.537 L1950.84 208.537 L1950.84 244.556 L1946.58 244.556 L1946.58 240.667 Q1945.24 242.982 1943.18 244.116 Q1941.14 245.227 1938.27 245.227 Q1933.57 245.227 1930.61 241.477 Q1927.67 237.727 1927.67 231.616 Q1927.67 225.505 1930.61 221.755 Q1933.57 218.005 1938.27 218.005 Q1941.14 218.005 1943.18 219.139 Q1945.24 220.25 1946.58 222.565 M1932.07 231.616 Q1932.07 236.315 1933.99 239 Q1935.93 241.662 1939.31 241.662 Q1942.69 241.662 1944.64 239 Q1946.58 236.315 1946.58 231.616 Q1946.58 226.917 1944.64 224.255 Q1942.69 221.57 1939.31 221.57 Q1935.93 221.57 1933.99 224.255 Q1932.07 226.917 1932.07 231.616 Z" fill="#adb2b7" fill-rule="evenodd" fill-opacity="1" /><path clip-path="url(#clip970)" d="M 0 0 M1977.48 230.528 L1977.48 232.611 L1957.9 232.611 Q1958.18 237.009 1960.54 239.324 Q1962.92 241.616 1967.16 241.616 Q1969.61 241.616 1971.91 241.014 Q1974.22 240.412 1976.49 239.209 L1976.49 243.236 Q1974.2 244.208 1971.79 244.718 Q1969.38 245.227 1966.91 245.227 Q1960.7 245.227 1957.07 241.616 Q1953.46 238.005 1953.46 231.847 Q1953.46 225.482 1956.88 221.755 Q1960.33 218.005 1966.17 218.005 Q1971.4 218.005 1974.43 221.385 Q1977.48 224.741 1977.48 230.528 M1973.23 229.278 Q1973.18 225.783 1971.26 223.699 Q1969.36 221.616 1966.21 221.616 Q1962.65 221.616 1960.49 223.63 Q1958.36 225.644 1958.04 229.301 L1973.23 229.278 Z" fill="#adb2b7" fill-rule="evenodd" fill-opacity="1" /><path clip-path="url(#clip970)" d="M 0 0 M1981.95 208.537 L1986.21 208.537 L1986.21 244.556 L1981.95 244.556 L1981.95 208.537 Z" fill="#adb2b7" fill-rule="evenodd" fill-opacity="1" /><path clip-path="url(#clip970)" d="M 0 0 M2015.98 208.584 Q2012.88 213.908 2011.37 219.116 Q2009.87 224.324 2009.87 229.672 Q2009.87 235.019 2011.37 240.273 Q2012.9 245.505 2015.98 250.806 L2012.28 250.806 Q2008.8 245.366 2007.07 240.111 Q2005.36 234.857 2005.36 229.672 Q2005.36 224.51 2007.07 219.278 Q2008.78 214.047 2012.28 208.584 L2015.98 208.584 Z" fill="#adb2b7" fill-rule="evenodd" fill-opacity="1" /><path clip-path="url(#clip970)" d="M 0 0 M2037.02 228.352 Q2038.53 228.861 2039.94 230.528 Q2041.37 232.195 2042.81 235.111 L2047.55 244.556 L2042.53 244.556 L2038.11 235.69 Q2036.4 232.218 2034.78 231.084 Q2033.18 229.949 2030.4 229.949 L2025.31 229.949 L2025.31 244.556 L2020.63 244.556 L2020.63 209.996 L2031.19 209.996 Q2037.11 209.996 2040.03 212.473 Q2042.95 214.949 2042.95 219.949 Q2042.95 223.213 2041.42 225.366 Q2039.92 227.519 2037.02 228.352 M2025.31 213.838 L2025.31 226.107 L2031.19 226.107 Q2034.57 226.107 2036.28 224.556 Q2038.02 222.982 2038.02 219.949 Q2038.02 216.917 2036.28 215.389 Q2034.57 213.838 2031.19 213.838 L2025.31 213.838 Z" fill="#adb2b7" fill-rule="evenodd" fill-opacity="1" /><path clip-path="url(#clip970)" d="M 0 0 M2053.76 226.454 L2063.57 226.454 L2063.57 229.093 L2049.73 229.093 L2049.73 226.547 Q2050.52 225.829 2051.98 224.533 Q2059.94 217.473 2059.94 215.297 Q2059.94 213.769 2058.73 212.843 Q2057.53 211.894 2055.56 211.894 Q2054.36 211.894 2052.95 212.311 Q2051.54 212.704 2049.87 213.514 L2049.87 210.667 Q2051.65 210.019 2053.18 209.695 Q2054.73 209.371 2056.05 209.371 Q2059.41 209.371 2061.42 210.898 Q2063.43 212.426 2063.43 214.926 Q2063.43 218.144 2055.77 224.718 Q2054.48 225.829 2053.76 226.454 Z" fill="#adb2b7" fill-rule="evenodd" fill-opacity="1" /><path clip-path="url(#clip970)" d="M 0 0 M2083.66 223.028 L2113.34 223.028 L2113.34 226.917 L2083.66 226.917 L2083.66 223.028 M2083.66 232.472 L2113.34 232.472 L2113.34 236.408 L2083.66 236.408 L2083.66 232.472 Z" fill="#adb2b7" fill-rule="evenodd" fill-opacity="1" /><path clip-path="url(#clip970)" d="M 0 0 M2143.48 213.074 Q2139.87 213.074 2138.04 216.639 Q2136.23 220.181 2136.23 227.31 Q2136.23 234.417 2138.04 237.982 Q2139.87 241.523 2143.48 241.523 Q2147.11 241.523 2148.92 237.982 Q2150.75 234.417 2150.75 227.31 Q2150.75 220.181 2148.92 216.639 Q2147.11 213.074 2143.48 213.074 M2143.48 209.371 Q2149.29 209.371 2152.35 213.977 Q2155.42 218.56 2155.42 227.31 Q2155.42 236.037 2152.35 240.644 Q2149.29 245.227 2143.48 245.227 Q2137.67 245.227 2134.59 240.644 Q2131.53 236.037 2131.53 227.31 Q2131.53 218.56 2134.59 213.977 Q2137.67 209.371 2143.48 209.371 Z" fill="#adb2b7" fill-rule="evenodd" fill-opacity="1" /><path clip-path="url(#clip970)" d="M 0 0 M2160.49 238.676 L2165.38 238.676 L2165.38 244.556 L2160.49 244.556 L2160.49 238.676 Z" fill="#adb2b7" fill-rule="evenodd" fill-opacity="1" /><path clip-path="url(#clip970)" d="M 0 0 M2170.59 243.838 L2170.59 239.579 Q2172.34 240.412 2174.15 240.852 Q2175.96 241.292 2177.69 241.292 Q2182.32 241.292 2184.75 238.19 Q2187.21 235.065 2187.55 228.722 Q2186.21 230.713 2184.15 231.778 Q2182.09 232.843 2179.59 232.843 Q2174.41 232.843 2171.37 229.718 Q2168.36 226.57 2168.36 221.13 Q2168.36 215.806 2171.51 212.588 Q2174.66 209.371 2179.89 209.371 Q2185.89 209.371 2189.03 213.977 Q2192.21 218.56 2192.21 227.31 Q2192.21 235.482 2188.32 240.366 Q2184.45 245.227 2177.9 245.227 Q2176.14 245.227 2174.34 244.88 Q2172.53 244.533 2170.59 243.838 M2179.89 229.185 Q2183.04 229.185 2184.87 227.033 Q2186.72 224.88 2186.72 221.13 Q2186.72 217.403 2184.87 215.25 Q2183.04 213.074 2179.89 213.074 Q2176.74 213.074 2174.89 215.25 Q2173.06 217.403 2173.06 221.13 Q2173.06 224.88 2174.89 227.033 Q2176.74 229.185 2179.89 229.185 Z" fill="#adb2b7" fill-rule="evenodd" fill-opacity="1" /><path clip-path="url(#clip970)" d="M 0 0 M2207.85 225.412 Q2204.71 225.412 2202.85 227.565 Q2201.03 229.718 2201.03 233.468 Q2201.03 237.195 2202.85 239.371 Q2204.71 241.523 2207.85 241.523 Q2211 241.523 2212.83 239.371 Q2214.68 237.195 2214.68 233.468 Q2214.68 229.718 2212.83 227.565 Q2211 225.412 2207.85 225.412 M2217.14 210.76 L2217.14 215.019 Q2215.38 214.186 2213.57 213.746 Q2211.79 213.306 2210.03 213.306 Q2205.4 213.306 2202.95 216.431 Q2200.52 219.556 2200.17 225.875 Q2201.53 223.861 2203.59 222.797 Q2205.65 221.709 2208.13 221.709 Q2213.34 221.709 2216.35 224.88 Q2219.38 228.028 2219.38 233.468 Q2219.38 238.792 2216.23 242.009 Q2213.09 245.227 2207.85 245.227 Q2201.86 245.227 2198.69 240.644 Q2195.52 236.037 2195.52 227.31 Q2195.52 219.116 2199.4 214.255 Q2203.29 209.371 2209.84 209.371 Q2211.6 209.371 2213.39 209.718 Q2215.19 210.065 2217.14 210.76 Z" fill="#adb2b7" fill-rule="evenodd" fill-opacity="1" /><path clip-path="url(#clip970)" d="M 0 0 M2223.18 208.584 L2226.88 208.584 Q2230.35 214.047 2232.07 219.278 Q2233.8 224.51 2233.8 229.672 Q2233.8 234.857 2232.07 240.111 Q2230.35 245.366 2226.88 250.806 L2223.18 250.806 Q2226.26 245.505 2227.76 240.273 Q2229.29 235.019 2229.29 229.672 Q2229.29 224.324 2227.76 219.116 Q2226.26 213.908 2223.18 208.584 Z" fill="#adb2b7" fill-rule="evenodd" fill-opacity="1" /><polyline clip-path="url(#clip970)" style="stroke:#eca25c; stroke-width:4; stroke-opacity:1; fill:none" points="
  1700.49,287.756 1843.23,287.756 
  "/>
<path clip-path="url(#clip970)" d="M 0 0 M1871.7 274.318 L1871.7 301.193 L1877.35 301.193 Q1884.5 301.193 1887.81 297.952 Q1891.14 294.712 1891.14 287.721 Q1891.14 280.777 1887.81 277.559 Q1884.5 274.318 1877.35 274.318 L1871.7 274.318 M1867.02 270.476 L1876.63 270.476 Q1886.68 270.476 1891.37 274.666 Q1896.07 278.832 1896.07 287.721 Q1896.07 296.656 1891.35 300.846 Q1886.63 305.036 1876.63 305.036 L1867.02 305.036 L1867.02 270.476 Z" fill="#adb2b7" fill-rule="evenodd" fill-opacity="1" /><path clip-path="url(#clip970)" d="M 0 0 M1912.32 292.003 Q1907.16 292.003 1905.17 293.184 Q1903.18 294.364 1903.18 297.212 Q1903.18 299.48 1904.66 300.823 Q1906.17 302.142 1908.74 302.142 Q1912.28 302.142 1914.41 299.642 Q1916.56 297.119 1916.56 292.952 L1916.56 292.003 L1912.32 292.003 M1920.82 290.244 L1920.82 305.036 L1916.56 305.036 L1916.56 301.101 Q1915.1 303.462 1912.93 304.596 Q1910.75 305.707 1907.6 305.707 Q1903.62 305.707 1901.26 303.485 Q1898.92 301.239 1898.92 297.489 Q1898.92 293.114 1901.84 290.892 Q1904.78 288.67 1910.59 288.67 L1916.56 288.67 L1916.56 288.253 Q1916.56 285.314 1914.61 283.716 Q1912.69 282.096 1909.2 282.096 Q1906.98 282.096 1904.87 282.628 Q1902.76 283.161 1900.82 284.226 L1900.82 280.29 Q1903.16 279.388 1905.36 278.948 Q1907.55 278.485 1909.64 278.485 Q1915.26 278.485 1918.04 281.402 Q1920.82 284.318 1920.82 290.244 Z" fill="#adb2b7" fill-rule="evenodd" fill-opacity="1" /><path clip-path="url(#clip970)" d="M 0 0 M1929.5 271.749 L1929.5 279.11 L1938.27 279.11 L1938.27 282.42 L1929.5 282.42 L1929.5 296.494 Q1929.5 299.665 1930.36 300.568 Q1931.24 301.471 1933.9 301.471 L1938.27 301.471 L1938.27 305.036 L1933.9 305.036 Q1928.97 305.036 1927.09 303.207 Q1925.22 301.355 1925.22 296.494 L1925.22 282.42 L1922.09 282.42 L1922.09 279.11 L1925.22 279.11 L1925.22 271.749 L1929.5 271.749 Z" fill="#adb2b7" fill-rule="evenodd" fill-opacity="1" /><path clip-path="url(#clip970)" d="M 0 0 M1954.52 292.003 Q1949.36 292.003 1947.37 293.184 Q1945.38 294.364 1945.38 297.212 Q1945.38 299.48 1946.86 300.823 Q1948.36 302.142 1950.93 302.142 Q1954.48 302.142 1956.61 299.642 Q1958.76 297.119 1958.76 292.952 L1958.76 292.003 L1954.52 292.003 M1963.02 290.244 L1963.02 305.036 L1958.76 305.036 L1958.76 301.101 Q1957.3 303.462 1955.12 304.596 Q1952.95 305.707 1949.8 305.707 Q1945.82 305.707 1943.46 303.485 Q1941.12 301.239 1941.12 297.489 Q1941.12 293.114 1944.04 290.892 Q1946.98 288.67 1952.79 288.67 L1958.76 288.67 L1958.76 288.253 Q1958.76 285.314 1956.81 283.716 Q1954.89 282.096 1951.4 282.096 Q1949.17 282.096 1947.07 282.628 Q1944.96 283.161 1943.02 284.226 L1943.02 280.29 Q1945.36 279.388 1947.55 278.948 Q1949.75 278.485 1951.84 278.485 Q1957.46 278.485 1960.24 281.402 Q1963.02 284.318 1963.02 290.244 Z" fill="#adb2b7" fill-rule="evenodd" fill-opacity="1" /></svg>
