<?xml version="1.0" encoding="utf-8"?>
<svg xmlns="http://www.w3.org/2000/svg" xmlns:xlink="http://www.w3.org/1999/xlink" width="600" height="400" viewBox="0 0 2400 1600">
<defs>
  <clipPath id="clip510">
    <rect x="0" y="0" width="2400" height="1600"/>
  </clipPath>
</defs>
<path clip-path="url(#clip510)" d="
M0 1600 L2400 1600 L2400 0 L0 0  Z
  " fill="#282c34" fill-rule="evenodd" fill-opacity="1"/>
<defs>
  <clipPath id="clip511">
    <rect x="480" y="0" width="1681" height="1600"/>
  </clipPath>
</defs>
<path clip-path="url(#clip510)" d="
M211.602 1423.18 L2352.76 1423.18 L2352.76 47.2441 L211.602 47.2441  Z
  " fill="#21252b" fill-rule="evenodd" fill-opacity="1"/>
<defs>
  <clipPath id="clip512">
    <rect x="211" y="47" width="2142" height="1377"/>
  </clipPath>
</defs>
<polyline clip-path="url(#clip512)" style="stroke:#adb2b7; stroke-width:2; stroke-opacity:0.1; fill:none" points="
  458.659,1423.18 458.659,47.2441 
  "/>
<polyline clip-path="url(#clip512)" style="stroke:#adb2b7; stroke-width:2; stroke-opacity:0.1; fill:none" points="
  870.419,1423.18 870.419,47.2441 
  "/>
<polyline clip-path="url(#clip512)" style="stroke:#adb2b7; stroke-width:2; stroke-opacity:0.1; fill:none" points="
  1282.18,1423.18 1282.18,47.2441 
  "/>
<polyline clip-path="url(#clip512)" style="stroke:#adb2b7; stroke-width:2; stroke-opacity:0.1; fill:none" points="
  1693.94,1423.18 1693.94,47.2441 
  "/>
<polyline clip-path="url(#clip512)" style="stroke:#adb2b7; stroke-width:2; stroke-opacity:0.1; fill:none" points="
  2105.7,1423.18 2105.7,47.2441 
  "/>
<polyline clip-path="url(#clip510)" style="stroke:#adb2b7; stroke-width:4; stroke-opacity:1; fill:none" points="
  211.602,1423.18 2352.76,1423.18 
  "/>
<polyline clip-path="url(#clip510)" style="stroke:#adb2b7; stroke-width:4; stroke-opacity:1; fill:none" points="
  458.659,1423.18 458.659,1406.67 
  "/>
<polyline clip-path="url(#clip510)" style="stroke:#adb2b7; stroke-width:4; stroke-opacity:1; fill:none" points="
  870.419,1423.18 870.419,1406.67 
  "/>
<polyline clip-path="url(#clip510)" style="stroke:#adb2b7; stroke-width:4; stroke-opacity:1; fill:none" points="
  1282.18,1423.18 1282.18,1406.67 
  "/>
<polyline clip-path="url(#clip510)" style="stroke:#adb2b7; stroke-width:4; stroke-opacity:1; fill:none" points="
  1693.94,1423.18 1693.94,1406.67 
  "/>
<polyline clip-path="url(#clip510)" style="stroke:#adb2b7; stroke-width:4; stroke-opacity:1; fill:none" points="
  2105.7,1423.18 2105.7,1406.67 
  "/>
<path clip-path="url(#clip510)" d="M 0 0 M435.325 1479.92 L451.645 1479.92 L451.645 1483.85 L429.7 1483.85 L429.7 1479.92 Q432.362 1477.16 436.946 1472.53 Q441.552 1467.88 442.733 1466.54 Q444.978 1464.01 445.858 1462.28 Q446.761 1460.52 446.761 1458.83 Q446.761 1456.07 444.816 1454.34 Q442.895 1452.6 439.793 1452.6 Q437.594 1452.6 435.14 1453.37 Q432.71 1454.13 429.932 1455.68 L429.932 1450.96 Q432.756 1449.82 435.21 1449.25 Q437.663 1448.67 439.7 1448.67 Q445.071 1448.67 448.265 1451.35 Q451.46 1454.04 451.46 1458.53 Q451.46 1460.66 450.649 1462.58 Q449.862 1464.48 447.756 1467.07 Q447.177 1467.74 444.075 1470.96 Q440.974 1474.15 435.325 1479.92 Z" fill="#9eb1be" fill-rule="evenodd" fill-opacity="1" /><path clip-path="url(#clip510)" d="M 0 0 M456.714 1477.97 L461.598 1477.97 L461.598 1483.85 L456.714 1483.85 L456.714 1477.97 Z" fill="#9eb1be" fill-rule="evenodd" fill-opacity="1" /><path clip-path="url(#clip510)" d="M 0 0 M466.714 1449.29 L485.07 1449.29 L485.07 1453.23 L470.996 1453.23 L470.996 1461.7 Q472.015 1461.35 473.034 1461.19 Q474.052 1461 475.071 1461 Q480.858 1461 484.237 1464.18 Q487.617 1467.35 487.617 1472.76 Q487.617 1478.34 484.145 1481.44 Q480.672 1484.52 474.353 1484.52 Q472.177 1484.52 469.909 1484.15 Q467.663 1483.78 465.256 1483.04 L465.256 1478.34 Q467.339 1479.48 469.561 1480.03 Q471.784 1480.59 474.26 1480.59 Q478.265 1480.59 480.603 1478.48 Q482.941 1476.38 482.941 1472.76 Q482.941 1469.15 480.603 1467.05 Q478.265 1464.94 474.26 1464.94 Q472.385 1464.94 470.51 1465.36 Q468.659 1465.77 466.714 1466.65 L466.714 1449.29 Z" fill="#9eb1be" fill-rule="evenodd" fill-opacity="1" /><path clip-path="url(#clip510)" d="M 0 0 M842.213 1449.29 L860.569 1449.29 L860.569 1453.23 L846.495 1453.23 L846.495 1461.7 Q847.514 1461.35 848.532 1461.19 Q849.551 1461 850.569 1461 Q856.356 1461 859.736 1464.18 Q863.116 1467.35 863.116 1472.76 Q863.116 1478.34 859.643 1481.44 Q856.171 1484.52 849.852 1484.52 Q847.676 1484.52 845.407 1484.15 Q843.162 1483.78 840.755 1483.04 L840.755 1478.34 Q842.838 1479.48 845.06 1480.03 Q847.282 1480.59 849.759 1480.59 Q853.764 1480.59 856.102 1478.48 Q858.44 1476.38 858.44 1472.76 Q858.44 1469.15 856.102 1467.05 Q853.764 1464.94 849.759 1464.94 Q847.884 1464.94 846.009 1465.36 Q844.157 1465.77 842.213 1466.65 L842.213 1449.29 Z" fill="#9eb1be" fill-rule="evenodd" fill-opacity="1" /><path clip-path="url(#clip510)" d="M 0 0 M868.185 1477.97 L873.069 1477.97 L873.069 1483.85 L868.185 1483.85 L868.185 1477.97 Z" fill="#9eb1be" fill-rule="evenodd" fill-opacity="1" /><path clip-path="url(#clip510)" d="M 0 0 M888.139 1452.37 Q884.528 1452.37 882.699 1455.94 Q880.893 1459.48 880.893 1466.61 Q880.893 1473.71 882.699 1477.28 Q884.528 1480.82 888.139 1480.82 Q891.773 1480.82 893.578 1477.28 Q895.407 1473.71 895.407 1466.61 Q895.407 1459.48 893.578 1455.94 Q891.773 1452.37 888.139 1452.37 M888.139 1448.67 Q893.949 1448.67 897.004 1453.27 Q900.083 1457.86 900.083 1466.61 Q900.083 1475.33 897.004 1479.94 Q893.949 1484.52 888.139 1484.52 Q882.329 1484.52 879.25 1479.94 Q876.194 1475.33 876.194 1466.61 Q876.194 1457.86 879.25 1453.27 Q882.329 1448.67 888.139 1448.67 Z" fill="#9eb1be" fill-rule="evenodd" fill-opacity="1" /><path clip-path="url(#clip510)" d="M 0 0 M1253.08 1449.29 L1275.3 1449.29 L1275.3 1451.28 L1262.76 1483.85 L1257.87 1483.85 L1269.68 1453.23 L1253.08 1453.23 L1253.08 1449.29 Z" fill="#9eb1be" fill-rule="evenodd" fill-opacity="1" /><path clip-path="url(#clip510)" d="M 0 0 M1280.37 1477.97 L1285.26 1477.97 L1285.26 1483.85 L1280.37 1483.85 L1280.37 1477.97 Z" fill="#9eb1be" fill-rule="evenodd" fill-opacity="1" /><path clip-path="url(#clip510)" d="M 0 0 M1290.37 1449.29 L1308.73 1449.29 L1308.73 1453.23 L1294.66 1453.23 L1294.66 1461.7 Q1295.67 1461.35 1296.69 1461.19 Q1297.71 1461 1298.73 1461 Q1304.52 1461 1307.9 1464.18 Q1311.28 1467.35 1311.28 1472.76 Q1311.28 1478.34 1307.8 1481.44 Q1304.33 1484.52 1298.01 1484.52 Q1295.84 1484.52 1293.57 1484.15 Q1291.32 1483.78 1288.92 1483.04 L1288.92 1478.34 Q1291 1479.48 1293.22 1480.03 Q1295.44 1480.59 1297.92 1480.59 Q1301.92 1480.59 1304.26 1478.48 Q1306.6 1476.38 1306.6 1472.76 Q1306.6 1469.15 1304.26 1467.05 Q1301.92 1464.94 1297.92 1464.94 Q1296.04 1464.94 1294.17 1465.36 Q1292.32 1465.77 1290.37 1466.65 L1290.37 1449.29 Z" fill="#9eb1be" fill-rule="evenodd" fill-opacity="1" /><path clip-path="url(#clip510)" d="M 0 0 M1652.33 1479.92 L1659.97 1479.92 L1659.97 1453.55 L1651.66 1455.22 L1651.66 1450.96 L1659.92 1449.29 L1664.6 1449.29 L1664.6 1479.92 L1672.24 1479.92 L1672.24 1483.85 L1652.33 1483.85 L1652.33 1479.92 Z" fill="#9eb1be" fill-rule="evenodd" fill-opacity="1" /><path clip-path="url(#clip510)" d="M 0 0 M1687.31 1452.37 Q1683.7 1452.37 1681.87 1455.94 Q1680.06 1459.48 1680.06 1466.61 Q1680.06 1473.71 1681.87 1477.28 Q1683.7 1480.82 1687.31 1480.82 Q1690.94 1480.82 1692.75 1477.28 Q1694.58 1473.71 1694.58 1466.61 Q1694.58 1459.48 1692.75 1455.94 Q1690.94 1452.37 1687.31 1452.37 M1687.31 1448.67 Q1693.12 1448.67 1696.17 1453.27 Q1699.25 1457.86 1699.25 1466.61 Q1699.25 1475.33 1696.17 1479.94 Q1693.12 1484.52 1687.31 1484.52 Q1681.5 1484.52 1678.42 1479.94 Q1675.36 1475.33 1675.36 1466.61 Q1675.36 1457.86 1678.42 1453.27 Q1681.5 1448.67 1687.31 1448.67 Z" fill="#9eb1be" fill-rule="evenodd" fill-opacity="1" /><path clip-path="url(#clip510)" d="M 0 0 M1704.32 1477.97 L1709.21 1477.97 L1709.21 1483.85 L1704.32 1483.85 L1704.32 1477.97 Z" fill="#9eb1be" fill-rule="evenodd" fill-opacity="1" /><path clip-path="url(#clip510)" d="M 0 0 M1724.27 1452.37 Q1720.66 1452.37 1718.84 1455.94 Q1717.03 1459.48 1717.03 1466.61 Q1717.03 1473.71 1718.84 1477.28 Q1720.66 1480.82 1724.27 1480.82 Q1727.91 1480.82 1729.71 1477.28 Q1731.54 1473.71 1731.54 1466.61 Q1731.54 1459.48 1729.71 1455.94 Q1727.91 1452.37 1724.27 1452.37 M1724.27 1448.67 Q1730.09 1448.67 1733.14 1453.27 Q1736.22 1457.86 1736.22 1466.61 Q1736.22 1475.33 1733.14 1479.94 Q1730.09 1484.52 1724.27 1484.52 Q1718.46 1484.52 1715.39 1479.94 Q1712.33 1475.33 1712.33 1466.61 Q1712.33 1457.86 1715.39 1453.27 Q1718.46 1448.67 1724.27 1448.67 Z" fill="#9eb1be" fill-rule="evenodd" fill-opacity="1" /><path clip-path="url(#clip510)" d="M 0 0 M2065.39 1479.92 L2073.03 1479.92 L2073.03 1453.55 L2064.72 1455.22 L2064.72 1450.96 L2072.98 1449.29 L2077.66 1449.29 L2077.66 1479.92 L2085.29 1479.92 L2085.29 1483.85 L2065.39 1483.85 L2065.39 1479.92 Z" fill="#9eb1be" fill-rule="evenodd" fill-opacity="1" /><path clip-path="url(#clip510)" d="M 0 0 M2094.39 1479.92 L2110.71 1479.92 L2110.71 1483.85 L2088.77 1483.85 L2088.77 1479.92 Q2091.43 1477.16 2096.01 1472.53 Q2100.62 1467.88 2101.8 1466.54 Q2104.04 1464.01 2104.92 1462.28 Q2105.83 1460.52 2105.83 1458.83 Q2105.83 1456.07 2103.88 1454.34 Q2101.96 1452.6 2098.86 1452.6 Q2096.66 1452.6 2094.21 1453.37 Q2091.78 1454.13 2089 1455.68 L2089 1450.96 Q2091.82 1449.82 2094.28 1449.25 Q2096.73 1448.67 2098.77 1448.67 Q2104.14 1448.67 2107.33 1451.35 Q2110.53 1454.04 2110.53 1458.53 Q2110.53 1460.66 2109.72 1462.58 Q2108.93 1464.48 2106.82 1467.07 Q2106.24 1467.74 2103.14 1470.96 Q2100.04 1474.15 2094.39 1479.92 Z" fill="#9eb1be" fill-rule="evenodd" fill-opacity="1" /><path clip-path="url(#clip510)" d="M 0 0 M2115.78 1477.97 L2120.66 1477.97 L2120.66 1483.85 L2115.78 1483.85 L2115.78 1477.97 Z" fill="#9eb1be" fill-rule="evenodd" fill-opacity="1" /><path clip-path="url(#clip510)" d="M 0 0 M2125.78 1449.29 L2144.14 1449.29 L2144.14 1453.23 L2130.06 1453.23 L2130.06 1461.7 Q2131.08 1461.35 2132.1 1461.19 Q2133.12 1461 2134.14 1461 Q2139.92 1461 2143.3 1464.18 Q2146.68 1467.35 2146.68 1472.76 Q2146.68 1478.34 2143.21 1481.44 Q2139.74 1484.52 2133.42 1484.52 Q2131.24 1484.52 2128.98 1484.15 Q2126.73 1483.78 2124.32 1483.04 L2124.32 1478.34 Q2126.41 1479.48 2128.63 1480.03 Q2130.85 1480.59 2133.33 1480.59 Q2137.33 1480.59 2139.67 1478.48 Q2142.01 1476.38 2142.01 1472.76 Q2142.01 1469.15 2139.67 1467.05 Q2137.33 1464.94 2133.33 1464.94 Q2131.45 1464.94 2129.58 1465.36 Q2127.73 1465.77 2125.78 1466.65 L2125.78 1449.29 Z" fill="#9eb1be" fill-rule="evenodd" fill-opacity="1" /><path clip-path="url(#clip510)" d="M 0 0 M1217.92 1513.81 L1217.92 1550.76 L1225.68 1550.76 Q1235.52 1550.76 1240.07 1546.3 Q1244.65 1541.85 1244.65 1532.24 Q1244.65 1522.69 1240.07 1518.26 Q1235.52 1513.81 1225.68 1513.81 L1217.92 1513.81 M1211.49 1508.52 L1224.7 1508.52 Q1238.51 1508.52 1244.97 1514.28 Q1251.43 1520.01 1251.43 1532.24 Q1251.43 1544.52 1244.94 1550.28 Q1238.45 1556.04 1224.7 1556.04 L1211.49 1556.04 L1211.49 1508.52 Z" fill="#9eb1be" fill-rule="evenodd" fill-opacity="1" /><path clip-path="url(#clip510)" d="M 0 0 M1273.78 1538.12 Q1266.68 1538.12 1263.94 1539.75 Q1261.2 1541.37 1261.2 1545.29 Q1261.2 1548.4 1263.24 1550.25 Q1265.31 1552.07 1268.84 1552.07 Q1273.71 1552.07 1276.64 1548.63 Q1279.6 1545.16 1279.6 1539.43 L1279.6 1538.12 L1273.78 1538.12 M1285.46 1535.71 L1285.46 1556.04 L1279.6 1556.04 L1279.6 1550.63 Q1277.6 1553.88 1274.6 1555.44 Q1271.61 1556.97 1267.28 1556.97 Q1261.81 1556.97 1258.56 1553.91 Q1255.35 1550.82 1255.35 1545.67 Q1255.35 1539.65 1259.36 1536.6 Q1263.4 1533.54 1271.39 1533.54 L1279.6 1533.54 L1279.6 1532.97 Q1279.6 1528.93 1276.93 1526.73 Q1274.29 1524.5 1269.48 1524.5 Q1266.42 1524.5 1263.53 1525.23 Q1260.63 1525.97 1257.96 1527.43 L1257.96 1522.02 Q1261.17 1520.78 1264.2 1520.17 Q1267.22 1519.54 1270.08 1519.54 Q1277.82 1519.54 1281.64 1523.55 Q1285.46 1527.56 1285.46 1535.71 Z" fill="#9eb1be" fill-rule="evenodd" fill-opacity="1" /><path clip-path="url(#clip510)" d="M 0 0 M1306.43 1559.35 Q1303.95 1565.72 1301.59 1567.66 Q1299.24 1569.6 1295.29 1569.6 L1290.61 1569.6 L1290.61 1564.7 L1294.05 1564.7 Q1296.47 1564.7 1297.81 1563.56 Q1299.14 1562.41 1300.77 1558.14 L1301.82 1555.47 L1287.4 1520.4 L1293.61 1520.4 L1304.75 1548.28 L1315.89 1520.4 L1322.09 1520.4 L1306.43 1559.35 Z" fill="#9eb1be" fill-rule="evenodd" fill-opacity="1" /><path clip-path="url(#clip510)" d="M 0 0 M1350.96 1521.45 L1350.96 1526.98 Q1348.48 1525.71 1345.8 1525.07 Q1343.13 1524.44 1340.27 1524.44 Q1335.91 1524.44 1333.71 1525.77 Q1331.55 1527.11 1331.55 1529.79 Q1331.55 1531.82 1333.1 1533 Q1334.66 1534.15 1339.38 1535.2 L1341.38 1535.64 Q1347.62 1536.98 1350.23 1539.43 Q1352.87 1541.85 1352.87 1546.21 Q1352.87 1551.17 1348.92 1554.07 Q1345.01 1556.97 1338.13 1556.97 Q1335.27 1556.97 1332.15 1556.39 Q1329.06 1555.85 1325.63 1554.74 L1325.63 1548.69 Q1328.87 1550.38 1332.02 1551.24 Q1335.17 1552.07 1338.26 1552.07 Q1342.4 1552.07 1344.63 1550.66 Q1346.85 1549.23 1346.85 1546.65 Q1346.85 1544.27 1345.23 1542.99 Q1343.64 1541.72 1338.2 1540.54 L1336.16 1540.07 Q1330.72 1538.92 1328.3 1536.56 Q1325.88 1534.18 1325.88 1530.04 Q1325.88 1525.01 1329.44 1522.27 Q1333.01 1519.54 1339.57 1519.54 Q1342.81 1519.54 1345.68 1520.01 Q1348.54 1520.49 1350.96 1521.45 Z" fill="#9eb1be" fill-rule="evenodd" fill-opacity="1" /><polyline clip-path="url(#clip512)" style="stroke:#adb2b7; stroke-width:2; stroke-opacity:0.1; fill:none" points="
  211.602,1388.42 2352.76,1388.42 
  "/>
<polyline clip-path="url(#clip512)" style="stroke:#adb2b7; stroke-width:2; stroke-opacity:0.1; fill:none" points="
  211.602,1069.52 2352.76,1069.52 
  "/>
<polyline clip-path="url(#clip512)" style="stroke:#adb2b7; stroke-width:2; stroke-opacity:0.1; fill:none" points="
  211.602,750.625 2352.76,750.625 
  "/>
<polyline clip-path="url(#clip512)" style="stroke:#adb2b7; stroke-width:2; stroke-opacity:0.1; fill:none" points="
  211.602,431.728 2352.76,431.728 
  "/>
<polyline clip-path="url(#clip512)" style="stroke:#adb2b7; stroke-width:2; stroke-opacity:0.1; fill:none" points="
  211.602,112.832 2352.76,112.832 
  "/>
<polyline clip-path="url(#clip510)" style="stroke:#adb2b7; stroke-width:4; stroke-opacity:1; fill:none" points="
  211.602,1423.18 211.602,47.2441 
  "/>
<polyline clip-path="url(#clip510)" style="stroke:#adb2b7; stroke-width:4; stroke-opacity:1; fill:none" points="
  211.602,1388.42 237.296,1388.42 
  "/>
<polyline clip-path="url(#clip510)" style="stroke:#adb2b7; stroke-width:4; stroke-opacity:1; fill:none" points="
  211.602,1069.52 237.296,1069.52 
  "/>
<polyline clip-path="url(#clip510)" style="stroke:#adb2b7; stroke-width:4; stroke-opacity:1; fill:none" points="
  211.602,750.625 237.296,750.625 
  "/>
<polyline clip-path="url(#clip510)" style="stroke:#adb2b7; stroke-width:4; stroke-opacity:1; fill:none" points="
  211.602,431.728 237.296,431.728 
  "/>
<polyline clip-path="url(#clip510)" style="stroke:#adb2b7; stroke-width:4; stroke-opacity:1; fill:none" points="
  211.602,112.832 237.296,112.832 
  "/>
<path clip-path="url(#clip510)" d="M 0 0 M126.691 1374.22 Q123.08 1374.22 121.251 1377.78 Q119.445 1381.32 119.445 1388.45 Q119.445 1395.56 121.251 1399.12 Q123.08 1402.67 126.691 1402.67 Q130.325 1402.67 132.13 1399.12 Q133.959 1395.56 133.959 1388.45 Q133.959 1381.32 132.13 1377.78 Q130.325 1374.22 126.691 1374.22 M126.691 1370.51 Q132.501 1370.51 135.556 1375.12 Q138.635 1379.7 138.635 1388.45 Q138.635 1397.18 135.556 1401.79 Q132.501 1406.37 126.691 1406.37 Q120.88 1406.37 117.802 1401.79 Q114.746 1397.18 114.746 1388.45 Q114.746 1379.7 117.802 1375.12 Q120.88 1370.51 126.691 1370.51 Z" fill="#9eb1be" fill-rule="evenodd" fill-opacity="1" /><path clip-path="url(#clip510)" d="M 0 0 M143.704 1399.82 L148.589 1399.82 L148.589 1405.7 L143.704 1405.7 L143.704 1399.82 Z" fill="#9eb1be" fill-rule="evenodd" fill-opacity="1" /><path clip-path="url(#clip510)" d="M 0 0 M163.658 1374.22 Q160.047 1374.22 158.218 1377.78 Q156.413 1381.32 156.413 1388.45 Q156.413 1395.56 158.218 1399.12 Q160.047 1402.67 163.658 1402.67 Q167.292 1402.67 169.098 1399.12 Q170.927 1395.56 170.927 1388.45 Q170.927 1381.32 169.098 1377.78 Q167.292 1374.22 163.658 1374.22 M163.658 1370.51 Q169.468 1370.51 172.524 1375.12 Q175.602 1379.7 175.602 1388.45 Q175.602 1397.18 172.524 1401.79 Q169.468 1406.37 163.658 1406.37 Q157.848 1406.37 154.769 1401.79 Q151.714 1397.18 151.714 1388.45 Q151.714 1379.7 154.769 1375.12 Q157.848 1370.51 163.658 1370.51 Z" fill="#9eb1be" fill-rule="evenodd" fill-opacity="1" /><path clip-path="url(#clip510)" d="M 0 0 M127.917 1055.32 Q124.306 1055.32 122.478 1058.88 Q120.672 1062.43 120.672 1069.56 Q120.672 1076.66 122.478 1080.23 Q124.306 1083.77 127.917 1083.77 Q131.552 1083.77 133.357 1080.23 Q135.186 1076.66 135.186 1069.56 Q135.186 1062.43 133.357 1058.88 Q131.552 1055.32 127.917 1055.32 M127.917 1051.62 Q133.728 1051.62 136.783 1056.22 Q139.862 1060.81 139.862 1069.56 Q139.862 1078.28 136.783 1082.89 Q133.728 1087.47 127.917 1087.47 Q122.107 1087.47 119.029 1082.89 Q115.973 1078.28 115.973 1069.56 Q115.973 1060.81 119.029 1056.22 Q122.107 1051.62 127.917 1051.62 Z" fill="#9eb1be" fill-rule="evenodd" fill-opacity="1" /><path clip-path="url(#clip510)" d="M 0 0 M144.931 1080.92 L149.816 1080.92 L149.816 1086.8 L144.931 1086.8 L144.931 1080.92 Z" fill="#9eb1be" fill-rule="evenodd" fill-opacity="1" /><path clip-path="url(#clip510)" d="M 0 0 M155.695 1082.87 L163.334 1082.87 L163.334 1056.5 L155.024 1058.17 L155.024 1053.91 L163.288 1052.24 L167.964 1052.24 L167.964 1082.87 L175.602 1082.87 L175.602 1086.8 L155.695 1086.8 L155.695 1082.87 Z" fill="#9eb1be" fill-rule="evenodd" fill-opacity="1" /><path clip-path="url(#clip510)" d="M 0 0 M128.288 736.423 Q124.677 736.423 122.848 739.988 Q121.043 743.53 121.043 750.659 Q121.043 757.766 122.848 761.331 Q124.677 764.872 128.288 764.872 Q131.922 764.872 133.728 761.331 Q135.556 757.766 135.556 750.659 Q135.556 743.53 133.728 739.988 Q131.922 736.423 128.288 736.423 M128.288 732.72 Q134.098 732.72 137.154 737.326 Q140.232 741.91 140.232 750.659 Q140.232 759.386 137.154 763.993 Q134.098 768.576 128.288 768.576 Q122.478 768.576 119.399 763.993 Q116.343 759.386 116.343 750.659 Q116.343 741.91 119.399 737.326 Q122.478 732.72 128.288 732.72 Z" fill="#9eb1be" fill-rule="evenodd" fill-opacity="1" /><path clip-path="url(#clip510)" d="M 0 0 M145.302 762.025 L150.186 762.025 L150.186 767.905 L145.302 767.905 L145.302 762.025 Z" fill="#9eb1be" fill-rule="evenodd" fill-opacity="1" /><path clip-path="url(#clip510)" d="M 0 0 M159.283 763.97 L175.602 763.97 L175.602 767.905 L153.658 767.905 L153.658 763.97 Q156.32 761.215 160.903 756.585 Q165.51 751.933 166.69 750.59 Q168.936 748.067 169.815 746.331 Q170.718 744.572 170.718 742.882 Q170.718 740.127 168.774 738.391 Q166.852 736.655 163.751 736.655 Q161.552 736.655 159.098 737.419 Q156.667 738.183 153.89 739.734 L153.89 735.011 Q156.714 733.877 159.167 733.298 Q161.621 732.72 163.658 732.72 Q169.028 732.72 172.223 735.405 Q175.417 738.09 175.417 742.581 Q175.417 744.71 174.607 746.632 Q173.82 748.53 171.714 751.122 Q171.135 751.794 168.033 755.011 Q164.931 758.206 159.283 763.97 Z" fill="#9eb1be" fill-rule="evenodd" fill-opacity="1" /><path clip-path="url(#clip510)" d="M 0 0 M127.339 417.527 Q123.728 417.527 121.899 421.092 Q120.093 424.633 120.093 431.763 Q120.093 438.869 121.899 442.434 Q123.728 445.976 127.339 445.976 Q130.973 445.976 132.779 442.434 Q134.607 438.869 134.607 431.763 Q134.607 424.633 132.779 421.092 Q130.973 417.527 127.339 417.527 M127.339 413.823 Q133.149 413.823 136.204 418.43 Q139.283 423.013 139.283 431.763 Q139.283 440.49 136.204 445.096 Q133.149 449.68 127.339 449.68 Q121.529 449.68 118.45 445.096 Q115.394 440.49 115.394 431.763 Q115.394 423.013 118.45 418.43 Q121.529 413.823 127.339 413.823 Z" fill="#9eb1be" fill-rule="evenodd" fill-opacity="1" /><path clip-path="url(#clip510)" d="M 0 0 M144.353 443.129 L149.237 443.129 L149.237 449.008 L144.353 449.008 L144.353 443.129 Z" fill="#9eb1be" fill-rule="evenodd" fill-opacity="1" /><path clip-path="url(#clip510)" d="M 0 0 M168.473 430.374 Q171.829 431.092 173.704 433.36 Q175.602 435.629 175.602 438.962 Q175.602 444.078 172.084 446.879 Q168.565 449.68 162.084 449.68 Q159.908 449.68 157.593 449.24 Q155.302 448.823 152.848 447.967 L152.848 443.453 Q154.792 444.587 157.107 445.166 Q159.422 445.744 161.945 445.744 Q166.343 445.744 168.635 444.008 Q170.95 442.272 170.95 438.962 Q170.95 435.906 168.797 434.194 Q166.667 432.457 162.848 432.457 L158.82 432.457 L158.82 428.615 L163.033 428.615 Q166.482 428.615 168.311 427.249 Q170.139 425.86 170.139 423.268 Q170.139 420.606 168.241 419.194 Q166.366 417.758 162.848 417.758 Q160.927 417.758 158.728 418.175 Q156.528 418.592 153.89 419.471 L153.89 415.305 Q156.552 414.564 158.866 414.194 Q161.204 413.823 163.265 413.823 Q168.589 413.823 171.69 416.254 Q174.792 418.661 174.792 422.782 Q174.792 425.652 173.149 427.643 Q171.505 429.61 168.473 430.374 Z" fill="#9eb1be" fill-rule="evenodd" fill-opacity="1" /><path clip-path="url(#clip510)" d="M 0 0 M126.205 98.6304 Q122.593 98.6304 120.765 102.195 Q118.959 105.737 118.959 112.866 Q118.959 119.973 120.765 123.538 Q122.593 127.079 126.205 127.079 Q129.839 127.079 131.644 123.538 Q133.473 119.973 133.473 112.866 Q133.473 105.737 131.644 102.195 Q129.839 98.6304 126.205 98.6304 M126.205 94.9268 Q132.015 94.9268 135.07 99.5332 Q138.149 104.117 138.149 112.866 Q138.149 121.593 135.07 126.2 Q132.015 130.783 126.205 130.783 Q120.394 130.783 117.316 126.2 Q114.26 121.593 114.26 112.866 Q114.26 104.117 117.316 99.5332 Q120.394 94.9268 126.205 94.9268 Z" fill="#9eb1be" fill-rule="evenodd" fill-opacity="1" /><path clip-path="url(#clip510)" d="M 0 0 M143.218 124.232 L148.103 124.232 L148.103 130.112 L143.218 130.112 L143.218 124.232 Z" fill="#9eb1be" fill-rule="evenodd" fill-opacity="1" /><path clip-path="url(#clip510)" d="M 0 0 M166.019 99.6258 L154.214 118.075 L166.019 118.075 L166.019 99.6258 M164.792 95.5517 L170.672 95.5517 L170.672 118.075 L175.602 118.075 L175.602 121.964 L170.672 121.964 L170.672 130.112 L166.019 130.112 L166.019 121.964 L150.417 121.964 L150.417 117.45 L164.792 95.5517 Z" fill="#9eb1be" fill-rule="evenodd" fill-opacity="1" /><path clip-path="url(#clip510)" d="M 0 0 M65.7242 952.855 Q66.4244 950.787 68.7161 948.845 Q71.0077 946.872 75.0181 944.898 L88.0042 938.373 L88.0042 945.28 L75.8138 951.36 Q71.0395 953.715 69.48 955.943 Q67.9204 958.139 67.9204 961.958 L67.9204 968.961 L88.0042 968.961 L88.0042 975.39 L40.4842 975.39 L40.4842 960.876 Q40.4842 952.728 43.8898 948.718 Q47.2955 944.707 54.1704 944.707 Q58.6582 944.707 61.6183 946.808 Q64.5784 948.877 65.7242 952.855 M45.7677 968.961 L62.6368 968.961 L62.6368 960.876 Q62.6368 956.229 60.5043 953.874 Q58.34 951.487 54.1704 951.487 Q50.0009 951.487 47.9002 953.874 Q45.7677 956.229 45.7677 960.876 L45.7677 968.961 Z" fill="#9eb1be" fill-rule="evenodd" fill-opacity="1" /><path clip-path="url(#clip510)" d="M 0 0 M70.0847 917.462 Q70.0847 924.56 71.7079 927.297 Q73.3312 930.034 77.2461 930.034 Q80.3653 930.034 82.2114 927.997 Q84.0256 925.929 84.0256 922.396 Q84.0256 917.526 80.5881 914.598 Q77.1188 911.638 71.3897 911.638 L70.0847 911.638 L70.0847 917.462 M67.6657 905.781 L88.0042 905.781 L88.0042 911.638 L82.5933 911.638 Q85.8398 913.643 87.3994 916.635 Q88.9272 919.626 88.9272 923.955 Q88.9272 929.43 85.8716 932.676 Q82.7843 935.891 77.6281 935.891 Q71.6125 935.891 68.5569 931.88 Q65.5014 927.838 65.5014 919.849 L65.5014 911.638 L64.9285 911.638 Q60.8862 911.638 58.6901 914.311 Q56.4621 916.953 56.4621 921.759 Q56.4621 924.815 57.1941 927.711 Q57.9262 930.607 59.3903 933.281 L53.9795 933.281 Q52.7381 930.066 52.1334 927.043 Q51.4968 924.019 51.4968 921.154 Q51.4968 913.42 55.5072 909.601 Q59.5176 905.781 67.6657 905.781 Z" fill="#9eb1be" fill-rule="evenodd" fill-opacity="1" /><path clip-path="url(#clip510)" d="M 0 0 M42.2347 893.845 L52.3562 893.845 L52.3562 881.782 L56.9077 881.782 L56.9077 893.845 L76.2594 893.845 Q80.6199 893.845 81.8613 892.668 Q83.1026 891.458 83.1026 887.798 L83.1026 881.782 L88.0042 881.782 L88.0042 887.798 Q88.0042 894.577 85.4897 897.156 Q82.9434 899.734 76.2594 899.734 L56.9077 899.734 L56.9077 904.031 L52.3562 904.031 L52.3562 899.734 L42.2347 899.734 L42.2347 893.845 Z" fill="#9eb1be" fill-rule="evenodd" fill-opacity="1" /><path clip-path="url(#clip510)" d="M 0 0 M52.3562 875.639 L52.3562 869.783 L88.0042 869.783 L88.0042 875.639 L52.3562 875.639 M38.479 875.639 L38.479 869.783 L45.895 869.783 L45.895 875.639 L38.479 875.639 Z" fill="#9eb1be" fill-rule="evenodd" fill-opacity="1" /><path clip-path="url(#clip510)" d="M 0 0 M56.4621 849.827 Q56.4621 854.537 60.1542 857.274 Q63.8145 860.012 70.212 860.012 Q76.6095 860.012 80.3017 857.306 Q83.9619 854.569 83.9619 849.827 Q83.9619 845.148 80.2698 842.41 Q76.5777 839.673 70.212 839.673 Q63.8781 839.673 60.186 842.41 Q56.4621 845.148 56.4621 849.827 M51.4968 849.827 Q51.4968 842.188 56.4621 837.827 Q61.4273 833.467 70.212 833.467 Q78.9649 833.467 83.9619 837.827 Q88.9272 842.188 88.9272 849.827 Q88.9272 857.497 83.9619 861.858 Q78.9649 866.186 70.212 866.186 Q61.4273 866.186 56.4621 861.858 Q51.4968 857.497 51.4968 849.827 Z" fill="#9eb1be" fill-rule="evenodd" fill-opacity="1" /><path clip-path="url(#clip510)" d="M 0 0 M56.4621 792.79 Q56.4621 797.5 60.1542 800.238 Q63.8145 802.975 70.212 802.975 Q76.6095 802.975 80.3017 800.269 Q83.9619 797.532 83.9619 792.79 Q83.9619 788.111 80.2698 785.374 Q76.5777 782.636 70.212 782.636 Q63.8781 782.636 60.186 785.374 Q56.4621 788.111 56.4621 792.79 M51.4968 792.79 Q51.4968 785.151 56.4621 780.79 Q61.4273 776.43 70.212 776.43 Q78.9649 776.43 83.9619 780.79 Q88.9272 785.151 88.9272 792.79 Q88.9272 800.46 83.9619 804.821 Q78.9649 809.15 70.212 809.15 Q61.4273 809.15 56.4621 804.821 Q51.4968 800.46 51.4968 792.79 Z" fill="#9eb1be" fill-rule="evenodd" fill-opacity="1" /><path clip-path="url(#clip510)" d="M 0 0 M38.479 752.24 L43.3487 752.24 L43.3487 757.842 Q43.3487 760.993 44.6219 762.234 Q45.895 763.444 49.2052 763.444 L52.3562 763.444 L52.3562 753.8 L56.9077 753.8 L56.9077 763.444 L88.0042 763.444 L88.0042 769.332 L56.9077 769.332 L56.9077 774.934 L52.3562 774.934 L52.3562 769.332 L49.8736 769.332 Q43.9216 769.332 41.2162 766.563 Q38.479 763.794 38.479 757.778 L38.479 752.24 Z" fill="#9eb1be" fill-rule="evenodd" fill-opacity="1" /><path clip-path="url(#clip510)" d="M 0 0 M52.3562 725.377 L52.3562 719.521 L88.0042 719.521 L88.0042 725.377 L52.3562 725.377 M38.479 725.377 L38.479 719.521 L45.895 719.521 L45.895 725.377 L38.479 725.377 Z" fill="#9eb1be" fill-rule="evenodd" fill-opacity="1" /><path clip-path="url(#clip510)" d="M 0 0 M66.4881 683.745 L88.0042 683.745 L88.0042 689.602 L66.679 689.602 Q61.6183 689.602 59.1038 691.575 Q56.5894 693.548 56.5894 697.495 Q56.5894 702.238 59.6131 704.975 Q62.6368 707.712 67.8567 707.712 L88.0042 707.712 L88.0042 713.6 L52.3562 713.6 L52.3562 707.712 L57.8944 707.712 Q54.6797 705.611 53.0883 702.779 Q51.4968 699.914 51.4968 696.19 Q51.4968 690.047 55.3163 686.896 Q59.1038 683.745 66.4881 683.745 Z" fill="#9eb1be" fill-rule="evenodd" fill-opacity="1" /><path clip-path="url(#clip510)" d="M 0 0 M38.479 659.556 L43.3487 659.556 L43.3487 665.157 Q43.3487 668.308 44.6219 669.55 Q45.895 670.759 49.2052 670.759 L52.3562 670.759 L52.3562 661.115 L56.9077 661.115 L56.9077 670.759 L88.0042 670.759 L88.0042 676.647 L56.9077 676.647 L56.9077 682.249 L52.3562 682.249 L52.3562 676.647 L49.8736 676.647 Q43.9216 676.647 41.2162 673.878 Q38.479 671.109 38.479 665.094 L38.479 659.556 Z" fill="#9eb1be" fill-rule="evenodd" fill-opacity="1" /><path clip-path="url(#clip510)" d="M 0 0 M68.7161 622.921 L71.5806 622.921 L71.5806 649.848 Q77.6281 649.466 80.8109 646.219 Q83.9619 642.941 83.9619 637.116 Q83.9619 633.743 83.1344 630.592 Q82.3069 627.409 80.6518 624.29 L86.1899 624.29 Q87.5267 627.441 88.227 630.751 Q88.9272 634.061 88.9272 637.467 Q88.9272 645.997 83.9619 650.994 Q78.9967 655.959 70.5303 655.959 Q61.7774 655.959 56.6531 651.248 Q51.4968 646.506 51.4968 638.485 Q51.4968 631.292 56.1438 627.122 Q60.7589 622.921 68.7161 622.921 M66.9973 628.777 Q62.1912 628.841 59.3266 631.483 Q56.4621 634.093 56.4621 638.421 Q56.4621 643.323 59.2312 646.283 Q62.0002 649.211 67.0292 649.657 L66.9973 628.777 Z" fill="#9eb1be" fill-rule="evenodd" fill-opacity="1" /><path clip-path="url(#clip510)" d="M 0 0 M53.7248 591.124 L59.1993 591.124 Q57.8307 593.607 57.1623 596.121 Q56.4621 598.604 56.4621 601.15 Q56.4621 606.847 60.0905 609.999 Q63.6872 613.15 70.212 613.15 Q76.7369 613.15 80.3653 609.999 Q83.9619 606.847 83.9619 601.15 Q83.9619 598.604 83.2935 596.121 Q82.5933 593.607 81.2247 591.124 L86.6355 591.124 Q87.7814 593.575 88.3543 596.217 Q88.9272 598.827 88.9272 601.787 Q88.9272 609.839 83.8664 614.582 Q78.8057 619.324 70.212 619.324 Q61.491 619.324 56.4939 614.55 Q51.4968 609.744 51.4968 601.405 Q51.4968 598.699 52.0697 596.121 Q52.6108 593.543 53.7248 591.124 Z" fill="#9eb1be" fill-rule="evenodd" fill-opacity="1" /><path clip-path="url(#clip510)" d="M 0 0 M42.2347 579.188 L52.3562 579.188 L52.3562 567.125 L56.9077 567.125 L56.9077 579.188 L76.2594 579.188 Q80.6199 579.188 81.8613 578.011 Q83.1026 576.801 83.1026 573.141 L83.1026 567.125 L88.0042 567.125 L88.0042 573.141 Q88.0042 579.921 85.4897 582.499 Q82.9434 585.077 76.2594 585.077 L56.9077 585.077 L56.9077 589.374 L52.3562 589.374 L52.3562 585.077 L42.2347 585.077 L42.2347 579.188 Z" fill="#9eb1be" fill-rule="evenodd" fill-opacity="1" /><path clip-path="url(#clip510)" d="M 0 0 M68.7161 530.491 L71.5806 530.491 L71.5806 557.418 Q77.6281 557.036 80.8109 553.789 Q83.9619 550.511 83.9619 544.686 Q83.9619 541.313 83.1344 538.162 Q82.3069 534.979 80.6518 531.859 L86.1899 531.859 Q87.5267 535.01 88.227 538.321 Q88.9272 541.631 88.9272 545.036 Q88.9272 553.567 83.9619 558.564 Q78.9967 563.529 70.5303 563.529 Q61.7774 563.529 56.6531 558.818 Q51.4968 554.076 51.4968 546.055 Q51.4968 538.862 56.1438 534.692 Q60.7589 530.491 68.7161 530.491 M66.9973 536.347 Q62.1912 536.411 59.3266 539.053 Q56.4621 541.663 56.4621 545.991 Q56.4621 550.893 59.2312 553.853 Q62.0002 556.781 67.0292 557.227 L66.9973 536.347 Z" fill="#9eb1be" fill-rule="evenodd" fill-opacity="1" /><path clip-path="url(#clip510)" d="M 0 0 M57.7671 500.89 L38.479 500.89 L38.479 495.034 L88.0042 495.034 L88.0042 500.89 L82.657 500.89 Q85.8398 502.736 87.3994 505.569 Q88.9272 508.37 88.9272 512.317 Q88.9272 518.778 83.771 522.852 Q78.6147 526.894 70.212 526.894 Q61.8093 526.894 56.6531 522.852 Q51.4968 518.778 51.4968 512.317 Q51.4968 508.37 53.0564 505.569 Q54.5842 502.736 57.7671 500.89 M70.212 520.847 Q76.6732 520.847 80.3653 518.205 Q84.0256 515.531 84.0256 510.884 Q84.0256 506.238 80.3653 503.564 Q76.6732 500.89 70.212 500.89 Q63.7508 500.89 60.0905 503.564 Q56.3984 506.238 56.3984 510.884 Q56.3984 515.531 60.0905 518.205 Q63.7508 520.847 70.212 520.847 Z" fill="#9eb1be" fill-rule="evenodd" fill-opacity="1" /><polyline clip-path="url(#clip512)" style="stroke:#fe4365; stroke-width:4; stroke-opacity:1; fill:none" points="
  211.602,1384.24 213.746,1384.16 215.889,1384.08 218.032,1383.99 220.176,1383.91 222.319,1383.82 224.462,1383.73 226.605,1383.64 228.749,1383.55 230.892,1383.46 
  233.035,1383.36 235.179,1383.26 237.322,1383.16 239.465,1383.06 241.609,1382.96 243.752,1382.85 245.895,1382.75 248.038,1382.64 250.182,1382.53 252.325,1382.41 
  254.468,1382.3 256.612,1382.18 258.755,1382.06 260.898,1381.94 263.042,1381.81 265.185,1381.69 267.328,1381.56 269.471,1381.42 271.615,1381.29 273.758,1381.15 
  275.901,1381.01 278.045,1380.87 280.188,1380.72 282.331,1380.58 284.475,1380.43 286.618,1380.27 288.761,1380.12 290.904,1379.96 293.048,1379.79 295.191,1379.63 
  297.334,1379.46 299.478,1379.29 301.621,1379.11 303.764,1378.93 305.907,1378.75 308.051,1378.57 310.194,1378.38 312.337,1378.18 314.481,1377.99 316.624,1377.79 
  318.767,1377.58 320.911,1377.37 323.054,1377.16 325.197,1376.95 327.34,1376.73 329.484,1376.5 331.627,1376.27 333.77,1376.04 335.914,1375.8 338.057,1375.56 
  340.2,1375.31 342.344,1375.06 344.487,1374.81 346.63,1374.55 348.773,1374.28 350.917,1374.01 353.06,1373.73 355.203,1373.45 357.347,1373.17 359.49,1372.87 
  361.633,1372.58 363.776,1372.27 365.92,1371.97 368.063,1371.65 370.206,1371.33 372.35,1371 374.493,1370.67 376.636,1370.33 378.78,1369.99 380.923,1369.64 
  383.066,1369.28 385.209,1368.92 387.353,1368.56 389.496,1368.19 391.639,1367.82 393.783,1367.44 395.926,1367.05 398.069,1366.67 400.213,1366.27 402.356,1365.88 
  404.499,1365.47 406.642,1365.06 408.786,1364.65 410.929,1364.24 413.072,1363.81 415.216,1363.39 417.359,1362.95 419.502,1362.52 421.646,1362.07 423.789,1361.63 
  425.932,1361.17 428.075,1360.72 430.219,1360.25 432.362,1359.79 434.505,1359.31 436.649,1358.84 438.792,1358.35 440.935,1357.87 443.078,1357.37 445.222,1356.88 
  447.365,1356.37 449.508,1355.87 451.652,1355.35 453.795,1354.84 455.938,1354.31 458.082,1353.79 460.225,1353.25 462.368,1352.72 464.511,1352.17 466.655,1351.63 
  468.798,1351.07 470.941,1350.52 473.085,1349.95 475.228,1349.39 477.371,1348.81 479.515,1348.24 481.658,1347.66 483.801,1347.07 485.944,1346.48 488.088,1345.88 
  490.231,1345.28 492.374,1344.67 494.518,1344.06 496.661,1343.45 498.804,1342.83 500.947,1342.2 503.091,1341.58 505.234,1340.94 507.377,1340.3 509.521,1339.66 
  511.664,1339.01 513.807,1338.36 515.951,1337.71 518.094,1337.05 520.237,1336.38 522.38,1335.71 524.524,1335.04 526.667,1334.36 528.81,1333.68 530.954,1333 
  533.097,1332.31 535.24,1331.62 537.384,1330.92 539.527,1330.22 541.67,1329.51 543.813,1328.8 545.957,1328.09 548.1,1327.37 550.243,1326.66 552.387,1325.93 
  554.53,1325.21 556.673,1324.48 558.816,1323.74 560.96,1323 563.103,1322.26 565.246,1321.52 567.39,1320.77 569.533,1320.03 571.676,1319.27 573.82,1318.52 
  575.963,1317.76 578.106,1317 580.249,1316.23 582.393,1315.47 584.536,1314.7 586.679,1313.93 588.823,1313.15 590.966,1312.38 593.109,1311.6 595.253,1310.82 
  597.396,1310.03 599.539,1309.25 601.682,1308.46 603.826,1307.67 605.969,1306.88 608.112,1306.09 610.256,1305.29 612.399,1304.5 614.542,1303.7 616.686,1302.9 
  618.829,1302.1 620.972,1301.3 623.115,1300.5 625.259,1299.69 627.402,1298.89 629.545,1298.08 631.689,1297.27 633.832,1296.47 635.975,1295.66 638.118,1294.85 
  640.262,1294.04 642.405,1293.23 644.548,1292.42 646.692,1291.61 648.835,1290.8 650.978,1289.99 653.122,1289.18 655.265,1288.37 657.408,1287.56 659.551,1286.75 
  661.695,1285.94 663.838,1285.13 665.981,1284.32 668.125,1283.51 670.268,1282.71 672.411,1281.9 674.555,1281.1 676.698,1280.29 678.841,1279.49 680.984,1278.68 
  683.128,1277.88 685.271,1277.08 687.414,1276.29 689.558,1275.49 691.701,1274.69 693.844,1273.9 695.987,1273.11 698.131,1272.32 700.274,1271.53 702.417,1270.75 
  704.561,1269.96 706.704,1269.18 708.847,1268.4 710.991,1267.62 713.134,1266.85 715.277,1266.08 717.42,1265.31 719.564,1264.54 721.707,1263.78 723.85,1263.02 
  725.994,1262.26 728.137,1261.51 730.28,1260.75 732.424,1260.01 734.567,1259.26 736.71,1258.52 738.853,1257.78 740.997,1257.05 743.14,1256.32 745.283,1255.59 
  747.427,1254.87 749.57,1254.15 751.713,1253.43 753.857,1252.72 756,1252.01 758.143,1251.31 760.286,1250.61 762.43,1249.91 764.573,1249.22 766.716,1248.54 
  768.86,1247.85 771.003,1247.18 773.146,1246.5 775.289,1245.84 777.433,1245.17 779.576,1244.51 781.719,1243.86 783.863,1243.21 786.006,1242.57 788.149,1241.93 
  790.293,1241.3 792.436,1240.67 794.579,1240.05 796.722,1239.43 798.866,1238.81 801.009,1238.21 803.152,1237.61 805.296,1237.01 807.439,1236.42 809.582,1235.83 
  811.726,1235.25 813.869,1234.68 816.012,1234.11 818.155,1233.55 820.299,1232.99 822.442,1232.44 824.585,1231.9 826.729,1231.36 828.872,1230.83 831.015,1230.3 
  833.158,1229.78 835.302,1229.27 837.445,1228.76 839.588,1228.26 841.732,1227.77 843.875,1227.28 846.018,1226.8 848.162,1226.33 850.305,1225.86 852.448,1225.4 
  854.591,1224.95 856.735,1224.51 858.878,1224.07 861.021,1223.63 863.165,1223.21 865.308,1222.79 867.451,1222.38 869.595,1221.97 871.738,1221.57 873.881,1221.17 
  876.024,1220.79 878.168,1220.4 880.311,1220.03 882.454,1219.65 884.598,1219.29 886.741,1218.93 888.884,1218.57 891.028,1218.22 893.171,1217.88 895.314,1217.53 
  897.457,1217.2 899.601,1216.86 901.744,1216.54 903.887,1216.21 906.031,1215.89 908.174,1215.57 910.317,1215.25 912.46,1214.94 914.604,1214.63 916.747,1214.32 
  918.89,1214.02 921.034,1213.71 923.177,1213.41 925.32,1213.11 927.464,1212.81 929.607,1212.51 931.75,1212.21 933.893,1211.9 936.037,1211.6 938.18,1211.3 
  940.323,1211 942.467,1210.7 944.61,1210.4 946.753,1210.1 948.897,1209.8 951.04,1209.51 953.183,1209.21 955.326,1208.92 957.47,1208.63 959.613,1208.34 
  961.756,1208.05 963.9,1207.77 966.043,1207.48 968.186,1207.2 970.329,1206.92 972.473,1206.64 974.616,1206.36 976.759,1206.09 978.903,1205.81 981.046,1205.54 
  983.189,1205.27 985.333,1205 987.476,1204.73 989.619,1204.46 991.762,1204.2 993.906,1203.94 996.049,1203.68 998.192,1203.42 1000.34,1203.16 1002.48,1202.9 
  1004.62,1202.65 1006.77,1202.4 1008.91,1202.15 1011.05,1201.9 1013.2,1201.65 1015.34,1201.4 1017.48,1201.16 1019.63,1200.92 1021.77,1200.68 1023.91,1200.44 
  1026.06,1200.2 1028.2,1199.97 1030.34,1199.74 1032.49,1199.51 1034.63,1199.28 1036.77,1199.05 1038.91,1198.82 1041.06,1198.6 1043.2,1198.38 1045.34,1198.16 
  1047.49,1197.94 1049.63,1197.72 1051.77,1197.51 1053.92,1197.3 1056.06,1197.09 1058.2,1196.88 1060.35,1196.67 1062.49,1196.47 1064.63,1196.27 1066.78,1196.07 
  1068.92,1195.87 1071.06,1195.67 1073.21,1195.48 1075.35,1195.28 1077.49,1195.09 1079.64,1194.9 1081.78,1194.72 1083.92,1194.53 1086.07,1194.35 1088.21,1194.17 
  1090.35,1193.99 1092.5,1193.81 1094.64,1193.64 1096.78,1193.46 1098.93,1193.29 1101.07,1193.12 1103.21,1192.96 1105.36,1192.79 1107.5,1192.63 1109.64,1192.47 
  1111.79,1192.31 1113.93,1192.15 1116.07,1192 1118.22,1191.84 1120.36,1191.69 1122.5,1191.54 1124.65,1191.4 1126.79,1191.25 1128.93,1191.11 1131.08,1190.97 
  1133.22,1190.83 1135.36,1190.7 1137.51,1190.56 1139.65,1190.43 1141.79,1190.3 1143.94,1190.17 1146.08,1190.05 1148.22,1189.92 1150.37,1189.8 1152.51,1189.68 
  1154.65,1189.56 1156.8,1189.45 1158.94,1189.33 1161.08,1189.22 1163.23,1189.11 1165.37,1189.01 1167.51,1188.9 1169.66,1188.8 1171.8,1188.7 1173.94,1188.6 
  1176.09,1188.5 1178.23,1188.41 1180.37,1188.31 1182.52,1188.22 1184.66,1188.14 1186.8,1188.05 1188.95,1187.96 1191.09,1187.88 1193.23,1187.8 1195.38,1187.73 
  1197.52,1187.65 1199.66,1187.58 1201.81,1187.5 1203.95,1187.43 1206.09,1187.37 1208.24,1187.3 1210.38,1187.24 1212.52,1187.18 1214.67,1187.12 1216.81,1187.06 
  1218.95,1187.01 1221.1,1186.96 1223.24,1186.9 1225.38,1186.86 1227.53,1186.81 1229.67,1186.77 1231.81,1186.72 1233.95,1186.68 1236.1,1186.65 1238.24,1186.61 
  1240.38,1186.58 1242.53,1186.54 1244.67,1186.51 1246.81,1186.49 1248.96,1186.46 1251.1,1186.44 1253.24,1186.42 1255.39,1186.4 1257.53,1186.38 1259.67,1186.36 
  1261.82,1186.35 1263.96,1186.34 1266.1,1186.33 1268.25,1186.32 1270.39,1186.32 1272.53,1186.32 1274.68,1186.32 1276.82,1186.32 1278.96,1186.32 1281.11,1186.32 
  1283.25,1186.33 1285.39,1186.34 1287.54,1186.35 1289.68,1186.37 1291.82,1186.38 1293.97,1186.4 1296.11,1186.42 1298.25,1186.44 1300.4,1186.46 1302.54,1186.49 
  1304.68,1186.51 1306.83,1186.54 1308.97,1186.58 1311.11,1186.61 1313.26,1186.64 1315.4,1186.68 1317.54,1186.72 1319.69,1186.76 1321.83,1186.8 1323.97,1186.85 
  1326.12,1186.9 1328.26,1186.94 1330.4,1187 1332.55,1187.05 1334.69,1187.1 1336.83,1187.16 1338.98,1187.22 1341.12,1187.28 1343.26,1187.34 1345.41,1187.4 
  1347.55,1187.47 1349.69,1187.54 1351.84,1187.61 1353.98,1187.68 1356.12,1187.75 1358.27,1187.83 1360.41,1187.91 1362.55,1187.98 1364.7,1188.07 1366.84,1188.15 
  1368.98,1188.23 1371.13,1188.32 1373.27,1188.41 1375.41,1188.5 1377.56,1188.59 1379.7,1188.68 1381.84,1188.78 1383.99,1188.88 1386.13,1188.97 1388.27,1189.08 
  1390.42,1189.18 1392.56,1189.28 1394.7,1189.39 1396.85,1189.5 1398.99,1189.6 1401.13,1189.72 1403.28,1189.83 1405.42,1189.94 1407.56,1190.06 1409.71,1190.18 
  1411.85,1190.3 1413.99,1190.42 1416.14,1190.54 1418.28,1190.67 1420.42,1190.79 1422.57,1190.92 1424.71,1191.05 1426.85,1191.18 1428.99,1191.32 1431.14,1191.45 
  1433.28,1191.59 1435.42,1191.72 1437.57,1191.86 1439.71,1192.01 1441.85,1192.15 1444,1192.29 1446.14,1192.44 1448.28,1192.59 1450.43,1192.73 1452.57,1192.89 
  1454.71,1193.04 1456.86,1193.19 1459,1193.35 1461.14,1193.5 1463.29,1193.66 1465.43,1193.82 1467.57,1193.98 1469.72,1194.15 1471.86,1194.31 1474,1194.48 
  1476.15,1194.64 1478.29,1194.81 1480.43,1194.98 1482.58,1195.15 1484.72,1195.33 1486.86,1195.5 1489.01,1195.68 1491.15,1195.85 1493.29,1196.03 1495.44,1196.21 
  1497.58,1196.4 1499.72,1196.58 1501.87,1196.76 1504.01,1196.95 1506.15,1197.14 1508.3,1197.32 1510.44,1197.51 1512.58,1197.71 1514.73,1197.9 1516.87,1198.09 
  1519.01,1198.29 1521.16,1198.48 1523.3,1198.68 1525.44,1198.88 1527.59,1199.08 1529.73,1199.28 1531.87,1199.49 1534.02,1199.69 1536.16,1199.89 1538.3,1200.1 
  1540.45,1200.31 1542.59,1200.52 1544.73,1200.73 1546.88,1200.94 1549.02,1201.15 1551.16,1201.37 1553.31,1201.58 1555.45,1201.8 1557.59,1202.01 1559.74,1202.23 
  1561.88,1202.45 1564.02,1202.67 1566.17,1202.9 1568.31,1203.12 1570.45,1203.34 1572.6,1203.57 1574.74,1203.79 1576.88,1204.02 1579.03,1204.25 1581.17,1204.48 
  1583.31,1204.71 1585.46,1204.94 1587.6,1205.17 1589.74,1205.41 1591.89,1205.64 1594.03,1205.88 1596.17,1206.12 1598.32,1206.35 1600.46,1206.59 1602.6,1206.83 
  1604.75,1207.07 1606.89,1207.31 1609.03,1207.56 1611.18,1207.8 1613.32,1208.05 1615.46,1208.29 1617.61,1208.54 1619.75,1208.79 1621.89,1209.03 1624.04,1209.28 
  1626.18,1209.53 1628.32,1209.78 1630.46,1210.04 1632.61,1210.29 1634.75,1210.54 1636.89,1210.8 1639.04,1211.05 1641.18,1211.31 1643.32,1211.56 1645.47,1211.82 
  1647.61,1212.08 1649.75,1212.34 1651.9,1212.6 1654.04,1212.86 1656.18,1213.12 1658.33,1213.39 1660.47,1213.65 1662.61,1213.91 1664.76,1214.18 1666.9,1214.44 
  1669.04,1214.71 1671.19,1214.98 1673.33,1215.24 1675.47,1215.51 1677.62,1215.78 1679.76,1216.05 1681.9,1216.32 1684.05,1216.59 1686.19,1216.87 1688.33,1217.14 
  1690.48,1217.41 1692.62,1217.68 1694.76,1217.96 1696.91,1218.23 1699.05,1218.51 1701.19,1218.79 1703.34,1219.06 1705.48,1219.34 1707.62,1219.62 1709.77,1219.9 
  1711.91,1220.18 1714.05,1220.46 1716.2,1220.74 1718.34,1221.02 1720.48,1221.3 1722.63,1221.58 1724.77,1221.86 1726.91,1222.15 1729.06,1222.43 1731.2,1222.71 
  1733.34,1223 1735.49,1223.28 1737.63,1223.57 1739.77,1223.85 1741.92,1224.14 1744.06,1224.43 1746.2,1224.72 1748.35,1225 1750.49,1225.29 1752.63,1225.58 
  1754.78,1225.87 1756.92,1226.16 1759.06,1226.45 1761.21,1226.74 1763.35,1227.03 1765.49,1227.32 1767.64,1227.61 1769.78,1227.91 1771.92,1228.2 1774.07,1228.49 
  1776.21,1228.78 1778.35,1229.08 1780.5,1229.37 1782.64,1229.67 1784.78,1229.96 1786.93,1230.26 1789.07,1230.55 1791.21,1230.85 1793.36,1231.14 1795.5,1231.44 
  1797.64,1231.74 1799.79,1232.03 1801.93,1232.33 1804.07,1232.63 1806.22,1232.92 1808.36,1233.22 1810.5,1233.52 1812.65,1233.82 1814.79,1234.12 1816.93,1234.42 
  1819.08,1234.71 1821.22,1235.01 1823.36,1235.31 1825.5,1235.61 1827.65,1235.91 1829.79,1236.21 1831.93,1236.51 1834.08,1236.81 1836.22,1237.12 1838.36,1237.42 
  1840.51,1237.72 1842.65,1238.02 1844.79,1238.32 1846.94,1238.62 1849.08,1238.92 1851.22,1239.23 1853.37,1239.53 1855.51,1239.83 1857.65,1240.13 1859.8,1240.44 
  1861.94,1240.74 1864.08,1241.04 1866.23,1241.34 1868.37,1241.65 1870.51,1241.95 1872.66,1242.25 1874.8,1242.56 1876.94,1242.86 1879.09,1243.16 1881.23,1243.47 
  1883.37,1243.77 1885.52,1244.07 1887.66,1244.38 1889.8,1244.68 1891.95,1244.98 1894.09,1245.29 1896.23,1245.59 1898.38,1245.89 1900.52,1246.2 1902.66,1246.5 
  1904.81,1246.81 1906.95,1247.11 1909.09,1247.41 1911.24,1247.72 1913.38,1248.02 1915.52,1248.33 1917.67,1248.63 1919.81,1248.93 1921.95,1249.24 1924.1,1249.54 
  1926.24,1249.84 1928.38,1250.15 1930.53,1250.45 1932.67,1250.75 1934.81,1251.06 1936.96,1251.36 1939.1,1251.67 1941.24,1251.97 1943.39,1252.27 1945.53,1252.57 
  1947.67,1252.88 1949.82,1253.18 1951.96,1253.48 1954.1,1253.79 1956.25,1254.09 1958.39,1254.39 1960.53,1254.69 1962.68,1255 1964.82,1255.3 1966.96,1255.6 
  1969.11,1255.9 1971.25,1256.2 1973.39,1256.51 1975.54,1256.81 1977.68,1257.11 1979.82,1257.41 1981.97,1257.71 1984.11,1258.01 1986.25,1258.31 1988.4,1258.61 
  1990.54,1258.91 1992.68,1259.21 1994.83,1259.51 1996.97,1259.81 1999.11,1260.11 2001.26,1260.41 2003.4,1260.71 2005.54,1261.01 2007.69,1261.31 2009.83,1261.61 
  2011.97,1261.91 2014.12,1262.2 2016.26,1262.5 2018.4,1262.8 2020.54,1263.1 2022.69,1263.4 2024.83,1263.69 2026.97,1263.99 2029.12,1264.29 2031.26,1264.58 
  2033.4,1264.88 2035.55,1265.18 2037.69,1265.47 2039.83,1265.77 2041.98,1266.06 2044.12,1266.36 2046.26,1266.65 2048.41,1266.95 2050.55,1267.24 2052.69,1267.53 
  2054.84,1267.83 2056.98,1268.12 2059.12,1268.41 2061.27,1268.71 2063.41,1269 2065.55,1269.29 2067.7,1269.58 2069.84,1269.88 2071.98,1270.17 2074.13,1270.46 
  2076.27,1270.75 2078.41,1271.04 2080.56,1271.33 2082.7,1271.62 2084.84,1271.91 2086.99,1272.2 2089.13,1272.49 2091.27,1272.78 2093.42,1273.07 2095.56,1273.35 
  2097.7,1273.64 2099.85,1273.93 2101.99,1274.22 2104.13,1274.5 2106.28,1274.79 2108.42,1275.08 2110.56,1275.36 2112.71,1275.65 2114.85,1275.93 2116.99,1276.22 
  2119.14,1276.5 2121.28,1276.78 2123.42,1277.07 2125.57,1277.35 2127.71,1277.63 2129.85,1277.92 2132,1278.2 2134.14,1278.48 2136.28,1278.76 2138.43,1279.04 
  2140.57,1279.32 2142.71,1279.61 2144.86,1279.89 2147,1280.17 2149.14,1280.44 2151.29,1280.72 2153.43,1281 2155.57,1281.28 2157.72,1281.56 2159.86,1281.84 
  2162,1282.11 2164.15,1282.39 2166.29,1282.67 2168.43,1282.94 2170.58,1283.22 2172.72,1283.49 2174.86,1283.77 2177.01,1284.04 2179.15,1284.31 2181.29,1284.59 
  2183.44,1284.86 2185.58,1285.13 2187.72,1285.41 2189.87,1285.68 2192.01,1285.95 2194.15,1286.22 2196.3,1286.49 2198.44,1286.76 2200.58,1287.03 2202.73,1287.3 
  2204.87,1287.57 2207.01,1287.84 2209.16,1288.1 2211.3,1288.37 2213.44,1288.64 2215.58,1288.91 2217.73,1289.17 2219.87,1289.44 2222.01,1289.7 2224.16,1289.97 
  2226.3,1290.23 2228.44,1290.5 2230.59,1290.76 2232.73,1291.02 2234.87,1291.29 2237.02,1291.55 2239.16,1291.81 2241.3,1292.07 2243.45,1292.33 2245.59,1292.59 
  2247.73,1292.85 2249.88,1293.11 2252.02,1293.37 2254.16,1293.63 2256.31,1293.89 2258.45,1294.15 2260.59,1294.4 2262.74,1294.66 2264.88,1294.92 2267.02,1295.17 
  2269.17,1295.43 2271.31,1295.68 2273.45,1295.94 2275.6,1296.19 2277.74,1296.45 2279.88,1296.7 2282.03,1296.95 2284.17,1297.21 2286.31,1297.46 2288.46,1297.71 
  2290.6,1297.96 2292.74,1298.21 2294.89,1298.46 2297.03,1298.71 2299.17,1298.96 2301.32,1299.21 2303.46,1299.45 2305.6,1299.7 2307.75,1299.95 2309.89,1300.2 
  2312.03,1300.44 2314.18,1300.69 2316.32,1300.93 2318.46,1301.18 2320.61,1301.42 2322.75,1301.67 2324.89,1301.91 2327.04,1302.15 2329.18,1302.39 2331.32,1302.64 
  2333.47,1302.88 2335.61,1303.12 2337.75,1303.36 2339.9,1303.6 2342.04,1303.84 2344.18,1304.08 2346.33,1304.32 2348.47,1304.55 2350.61,1304.79 2352.76,1305.03 
  
  "/>
<polyline clip-path="url(#clip512)" style="stroke:#eca25c; stroke-width:4; stroke-opacity:1; fill:none" points="
  211.602,1384.24 213.746,1384.16 215.889,1384.08 218.032,1383.99 220.176,1383.91 222.319,1383.82 224.462,1383.73 226.605,1383.64 228.749,1383.55 230.892,1383.46 
  233.035,1383.36 235.179,1383.26 237.322,1383.16 239.465,1383.06 241.609,1382.96 243.752,1382.85 245.895,1382.75 248.038,1382.64 250.182,1382.53 252.325,1382.41 
  254.468,1382.3 256.612,1382.18 258.755,1382.06 260.898,1381.94 263.042,1381.81 265.185,1381.69 267.328,1381.56 269.471,1381.42 271.615,1381.29 273.758,1381.15 
  275.901,1381.01 278.045,1380.87 280.188,1380.72 282.331,1380.58 284.475,1380.43 286.618,1380.27 288.761,1380.12 290.904,1379.96 293.048,1379.79 295.191,1379.63 
  297.334,1379.46 299.478,1379.29 301.621,1379.11 303.764,1378.93 305.907,1378.75 308.051,1378.57 310.194,1378.38 312.337,1378.18 314.481,1377.99 316.624,1377.79 
  318.767,1377.58 320.911,1377.37 323.054,1377.16 325.197,1376.95 327.34,1376.73 329.484,1376.5 331.627,1376.27 333.77,1376.04 335.914,1375.8 338.057,1375.56 
  340.2,1375.31 342.344,1375.06 344.487,1374.81 346.63,1374.55 348.773,1374.28 350.917,1374.01 353.06,1373.73 355.203,1373.45 357.347,1373.17 359.49,1372.87 
  361.633,1372.58 363.776,1372.27 365.92,1371.97 368.063,1371.65 370.206,1371.33 372.35,1371 374.493,1370.67 376.636,1370.33 378.78,1369.98 380.923,1369.63 
  383.066,1369.27 385.209,1368.91 387.353,1368.54 389.496,1368.16 391.639,1367.77 393.783,1367.37 395.926,1366.97 398.069,1366.56 400.213,1366.15 402.356,1365.72 
  404.499,1365.29 406.642,1364.85 408.786,1364.4 410.929,1363.94 413.072,1363.48 415.216,1363 417.359,1362.52 419.502,1362.03 421.646,1361.52 423.789,1361.01 
  425.932,1360.49 428.075,1359.96 430.219,1359.42 432.362,1358.87 434.505,1358.31 436.649,1357.74 438.792,1357.15 440.935,1356.56 443.078,1355.96 445.222,1355.34 
  447.365,1354.71 449.508,1354.08 451.652,1353.43 453.795,1352.76 455.938,1352.09 458.082,1351.4 460.225,1350.7 462.368,1349.99 464.511,1349.26 466.655,1348.52 
  468.798,1347.77 470.941,1347 473.085,1346.22 475.228,1345.43 477.371,1344.62 479.515,1343.79 481.658,1342.95 483.801,1342.1 485.944,1341.22 488.088,1340.34 
  490.231,1339.43 492.374,1338.51 494.518,1337.58 496.661,1336.62 498.804,1335.65 500.947,1334.66 503.091,1333.66 505.234,1332.63 507.377,1331.59 509.521,1330.53 
  511.664,1329.45 513.807,1328.35 515.951,1327.23 518.094,1326.09 520.237,1324.92 522.38,1323.74 524.524,1322.54 526.667,1321.31 528.81,1320.07 530.954,1318.8 
  533.097,1317.51 535.24,1316.19 537.384,1314.86 539.527,1313.49 541.67,1312.11 543.813,1310.7 545.957,1309.26 548.1,1307.8 550.243,1306.32 552.387,1304.81 
  554.53,1303.27 556.673,1301.7 558.816,1300.11 560.96,1298.49 563.103,1296.84 565.246,1295.16 567.39,1293.46 569.533,1291.72 571.676,1289.96 573.82,1288.16 
  575.963,1286.34 578.106,1284.48 580.249,1282.59 582.393,1280.67 584.536,1278.72 586.679,1276.73 588.823,1274.71 590.966,1272.66 593.109,1270.57 595.253,1268.44 
  597.396,1266.28 599.539,1264.09 601.682,1261.86 603.826,1259.59 605.969,1257.29 608.112,1254.94 610.256,1252.56 612.399,1250.14 614.542,1247.68 616.686,1245.18 
  618.829,1242.64 620.972,1240.05 623.115,1237.43 625.259,1234.76 627.402,1232.06 629.545,1229.3 631.689,1226.51 633.832,1223.67 635.975,1220.79 638.118,1217.86 
  640.262,1214.88 642.405,1211.86 644.548,1208.79 646.692,1205.68 648.835,1202.52 650.978,1199.31 653.122,1196.05 655.265,1192.74 657.408,1189.38 659.551,1185.98 
  661.695,1182.52 663.838,1179.01 665.981,1175.45 668.125,1171.84 670.268,1168.17 672.411,1164.45 674.555,1160.68 676.698,1156.86 678.841,1152.98 680.984,1149.04 
  683.128,1145.06 685.271,1141.01 687.414,1136.91 689.558,1132.76 691.701,1128.54 693.844,1124.27 695.987,1119.94 698.131,1115.56 700.274,1111.11 702.417,1106.61 
  704.561,1102.04 706.704,1097.42 708.847,1092.74 710.991,1088 713.134,1083.2 715.277,1078.34 717.42,1073.41 719.564,1068.43 721.707,1063.39 723.85,1058.28 
  725.994,1053.12 728.137,1047.89 730.28,1042.6 732.424,1037.25 734.567,1031.84 736.71,1026.37 738.853,1020.84 740.997,1015.25 743.14,1009.6 745.283,1003.88 
  747.427,998.108 749.57,992.272 751.713,986.377 753.857,980.421 756,974.406 758.143,968.331 760.286,962.196 762.43,956.002 764.573,949.75 766.716,943.439 
  768.86,937.069 771.003,930.642 773.146,924.158 775.289,917.616 777.433,911.018 779.576,904.364 781.719,897.654 783.863,890.89 786.006,884.073 788.149,877.202 
  790.293,870.279 792.436,863.306 794.579,856.282 796.722,849.209 798.866,842.087 801.009,834.919 803.152,827.704 805.296,820.444 807.439,813.14 809.582,805.793 
  811.726,798.405 813.869,790.976 816.012,783.507 818.155,776.001 820.299,768.458 822.442,760.879 824.585,753.267 826.729,745.621 828.872,737.945 831.015,730.238 
  833.158,722.503 835.302,714.741 837.445,706.954 839.588,699.142 841.732,691.309 843.875,683.455 846.018,675.582 848.162,667.691 850.305,659.785 852.448,651.865 
  854.591,643.933 856.735,635.991 858.878,628.04 861.021,620.082 863.165,612.12 865.308,604.154 867.451,596.188 869.595,588.223 871.738,580.261 873.881,572.304 
  876.024,564.355 878.168,556.414 880.311,548.485 882.454,540.57 884.598,532.67 886.741,524.788 888.884,516.926 891.028,509.083 893.171,501.262 895.314,493.466 
  897.457,485.696 899.601,477.956 901.744,470.247 903.887,462.572 906.031,454.932 908.174,447.331 910.317,439.77 912.46,432.251 914.604,424.777 916.747,417.349 
  918.89,409.97 921.034,402.641 923.177,395.364 925.32,388.142 927.464,380.976 929.607,373.868 931.75,366.819 933.893,359.832 936.037,352.909 938.18,346.05 
  940.323,339.258 942.467,332.534 944.61,325.88 946.753,319.297 948.897,312.786 951.04,306.35 953.183,299.99 955.326,293.707 957.47,287.502 959.613,281.376 
  961.756,275.332 963.9,269.37 966.043,263.492 968.186,257.698 970.329,251.99 972.473,246.368 974.616,240.835 976.759,235.391 978.903,230.036 981.046,224.773 
  983.189,219.601 985.333,214.522 987.476,209.537 989.619,204.646 991.762,199.85 993.906,195.15 996.049,190.546 998.192,186.04 1000.34,181.632 1002.48,177.322 
  1004.62,173.111 1006.77,169 1008.91,164.989 1011.05,161.078 1013.2,157.269 1015.34,153.56 1017.48,149.954 1019.63,146.449 1021.77,143.046 1023.91,139.746 
  1026.06,136.549 1028.2,133.454 1030.34,130.462 1032.49,127.572 1034.63,124.784 1036.77,122.098 1038.91,119.512 1041.06,117.027 1043.2,114.642 1045.34,112.358 
  1047.49,110.173 1049.63,108.087 1051.77,106.099 1053.92,104.21 1056.06,102.418 1058.2,100.724 1060.35,99.1264 1062.49,97.625 1064.63,96.2191 1066.78,94.9083 
  1068.92,93.692 1071.06,92.5695 1073.21,91.5404 1075.35,90.6039 1077.49,89.7594 1079.64,89.0062 1081.78,88.3438 1083.92,87.7713 1086.07,87.2881 1088.21,86.8935 
  1090.35,86.5867 1092.5,86.367 1094.64,86.2336 1096.78,86.1857 1098.93,86.2225 1101.07,86.3432 1103.21,86.547 1105.36,86.8331 1107.5,87.2004 1109.64,87.6483 
  1111.79,88.1757 1113.93,88.7818 1116.07,89.4656 1118.22,90.2262 1120.36,91.0626 1122.5,91.9739 1124.65,92.959 1126.79,94.0169 1128.93,95.1467 1131.08,96.3473 
  1133.22,97.6175 1135.36,98.9564 1137.51,100.363 1139.65,101.836 1141.79,103.374 1143.94,104.976 1146.08,106.642 1148.22,108.369 1150.37,110.157 1152.51,112.005 
  1154.65,113.91 1156.8,115.873 1158.94,117.893 1161.08,119.968 1163.23,122.098 1165.37,124.281 1167.51,126.517 1169.66,128.805 1171.8,131.143 1173.94,133.532 
  1176.09,135.969 1178.23,138.455 1180.37,140.987 1182.52,143.566 1184.66,146.191 1186.8,148.86 1188.95,151.572 1191.09,154.328 1193.23,157.125 1195.38,159.964 
  1197.52,162.843 1199.66,165.761 1201.81,168.718 1203.95,171.712 1206.09,174.744 1208.24,177.811 1210.38,180.914 1212.52,184.052 1214.67,187.223 1216.81,190.428 
  1218.95,193.664 1221.1,196.932 1223.24,200.231 1225.38,203.56 1227.53,206.917 1229.67,210.304 1231.81,213.718 1233.95,217.159 1236.1,220.626 1238.24,224.119 
  1240.38,227.637 1242.53,231.179 1244.67,234.744 1246.81,238.333 1248.96,241.943 1251.1,245.575 1253.24,249.227 1255.39,252.9 1257.53,256.593 1259.67,260.304 
  1261.82,264.033 1263.96,267.78 1266.1,271.544 1268.25,275.325 1270.39,279.121 1272.53,282.932 1274.68,286.758 1276.82,290.598 1278.96,294.451 1281.11,298.317 
  1283.25,302.196 1285.39,306.086 1287.54,309.987 1289.68,313.899 1291.82,317.821 1293.97,321.753 1296.11,325.694 1298.25,329.643 1300.4,333.6 1302.54,337.565 
  1304.68,341.537 1306.83,345.515 1308.97,349.5 1311.11,353.49 1313.26,357.485 1315.4,361.485 1317.54,365.489 1319.69,369.496 1321.83,373.508 1323.97,377.522 
  1326.12,381.538 1328.26,385.557 1330.4,389.577 1332.55,393.599 1334.69,397.621 1336.83,401.644 1338.98,405.667 1341.12,409.69 1343.26,413.712 1345.41,417.734 
  1347.55,421.755 1349.69,425.775 1351.84,429.794 1353.98,433.81 1356.12,437.825 1358.27,441.837 1360.41,445.847 1362.55,449.854 1364.7,453.858 1366.84,457.858 
  1368.98,461.855 1371.13,465.848 1373.27,469.837 1375.41,473.821 1377.56,477.801 1379.7,481.776 1381.84,485.746 1383.99,489.711 1386.13,493.67 1388.27,497.624 
  1390.42,501.571 1392.56,505.513 1394.7,509.448 1396.85,513.376 1398.99,517.298 1401.13,521.213 1403.28,525.121 1405.42,529.021 1407.56,532.914 1409.71,536.799 
  1411.85,540.676 1413.99,544.546 1416.14,548.407 1418.28,552.26 1420.42,556.104 1422.57,559.94 1424.71,563.766 1426.85,567.584 1428.99,571.393 1431.14,575.193 
  1433.28,578.983 1435.42,582.763 1437.57,586.534 1439.71,590.296 1441.85,594.047 1444,597.789 1446.14,601.52 1448.28,605.241 1450.43,608.952 1452.57,612.653 
  1454.71,616.343 1456.86,620.022 1459,623.691 1461.14,627.349 1463.29,630.997 1465.43,634.633 1467.57,638.259 1469.72,641.873 1471.86,645.476 1474,649.069 
  1476.15,652.65 1478.29,656.22 1480.43,659.778 1482.58,663.325 1484.72,666.86 1486.86,670.383 1489.01,673.894 1491.15,677.394 1493.29,680.882 1495.44,684.357 
  1497.58,687.821 1499.72,691.273 1501.87,694.713 1504.01,698.141 1506.15,701.557 1508.3,704.961 1510.44,708.353 1512.58,711.733 1514.73,715.1 1516.87,718.455 
  1519.01,721.799 1521.16,725.13 1523.3,728.448 1525.44,731.755 1527.59,735.049 1529.73,738.331 1531.87,741.6 1534.02,744.857 1536.16,748.102 1538.3,751.335 
  1540.45,754.555 1542.59,757.762 1544.73,760.958 1546.88,764.141 1549.02,767.311 1551.16,770.469 1553.31,773.614 1555.45,776.747 1557.59,779.868 1559.74,782.976 
  1561.88,786.071 1564.02,789.155 1566.17,792.225 1568.31,795.283 1570.45,798.329 1572.6,801.362 1574.74,804.382 1576.88,807.39 1579.03,810.386 1581.17,813.368 
  1583.31,816.339 1585.46,819.297 1587.6,822.242 1589.74,825.175 1591.89,828.096 1594.03,831.003 1596.17,833.899 1598.32,836.782 1600.46,839.652 1602.6,842.51 
  1604.75,845.356 1606.89,848.189 1609.03,851.01 1611.18,853.818 1613.32,856.614 1615.46,859.398 1617.61,862.169 1619.75,864.927 1621.89,867.674 1624.04,870.408 
  1626.18,873.13 1628.32,875.84 1630.46,878.537 1632.61,881.222 1634.75,883.895 1636.89,886.556 1639.04,889.204 1641.18,891.841 1643.32,894.465 1645.47,897.077 
  1647.61,899.677 1649.75,902.265 1651.9,904.841 1654.04,907.406 1656.18,909.958 1658.33,912.498 1660.47,915.027 1662.61,917.543 1664.76,920.048 1666.9,922.541 
  1669.04,925.022 1671.19,927.492 1673.33,929.95 1675.47,932.396 1677.62,934.831 1679.76,937.254 1681.9,939.666 1684.05,942.066 1686.19,944.455 1688.33,946.832 
  1690.48,949.198 1692.62,951.553 1694.76,953.897 1696.91,956.229 1699.05,958.551 1701.19,960.861 1703.34,963.16 1705.48,965.448 1707.62,967.725 1709.77,969.991 
  1711.91,972.246 1714.05,974.49 1716.2,976.723 1718.34,978.945 1720.48,981.157 1722.63,983.357 1724.77,985.547 1726.91,987.726 1729.06,989.894 1731.2,992.051 
  1733.34,994.198 1735.49,996.334 1737.63,998.46 1739.77,1000.58 1741.92,1002.68 1744.06,1004.77 1746.2,1006.86 1748.35,1008.93 1750.49,1010.99 1752.63,1013.05 
  1754.78,1015.09 1756.92,1017.12 1759.06,1019.14 1761.21,1021.16 1763.35,1023.16 1765.49,1025.15 1767.64,1027.13 1769.78,1029.1 1771.92,1031.07 1774.07,1033.02 
  1776.21,1034.96 1778.35,1036.89 1780.5,1038.82 1782.64,1040.73 1784.78,1042.63 1786.93,1044.52 1789.07,1046.41 1791.21,1048.28 1793.36,1050.15 1795.5,1052 
  1797.64,1053.85 1799.79,1055.68 1801.93,1057.51 1804.07,1059.33 1806.22,1061.13 1808.36,1062.93 1810.5,1064.72 1812.65,1066.5 1814.79,1068.27 1816.93,1070.04 
  1819.08,1071.79 1821.22,1073.53 1823.36,1075.27 1825.5,1076.99 1827.65,1078.71 1829.79,1080.42 1831.93,1082.11 1834.08,1083.8 1836.22,1085.49 1838.36,1087.16 
  1840.51,1088.82 1842.65,1090.48 1844.79,1092.12 1846.94,1093.76 1849.08,1095.39 1851.22,1097.01 1853.37,1098.62 1855.51,1100.23 1857.65,1101.82 1859.8,1103.41 
  1861.94,1104.99 1864.08,1106.56 1866.23,1108.12 1868.37,1109.67 1870.51,1111.22 1872.66,1112.76 1874.8,1114.28 1876.94,1115.81 1879.09,1117.32 1881.23,1118.82 
  1883.37,1120.32 1885.52,1121.81 1887.66,1123.29 1889.8,1124.77 1891.95,1126.23 1894.09,1127.69 1896.23,1129.14 1898.38,1130.58 1900.52,1132.02 1902.66,1133.44 
  1904.81,1134.86 1906.95,1136.28 1909.09,1137.68 1911.24,1139.08 1913.38,1140.47 1915.52,1141.85 1917.67,1143.22 1919.81,1144.59 1921.95,1145.95 1924.1,1147.3 
  1926.24,1148.65 1928.38,1149.99 1930.53,1151.32 1932.67,1152.65 1934.81,1153.96 1936.96,1155.27 1939.1,1156.58 1941.24,1157.87 1943.39,1159.16 1945.53,1160.44 
  1947.67,1161.72 1949.82,1162.99 1951.96,1164.25 1954.1,1165.51 1956.25,1166.75 1958.39,1167.99 1960.53,1169.23 1962.68,1170.46 1964.82,1171.68 1966.96,1172.89 
  1969.11,1174.1 1971.25,1175.3 1973.39,1176.5 1975.54,1177.69 1977.68,1178.87 1979.82,1180.05 1981.97,1181.22 1984.11,1182.38 1986.25,1183.54 1988.4,1184.69 
  1990.54,1185.83 1992.68,1186.97 1994.83,1188.1 1996.97,1189.23 1999.11,1190.35 2001.26,1191.46 2003.4,1192.57 2005.54,1193.67 2007.69,1194.77 2009.83,1195.86 
  2011.97,1196.94 2014.12,1198.02 2016.26,1199.09 2018.4,1200.15 2020.54,1201.21 2022.69,1202.27 2024.83,1203.32 2026.97,1204.36 2029.12,1205.4 2031.26,1206.43 
  2033.4,1207.45 2035.55,1208.47 2037.69,1209.49 2039.83,1210.49 2041.98,1211.5 2044.12,1212.5 2046.26,1213.49 2048.41,1214.47 2050.55,1215.46 2052.69,1216.43 
  2054.84,1217.4 2056.98,1218.37 2059.12,1219.33 2061.27,1220.28 2063.41,1221.23 2065.55,1222.17 2067.7,1223.11 2069.84,1224.05 2071.98,1224.98 2074.13,1225.9 
  2076.27,1226.82 2078.41,1227.73 2080.56,1228.64 2082.7,1229.54 2084.84,1230.44 2086.99,1231.33 2089.13,1232.22 2091.27,1233.1 2093.42,1233.98 2095.56,1234.85 
  2097.7,1235.72 2099.85,1236.59 2101.99,1237.45 2104.13,1238.3 2106.28,1239.15 2108.42,1239.99 2110.56,1240.83 2112.71,1241.67 2114.85,1242.5 2116.99,1243.33 
  2119.14,1244.15 2121.28,1244.96 2123.42,1245.78 2125.57,1246.58 2127.71,1247.39 2129.85,1248.19 2132,1248.98 2134.14,1249.77 2136.28,1250.56 2138.43,1251.34 
  2140.57,1252.12 2142.71,1252.89 2144.86,1253.66 2147,1254.42 2149.14,1255.18 2151.29,1255.94 2153.43,1256.69 2155.57,1257.44 2157.72,1258.18 2159.86,1258.92 
  2162,1259.65 2164.15,1260.38 2166.29,1261.11 2168.43,1261.83 2170.58,1262.55 2172.72,1263.27 2174.86,1263.98 2177.01,1264.69 2179.15,1265.39 2181.29,1266.09 
  2183.44,1266.78 2185.58,1267.47 2187.72,1268.16 2189.87,1268.85 2192.01,1269.52 2194.15,1270.2 2196.3,1270.87 2198.44,1271.54 2200.58,1272.21 2202.73,1272.87 
  2204.87,1273.52 2207.01,1274.18 2209.16,1274.83 2211.3,1275.47 2213.44,1276.12 2215.58,1276.76 2217.73,1277.39 2219.87,1278.02 2222.01,1278.65 2224.16,1279.28 
  2226.3,1279.9 2228.44,1280.52 2230.59,1281.13 2232.73,1281.74 2234.87,1282.35 2237.02,1282.95 2239.16,1283.55 2241.3,1284.15 2243.45,1284.74 2245.59,1285.34 
  2247.73,1285.92 2249.88,1286.51 2252.02,1287.09 2254.16,1287.66 2256.31,1288.24 2258.45,1288.81 2260.59,1289.38 2262.74,1289.94 2264.88,1290.5 2267.02,1291.06 
  2269.17,1291.62 2271.31,1292.17 2273.45,1292.72 2275.6,1293.26 2277.74,1293.81 2279.88,1294.35 2282.03,1294.88 2284.17,1295.42 2286.31,1295.95 2288.46,1296.47 
  2290.6,1297 2292.74,1297.52 2294.89,1298.04 2297.03,1298.55 2299.17,1299.07 2301.32,1299.58 2303.46,1300.08 2305.6,1300.59 2307.75,1301.09 2309.89,1301.59 
  2312.03,1302.08 2314.18,1302.58 2316.32,1303.07 2318.46,1303.56 2320.61,1304.04 2322.75,1304.52 2324.89,1305 2327.04,1305.48 2329.18,1305.95 2331.32,1306.42 
  2333.47,1306.89 2335.61,1307.36 2337.75,1307.82 2339.9,1308.28 2342.04,1308.74 2344.18,1309.19 2346.33,1309.65 2348.47,1310.1 2350.61,1310.54 2352.76,1310.99 
  
  "/>
<path clip-path="url(#clip510)" d="
M1682.69 274.549 L2281.38 274.549 L2281.38 93.1086 L1682.69 93.1086  Z
  " fill="#282c34" fill-rule="evenodd" fill-opacity="1"/>
<polyline clip-path="url(#clip510)" style="stroke:#9eb1be; stroke-width:4; stroke-opacity:1; fill:none" points="
  1682.69,274.549 2281.38,274.549 2281.38,93.1086 1682.69,93.1086 1682.69,274.549 
  "/>
<polyline clip-path="url(#clip510)" style="stroke:#fe4365; stroke-width:4; stroke-opacity:1; fill:none" points="
  1706.48,153.589 1849.23,153.589 
  "/>
<path clip-path="url(#clip510)" d="M 0 0 M1873.02 136.309 L1877.74 136.309 L1885.01 165.521 L1892.25 136.309 L1897.51 136.309 L1904.78 165.521 L1912.02 136.309 L1916.77 136.309 L1908.09 170.869 L1902.21 170.869 L1894.92 140.869 L1887.55 170.869 L1881.68 170.869 L1873.02 136.309 Z" fill="#adb2b7" fill-rule="evenodd" fill-opacity="1" /><path clip-path="url(#clip510)" d="M 0 0 M1920.19 144.943 L1924.45 144.943 L1924.45 170.869 L1920.19 170.869 L1920.19 144.943 M1920.19 134.85 L1924.45 134.85 L1924.45 140.244 L1920.19 140.244 L1920.19 134.85 Z" fill="#adb2b7" fill-rule="evenodd" fill-opacity="1" /><path clip-path="url(#clip510)" d="M 0 0 M1933.13 137.582 L1933.13 144.943 L1941.91 144.943 L1941.91 148.253 L1933.13 148.253 L1933.13 162.327 Q1933.13 165.498 1933.99 166.401 Q1934.87 167.304 1937.53 167.304 L1941.91 167.304 L1941.91 170.869 L1937.53 170.869 Q1932.6 170.869 1930.73 169.04 Q1928.85 167.188 1928.85 162.327 L1928.85 148.253 L1925.73 148.253 L1925.73 144.943 L1928.85 144.943 L1928.85 137.582 L1933.13 137.582 Z" fill="#adb2b7" fill-rule="evenodd" fill-opacity="1" /><path clip-path="url(#clip510)" d="M 0 0 M1967.92 155.221 L1967.92 170.869 L1963.67 170.869 L1963.67 155.359 Q1963.67 151.679 1962.23 149.85 Q1960.8 148.022 1957.92 148.022 Q1954.48 148.022 1952.48 150.221 Q1950.49 152.42 1950.49 156.216 L1950.49 170.869 L1946.21 170.869 L1946.21 134.85 L1950.49 134.85 L1950.49 148.971 Q1952.02 146.633 1954.08 145.475 Q1956.17 144.318 1958.87 144.318 Q1963.34 144.318 1965.63 147.096 Q1967.92 149.85 1967.92 155.221 Z" fill="#adb2b7" fill-rule="evenodd" fill-opacity="1" /><path clip-path="url(#clip510)" d="M 0 0 M1984.41 144.943 L1988.92 144.943 L1997.02 166.702 L2005.12 144.943 L2009.64 144.943 L1999.92 170.869 L1994.13 170.869 L1984.41 144.943 Z" fill="#adb2b7" fill-rule="evenodd" fill-opacity="1" /><path clip-path="url(#clip510)" d="M 0 0 M2025.89 157.836 Q2020.73 157.836 2018.73 159.017 Q2016.74 160.197 2016.74 163.045 Q2016.74 165.313 2018.23 166.656 Q2019.73 167.975 2022.3 167.975 Q2025.84 167.975 2027.97 165.475 Q2030.12 162.952 2030.12 158.785 L2030.12 157.836 L2025.89 157.836 M2034.38 156.077 L2034.38 170.869 L2030.12 170.869 L2030.12 166.933 Q2028.67 169.295 2026.49 170.429 Q2024.31 171.54 2021.17 171.54 Q2017.18 171.54 2014.82 169.318 Q2012.48 167.072 2012.48 163.322 Q2012.48 158.947 2015.4 156.725 Q2018.34 154.503 2024.15 154.503 L2030.12 154.503 L2030.12 154.086 Q2030.12 151.147 2028.18 149.549 Q2026.26 147.929 2022.76 147.929 Q2020.54 147.929 2018.43 148.461 Q2016.33 148.994 2014.38 150.059 L2014.38 146.123 Q2016.72 145.221 2018.92 144.781 Q2021.12 144.318 2023.2 144.318 Q2028.83 144.318 2031.6 147.234 Q2034.38 150.151 2034.38 156.077 Z" fill="#adb2b7" fill-rule="evenodd" fill-opacity="1" /><path clip-path="url(#clip510)" d="M 0 0 M2057.51 145.938 L2057.51 149.92 Q2055.7 148.924 2053.87 148.438 Q2052.07 147.929 2050.22 147.929 Q2046.07 147.929 2043.78 150.568 Q2041.49 153.184 2041.49 157.929 Q2041.49 162.674 2043.78 165.313 Q2046.07 167.929 2050.22 167.929 Q2052.07 167.929 2053.87 167.443 Q2055.7 166.933 2057.51 165.938 L2057.51 169.873 Q2055.73 170.707 2053.8 171.123 Q2051.91 171.54 2049.75 171.54 Q2043.9 171.54 2040.45 167.859 Q2037 164.179 2037 157.929 Q2037 151.586 2040.47 147.952 Q2043.97 144.318 2050.03 144.318 Q2052 144.318 2053.87 144.735 Q2055.75 145.128 2057.51 145.938 Z" fill="#adb2b7" fill-rule="evenodd" fill-opacity="1" /><path clip-path="url(#clip510)" d="M 0 0 M2080.63 145.938 L2080.63 149.92 Q2078.83 148.924 2077 148.438 Q2075.19 147.929 2073.34 147.929 Q2069.2 147.929 2066.91 150.568 Q2064.61 153.184 2064.61 157.929 Q2064.61 162.674 2066.91 165.313 Q2069.2 167.929 2073.34 167.929 Q2075.19 167.929 2077 167.443 Q2078.83 166.933 2080.63 165.938 L2080.63 169.873 Q2078.85 170.707 2076.93 171.123 Q2075.03 171.54 2072.88 171.54 Q2067.02 171.54 2063.57 167.859 Q2060.12 164.179 2060.12 157.929 Q2060.12 151.586 2063.6 147.952 Q2067.09 144.318 2073.16 144.318 Q2075.12 144.318 2077 144.735 Q2078.87 145.128 2080.63 145.938 Z" fill="#adb2b7" fill-rule="evenodd" fill-opacity="1" /><path clip-path="url(#clip510)" d="M 0 0 M2085.1 144.943 L2089.36 144.943 L2089.36 170.869 L2085.1 170.869 L2085.1 144.943 M2085.1 134.85 L2089.36 134.85 L2089.36 140.244 L2085.1 140.244 L2085.1 134.85 Z" fill="#adb2b7" fill-rule="evenodd" fill-opacity="1" /><path clip-path="url(#clip510)" d="M 0 0 M2115.38 155.221 L2115.38 170.869 L2111.12 170.869 L2111.12 155.359 Q2111.12 151.679 2109.68 149.85 Q2108.25 148.022 2105.38 148.022 Q2101.93 148.022 2099.94 150.221 Q2097.95 152.42 2097.95 156.216 L2097.95 170.869 L2093.66 170.869 L2093.66 144.943 L2097.95 144.943 L2097.95 148.971 Q2099.47 146.633 2101.54 145.475 Q2103.62 144.318 2106.33 144.318 Q2110.79 144.318 2113.09 147.096 Q2115.38 149.85 2115.38 155.221 Z" fill="#adb2b7" fill-rule="evenodd" fill-opacity="1" /><path clip-path="url(#clip510)" d="M 0 0 M2131.63 157.836 Q2126.47 157.836 2124.47 159.017 Q2122.48 160.197 2122.48 163.045 Q2122.48 165.313 2123.97 166.656 Q2125.47 167.975 2128.04 167.975 Q2131.58 167.975 2133.71 165.475 Q2135.86 162.952 2135.86 158.785 L2135.86 157.836 L2131.63 157.836 M2140.12 156.077 L2140.12 170.869 L2135.86 170.869 L2135.86 166.933 Q2134.41 169.295 2132.23 170.429 Q2130.05 171.54 2126.91 171.54 Q2122.92 171.54 2120.56 169.318 Q2118.22 167.072 2118.22 163.322 Q2118.22 158.947 2121.14 156.725 Q2124.08 154.503 2129.89 154.503 L2135.86 154.503 L2135.86 154.086 Q2135.86 151.147 2133.92 149.549 Q2132 147.929 2128.5 147.929 Q2126.28 147.929 2124.17 148.461 Q2122.07 148.994 2120.12 150.059 L2120.12 146.123 Q2122.46 145.221 2124.66 144.781 Q2126.86 144.318 2128.94 144.318 Q2134.57 144.318 2137.35 147.234 Q2140.12 150.151 2140.12 156.077 Z" fill="#adb2b7" fill-rule="evenodd" fill-opacity="1" /><path clip-path="url(#clip510)" d="M 0 0 M2148.8 137.582 L2148.8 144.943 L2157.58 144.943 L2157.58 148.253 L2148.8 148.253 L2148.8 162.327 Q2148.8 165.498 2149.66 166.401 Q2150.54 167.304 2153.2 167.304 L2157.58 167.304 L2157.58 170.869 L2153.2 170.869 Q2148.27 170.869 2146.4 169.04 Q2144.52 167.188 2144.52 162.327 L2144.52 148.253 L2141.4 148.253 L2141.4 144.943 L2144.52 144.943 L2144.52 137.582 L2148.8 137.582 Z" fill="#adb2b7" fill-rule="evenodd" fill-opacity="1" /><path clip-path="url(#clip510)" d="M 0 0 M2162.04 144.943 L2166.3 144.943 L2166.3 170.869 L2162.04 170.869 L2162.04 144.943 M2162.04 134.85 L2166.3 134.85 L2166.3 140.244 L2162.04 140.244 L2162.04 134.85 Z" fill="#adb2b7" fill-rule="evenodd" fill-opacity="1" /><path clip-path="url(#clip510)" d="M 0 0 M2180.82 147.929 Q2177.39 147.929 2175.4 150.614 Q2173.41 153.276 2173.41 157.929 Q2173.41 162.582 2175.38 165.267 Q2177.37 167.929 2180.82 167.929 Q2184.22 167.929 2186.21 165.244 Q2188.2 162.558 2188.2 157.929 Q2188.2 153.322 2186.21 150.637 Q2184.22 147.929 2180.82 147.929 M2180.82 144.318 Q2186.37 144.318 2189.54 147.929 Q2192.72 151.54 2192.72 157.929 Q2192.72 164.295 2189.54 167.929 Q2186.37 171.54 2180.82 171.54 Q2175.24 171.54 2172.07 167.929 Q2168.92 164.295 2168.92 157.929 Q2168.92 151.54 2172.07 147.929 Q2175.24 144.318 2180.82 144.318 Z" fill="#adb2b7" fill-rule="evenodd" fill-opacity="1" /><path clip-path="url(#clip510)" d="M 0 0 M2218.73 155.221 L2218.73 170.869 L2214.47 170.869 L2214.47 155.359 Q2214.47 151.679 2213.04 149.85 Q2211.6 148.022 2208.73 148.022 Q2205.28 148.022 2203.29 150.221 Q2201.3 152.42 2201.3 156.216 L2201.3 170.869 L2197.02 170.869 L2197.02 144.943 L2201.3 144.943 L2201.3 148.971 Q2202.83 146.633 2204.89 145.475 Q2206.97 144.318 2209.68 144.318 Q2214.15 144.318 2216.44 147.096 Q2218.73 149.85 2218.73 155.221 Z" fill="#adb2b7" fill-rule="evenodd" fill-opacity="1" /><polyline clip-path="url(#clip510)" style="stroke:#eca25c; stroke-width:4; stroke-opacity:1; fill:none" points="
  1706.48,214.069 1849.23,214.069 
  "/>
<path clip-path="url(#clip510)" d="M 0 0 M1873.02 196.789 L1877.74 196.789 L1885.01 226.001 L1892.25 196.789 L1897.51 196.789 L1904.78 226.001 L1912.02 196.789 L1916.77 196.789 L1908.09 231.349 L1902.21 231.349 L1894.92 201.349 L1887.55 231.349 L1881.68 231.349 L1873.02 196.789 Z" fill="#adb2b7" fill-rule="evenodd" fill-opacity="1" /><path clip-path="url(#clip510)" d="M 0 0 M1928.8 196.789 L1932.74 196.789 L1920.7 235.747 L1916.77 235.747 L1928.8 196.789 Z" fill="#adb2b7" fill-rule="evenodd" fill-opacity="1" /><path clip-path="url(#clip510)" d="M 0 0 M1947.25 208.409 Q1943.83 208.409 1941.84 211.094 Q1939.85 213.756 1939.85 218.409 Q1939.85 223.062 1941.81 225.747 Q1943.8 228.409 1947.25 228.409 Q1950.66 228.409 1952.65 225.724 Q1954.64 223.038 1954.64 218.409 Q1954.64 213.802 1952.65 211.117 Q1950.66 208.409 1947.25 208.409 M1947.25 204.798 Q1952.81 204.798 1955.98 208.409 Q1959.15 212.02 1959.15 218.409 Q1959.15 224.775 1955.98 228.409 Q1952.81 232.02 1947.25 232.02 Q1941.67 232.02 1938.5 228.409 Q1935.36 224.775 1935.36 218.409 Q1935.36 212.02 1938.5 208.409 Q1941.67 204.798 1947.25 204.798 Z" fill="#adb2b7" fill-rule="evenodd" fill-opacity="1" /><path clip-path="url(#clip510)" d="M 0 0 M1975.63 205.423 L1980.15 205.423 L1988.25 227.182 L1996.35 205.423 L2000.86 205.423 L1991.14 231.349 L1985.36 231.349 L1975.63 205.423 Z" fill="#adb2b7" fill-rule="evenodd" fill-opacity="1" /><path clip-path="url(#clip510)" d="M 0 0 M2017.11 218.316 Q2011.95 218.316 2009.96 219.497 Q2007.97 220.677 2007.97 223.525 Q2007.97 225.793 2009.45 227.136 Q2010.96 228.455 2013.53 228.455 Q2017.07 228.455 2019.2 225.955 Q2021.35 223.432 2021.35 219.265 L2021.35 218.316 L2017.11 218.316 M2025.61 216.557 L2025.61 231.349 L2021.35 231.349 L2021.35 227.413 Q2019.89 229.775 2017.72 230.909 Q2015.54 232.02 2012.39 232.02 Q2008.41 232.02 2006.05 229.798 Q2003.71 227.552 2003.71 223.802 Q2003.71 219.427 2006.63 217.205 Q2009.57 214.983 2015.38 214.983 L2021.35 214.983 L2021.35 214.566 Q2021.35 211.627 2019.41 210.029 Q2017.48 208.409 2013.99 208.409 Q2011.77 208.409 2009.66 208.941 Q2007.55 209.474 2005.61 210.539 L2005.61 206.603 Q2007.95 205.701 2010.15 205.261 Q2012.35 204.798 2014.43 204.798 Q2020.05 204.798 2022.83 207.714 Q2025.61 210.631 2025.61 216.557 Z" fill="#adb2b7" fill-rule="evenodd" fill-opacity="1" /><path clip-path="url(#clip510)" d="M 0 0 M2048.73 206.418 L2048.73 210.4 Q2046.93 209.404 2045.1 208.918 Q2043.29 208.409 2041.44 208.409 Q2037.3 208.409 2035.01 211.048 Q2032.72 213.664 2032.72 218.409 Q2032.72 223.154 2035.01 225.793 Q2037.3 228.409 2041.44 228.409 Q2043.29 228.409 2045.1 227.923 Q2046.93 227.413 2048.73 226.418 L2048.73 230.353 Q2046.95 231.187 2045.03 231.603 Q2043.13 232.02 2040.98 232.02 Q2035.12 232.02 2031.67 228.339 Q2028.23 224.659 2028.23 218.409 Q2028.23 212.066 2031.7 208.432 Q2035.19 204.798 2041.26 204.798 Q2043.23 204.798 2045.1 205.215 Q2046.98 205.608 2048.73 206.418 Z" fill="#adb2b7" fill-rule="evenodd" fill-opacity="1" /><path clip-path="url(#clip510)" d="M 0 0 M2071.86 206.418 L2071.86 210.4 Q2070.05 209.404 2068.23 208.918 Q2066.42 208.409 2064.57 208.409 Q2060.42 208.409 2058.13 211.048 Q2055.84 213.664 2055.84 218.409 Q2055.84 223.154 2058.13 225.793 Q2060.42 228.409 2064.57 228.409 Q2066.42 228.409 2068.23 227.923 Q2070.05 227.413 2071.86 226.418 L2071.86 230.353 Q2070.08 231.187 2068.16 231.603 Q2066.26 232.02 2064.1 232.02 Q2058.25 232.02 2054.8 228.339 Q2051.35 224.659 2051.35 218.409 Q2051.35 212.066 2054.82 208.432 Q2058.32 204.798 2064.38 204.798 Q2066.35 204.798 2068.23 205.215 Q2070.1 205.608 2071.86 206.418 Z" fill="#adb2b7" fill-rule="evenodd" fill-opacity="1" /><path clip-path="url(#clip510)" d="M 0 0 M2076.33 205.423 L2080.59 205.423 L2080.59 231.349 L2076.33 231.349 L2076.33 205.423 M2076.33 195.33 L2080.59 195.33 L2080.59 200.724 L2076.33 200.724 L2076.33 195.33 Z" fill="#adb2b7" fill-rule="evenodd" fill-opacity="1" /><path clip-path="url(#clip510)" d="M 0 0 M2106.6 215.701 L2106.6 231.349 L2102.35 231.349 L2102.35 215.839 Q2102.35 212.159 2100.91 210.33 Q2099.47 208.502 2096.6 208.502 Q2093.16 208.502 2091.16 210.701 Q2089.17 212.9 2089.17 216.696 L2089.17 231.349 L2084.89 231.349 L2084.89 205.423 L2089.17 205.423 L2089.17 209.451 Q2090.7 207.113 2092.76 205.955 Q2094.85 204.798 2097.55 204.798 Q2102.02 204.798 2104.31 207.576 Q2106.6 210.33 2106.6 215.701 Z" fill="#adb2b7" fill-rule="evenodd" fill-opacity="1" /><path clip-path="url(#clip510)" d="M 0 0 M2122.85 218.316 Q2117.69 218.316 2115.7 219.497 Q2113.71 220.677 2113.71 223.525 Q2113.71 225.793 2115.19 227.136 Q2116.7 228.455 2119.27 228.455 Q2122.81 228.455 2124.94 225.955 Q2127.09 223.432 2127.09 219.265 L2127.09 218.316 L2122.85 218.316 M2131.35 216.557 L2131.35 231.349 L2127.09 231.349 L2127.09 227.413 Q2125.63 229.775 2123.46 230.909 Q2121.28 232.02 2118.13 232.02 Q2114.15 232.02 2111.79 229.798 Q2109.45 227.552 2109.45 223.802 Q2109.45 219.427 2112.37 217.205 Q2115.31 214.983 2121.12 214.983 L2127.09 214.983 L2127.09 214.566 Q2127.09 211.627 2125.15 210.029 Q2123.22 208.409 2119.73 208.409 Q2117.51 208.409 2115.4 208.941 Q2113.29 209.474 2111.35 210.539 L2111.35 206.603 Q2113.69 205.701 2115.89 205.261 Q2118.09 204.798 2120.17 204.798 Q2125.79 204.798 2128.57 207.714 Q2131.35 210.631 2131.35 216.557 Z" fill="#adb2b7" fill-rule="evenodd" fill-opacity="1" /><path clip-path="url(#clip510)" d="M 0 0 M2140.03 198.062 L2140.03 205.423 L2148.8 205.423 L2148.8 208.733 L2140.03 208.733 L2140.03 222.807 Q2140.03 225.978 2140.89 226.881 Q2141.77 227.784 2144.43 227.784 L2148.8 227.784 L2148.8 231.349 L2144.43 231.349 Q2139.5 231.349 2137.62 229.52 Q2135.75 227.668 2135.75 222.807 L2135.75 208.733 L2132.62 208.733 L2132.62 205.423 L2135.75 205.423 L2135.75 198.062 L2140.03 198.062 Z" fill="#adb2b7" fill-rule="evenodd" fill-opacity="1" /><path clip-path="url(#clip510)" d="M 0 0 M2153.27 205.423 L2157.53 205.423 L2157.53 231.349 L2153.27 231.349 L2153.27 205.423 M2153.27 195.33 L2157.53 195.33 L2157.53 200.724 L2153.27 200.724 L2153.27 195.33 Z" fill="#adb2b7" fill-rule="evenodd" fill-opacity="1" /><path clip-path="url(#clip510)" d="M 0 0 M2172.04 208.409 Q2168.62 208.409 2166.63 211.094 Q2164.64 213.756 2164.64 218.409 Q2164.64 223.062 2166.6 225.747 Q2168.59 228.409 2172.04 228.409 Q2175.45 228.409 2177.44 225.724 Q2179.43 223.038 2179.43 218.409 Q2179.43 213.802 2177.44 211.117 Q2175.45 208.409 2172.04 208.409 M2172.04 204.798 Q2177.6 204.798 2180.77 208.409 Q2183.94 212.02 2183.94 218.409 Q2183.94 224.775 2180.77 228.409 Q2177.6 232.02 2172.04 232.02 Q2166.47 232.02 2163.29 228.409 Q2160.15 224.775 2160.15 218.409 Q2160.15 212.02 2163.29 208.409 Q2166.47 204.798 2172.04 204.798 Z" fill="#adb2b7" fill-rule="evenodd" fill-opacity="1" /><path clip-path="url(#clip510)" d="M 0 0 M2209.96 215.701 L2209.96 231.349 L2205.7 231.349 L2205.7 215.839 Q2205.7 212.159 2204.27 210.33 Q2202.83 208.502 2199.96 208.502 Q2196.51 208.502 2194.52 210.701 Q2192.53 212.9 2192.53 216.696 L2192.53 231.349 L2188.25 231.349 L2188.25 205.423 L2192.53 205.423 L2192.53 209.451 Q2194.06 207.113 2196.12 205.955 Q2198.2 204.798 2200.91 204.798 Q2205.38 204.798 2207.67 207.576 Q2209.96 210.33 2209.96 215.701 Z" fill="#adb2b7" fill-rule="evenodd" fill-opacity="1" /></svg>
